<svg width="260" height="443" viewBox="0 0 260 443" fill="none" xmlns="http://www.w3.org/2000/svg">
<path d="M0.750732 324.153H259.222V432.669C259.222 435.144 258.239 437.517 256.489 439.267C254.739 441.017 252.366 442 249.891 442H10.0818C7.60706 442 5.23366 441.017 3.48375 439.267C1.73383 437.517 0.750732 435.144 0.750732 432.669V324.153Z" fill="#263238" stroke="#263238" stroke-linecap="round" stroke-linejoin="round"/>
<path d="M10.0815 1H249.89C252.365 1 254.739 1.98309 256.489 3.73301C258.238 5.48292 259.222 7.85635 259.222 10.3311V324.195H0.750386V10.4159C0.739181 9.18343 0.972265 7.96093 1.43618 6.81902C1.90009 5.67711 2.58563 4.63841 3.45322 3.76294C4.32081 2.88746 5.35325 2.19254 6.49092 1.71831C7.62858 1.24409 8.84892 0.999949 10.0815 1Z" fill="white" stroke="#263238" stroke-linecap="round" stroke-linejoin="round"/>
<path d="M17.5891 258.326C17.5891 258.326 3.88937 280.509 0.750732 283.329V311.556L48.5089 284.898L53.5986 250.076C53.5986 250.076 25.2873 249.398 17.5891 258.326Z" fill="white"/>
<path opacity="0.4" d="M17.5891 258.326C17.5891 258.326 3.88937 280.509 0.750732 283.329V311.556L48.5089 284.898L53.5986 250.076C53.5986 250.076 25.2873 249.398 17.5891 258.326Z" fill="#14CC97"/>
<path d="M17.5891 258.326C17.5891 258.326 3.88937 280.509 0.750732 283.329V311.556L48.5089 284.898L53.5986 250.076C53.5986 250.076 25.2873 249.398 17.5891 258.326Z" stroke="#263238" stroke-linecap="round" stroke-linejoin="round"/>
<path d="M68.8462 169.469C46.0274 180.072 32.561 221.405 21.8515 251.307C21.8515 251.307 16.8678 254.657 17.61 258.241C17.61 258.241 21.6394 255.018 33.4941 256.12C45.3488 257.223 58.0942 287.316 58.0942 287.316L89.7351 251.264" fill="#14CC97"/>
<path opacity="0.15" d="M68.8462 169.469C46.0274 180.072 32.561 221.405 21.8515 251.307C21.8515 251.307 16.8678 254.657 17.61 258.241C17.61 258.241 21.6394 255.018 33.4941 256.12C45.3488 257.223 58.0942 287.316 58.0942 287.316L89.7351 251.264" fill="black"/>
<path d="M68.8462 169.469C46.0274 180.072 32.561 221.405 21.8515 251.307C21.8515 251.307 16.8678 254.657 17.61 258.241C17.61 258.241 21.6394 255.018 33.4941 256.12C45.3488 257.223 58.0942 287.316 58.0942 287.316L89.7351 251.264" stroke="#263238" stroke-linecap="round" stroke-linejoin="round"/>
<path d="M65.6229 174.77C66.406 172.842 67.4944 171.051 68.8463 169.469C78.029 160.286 146.188 148.262 146.188 148.262C161.876 150.226 177.323 153.778 192.292 158.865C218.844 167.539 237.209 171.589 242.829 191.503C248.449 211.416 237.209 261.486 237.209 261.486L232.098 324.259H55.5919C55.5919 324.259 52.4533 263.31 50.2902 254.021C49.039 248.613 52.4109 224.055 57.2673 202.658" fill="#14CC97"/>
<path opacity="0.15" d="M241.747 236.525C239.627 250.31 237.209 261.38 237.209 261.38L235.088 288.589C227.263 298.556 212.227 315.712 195.092 324.153H101.548L68.189 289.946L54.3196 302.818C53.1956 284.283 51.5203 259.556 50.2054 253.915C49.2087 249.674 51.1385 233.153 54.4468 215.848L137.26 313.91L197.276 275.101L230.847 226.049L241.747 236.525Z" fill="black"/>
<path d="M65.6229 174.77C66.406 172.842 67.4944 171.051 68.8463 169.469C78.029 160.286 146.188 148.262 146.188 148.262C161.876 150.226 177.323 153.778 192.292 158.865C218.844 167.539 237.209 171.589 242.829 191.503C248.449 211.416 237.209 261.486 237.209 261.486L232.098 324.259H55.5919C55.5919 324.259 52.4533 263.31 50.2902 254.021C49.039 248.613 52.4109 224.055 57.2673 202.658" stroke="#263238" stroke-linecap="round" stroke-linejoin="round"/>
<path d="M117.41 122.113C117.41 122.113 128.735 146.586 117.41 156.808C117.41 156.808 121.652 174.134 129.138 178.227C136.624 182.32 174.966 156.278 174.966 156.278C174.966 156.278 166.229 130.278 170.597 122.113H117.41Z" fill="white" stroke="#263238" stroke-linecap="round" stroke-linejoin="round"/>
<path d="M182.177 84.7678C182.177 84.7678 186.418 80.1022 188.539 81.6291C189.964 82.7883 191.041 84.3187 191.651 86.0515C192.261 87.7842 192.38 89.6517 191.995 91.448C190.85 95.4137 185.867 102.285 185.485 106.293C185.103 110.301 182.516 114.776 179.695 112.21C176.875 109.644 182.177 84.7678 182.177 84.7678Z" fill="white" stroke="#263238" stroke-linecap="round" stroke-linejoin="round"/>
<path d="M105.831 84.7678C105.831 84.7678 101.59 80.1022 99.4693 81.6291C98.048 82.7914 96.9738 84.3221 96.3642 86.0538C95.7545 87.7856 95.6329 89.6517 96.0126 91.448C97.1789 95.4137 102.141 102.285 102.523 106.293C102.905 110.301 105.492 114.776 108.313 112.21C111.133 109.644 105.831 84.7678 105.831 84.7678Z" fill="white" stroke="#263238" stroke-linecap="round" stroke-linejoin="round"/>
<path d="M143.092 30.9656C196.979 30.9656 182.389 96.0923 172.485 119.123C169.007 127.224 151.829 138.549 143.092 138.549C134.991 138.549 118.768 127.945 115.523 120.29C105.449 97.1315 91.7498 30.9656 143.092 30.9656Z" fill="white" stroke="#263238" stroke-linecap="round" stroke-linejoin="round"/>
<path d="M152.232 75.267C152.232 75.267 166.271 70.9195 170.597 79.5084" stroke="#263238" stroke-linecap="round" stroke-linejoin="round"/>
<path d="M162.624 87.0581C162.624 88.7123 161.775 90.0483 160.736 90.0483C159.697 90.0483 158.87 88.7123 158.87 87.0581C158.87 85.404 159.697 84.0468 160.736 84.0468C161.775 84.0468 162.624 85.404 162.624 87.0581Z" fill="#263238"/>
<path d="M135.775 75.267C135.775 75.267 121.758 70.9195 117.41 79.5084" stroke="#263238" stroke-linecap="round" stroke-linejoin="round"/>
<path d="M125.448 87.0581C125.448 88.7123 126.296 90.0483 127.335 90.0483C128.374 90.0483 129.201 88.7123 129.201 87.0581C129.201 85.404 128.374 84.0468 127.335 84.0468C126.296 84.0468 125.448 85.404 125.448 87.0581Z" fill="#263238"/>
<path d="M137.684 99.3582C135.563 101.479 142.689 105.105 144.046 105.105C145.403 105.105 150.748 102.285 150.748 100.631" fill="white"/>
<path d="M137.684 99.3582C135.563 101.479 142.689 105.105 144.046 105.105C145.403 105.105 150.748 102.285 150.748 100.631" stroke="#263238" stroke-linecap="round" stroke-linejoin="round"/>
<path d="M109.161 91.448C109.161 91.448 112.342 105.869 113.742 107.141C115.141 108.414 120.252 112.379 120.252 112.379C120.252 112.379 129.689 107.65 131.598 107.523C133.507 107.396 139.635 108.668 144.619 108.668C149.603 108.668 153.102 106.547 155.965 108.032C158.828 109.516 166.293 113.779 166.293 113.779C166.293 113.779 173.694 107.417 174.076 107.141C174.457 106.865 178.656 91.448 178.656 91.448L180.204 92.7628C180.204 92.7628 178.529 128.688 175.73 132.526C172.93 136.364 154.523 147.371 143.919 147.371C133.316 147.371 112.109 136.258 110.985 132.823C109.861 129.387 107.761 94.1413 109.161 91.448Z" fill="#263238"/>
<path d="M128.29 115.497C128.29 115.497 131.153 117.978 132.679 117.617C136.18 116.986 139.726 116.645 143.283 116.599C146.888 116.599 150.663 117.533 153.547 117.681C155.361 117.741 157.163 117.37 158.806 116.599" stroke="white" stroke-linecap="round" stroke-linejoin="round"/>
<path d="M165.402 49.3097C151.895 53.6143 137.385 53.6143 123.878 49.3097C123.878 49.3097 116.625 48.8855 113.741 52.5331C110.857 56.1807 113.741 67.3781 114.505 72.0648C115.268 76.7516 108.143 79.8478 109.16 91.448L108.206 95.8379C108.206 95.8379 100.36 75.9033 102.268 59.7859C104.177 43.6686 112.872 38.3456 112.872 38.3456C112.872 38.3456 117.495 24.4762 144.682 24.5823C173.906 24.6883 176.853 40.5088 176.853 40.5088C176.853 40.5088 195.028 54.2297 180.374 97.28L178.826 91.4056C179.587 85.6964 178.278 79.9032 175.136 75.0762C172.591 71.365 176.662 60.2313 175.708 54.4206C174.754 48.6098 165.402 49.3097 165.402 49.3097Z" fill="#263238"/>
<path d="M25.16 275.504C25.16 275.504 28.85 253.427 32.0947 250.585C40.5775 243.227 40.2594 240.173 45.5824 237.352C47.5971 236.176 49.2973 234.53 50.5381 232.554C51.7789 230.579 52.5233 228.332 52.7079 226.006C52.7079 226.006 61.8482 228.339 51.1598 241.827C48.9275 244.722 47.1339 247.931 45.8369 251.349C44.8401 254 52.0717 256.163 61.8906 253.682C74.2331 250.585 83.0976 267.827 68.2527 277.009C59.8713 282.357 52.2219 288.773 45.4976 296.096L27.8957 324.153H0.750732V294.293C0.750732 294.293 19.0524 284.729 25.16 275.504Z" fill="white" stroke="#263238" stroke-linecap="round" stroke-linejoin="round"/>
<path d="M58.9639 280.509C58.9639 280.509 66.2591 275.419 70.967 275.101L58.9639 280.509Z" fill="white"/>
<path d="M58.9639 280.509C58.9639 280.509 66.2591 275.419 70.967 275.101" stroke="#263238" stroke-linecap="round" stroke-linejoin="round"/>
<path d="M58.9639 269.142C61.3352 268.088 63.5651 266.741 65.6017 265.133C67.2558 263.394 72.8969 257.032 72.8969 257.032" fill="white"/>
<path d="M58.9639 269.142C61.3352 268.088 63.5651 266.741 65.6017 265.133C67.2558 263.394 72.8969 257.032 72.8969 257.032" stroke="#263238" stroke-linecap="round" stroke-linejoin="round"/>
<path d="M55.4646 178.63C51.9231 177.506 41.574 178.63 38.902 177.633C36.2299 176.637 32.8792 179.181 34.9362 183.995C36.9933 188.809 51.5413 188.979 51.5413 188.979L55.4646 178.63Z" fill="white" stroke="#263238" stroke-linecap="round" stroke-linejoin="round"/>
<path d="M42.0618 182.659C42.0618 182.659 30.8645 181.217 27.8955 182.193C26.8776 182.49 24.3752 189.615 25.5203 196.529C26.6655 203.442 38.5839 204.078 38.5839 204.078L42.0618 182.659Z" fill="white" stroke="#263238" stroke-linecap="round" stroke-linejoin="round"/>
<path d="M28.2986 189.021C28.8135 190.032 29.6402 190.85 30.6562 191.354C31.6721 191.858 32.8234 192.022 33.9396 191.821" stroke="#263238" stroke-linecap="round" stroke-linejoin="round"/>
<path d="M30.8646 193.199C30.8646 193.199 21.6607 197.844 20.8973 201.788C20.1338 205.733 22.8271 211.904 22.8271 211.904L33.9396 211.246L30.8646 193.199Z" fill="white" stroke="#263238" stroke-linecap="round" stroke-linejoin="round"/>
<path d="M26.4534 208.235C24.3234 210.287 22.2991 212.446 20.3882 214.703C19.0946 216.506 25.0962 226.982 26.4534 228.509C27.8107 230.036 39.7078 230.799 39.7078 230.799C39.7078 230.799 32.5186 211.48 26.4534 208.235Z" fill="white" stroke="#263238" stroke-linecap="round" stroke-linejoin="round"/>
<path d="M28.2986 225.582C28.2986 225.582 34.2577 224.607 33.3246 219.517" stroke="#263238" stroke-linecap="round" stroke-linejoin="round"/>
<path d="M30.0163 222.486C36.3784 228.085 46.791 236.928 52.3685 239.558C59.6637 243.014 86.9783 298.937 114.569 324.11H192.356C192.356 324.11 209.937 300.422 216.384 286.574C222.831 272.726 233.604 234.511 233.604 234.511L203.914 225.731L174.733 259.386L154.65 291.557C154.65 291.557 83.1611 234.129 74.7419 216.315C66.3227 198.501 59.7061 178.63 55.4647 178.63C50.5235 178.63 51.7959 182.49 42.0407 182.659C37.4812 182.659 37.0994 188.11 33.1337 191.566C29.168 195.023 26.1778 193.348 26.7716 204.481C27.1533 211.883 20.6852 211.331 24.6509 217.333" fill="white"/>
<path d="M30.0163 222.486C36.3784 228.085 46.791 236.928 52.3685 239.558C59.6637 243.014 86.9783 298.937 114.569 324.11H192.356C192.356 324.11 209.937 300.422 216.384 286.574C222.831 272.726 233.604 234.511 233.604 234.511L203.914 225.731L174.733 259.386L154.65 291.557C154.65 291.557 83.1611 234.129 74.7419 216.315C66.3227 198.501 59.7061 178.63 55.4647 178.63C50.5235 178.63 51.7959 182.49 42.0407 182.659C37.4812 182.659 37.0994 188.11 33.1337 191.566C29.168 195.023 26.1778 193.348 26.7716 204.481C27.1533 211.883 20.6852 211.331 24.6509 217.333" stroke="#263238" stroke-linecap="round" stroke-linejoin="round"/>
<path d="M199.46 178.651C191.295 183.317 180.968 222.613 182.049 231.287C183.131 239.961 170.894 257.308 172.93 261.889C172.93 261.889 189.769 260.362 199.46 264.964C209.152 269.566 217.316 282.82 215.79 289.946C215.79 289.946 220.879 289.946 220.879 287.401C220.879 284.856 239.754 259.832 247.409 241.997C255.065 224.162 256.719 186.371 231.631 174.898" fill="#14CC97"/>
<path d="M199.46 178.651C191.295 183.317 180.968 222.613 182.049 231.287C183.131 239.961 170.894 257.308 172.93 261.889C172.93 261.889 189.769 260.362 199.46 264.964C209.152 269.566 217.316 282.82 215.79 289.946C215.79 289.946 220.879 289.946 220.879 287.401C220.879 284.856 239.753 259.832 247.409 241.997C255.065 224.162 256.719 186.371 231.631 174.898" stroke="#263238" stroke-linecap="round" stroke-linejoin="round"/>
<path d="M51.2231 244.16C51.2231 244.16 54.4254 234.468 67.0436 224.776C75.1871 218.52 78.7711 220.175 78.7711 220.175L85.4089 229.612L84.603 231.033C80.7269 232.405 77.1803 234.572 74.1904 237.395C69.0068 241.512 64.7443 246.67 61.6782 252.537H58.9637L51.2231 244.16Z" fill="#757575" stroke="#263238" stroke-linecap="round" stroke-linejoin="round"/>
<path d="M80.2769 230.969C80.2811 232.816 79.7369 234.623 78.7132 236.161C77.6895 237.699 76.2324 238.898 74.5265 239.607C72.8206 240.316 70.9427 240.502 69.1306 240.143C67.3186 239.784 65.654 238.894 64.3478 237.588C63.0415 236.282 62.1524 234.617 61.793 232.805C61.4336 230.993 61.6202 229.115 62.3291 227.41C63.038 225.704 64.2372 224.247 65.775 223.223C67.3127 222.199 69.1197 221.655 70.967 221.659C73.4344 221.665 75.7992 222.647 77.5439 224.392C79.2886 226.137 80.2713 228.502 80.2769 230.969Z" fill="white" stroke="#263238" stroke-linecap="round" stroke-linejoin="round"/>
<path d="M174.966 203.972C174.966 203.972 173.312 226.452 178.889 235.656" stroke="#263238" stroke-linecap="round" stroke-linejoin="round"/>
<path d="M114.569 183.232C114.569 183.232 125.045 190.782 147.206 178.651" stroke="#263238" stroke-linecap="round" stroke-linejoin="round"/>
<path d="M65.9197 296.859C65.9197 296.859 86.3632 319.572 95.6095 324.153" stroke="#263238" stroke-linecap="round" stroke-linejoin="round"/>
<path d="M122.076 344.024H23.2085C22.1793 344.024 21.1921 344.432 20.4643 345.16C19.7365 345.888 19.3276 346.875 19.3276 347.904C19.3276 348.934 19.7365 349.921 20.4643 350.649C21.1921 351.376 22.1793 351.785 23.2085 351.785H122.076C123.105 351.785 124.092 351.376 124.82 350.649C125.548 349.921 125.957 348.934 125.957 347.904C125.957 346.875 125.548 345.888 124.82 345.16C124.092 344.432 123.105 344.024 122.076 344.024Z" fill="white"/>
<path d="M238.46 375.898H21.5333C20.9568 375.898 20.4039 376.127 19.9963 376.534C19.5886 376.942 19.3596 377.495 19.3596 378.071C19.3596 378.648 19.5886 379.201 19.9963 379.608C20.4039 380.016 20.9568 380.245 21.5333 380.245H238.481C239.058 380.245 239.611 380.016 240.018 379.608C240.426 379.201 240.655 378.648 240.655 378.071C240.655 377.495 240.426 376.942 240.018 376.534C239.611 376.127 239.058 375.898 238.481 375.898H238.46Z" fill="white"/>
<path d="M198.506 386.713H21.5333C20.9568 386.713 20.4039 386.942 19.9963 387.35C19.5886 387.758 19.3596 388.31 19.3596 388.887C19.3596 389.463 19.5886 390.016 19.9963 390.424C20.4039 390.832 20.9568 391.061 21.5333 391.061H198.527C199.104 391.061 199.657 390.832 200.064 390.424C200.472 390.016 200.701 389.463 200.701 388.887C200.701 388.31 200.472 387.758 200.064 387.35C199.657 386.942 199.104 386.713 198.527 386.713H198.506Z" fill="white"/>
<path d="M78.6226 358.741H21.5333C20.9568 358.741 20.4039 358.97 19.9963 359.378C19.5886 359.786 19.3596 360.338 19.3596 360.915C19.3596 361.491 19.5886 362.044 19.9963 362.452C20.4039 362.86 20.9568 363.089 21.5333 363.089H78.6226C79.1991 363.089 79.752 362.86 80.1597 362.452C80.5673 362.044 80.7964 361.491 80.7964 360.915C80.7964 360.338 80.5673 359.786 80.1597 359.378C79.752 358.97 79.1991 358.741 78.6226 358.741Z" fill="white"/>
<path d="M238.375 410.656H233.158C231.917 410.656 230.91 411.662 230.91 412.904V418.121C230.91 419.362 231.917 420.369 233.158 420.369H238.375C239.617 420.369 240.623 419.362 240.623 418.121V412.904C240.623 411.662 239.617 410.656 238.375 410.656Z" fill="white"/>
<path d="M218.398 410.656H213.181C211.94 410.656 210.933 411.662 210.933 412.904V418.121C210.933 419.362 211.94 420.369 213.181 420.369H218.398C219.64 420.369 220.646 419.362 220.646 418.121V412.904C220.646 411.662 219.64 410.656 218.398 410.656Z" fill="white"/>
<path d="M198.421 410.656H193.204C191.963 410.656 190.956 411.662 190.956 412.904V418.121C190.956 419.362 191.963 420.369 193.204 420.369H198.421C199.663 420.369 200.669 419.362 200.669 418.121V412.904C200.669 411.662 199.663 410.656 198.421 410.656Z" fill="white"/>
</svg>
