<svg width="261" height="443" viewBox="0 0 261 443" fill="none" xmlns="http://www.w3.org/2000/svg">
<path d="M1.22241 324.153H259.694V432.669C259.694 435.144 258.711 437.517 256.961 439.267C255.211 441.017 252.837 442 250.363 442H10.5535C8.07876 442 5.70534 441.017 3.95542 439.267C2.2055 437.517 1.22241 435.144 1.22241 432.669V324.153Z" fill="#263238" stroke="#263238" stroke-linecap="round" stroke-linejoin="round"/>
<path d="M122.527 344.024H23.6807C22.6514 344.024 21.6643 344.432 20.9365 345.16C20.2087 345.888 19.7998 346.875 19.7998 347.904C19.7998 348.934 20.2087 349.921 20.9365 350.649C21.6643 351.376 22.6514 351.785 23.6807 351.785H122.527C123.556 351.785 124.543 351.376 125.271 350.649C125.999 349.921 126.407 348.934 126.407 347.904C126.407 346.875 125.999 345.888 125.271 345.16C124.543 344.432 123.556 344.024 122.527 344.024Z" fill="white"/>
<path d="M238.932 375.898H21.9838C21.4073 375.898 20.8544 376.127 20.4467 376.534C20.0391 376.942 19.8101 377.495 19.8101 378.071C19.8101 378.648 20.0391 379.201 20.4467 379.608C20.8544 380.016 21.4073 380.245 21.9838 380.245H238.932C239.508 380.245 240.061 380.016 240.469 379.608C240.876 379.201 241.105 378.648 241.105 378.071C241.105 377.495 240.876 376.942 240.469 376.534C240.061 376.127 239.508 375.898 238.932 375.898Z" fill="white"/>
<path d="M198.978 386.713H21.9838C21.4073 386.713 20.8544 386.942 20.4467 387.35C20.0391 387.758 19.8101 388.31 19.8101 388.887C19.8101 389.463 20.0391 390.016 20.4467 390.424C20.8544 390.832 21.4073 391.061 21.9838 391.061H198.978C199.554 391.061 200.107 390.832 200.515 390.424C200.922 390.016 201.151 389.463 201.151 388.887C201.151 388.31 200.922 387.758 200.515 387.35C200.107 386.942 199.554 386.713 198.978 386.713Z" fill="white"/>
<path d="M79.0943 358.741H21.9838C21.4073 358.741 20.8544 358.97 20.4467 359.378C20.0391 359.786 19.8101 360.338 19.8101 360.915C19.8101 361.491 20.0391 362.044 20.4467 362.452C20.8544 362.86 21.4073 363.089 21.9838 363.089H79.0943C79.6708 363.089 80.2237 362.86 80.6314 362.452C81.039 362.044 81.268 361.491 81.268 360.915C81.268 360.338 81.039 359.786 80.6314 359.378C80.2237 358.97 79.6708 358.741 79.0943 358.741Z" fill="white"/>
<path d="M238.847 410.656H233.63C232.388 410.656 231.382 411.662 231.382 412.904V418.121C231.382 419.362 232.388 420.369 233.63 420.369H238.847C240.088 420.369 241.095 419.362 241.095 418.121V412.904C241.095 411.662 240.088 410.656 238.847 410.656Z" fill="white"/>
<path d="M218.87 410.656H213.653C212.411 410.656 211.405 411.662 211.405 412.904V418.121C211.405 419.362 212.411 420.369 213.653 420.369H218.87C220.111 420.369 221.118 419.362 221.118 418.121V412.904C221.118 411.662 220.111 410.656 218.87 410.656Z" fill="white"/>
<path d="M198.893 410.656H193.676C192.435 410.656 191.428 411.662 191.428 412.904V418.121C191.428 419.362 192.435 420.369 193.676 420.369H198.893C200.135 420.369 201.141 419.362 201.141 418.121V412.904C201.141 411.662 200.135 410.656 198.893 410.656Z" fill="white"/>
<path d="M10.5532 1H250.362C252.837 1 255.21 1.98309 256.96 3.73301C258.71 5.48292 259.693 7.85635 259.693 10.3311V324.195H1.22207V10.4159C1.21086 9.18343 1.44394 7.96093 1.90786 6.81902C2.37177 5.67711 3.05732 4.63841 3.92491 3.76294C4.7925 2.88746 5.82495 2.19254 6.96261 1.71831C8.10028 1.24409 9.32063 0.999949 10.5532 1Z" fill="white" stroke="#263238" stroke-linecap="round" stroke-linejoin="round"/>
<path d="M167.676 101.373C169.479 132.059 170.857 149.364 174.038 174.898C177.219 200.431 175.629 228.106 136.099 239.155C96.5691 250.204 53.1159 221.786 51.5253 203.591C49.9348 185.395 64.6737 141.963 61.0685 107.374C57.4633 72.7858 88.9981 46.7011 114.341 48.2917C139.683 49.8822 166.51 80.9293 167.676 101.373Z" fill="#14CC97" stroke="#263238" stroke-linecap="round" stroke-linejoin="round"/>
<path d="M145.96 145.505C145.96 145.505 143.67 177.061 153.913 198.162" stroke="#263238" stroke-linecap="round" stroke-linejoin="round"/>
<path d="M74.2593 132.208C74.2593 132.208 80.3457 163.806 67.5579 195.553" stroke="#263238" stroke-linecap="round" stroke-linejoin="round"/>
<path d="M89.2736 158.017C89.9594 173.272 88.9566 188.556 86.2834 203.591" stroke="#263238" stroke-linecap="round" stroke-linejoin="round"/>
<path d="M153.913 119.441C153.913 119.441 155.482 141.178 160.805 150.382" stroke="#263238" stroke-linecap="round" stroke-linejoin="round"/>
<path d="M258.569 307.314C256.408 303.471 253.725 299.945 250.595 296.838C243.088 290.115 213.844 209.507 198.235 198.14L184.196 271.262C187.759 277.624 198.829 292.215 198.235 295.375C197.642 298.534 204.343 303.264 204.343 303.264C201.183 308.417 207.524 324.237 207.524 324.237H258.569V307.314Z" fill="#999999"/>
<path opacity="0.15" d="M252.716 324.153H207.524C207.524 324.153 201.162 308.332 204.343 303.179C204.343 303.179 197.663 298.45 198.235 295.29C198.808 292.13 187.717 277.497 184.196 271.262L191.173 234.913L195.224 230.566C195.224 230.566 198.956 240.003 198.257 245.75C200.645 243.468 202.274 240.507 202.922 237.267C202.922 237.267 216.643 270.308 213.271 287.719C213.271 287.719 234.69 283.329 248.835 294.632C248.835 294.632 234.457 291.706 231.318 294.632C231.318 294.59 253.713 295.014 252.716 324.153Z" fill="black"/>
<path d="M258.569 307.314C256.408 303.471 253.725 299.945 250.595 296.838C243.088 290.115 213.844 209.507 198.235 198.14L184.196 271.262C187.759 277.624 198.829 292.215 198.235 295.375C197.642 298.534 204.343 303.264 204.343 303.264C201.183 308.417 207.524 324.237 207.524 324.237H258.569V307.314Z" stroke="#263238" stroke-linecap="round" stroke-linejoin="round"/>
<path d="M163.117 185.798C163.117 185.798 131.858 203.591 117.67 203.591C103.483 203.591 63.8467 185.416 63.8467 185.416C76.3588 184.229 92.1581 178.333 95.1058 171.632C96.6539 168.132 95.636 156.893 94.3636 146.925C93.176 137.743 91.7339 129.663 91.7339 129.663L138.856 136.025C137.541 143.249 136.642 150.542 136.163 157.868C135.846 162.312 136.009 166.777 136.65 171.186C138.941 183.105 163.117 185.798 163.117 185.798Z" fill="white" stroke="#263238" stroke-linecap="round" stroke-linejoin="round"/>
<path d="M204.301 206.751C202.816 195.702 178.555 188.979 178.555 188.979L168.27 182.193C168.27 182.193 133.066 199.455 119.176 200.367C105.285 201.279 63.8678 182.193 63.8678 182.193L54.6639 188.915C54.6639 188.915 30.4031 191.354 23.7865 200.41C17.1699 209.465 49.2349 324.089 49.2349 324.089H178.598C182.407 308.197 187.368 292.604 193.443 277.434C199.805 262.249 188.035 251.328 197.005 224.416" fill="#999999"/>
<path opacity="0.15" d="M193.379 277.497C187.304 292.668 182.343 308.261 178.534 324.153H49.1714C49.1714 324.153 40.9643 294.76 33.7327 264.561L54.2399 226.049C54.2399 226.049 66.031 232.411 64.8434 238.073C64.8434 238.073 74.8531 275.27 89.189 277.815C103.525 280.36 120.278 268.357 143.352 272.471C165.534 276.437 185.766 279.257 195.139 264.2C195.656 268.71 195.052 273.277 193.379 277.497Z" fill="black"/>
<path d="M204.301 206.751C202.816 195.702 178.555 188.979 178.555 188.979L168.27 182.193C168.27 182.193 133.066 199.455 119.176 200.367C105.285 201.279 63.8678 182.193 63.8678 182.193L54.6639 188.915C54.6639 188.915 30.4031 191.354 23.7865 200.41C17.1699 209.465 49.2349 324.089 49.2349 324.089H178.598C182.407 308.197 187.368 292.604 193.443 277.434C199.805 262.249 188.035 251.328 197.005 224.416" stroke="#263238" stroke-linecap="round" stroke-linejoin="round"/>
<path d="M159.49 166.627C162.241 176.531 165.641 186.244 169.669 195.702C176.315 210.709 178.173 227.4 174.992 243.502C174.992 243.502 181.842 245.623 182.224 236.249C182.606 226.876 184.875 215.933 179.87 200.473C179.87 200.473 188.162 212.646 186.232 232.432C189.092 219.972 188.356 206.955 184.111 194.896C177.092 173.964 175.777 173.562 171.493 153.415" fill="#14CC97"/>
<path d="M159.49 166.627C162.241 176.531 165.641 186.244 169.669 195.702C176.315 210.709 178.173 227.4 174.992 243.502C174.992 243.502 181.842 245.623 182.224 236.249C182.606 226.876 184.875 215.933 179.87 200.473C179.87 200.473 188.162 212.646 186.232 232.432C189.092 219.972 188.356 206.955 184.111 194.896C177.092 173.964 175.777 173.562 171.493 153.415" stroke="#263238" stroke-linecap="round" stroke-linejoin="round"/>
<path d="M178.768 310.495C178.768 310.495 189.371 297.665 196.539 296.859C203.707 296.053 206.506 297.644 211.554 301.61L214.777 304.112C214.777 304.112 220.164 298.853 230.937 299.234C244.17 299.701 257.403 311.492 253.84 323.728H181.143L178.768 310.495Z" fill="white"/>
<path opacity="0.15" d="M245.358 323.728H219.909C218.128 319.296 218.467 313.125 217.428 311.81C216.389 310.495 214.289 309.923 212.614 308.82C210.939 307.717 211.045 303.073 208.924 301.949C206.803 300.825 204.513 301.334 203.686 300.91C202.859 300.486 203.198 297.22 201.162 296.668C205.234 296.944 207.8 298.556 211.596 301.546L214.819 304.048C217.164 302.072 219.95 300.69 222.942 300.019C241.116 306.508 244.743 317.918 245.358 323.728Z" fill="black"/>
<path d="M178.768 310.495C178.768 310.495 189.371 297.665 196.539 296.859C203.707 296.053 206.506 297.644 211.554 301.61L214.777 304.112C214.777 304.112 220.164 298.853 230.937 299.234C244.17 299.701 257.403 311.492 253.84 323.728H181.143L178.768 310.495Z" stroke="#263238" stroke-linecap="round" stroke-linejoin="round"/>
<path d="M89.2734 296.859C115.825 297.665 136.226 306.742 157.454 307.929C178.682 309.117 189.264 309.52 196.051 307.929C202.837 306.339 221.648 324.153 221.648 324.153H83.802L56.5085 315.436L71.5231 298.831L89.2734 296.859Z" fill="white" stroke="#263238" stroke-linecap="round" stroke-linejoin="round"/>
<path d="M39.5643 203.591C55.7877 213.876 77.1856 294.102 80.9816 293.318C84.7777 292.533 89.2736 296.859 89.2736 296.859C89.2736 296.859 84.2051 313.167 83.8446 324.153H50.2315C50.2315 324.153 33.1174 324.81 28.1126 299.701C18.4846 251.391 13.8614 205.563 23.8712 200.473" fill="#999999"/>
<path d="M39.5643 203.591C55.7877 213.876 77.1856 294.102 80.9816 293.318C84.7777 292.533 89.2736 296.859 89.2736 296.859C89.2736 296.859 84.2051 313.167 83.8446 324.153H50.2315C50.2315 324.153 33.1174 324.81 28.1126 299.701C18.4846 251.391 13.8614 205.563 23.8712 200.473" stroke="#263238" stroke-linecap="round" stroke-linejoin="round"/>
<path d="M214.777 304.112C214.777 304.112 222.878 310.686 224.532 316.433" stroke="#263238" stroke-linecap="round" stroke-linejoin="round"/>
<path d="M189.222 308.82C189.222 308.82 198.511 304.451 199.699 304.112" stroke="#263238" stroke-linecap="round" stroke-linejoin="round"/>
<path d="M203.643 310.198L206.421 308.82" stroke="#263238" stroke-linecap="round" stroke-linejoin="round"/>
<path d="M138.941 136.067C137.626 143.291 136.726 150.584 136.247 157.911C131.922 160.574 126.834 161.723 121.784 161.177C116.692 160.671 111.801 158.926 107.539 156.094C103.277 153.262 99.7725 149.43 97.3324 144.932L94.4483 146.925C93.2607 137.743 91.8186 129.663 91.8186 129.663L138.941 136.067Z" fill="#263238"/>
<path d="M77.6949 101.882C77.6949 101.882 73.4535 97.4919 71.3328 98.934C69.9355 99.9801 68.8687 101.406 68.2595 103.042C67.6504 104.677 67.5246 106.454 67.8972 108.159C69.0424 111.87 74.0261 118.36 74.4078 122.113C74.7895 125.867 77.3556 130.172 80.1761 127.669C82.9966 125.167 77.6949 101.882 77.6949 101.882Z" fill="white" stroke="#263238" stroke-linecap="round" stroke-linejoin="round"/>
<path d="M154.019 101.882C154.019 101.882 158.26 97.4919 160.381 98.934C161.778 99.9801 162.845 101.406 163.454 103.042C164.063 104.677 164.189 106.454 163.817 108.159C162.671 111.87 157.688 118.36 157.306 122.113C156.924 125.867 154.358 130.172 151.538 127.669C148.717 125.167 154.019 101.882 154.019 101.882Z" fill="white" stroke="#263238" stroke-linecap="round" stroke-linejoin="round"/>
<path d="M116.758 48.2916C62.8922 48.2916 77.4615 113.418 87.3863 136.449C90.8643 144.55 108.042 155.875 116.758 155.875C124.88 155.875 141.104 145.271 144.327 137.594C154.422 114.458 168.121 48.2916 116.758 48.2916Z" fill="white" stroke="#263238" stroke-linecap="round" stroke-linejoin="round"/>
<path d="M107.639 92.5719C107.639 92.5719 93.5999 88.3305 89.2737 96.8134" stroke="#263238" stroke-linecap="round" stroke-linejoin="round"/>
<path d="M99.1137 107.374C100.156 107.374 101.001 106.036 101.001 104.384C101.001 102.733 100.156 101.394 99.1137 101.394C98.0713 101.394 97.2263 102.733 97.2263 104.384C97.2263 106.036 98.0713 107.374 99.1137 107.374Z" fill="#263238"/>
<path d="M124.096 92.5719C124.096 92.5719 138.135 88.3305 142.461 96.8134" stroke="#263238" stroke-linecap="round" stroke-linejoin="round"/>
<path d="M132.6 107.374C133.642 107.374 134.487 106.036 134.487 104.384C134.487 102.733 133.642 101.394 132.6 101.394C131.557 101.394 130.712 102.733 130.712 104.384C130.712 106.036 131.557 107.374 132.6 107.374Z" fill="#263238"/>
<path d="M119.388 102.073C117.543 106.314 123.333 118.932 121.233 121.053C119.747 122.365 117.849 123.115 115.868 123.174" fill="white"/>
<path d="M119.388 102.073C117.543 106.314 123.333 118.932 121.233 121.053C119.747 122.365 117.849 123.115 115.868 123.174" stroke="#263238" stroke-linecap="round" stroke-linejoin="round"/>
<path d="M129.652 128.412C129.652 128.412 116.482 133.947 104.628 128.412H129.652Z" fill="white"/>
<path d="M129.652 128.412C129.652 128.412 116.482 133.947 104.628 128.412" stroke="#263238" stroke-linecap="round" stroke-linejoin="round"/>
<path d="M107.639 57.5592C107.639 57.5592 105.942 84.3012 98.4563 87.7156C96.5053 88.6063 94.2149 87.3127 90.3977 90.621C91.5634 87.5462 92.1459 84.2811 92.1154 80.993C92.1154 80.993 89.2737 97.5981 70.4843 113.546C65.4794 117.787 61.7682 117.172 61.4501 113.546C59.3294 88.7123 61.4501 41.2298 108.848 38.3244C117.182 35.5587 126.214 35.7507 134.423 38.8682C142.632 41.9856 149.515 47.8379 153.913 55.4385C162.748 69.4098 167.521 85.5643 167.697 102.094C166.982 104.853 166.096 107.566 165.046 110.216C165.046 110.216 166.043 122.347 164.156 128.433C164.156 128.433 155.27 103.642 147.975 96.9406C143.097 92.466 143.733 83.2621 140.192 78.639C140.192 78.639 141.316 84.4497 137.562 86.8249C135.547 88.0973 130.924 86.2735 127.255 86.1887C125.28 86.1925 123.348 86.7749 121.699 87.864C121.699 87.864 120.957 69.1382 107.639 57.5592Z" fill="#14CC97"/>
<path d="M67.5579 117.617C68.1671 116.031 69.1751 114.629 70.4844 113.546C89.0406 97.3435 92.1156 80.9928 92.1156 80.9928C92.1461 84.281 91.5636 87.5461 90.3978 90.6209C94.2151 87.3126 96.5055 88.6062 98.4565 87.7155C105.943 84.3011 107.639 57.5591 107.639 57.5591C120.957 69.1381 121.699 87.8427 121.699 87.8427C123.348 86.7536 125.28 86.1712 127.256 86.1674C130.924 86.1674 135.548 88.076 137.562 86.8036C141.316 84.4284 140.192 78.6177 140.192 78.6177C143.755 83.2408 143.097 92.4446 147.975 96.9193C152.471 101.033 157.539 111.998 160.805 119.844" stroke="#263238" stroke-linecap="round" stroke-linejoin="round"/>
<path d="M61.0472 132.208C61.623 127.826 61.9487 123.415 62.0227 118.996C59.2446 96.5376 57.7813 41.463 108.848 38.4092C117.182 35.6434 126.214 35.8354 134.423 38.9529C142.632 42.0703 149.515 47.9226 153.913 55.5232C163.294 70.3935 168.088 87.6971 167.697 105.275" stroke="#263238" stroke-linecap="round" stroke-linejoin="round"/>
<path d="M138.94 69.4987C138.94 69.4987 135.505 49.7338 115.379 44.0503" stroke="#263238" stroke-linecap="round" stroke-linejoin="round"/>
<path d="M150.732 57.5591C158.634 70.9748 161.724 86.6848 159.49 102.094" stroke="#263238" stroke-linecap="round" stroke-linejoin="round"/>
<path d="M97.2478 48.0372C97.2478 48.0372 93.1972 74.7157 75.7227 90.4513" stroke="#263238" stroke-linecap="round" stroke-linejoin="round"/>
<path d="M83.1236 56.0535C83.1236 56.0535 64.0374 73.5917 60.9199 98.0222" stroke="#263238" stroke-linecap="round" stroke-linejoin="round"/>
<path d="M107.639 57.5592C107.866 54.3892 107.866 51.2072 107.639 48.0372" stroke="#263238" stroke-linecap="round" stroke-linejoin="round"/>
<path d="M61.3018 219.814C61.3018 219.814 67.3245 232.666 63.8466 243.714" stroke="#263238" stroke-linecap="round" stroke-linejoin="round"/>
<path d="M203.643 232.432C203.557 235.713 202.677 238.925 201.078 241.791C199.478 244.657 197.208 247.093 194.46 248.889" stroke="#263238" stroke-linecap="round" stroke-linejoin="round"/>
<path d="M208.924 296.859C208.924 296.859 221.945 289.84 236.281 293.36" stroke="#263238" stroke-linecap="round" stroke-linejoin="round"/>
<path d="M75.7228 294.59C75.7228 294.59 65.2889 301.313 56.6365 299.213" stroke="#263238" stroke-linecap="round" stroke-linejoin="round"/>
</svg>
