<svg width="260" height="443" viewBox="0 0 260 443" fill="none" xmlns="http://www.w3.org/2000/svg">
<path d="M0.694092 324.153H259.165V432.669C259.165 435.144 258.182 437.517 256.432 439.267C254.682 441.017 252.309 442 249.834 442H10.0252C7.55041 442 5.17702 441.017 3.4271 439.267C1.67718 437.517 0.694092 435.144 0.694092 432.669V324.153Z" fill="#263238" stroke="#263238" stroke-linecap="round" stroke-linejoin="round"/>
<path d="M10.0251 1H249.834C252.309 1 254.682 1.98309 256.432 3.73301C258.182 5.48292 259.165 7.85635 259.165 10.3311V324.195H0.693989V10.4159C0.682784 9.18343 0.915836 7.96093 1.37975 6.81902C1.84366 5.67711 2.52918 4.63841 3.39677 3.76294C4.26436 2.88746 5.29681 2.19254 6.43447 1.71831C7.57214 1.24409 8.79252 0.999949 10.0251 1Z" fill="white" stroke="#263238" stroke-linecap="round" stroke-linejoin="round"/>
<path d="M33.3528 176.594C34.392 166.139 77.8875 152.312 129.93 151.761C178.409 151.252 225.001 167.475 231.299 178.164C237.598 188.852 218.575 324.492 218.575 324.492H45.2711C45.2711 324.492 30.193 208.405 33.3528 176.594Z" fill="#263238"/>
<path d="M161.083 156.278C158.08 161.613 153.69 166.037 148.377 169.08C143.064 172.123 137.027 173.671 130.905 173.562C113.113 173.562 100.155 158.144 100.155 158.144C106.411 152.524 106.793 142.133 105.86 133.968C105.415 129.951 104.635 125.979 103.527 122.092H156.714C153.47 132.696 153.597 140.373 154.848 145.674C156.714 153.479 161.083 156.278 161.083 156.278Z" fill="#BFBFBF" stroke="#263238" stroke-miterlimit="10"/>
<path d="M236.898 253.003C236.898 253.003 223.855 308.862 214.355 324.407L16.7688 324.153C16.7688 324.153 27.3723 309.308 35.3462 304.112C43.32 298.916 70.465 306.742 75.8091 306.742C81.1533 306.742 174.867 291.727 178.409 290.539C181.95 289.352 193.381 245.665 193.381 245.665C193.381 245.665 226.612 247.065 236.898 253.003Z" fill="#BFBFBF"/>
<path opacity="0.15" d="M236.898 253.003C236.898 253.003 231.32 276.925 224.767 297.835C219.444 294.102 210.961 290.879 198.025 292.363C171.177 295.46 153.13 299.234 153.13 299.234C153.13 299.234 126.239 311.259 117.969 324.28L16.7688 324.153C16.7688 324.153 27.3723 309.308 35.3462 304.112C43.32 298.916 70.465 306.742 75.8091 306.742C81.1533 306.742 174.867 291.727 178.409 290.54C181.95 289.352 192.427 249.292 193.254 246.005C204.858 246.552 216.413 247.87 227.842 249.949C230.985 250.552 234.032 251.579 236.898 253.003Z" fill="black"/>
<path d="M236.898 253.003C236.898 253.003 223.855 308.862 214.355 324.407L16.7688 324.153C16.7688 324.153 27.3723 309.308 35.3462 304.112C43.32 298.916 70.465 306.742 75.8091 306.742C81.1533 306.742 174.867 291.727 178.409 290.539C181.95 289.352 193.381 245.665 193.381 245.665C193.381 245.665 226.612 247.065 236.898 253.003Z" stroke="#263238" stroke-linecap="round" stroke-linejoin="round"/>
<path d="M204.875 193.708C197.198 199.646 189.861 223.992 189.861 223.992L187.231 253.194C187.231 253.194 223.58 257.944 235.18 274.401C235.18 274.401 236.219 269.248 235.18 266.894C241.363 253.444 245.92 239.305 248.753 224.776C253.482 200.537 238.149 177.082 226.591 173.519" fill="#263238"/>
<path d="M204.875 193.708C197.198 199.646 189.861 223.992 189.861 223.992L187.231 253.194" fill="#263238"/>
<path d="M204.875 193.708C197.198 199.646 189.861 223.992 189.861 223.992L187.231 253.194" stroke="white" stroke-linecap="round" stroke-linejoin="round"/>
<path d="M218.426 247.213C222.455 246.874 233.716 250.819 235.709 253.788C237.703 256.757 239.654 260.68 236.897 263.161C237.614 265.217 238.07 267.354 238.254 269.523C238.254 272.111 234.331 273.277 234.331 273.277C234.882 274.651 234.874 276.186 234.307 277.554C233.74 278.921 232.66 280.012 231.298 280.593C231.298 280.593 232.444 285.535 228.329 287.507L226.209 285.938C226.209 285.938 212.785 287.91 206.253 285.938" fill="#BFBFBF"/>
<path d="M218.426 247.213C222.455 246.874 233.716 250.819 235.709 253.788C237.703 256.757 239.654 260.68 236.897 263.161C237.614 265.217 238.07 267.354 238.254 269.523C238.254 272.111 234.331 273.277 234.331 273.277C234.882 274.651 234.874 276.186 234.307 277.554C233.74 278.921 232.66 280.012 231.298 280.593C231.298 280.593 232.444 285.535 228.329 287.507L226.209 285.938C226.209 285.938 212.785 287.91 206.253 285.938" stroke="#263238" stroke-linecap="round" stroke-linejoin="round"/>
<path d="M220.017 264.434C220.72 263.047 221.558 261.733 222.519 260.51C223.919 258.262 219.338 256.269 220.717 254.572C224.364 250.225 220.483 248.21 220.483 248.21C218.914 244.266 193.423 252.155 191.833 247.426C189.542 240.533 203.369 227.427 194.929 220.578C193.699 219.56 192.236 228.806 181.568 238.031C176.118 242.739 175.949 255.993 165.621 261.91C155.293 267.827 134.001 275.355 111.607 277.73C99.158 279.045 78.0146 285.344 78.0146 285.344C78.0146 285.344 77.7813 268.378 73.4126 258.75C69.044 249.122 38.2514 243.693 38.2514 243.693L26.8633 267.021C26.8633 267.021 39.3754 311.831 45.271 324.492L92.2657 323.813C104.178 319.668 115.792 314.708 127.024 308.968C143.368 300.861 160.617 294.725 178.409 290.688C184.771 289.5 210.537 287.528 214.1 285.556C214.741 285.271 215.318 284.86 215.796 284.347C216.275 283.834 216.645 283.23 216.884 282.57C217.124 281.911 217.228 281.21 217.19 280.51C217.153 279.809 216.975 279.124 216.666 278.494C215.669 275.843 218.426 273.489 218.426 273.489" fill="#BFBFBF"/>
<path d="M220.017 264.434C220.72 263.047 221.558 261.733 222.519 260.51C223.919 258.262 219.338 256.269 220.717 254.572C224.364 250.225 220.483 248.21 220.483 248.21C218.914 244.266 193.423 252.155 191.833 247.426C189.542 240.533 203.369 227.427 194.929 220.578C193.699 219.56 192.236 228.806 181.568 238.031C176.118 242.739 175.949 255.993 165.621 261.91C155.293 267.827 134.001 275.355 111.607 277.73C99.158 279.045 78.0146 285.344 78.0146 285.344C78.0146 285.344 77.7813 268.378 73.4126 258.75C69.044 249.122 38.2514 243.693 38.2514 243.693L26.8633 267.021C26.8633 267.021 39.3754 311.831 45.271 324.492L92.2657 323.813C104.178 319.668 115.792 314.708 127.024 308.968C143.368 300.861 160.617 294.725 178.409 290.688C184.771 289.5 210.537 287.528 214.1 285.556C214.741 285.271 215.318 284.86 215.796 284.347C216.275 283.834 216.645 283.23 216.884 282.57C217.124 281.911 217.228 281.21 217.19 280.51C217.153 279.809 216.975 279.124 216.666 278.494C215.669 275.843 218.426 273.489 218.426 273.489" stroke="#263238" stroke-linecap="round" stroke-linejoin="round"/>
<path d="M236.897 263.161C236.897 263.161 232.932 259.323 232.02 258.793C231.108 258.262 223.982 256.417 223.982 256.417" stroke="#263238" stroke-linecap="round" stroke-linejoin="round"/>
<path d="M234.332 273.383C234.332 273.383 232.55 269.693 229.836 268.866C227.518 268.252 225.167 267.771 222.795 267.424" stroke="#263238" stroke-linecap="round" stroke-linejoin="round"/>
<path d="M231.299 280.657C231.299 280.657 227.27 278.155 225.552 277.243C223.781 276.56 221.913 276.159 220.017 276.055" stroke="#263238" stroke-linecap="round" stroke-linejoin="round"/>
<path d="M39.7147 169.808C39.7147 169.808 20.6283 169.999 15.4538 207.684C12.5273 228.488 22.1552 262.61 23.3428 269.332C24.2811 273.589 26.7968 277.332 30.3836 279.809C30.3836 279.809 53.2871 265.409 75.809 266.342C75.809 266.342 79.7747 254.382 75.809 253.194C71.8433 252.006 79.7747 229.018 70.7617 212.901" fill="#263238"/>
<path d="M77.8244 262.334C77.8244 262.334 81.7689 250.395 77.8244 249.207C73.8799 248.019 81.7689 225.031 72.7771 208.914" fill="#263238"/>
<path d="M77.8244 262.334C77.8244 262.334 81.7689 250.395 77.8244 249.207C73.8799 248.019 81.7689 225.031 72.7771 208.914" stroke="white" stroke-linecap="round" stroke-linejoin="round"/>
<path d="M154.847 145.674C116.42 155.748 108.786 133.798 108.786 133.798L105.859 133.968C105.414 129.951 104.634 125.979 103.526 122.092H156.714C153.554 132.738 153.554 140.373 154.847 145.674Z" fill="#263238"/>
<path d="M168.399 84.7678C168.399 84.7678 172.64 80.1022 174.761 81.6291C176.182 82.7914 177.256 84.3221 177.866 86.0538C178.476 87.7856 178.597 89.6517 178.218 91.448C177.051 95.4137 172.089 102.285 171.707 106.293C171.325 110.301 168.738 114.776 165.917 112.21C163.097 109.644 168.399 84.7678 168.399 84.7678Z" fill="#BFBFBF" stroke="#263238" stroke-miterlimit="10"/>
<path d="M92.0536 84.7678C92.0536 84.7678 87.8122 80.1022 85.6915 81.6291C84.2702 82.7914 83.196 84.3221 82.5863 86.0538C81.9767 87.7856 81.855 89.6517 82.2347 91.448C83.3799 95.4137 88.3636 102.285 88.7453 106.293C89.127 110.301 91.7143 114.776 94.5348 112.21C97.3554 109.644 92.0536 84.7678 92.0536 84.7678Z" fill="#BFBFBF" stroke="#263238" stroke-miterlimit="10"/>
<path d="M129.209 30.9656C183.096 30.9656 170.287 102.709 160.362 125.74C156.884 133.841 138.837 144.444 130.121 144.444C121.998 144.444 103.442 131.72 100.155 124.17C90.1241 101.012 77.8664 30.9656 129.209 30.9656Z" fill="#BFBFBF" stroke="#263238" stroke-miterlimit="10"/>
<path d="M138.348 75.267C138.348 75.267 152.366 70.9195 156.714 79.5084" stroke="#263238" stroke-linecap="round" stroke-linejoin="round"/>
<path d="M148.74 87.0581C148.74 88.7123 147.891 90.0483 146.852 90.0483C145.813 90.0483 144.986 88.7123 144.986 87.0581C144.986 85.404 145.813 84.0468 146.852 84.0468C147.891 84.0468 148.74 85.404 148.74 87.0581Z" fill="#263238"/>
<path d="M121.892 75.267C121.892 75.267 107.874 70.9195 103.526 79.5084" stroke="#263238" stroke-linecap="round" stroke-linejoin="round"/>
<path d="M111.5 87.0581C111.5 88.7123 112.349 90.0483 113.388 90.0483C114.427 90.0483 115.254 88.7123 115.254 87.0581C115.254 85.404 114.427 84.0468 113.388 84.0468C112.349 84.0468 111.5 85.404 111.5 87.0581Z" fill="#263238"/>
<path d="M151.433 49.3096C137.927 53.6142 123.416 53.6142 109.91 49.3096C109.91 49.3096 102.636 48.8855 99.773 52.5331C96.9101 56.1807 99.773 67.378 100.536 72.0648C101.3 76.7515 94.1744 79.8477 95.1923 91.448L92.4566 95.4561C92.4566 95.4561 84.8432 76.7939 86.7519 60.719C88.6605 44.6441 98.8187 38.388 98.8187 38.388C98.8187 38.388 103.442 24.5186 130.629 24.6246C159.852 24.7307 162.8 40.5511 162.8 40.5511C162.8 40.5511 182.608 53.7631 167.954 96.8133L164.773 91.448C165.534 85.7387 164.225 79.9455 161.082 75.1185C158.538 71.4073 162.609 60.2736 161.655 54.4629C160.701 48.6522 151.433 49.3096 151.433 49.3096Z" fill="#263238"/>
<path d="M133.323 84.0468C133.323 84.0468 134.129 100.631 136.504 105.254C138.879 109.877 130.587 110.704 127.024 107.947" stroke="#263238" stroke-linecap="round" stroke-linejoin="round"/>
<path d="M118.33 116.812C119.091 119.511 120.89 121.798 123.334 123.174C127.024 124.764 138.179 124.107 140.3 122.771C142.421 121.435 143.46 117.151 143.46 117.151" fill="white"/>
<path d="M118.33 116.812C119.091 119.511 120.89 121.798 123.334 123.174C127.024 124.764 138.179 124.107 140.3 122.771C142.421 121.435 143.46 117.151 143.46 117.151" stroke="#263238" stroke-linecap="round" stroke-linejoin="round"/>
<path d="M117.141 116.451C117.141 116.451 128.296 119.611 144.986 116.451" stroke="#263238" stroke-linecap="round" stroke-linejoin="round"/>
<path d="M142.187 51.5788C142.187 51.5788 136.122 51.7061 135.825 54.3357C135.528 56.9654 135.571 60.9311 129.909 59.3406C129.909 59.3406 127.915 64.1758 123.186 60.719C118.457 57.2623 117.121 61.9702 117.121 61.9702C117.121 61.9702 115 61.9703 115.233 59.3406C115.233 59.3406 110.016 58.7892 110.016 61.9702C110.016 65.1513 101.83 67.5265 101.83 64.3454C101.83 64.3454 100.452 71.7255 95.2138 70.1562C89.9757 68.5868 87.452 76.8788 87.452 76.8788C87.452 76.8788 84.1014 71.471 86.519 66.9963C86.519 66.9963 81.811 62.2459 83.1258 57.2411C83.8834 54.278 85.024 51.4264 86.519 48.7583C86.519 48.7583 81.7685 41.1238 88.5124 37.4337C95.2562 33.7437 93.9414 31.7714 93.9414 30.9232C93.9414 30.0749 96.8255 24.2642 102.106 26.1092C107.387 27.9542 109.083 21.3588 113.367 20.044C117.651 18.7291 125.561 19.0048 127.003 20.044C127.917 20.6851 128.963 21.1132 130.064 21.2967C131.165 21.4802 132.293 21.4145 133.365 21.1043C135.359 20.3196 141.212 18.7291 142.23 20.8498C142.803 21.8168 143.577 22.6501 144.498 23.2938C145.42 23.9376 146.469 24.3768 147.574 24.5823C149.589 25.0488 151.709 21.995 153.809 24.5823C155.908 27.1695 142.187 51.5788 142.187 51.5788Z" fill="#263238"/>
<path d="M142.187 51.5788C147.892 50.3912 149.546 54.3357 150.076 57.2411C150.606 60.1464 155.335 60.719 155.335 60.719C155.335 60.719 157.986 62.5004 157.986 63.3063C157.986 64.1121 159.301 62.7761 159.301 59.6162C159.301 59.6162 160.489 64.8756 161.082 67.7809C161.287 68.6173 161.679 69.3962 162.229 70.0588C162.779 70.7215 163.473 71.2504 164.257 71.6059C165.041 71.9613 165.896 72.1338 166.757 72.1104C167.618 72.0871 168.462 71.8684 169.226 71.4709C173.34 69.6259 172.937 75.4367 172.937 75.4367C174.006 74.6333 174.775 73.4949 175.121 72.2032C175.467 70.9116 175.37 69.5412 174.846 68.3111C174.846 68.3111 178.536 62.7761 176.967 58.0257C175.397 53.2753 179.596 48.8007 175.652 45.6408C171.707 42.481 172.025 43.0112 171.728 40.9117C171.431 38.8122 172.089 35.6311 169.247 34.8464C166.405 34.0618 162.737 32.5985 162.737 30.9656C162.737 29.3326 158.262 25.3669 150.627 28.2511C142.993 31.1352 142.187 51.5788 142.187 51.5788Z" fill="#263238"/>
<path d="M121.998 344.024H23.1519C22.1226 344.024 21.1355 344.432 20.4077 345.16C19.6799 345.888 19.271 346.875 19.271 347.904C19.271 348.934 19.6799 349.921 20.4077 350.649C21.1355 351.376 22.1226 351.785 23.1519 351.785H121.998C123.027 351.785 124.014 351.376 124.742 350.649C125.47 349.921 125.879 348.934 125.879 347.904C125.879 346.875 125.47 345.888 124.742 345.16C124.014 344.432 123.027 344.024 121.998 344.024Z" fill="white"/>
<path d="M238.382 375.898H21.4554C20.8789 375.898 20.3261 376.127 19.9184 376.534C19.5108 376.942 19.2817 377.495 19.2817 378.071C19.2817 378.648 19.5108 379.201 19.9184 379.608C20.3261 380.016 20.8789 380.245 21.4554 380.245H238.382C238.959 380.245 239.511 380.016 239.919 379.608C240.327 379.201 240.556 378.648 240.556 378.071C240.556 377.495 240.327 376.942 239.919 376.534C239.511 376.127 238.959 375.898 238.382 375.898Z" fill="white"/>
<path d="M198.449 386.713H21.4554C20.8789 386.713 20.3261 386.942 19.9184 387.35C19.5108 387.758 19.2817 388.31 19.2817 388.887C19.2817 389.463 19.5108 390.016 19.9184 390.424C20.3261 390.832 20.8789 391.061 21.4554 391.061H198.449C199.026 391.061 199.579 390.832 199.986 390.424C200.394 390.016 200.623 389.463 200.623 388.887C200.623 388.31 200.394 387.758 199.986 387.35C199.579 386.942 199.026 386.713 198.449 386.713Z" fill="white"/>
<path d="M78.566 358.741H21.4554C20.8789 358.741 20.3261 358.97 19.9184 359.378C19.5108 359.786 19.2817 360.338 19.2817 360.915C19.2817 361.491 19.5108 362.044 19.9184 362.452C20.3261 362.86 20.8789 363.089 21.4554 363.089H78.566C79.1425 363.089 79.6953 362.86 80.103 362.452C80.5106 362.044 80.7397 361.491 80.7397 360.915C80.7397 360.338 80.5106 359.786 80.103 359.378C79.6953 358.97 79.1425 358.741 78.566 358.741Z" fill="white"/>
<path d="M238.318 410.656H233.101C231.86 410.656 230.854 411.662 230.854 412.904V418.121C230.854 419.362 231.86 420.369 233.101 420.369H238.318C239.56 420.369 240.566 419.362 240.566 418.121V412.904C240.566 411.662 239.56 410.656 238.318 410.656Z" fill="white"/>
<path d="M218.341 410.656H213.124C211.883 410.656 210.876 411.662 210.876 412.904V418.121C210.876 419.362 211.883 420.369 213.124 420.369H218.341C219.583 420.369 220.589 419.362 220.589 418.121V412.904C220.589 411.662 219.583 410.656 218.341 410.656Z" fill="white"/>
<path d="M198.364 410.656H193.147C191.906 410.656 190.899 411.662 190.899 412.904V418.121C190.899 419.362 191.906 420.369 193.147 420.369H198.364C199.606 420.369 200.612 419.362 200.612 418.121V412.904C200.612 411.662 199.606 410.656 198.364 410.656Z" fill="white"/>
</svg>
