<svg width="1023" height="828" viewBox="0 0 1023 828" fill="none" xmlns="http://www.w3.org/2000/svg">
<g clip-path="url(#clip0_2386_5801)">
<path d="M768.943 247.987V638.233C768.943 649.834 759.54 659.237 747.922 659.237H227.506C225.483 659.237 223.518 658.948 221.668 658.409C212.902 655.884 206.505 647.81 206.505 638.233V247.987C206.505 236.367 215.908 226.964 227.506 226.964H747.922C759.54 226.964 768.943 236.367 768.943 247.987Z" fill="white"/>
<path d="M768.942 260.049V638.233C768.942 649.834 759.54 659.237 747.922 659.237H227.506C225.483 659.237 223.518 658.948 221.668 658.409L768.942 260.049Z" fill="#263238"/>
<path opacity="0.9" d="M768.942 260.049V638.233C768.942 649.834 759.54 659.237 747.922 659.237H227.506C225.483 659.237 223.518 658.948 221.668 658.409L768.942 260.049Z" fill="white"/>
<path d="M624.692 471.301L653.033 458.506L646.983 424.592L615.752 422.087C611.822 411.624 606.542 401.7 600.05 392.605L609.856 375.994L616.137 365.338L591.823 341.193L564.579 357.553C548.935 346.762 531.171 339.44 512.463 336.068L504.621 304.851H470.172L462.099 336.299C451.483 338.419 441.137 341.752 431.253 346.223L406.572 324.949L378.404 344.142L390.118 374.549C382.662 382.276 376.227 390.909 370.929 400.235L338.502 396.959L326.846 429.332L353.646 447.542C352.336 455.134 351.7 462.842 351.739 470.55C351.527 473.729 351.527 476.909 351.739 480.088L323.397 496.005L332.395 529.149H364.397C367.461 535.758 371.063 542.078 375.148 548.11C377.229 551.193 379.444 554.199 381.776 557.109L367.981 585.666L394.415 607.845L419.924 588.73C429.635 594.337 439.981 598.712 450.77 601.756L455.895 632.607L490.229 635.651L500.536 606.554C511.769 605.417 522.847 602.97 533.502 599.251L555.312 621.045L585.176 603.818L576.949 574.104C585.619 566.84 593.345 558.477 599.934 549.266L630.183 554.7L644.749 523.522L620.973 504.349C623.536 493.519 624.788 482.439 624.692 471.301ZM546.16 471.301C546.16 503.578 519.996 529.746 487.724 529.746C466.723 529.746 448.304 518.666 437.996 502.017C432.467 493.095 429.288 482.555 429.288 471.301C429.288 439.044 455.452 412.876 487.724 412.876C503.793 412.876 518.339 419.37 528.916 429.853C529.976 430.912 530.997 431.992 531.941 433.128C540.727 443.283 546.083 456.483 546.16 470.935V471.301Z" fill="#14CC97" stroke="#263238" stroke-width="0.903904" stroke-miterlimit="10"/>
<path opacity="0.2" d="M620.973 504.349L644.749 523.522L630.183 554.7L599.934 549.266C593.345 558.477 585.619 566.84 576.949 574.104L585.176 603.818L555.312 621.045L533.502 599.251C522.847 602.97 511.769 605.417 500.536 606.554L490.229 635.651L455.895 632.607L450.77 601.756C439.981 598.712 429.635 594.338 419.924 588.73L394.415 607.845L367.981 585.666L381.776 557.109C379.444 554.199 377.229 551.193 375.148 548.11L437.996 502.017C448.304 518.666 466.723 529.746 487.724 529.746C519.996 529.746 546.16 503.578 546.16 471.301V470.935C546.083 456.483 540.727 443.283 531.941 433.128L609.856 375.994L600.05 392.605C606.542 401.7 611.822 411.624 615.752 422.087L646.984 424.592L653.033 458.506L624.692 471.301C624.788 482.439 623.536 493.519 620.973 504.349Z" fill="black"/>
<path d="M742.817 381.178L744.242 380.523C745.88 379.81 746.805 378.037 746.477 376.283L746.188 374.549C745.899 372.776 744.435 371.447 742.643 371.331L740.929 371.196C739.541 371.1 738.328 370.252 737.73 368.999C737.268 368.017 736.767 367.072 736.227 366.147C735.534 364.953 735.534 363.488 736.227 362.294L737.114 360.79C738 359.249 737.75 357.303 736.497 356.031L735.264 354.798C734.012 353.507 732.027 353.275 730.486 354.22L728.964 355.125C727.769 355.819 726.305 355.819 725.111 355.125C722.644 353.719 720.024 352.639 717.269 351.927C715.901 351.58 714.841 350.481 714.494 349.113L714.051 347.321C713.628 345.548 712.028 344.296 710.198 344.354H708.464C706.653 344.296 705.034 345.529 704.611 347.302L704.129 349.229C703.782 350.578 702.761 351.637 701.412 352.004C700.449 352.273 699.486 352.562 698.58 352.909C697.27 353.391 695.786 353.121 694.727 352.196L693.185 350.867C691.856 349.691 689.891 349.595 688.446 350.597L687.078 351.522C685.556 352.524 684.958 354.47 685.633 356.166L686.326 357.977C686.847 359.268 686.615 360.752 685.729 361.831C685.113 362.563 684.535 363.334 683.995 364.124C683.205 365.3 681.818 365.935 680.411 365.781L678.485 365.608C676.693 365.415 675.017 366.475 674.42 368.171L673.803 369.866C673.186 371.524 673.764 373.374 675.209 374.376L676.982 375.628C678.119 376.418 678.735 377.767 678.6 379.154C678.485 380.156 678.446 381.178 678.446 382.18C678.408 383.529 677.676 384.762 676.52 385.456L674.709 386.458C673.09 387.305 672.3 389.155 672.782 390.909L673.225 392.585C673.668 394.339 675.267 395.533 677.078 395.476H679.005C680.392 395.476 681.683 396.208 682.377 397.403C682.897 398.328 683.456 399.214 684.053 400.081C684.824 401.218 684.939 402.682 684.342 403.935L683.552 405.573C682.743 407.192 683.167 409.138 684.573 410.275L685.903 411.392C687.27 412.568 689.255 412.626 690.7 411.566L692.068 410.602C693.185 409.793 694.669 409.658 695.921 410.236C696.904 410.699 697.906 411.123 698.927 411.508C700.218 411.99 701.143 413.127 701.374 414.475L701.663 416.152C701.952 417.925 703.416 419.254 705.208 419.37L706.98 419.524C708.753 419.698 710.41 418.618 710.988 416.923L711.527 415.42C711.99 414.09 713.127 413.127 714.514 412.895C715.612 412.722 716.691 412.491 717.751 412.202C719.08 411.855 720.525 412.24 721.488 413.223L722.625 414.379C723.858 415.651 725.804 415.921 727.345 415.015L728.868 414.148C730.486 413.3 731.276 411.45 730.794 409.697L730.37 408.194C729.966 406.825 730.332 405.342 731.353 404.34C732.143 403.55 732.914 402.721 733.626 401.854C734.532 400.775 735.938 400.274 737.306 400.544L738.848 400.833C740.601 401.179 742.374 400.274 743.106 398.636L743.838 397.056C744.628 395.418 744.165 393.472 742.74 392.354L741.584 391.41C740.505 390.562 739.965 389.194 740.158 387.826C740.351 386.67 740.466 385.513 740.524 384.357C740.659 382.95 741.526 381.736 742.817 381.178ZM728.983 382.18C728.983 392.971 720.236 401.719 709.447 401.719C698.657 401.719 689.91 392.971 689.91 382.18C689.91 371.389 698.657 362.64 709.447 362.64C720.197 362.64 728.906 371.312 728.945 382.064L728.983 382.18Z" fill="#14CC97" stroke="#263238" stroke-width="0.903904" stroke-miterlimit="10"/>
<path d="M768.943 247.987V249.046H206.505V247.987C206.505 236.367 215.908 226.964 227.506 226.964H747.922C759.54 226.964 768.943 236.367 768.943 247.987Z" fill="#263238"/>
<path d="M768.943 247.987V638.233C768.943 649.834 759.54 659.237 747.922 659.237H227.506C215.908 659.237 206.505 649.834 206.505 638.233V247.987C206.505 236.367 215.908 226.964 227.506 226.964H747.922C759.54 226.964 768.943 236.367 768.943 247.987V247.987Z" stroke="#263238" stroke-width="0.903904" stroke-linecap="round" stroke-linejoin="round"/>
<path d="M206.505 247.987H768.943" stroke="#263238" stroke-width="0.903904" stroke-linecap="round" stroke-linejoin="round"/>
<path d="M253.401 238.005C253.401 240.356 251.494 242.263 249.143 242.263C246.792 242.263 244.885 240.356 244.885 238.005C244.885 235.654 246.792 233.746 249.143 233.746C251.494 233.746 253.401 235.654 253.401 238.005Z" fill="#C6FF00"/>
<path d="M273.593 238.005C273.593 240.356 271.685 242.263 269.335 242.263C266.984 242.263 265.077 240.356 265.077 238.005C265.077 235.654 266.984 233.746 269.335 233.746C271.685 233.746 273.593 235.654 273.593 238.005Z" fill="#C6FF00"/>
<path d="M293.784 238.005C293.784 240.356 291.877 242.263 289.526 242.263C287.176 242.263 285.268 240.356 285.268 238.005C285.268 235.654 287.176 233.746 289.526 233.746C291.877 233.746 293.784 235.654 293.784 238.005Z" fill="#C6FF00"/>
<path d="M577.565 471.301C577.565 520.651 537.567 560.654 488.225 560.654C438.883 560.654 398.885 520.651 398.885 471.301C398.885 421.952 438.883 381.948 488.225 381.948C537.355 381.948 577.257 421.605 577.565 470.743V471.301V471.301Z" stroke="#263238" stroke-width="3.61562" stroke-miterlimit="10"/>
<path d="M909.166 269.877H591.187C579.588 269.877 570.186 279.28 570.186 290.881V361.484C570.186 373.084 579.588 382.488 591.187 382.488H909.166C920.765 382.488 930.167 373.084 930.167 361.484V290.881C930.167 279.28 920.765 269.877 909.166 269.877Z" fill="white" stroke="#263238" stroke-width="0.903904" stroke-miterlimit="10"/>
<path d="M633.208 325.681H878.532" stroke="#263238" stroke-width="0.903904" stroke-miterlimit="10"/>
<path d="M625.559 325.681L664.304 298.357H762.97L803.218 325.681" stroke="#263238" stroke-width="0.903904" stroke-miterlimit="10"/>
<path d="M810.867 325.681C810.867 329.901 807.438 333.331 803.218 333.331C798.999 333.331 795.569 329.901 795.569 325.681C795.569 321.461 798.999 318.031 803.218 318.031C807.438 318.031 810.867 321.461 810.867 325.681Z" fill="#14CC97" stroke="#263238" stroke-width="0.903904" stroke-miterlimit="10"/>
<path d="M664.304 306.007C668.529 306.007 671.953 302.582 671.953 298.357C671.953 294.132 668.529 290.707 664.304 290.707C660.08 290.707 656.656 294.132 656.656 298.357C656.656 302.582 660.08 306.007 664.304 306.007Z" fill="#14CC97" stroke="#263238" stroke-width="0.903904" stroke-miterlimit="10"/>
<path d="M770.619 298.357C770.619 302.577 767.189 306.007 762.97 306.007C758.75 306.007 755.321 302.577 755.321 298.357C755.321 294.137 758.75 290.707 762.97 290.707C767.189 290.707 770.619 294.137 770.619 298.357Z" fill="#14CC97" stroke="#263238" stroke-width="0.903904" stroke-miterlimit="10"/>
<path d="M625.559 325.681L664.304 352.986H846.164L878.532 325.681" stroke="#263238" stroke-width="0.903904" stroke-miterlimit="10"/>
<path d="M731.18 352.986C731.18 357.206 727.75 360.636 723.531 360.636C719.311 360.636 715.882 357.206 715.882 352.986C715.882 348.766 719.311 345.336 723.531 345.336C727.75 345.336 731.18 348.766 731.18 352.986Z" fill="#14CC97" stroke="#263238" stroke-width="0.903904" stroke-miterlimit="10"/>
<path d="M671.953 352.986C671.953 357.206 668.524 360.636 664.304 360.636C660.085 360.636 656.656 357.206 656.656 352.986C656.656 348.766 660.085 345.336 664.304 345.336C668.524 345.336 671.953 348.766 671.953 352.986Z" fill="#14CC97" stroke="#263238" stroke-width="0.903904" stroke-miterlimit="10"/>
<path d="M853.794 352.986C853.794 357.206 850.364 360.636 846.145 360.636C841.925 360.636 838.496 357.206 838.496 352.986C838.496 348.766 841.925 345.336 846.145 345.336C850.364 345.336 853.794 348.766 853.794 352.986Z" fill="#14CC97" stroke="#263238" stroke-width="0.903904" stroke-miterlimit="10"/>
<path d="M878.532 333.331C882.757 333.331 886.181 329.906 886.181 325.681C886.181 321.456 882.757 318.031 878.532 318.031C874.308 318.031 870.883 321.456 870.883 325.681C870.883 329.906 874.308 333.331 878.532 333.331Z" fill="#14CC97" stroke="#263238" stroke-width="0.903904" stroke-miterlimit="10"/>
<path d="M633.208 325.681C633.208 329.901 629.778 333.331 625.559 333.331C621.339 333.331 617.91 329.901 617.91 325.681C617.91 321.461 621.339 318.031 625.559 318.031C629.778 318.031 633.208 321.461 633.208 325.681Z" fill="#14CC97" stroke="#263238" stroke-width="0.903904" stroke-miterlimit="10"/>
<path d="M402.43 507.066H219.241C207.642 507.066 198.24 516.469 198.24 528.069V711.284C198.24 722.884 207.642 732.288 219.241 732.288H402.43C414.028 732.288 423.431 722.884 423.431 711.284V528.069C423.431 516.469 414.028 507.066 402.43 507.066Z" fill="white" stroke="#263238" stroke-width="0.903904" stroke-miterlimit="10"/>
<path d="M282.687 635.651L253.517 692.342H385.706" stroke="#263238" stroke-width="0.903904" stroke-linecap="round" stroke-linejoin="round"/>
<path d="M385.706 549.979L324.014 591.004L385.706 609.56" stroke="#263238" stroke-width="0.903904" stroke-linecap="round" stroke-linejoin="round"/>
<path d="M400.291 535.392H371.121V564.566H400.291V535.392Z" fill="#14CC97" stroke="#263238" stroke-width="0.903904" stroke-miterlimit="10"/>
<path d="M400.291 594.973H371.121V624.147H400.291V594.973Z" fill="#14CC97" stroke="#263238" stroke-width="0.903904" stroke-miterlimit="10"/>
<path d="M338.599 576.417H309.429V605.591H338.599V576.417Z" fill="#14CC97" stroke="#263238" stroke-width="0.903904" stroke-miterlimit="10"/>
<path d="M297.272 621.064H268.102V650.238H297.272V621.064Z" fill="#14CC97" stroke="#263238" stroke-width="0.903904" stroke-miterlimit="10"/>
<path d="M268.102 677.755H238.932V706.929H268.102V677.755Z" fill="#14CC97" stroke="#263238" stroke-width="0.903904" stroke-miterlimit="10"/>
<path d="M400.291 677.755H371.121V706.929H400.291V677.755Z" fill="#14CC97" stroke="#263238" stroke-width="0.903904" stroke-miterlimit="10"/>
<path d="M295.653 418.792H112.464C100.866 418.792 91.4633 428.196 91.4633 439.796V623.01C91.4633 634.611 100.866 644.014 112.464 644.014H295.653C307.252 644.014 316.654 634.611 316.654 623.01V439.796C316.654 428.196 307.252 418.792 295.653 418.792Z" fill="white" stroke="#263238" stroke-width="0.903904" stroke-miterlimit="10"/>
<path d="M265.077 440.586H115.277V452.186H265.077V440.586Z" fill="#14CC97"/>
<path d="M201.824 459.701H115.277V471.301H201.824V459.701Z" fill="#14CC97"/>
<path d="M165.679 478.797H115.277V490.398H165.679V478.797Z" fill="#14CC97"/>
<path d="M198.24 497.913H115.277V509.513H198.24V497.913Z" fill="#14CC97"/>
<path d="M244.596 517.009H115.277V528.609H244.596V517.009Z" fill="#14CC97"/>
<path d="M201.824 536.124H115.277V547.724H201.824V536.124Z" fill="#14CC97"/>
<path d="M175.659 555.22H115.277V566.821H175.659V555.22Z" fill="#14CC97"/>
<path d="M213.037 574.336H115.277V585.936H213.037V574.336Z" fill="#14CC97"/>
<path d="M233.787 593.432H115.277V605.032H233.787V593.432Z" fill="#14CC97"/>
<path d="M265.077 612.547H115.277V624.147H265.077V612.547Z" fill="#14CC97"/>
<path opacity="0.3" d="M265.077 440.586H115.277V452.186H265.077V440.586Z" fill="black"/>
<path opacity="0.3" d="M201.824 459.701H115.277V471.301H201.824V459.701Z" fill="black"/>
<path opacity="0.3" d="M165.679 478.797H115.277V490.398H165.679V478.797Z" fill="black"/>
<path opacity="0.3" d="M198.24 497.913H115.277V509.513H198.24V497.913Z" fill="black"/>
<path opacity="0.3" d="M244.596 517.009H115.277V528.609H244.596V517.009Z" fill="black"/>
<path opacity="0.3" d="M201.824 536.124H115.277V547.724H201.824V536.124Z" fill="black"/>
<path opacity="0.3" d="M175.659 555.22H115.277V566.821H175.659V555.22Z" fill="black"/>
<path opacity="0.3" d="M233.787 593.432H115.759V605.032H233.787V593.432Z" fill="black"/>
<path opacity="0.3" d="M213.037 573.969H115.277V585.936H213.037V573.969Z" fill="black"/>
<path opacity="0.3" d="M265.077 612.547H115.277V624.147H265.077V612.547Z" fill="black"/>
<path d="M211.746 399.002H266.252C271.724 399.002 276.174 403.453 276.174 408.926V418.792H201.824V408.926C201.824 403.453 206.274 399.002 211.746 399.002Z" fill="white" stroke="#263238" stroke-width="0.903904" stroke-miterlimit="10"/>
<path d="M174.889 399.002H228.759C234.423 399.002 239.009 403.588 239.009 409.253V418.792H164.639V409.253C164.639 403.588 169.224 399.002 174.889 399.002Z" fill="#14CC97" stroke="#263238" stroke-width="0.903904" stroke-miterlimit="10"/>
<path d="M133.465 399.002H188.645C193.944 399.002 198.24 403.299 198.24 408.598V418.792H123.87V408.598C123.87 403.299 128.167 399.002 133.465 399.002Z" fill="white" stroke="#263238" stroke-width="0.903904" stroke-miterlimit="10"/>
<path d="M824.442 805.385C824.442 805.385 831.706 799.45 835.154 805.944C838.141 811.551 830.993 817.833 822.862 817.814V822.554C822.862 822.554 840.299 823.016 841.647 808.333C842.996 793.65 824.442 797.696 824.442 797.696V805.385Z" fill="#14CC97" stroke="#263238" stroke-width="0.903904" stroke-linecap="round" stroke-linejoin="round"/>
<path d="M823.845 829.279H788.914L783.693 785.402H829.105L823.845 829.279Z" fill="#14CC97" stroke="#263238" stroke-width="0.903904" stroke-linecap="round" stroke-linejoin="round"/>
<path d="M829.027 783.302H783.75C782.431 783.302 781.361 784.372 781.361 785.691V785.923C781.361 787.242 782.431 788.312 783.75 788.312H829.027C830.347 788.312 831.417 787.242 831.417 785.923V785.691C831.417 784.372 830.347 783.302 829.027 783.302Z" fill="white" stroke="#263238" stroke-width="0.903904" stroke-linecap="round" stroke-linejoin="round"/>
<path d="M800.455 778.523C800.455 778.523 816.523 768.888 811.283 757.827C806.042 746.767 788.317 739.483 788.317 722.275C788.317 707.457 804.077 701.965 814.365 696.03" stroke="#263238" stroke-width="0.903904" stroke-linecap="round" stroke-linejoin="round"/>
<path d="M805.734 706.513C801.553 709.345 798.567 713.893 797.623 718.845C796.678 723.797 797.777 729.116 800.628 733.297" stroke="#263238" stroke-width="0.903904" stroke-linecap="round" stroke-linejoin="round"/>
<path d="M814.481 750.235C817.66 756.305 818.566 763.55 816.966 770.218" stroke="#263238" stroke-width="0.903904" stroke-linecap="round" stroke-linejoin="round"/>
<path d="M384.292 825.733C384.292 825.733 383.559 813.15 372.462 808.718C361.364 804.286 355.43 806.117 330.653 812.784C315.047 816.869 299.055 819.355 282.929 820.184V825.733H384.292Z" fill="white" stroke="#263238" stroke-width="0.903904" stroke-linecap="round" stroke-linejoin="round"/>
<path d="M383.887 825.733C383.887 825.733 384.619 813.15 395.717 808.718C406.814 804.286 412.729 806.117 437.526 812.784C453.132 816.869 469.123 819.355 485.23 820.184V825.733H383.887Z" fill="white" stroke="#263238" stroke-width="0.903904" stroke-linecap="round" stroke-linejoin="round"/>
<path d="M489.353 823.517H280.347V827.583H489.353V823.517Z" fill="#263238" stroke="#263238" stroke-width="0.903904" stroke-linecap="round" stroke-linejoin="round"/>
<path d="M389.282 825.502C391.228 819.567 395.832 814.576 401.593 812.129" stroke="#263238" stroke-width="0.903904" stroke-linecap="round" stroke-linejoin="round"/>
<path d="M395.601 824.616C398.51 819.509 403.732 815.79 409.512 814.73C416.429 813.459 423.461 815.829 429.973 818.469C436.485 821.109 447.814 824.596 454.847 824.616" stroke="#263238" stroke-width="0.903904" stroke-linecap="round" stroke-linejoin="round"/>
<path d="M323.235 823.459C330.152 822.727 336.953 821.012 343.388 818.411C347.357 816.792 351.23 814.827 355.391 813.825C359.553 812.803 364.196 812.842 367.857 815.077C369.533 816.099 370.92 817.524 372.153 819.066C373.81 821.147 375.178 823.44 376.219 825.887" stroke="#263238" stroke-width="0.903904" stroke-linecap="round" stroke-linejoin="round"/>
<path d="M361.46 817.794C363.714 818.026 365.757 819.297 367.337 820.916C368.917 822.535 370.111 824.481 371.286 826.427" stroke="#263238" stroke-width="0.903904" stroke-linecap="round" stroke-linejoin="round"/>
<path d="M541.941 806.245C541.941 806.245 530.496 811.891 517.568 811.891C504.64 811.891 478.264 785.125 478.264 785.125C478.264 785.125 477.301 782.235 479.362 771.463C481.424 760.691 500.768 661.742 500.768 661.742C500.768 661.742 503.06 638.715 516.143 624.591C529.225 610.447 554.907 605.437 554.907 605.437C554.907 605.437 611.706 580.695 643.554 588.325C675.441 600.985 710.14 613.819 721.739 623.762C733.337 633.705 761.872 713.577 771.755 754.641C771.755 754.641 749.984 800.907 729.677 813.914C709.389 826.921 660.335 822.662 660.335 822.662L541.941 806.245Z" fill="#14CC97"/>
<path opacity="0.3" d="M534.716 725.852L526.508 616.806C526.508 616.806 509.264 622.76 505.006 642.241C500.748 661.742 475.085 781.792 478.245 785.125C481.385 788.478 498.186 802.815 498.186 802.815C498.186 802.815 516.239 818.269 534.735 809.039C553.231 799.809 534.735 725.852 534.735 725.852H534.716Z" fill="black"/>
<path opacity="0.3" d="M616.253 626.903C615.29 630.16 611.205 631.2 607.795 631.258C598.104 631.393 588.412 627.847 581.091 621.508C579.723 620.332 555.64 635.208 552.865 636.711C548.492 639.062 544.214 641.663 539.744 643.841C535.583 645.883 531.652 646.886 528.936 651.028C526.99 653.977 525.949 657.387 524.909 660.76C519.071 679.894 512.906 698.971 507.588 718.221C502.983 734.89 496.779 753.369 497.049 770.866C497.049 772.118 497.107 773.371 497.319 774.604C500.98 796.976 541.902 806.264 541.902 806.264C541.902 806.264 527.452 815.109 517.53 811.91C507.607 808.711 484.564 795.454 477.281 783.083L497.319 678.179C497.319 678.179 497.068 627.693 533.483 612.605C569.897 597.517 584.212 595.32 584.212 595.32L616.214 626.903H616.253Z" fill="black"/>
<path opacity="0.3" d="M750.678 791.812C750.678 791.812 766.573 774.238 771.736 754.641C771.736 754.641 747.344 674.268 741.063 659.237C734.782 644.207 724.513 627.019 717.327 619.677L705.69 785.125L703.243 819.926C703.243 819.926 716.267 820.485 725.419 816.188C734.571 811.891 750.678 791.792 750.678 791.792V791.812Z" fill="black"/>
<path d="M703.243 819.945L717.327 619.677C717.327 619.677 649.103 587.786 631.3 584.818C613.498 581.851 526.739 615.977 526.739 615.977L539.34 808.075" stroke="#263238" stroke-width="0.903904" stroke-linecap="round" stroke-linejoin="round"/>
<path d="M580.224 487.006L573.211 520.612C573.211 520.612 564.233 514.272 562.325 521.441C560.418 528.609 566.256 538.475 577.546 539.015C577.546 539.015 580.609 554.238 590.609 564.566C600.608 574.914 605.521 578.864 605.521 578.864C605.521 578.864 609.471 604.377 622.341 605.36C635.231 606.323 637.755 594.723 640.356 578.594C640.356 578.594 651.492 559.267 654.748 548.823C654.748 548.823 668.428 539.284 659.295 525.372C659.295 525.372 663.803 492.112 655.962 486.486C648.12 480.859 593.884 483.769 580.205 486.987L580.224 487.006Z" fill="white"/>
<path d="M621.84 608.019C621.84 608.019 617.505 629.813 614.827 630.372C612.149 630.93 601.475 620.737 592.15 608.019C582.825 595.32 584.27 595.32 584.27 595.32C584.27 595.32 588.586 578.652 592.15 576.224C595.714 573.796 608.508 574.104 608.508 574.104L636.599 573.025C636.599 573.025 646.039 571.696 651.723 575.415C657.426 579.134 660.316 595.32 660.316 595.32C660.316 595.32 643.535 626.383 629.74 630.372C629.74 630.372 625.424 620.486 621.84 608.019Z" fill="white"/>
<path d="M529.803 771.656L533.521 719.397" stroke="#263238" stroke-width="0.903904" stroke-miterlimit="10"/>
<path d="M660.316 496.66C660.316 496.66 644.383 502.846 630.279 501.651C630.279 501.651 615.386 516.643 596.331 507.74C596.331 507.74 579.145 554.276 618.546 584.722C618.546 584.722 586.929 574.528 577.546 539.015C577.546 539.015 566.352 540.768 562.325 524.004C562.325 524.004 559.088 517.548 573.866 517.51L573.211 485.137L611.167 492.748L638.391 488.779L660.297 496.679L660.316 496.66Z" fill="#14CC97"/>
<path opacity="0.4" d="M660.316 497.084C660.316 497.084 644.383 503.27 630.279 502.075C630.279 502.075 615.386 517.067 596.331 508.164C596.331 508.164 582.44 557.995 616.927 584.317C616.927 584.317 585.657 573.469 577.546 539.458C577.546 539.458 566.429 538.282 562.325 524.447C562.325 524.447 559.088 517.991 573.866 517.953L573.211 485.58L611.167 493.192L638.391 489.222L660.297 497.123L660.316 497.084Z" fill="white"/>
<path d="M616.947 561.155C618.18 562.157 619.49 563.082 620.838 563.93C621.725 564.489 623.035 564.932 623.671 564.123C623.921 563.814 623.96 563.391 623.979 562.986C624.538 553.794 622.399 544.506 623.709 535.392" stroke="#263238" stroke-width="0.903904" stroke-linecap="round" stroke-linejoin="round"/>
<path d="M629.72 530.17C629.72 530.17 634.287 520.092 646.059 529.149" stroke="#263238" stroke-width="1.80781" stroke-linecap="round" stroke-linejoin="round"/>
<path d="M614.924 532.039C614.924 532.039 606.311 521.325 595.637 532.367" stroke="#263238" stroke-width="1.80781" stroke-linecap="round" stroke-linejoin="round"/>
<path d="M603.306 577.265C603.306 577.265 607.891 604.743 624.056 605.572C637.177 606.246 639.739 583.546 640.24 575.415" stroke="#263238" stroke-width="0.903904" stroke-linecap="round" stroke-linejoin="round"/>
<path d="M575.446 523.676C575.446 523.676 568.317 515.159 563.481 519.321C558.645 523.483 565.89 541.789 577.565 539.015" stroke="#263238" stroke-width="0.903904" stroke-linecap="round" stroke-linejoin="round"/>
<path d="M606.292 564.566C606.292 564.566 611.109 571.021 620.01 573.025" stroke="#263238" stroke-width="0.903904" stroke-linecap="round" stroke-linejoin="round"/>
<path d="M605.541 548.63C606.562 548.63 607.39 546.87 607.39 544.699C607.39 542.528 606.562 540.768 605.541 540.768C604.519 540.768 603.691 542.528 603.691 544.699C603.691 546.87 604.519 548.63 605.541 548.63Z" fill="#263238"/>
<path d="M637.427 544.699C637.427 546.877 636.599 548.63 635.578 548.63C634.556 548.63 633.728 546.877 633.728 544.699C633.728 542.522 634.556 540.768 635.578 540.768C636.599 540.768 637.427 542.522 637.427 544.699Z" fill="#263238"/>
<path d="M622.36 605.36C622.36 605.36 617.871 629.813 614.827 630.371C611.783 630.93 588.778 610.023 584.251 595.32C584.251 595.32 589.125 576.108 593.557 575.415C595.676 575.087 598.104 574.76 600.05 574.528" stroke="#263238" stroke-width="0.903904" stroke-linecap="round" stroke-linejoin="round"/>
<path d="M622.361 605.36C622.361 605.36 626.715 629.813 629.74 630.372C632.765 630.93 655.788 610.023 660.316 595.32C660.316 595.32 654.825 576.243 650.644 574.644C646.425 573.025 642.456 572.312 642.456 572.312" stroke="#263238" stroke-width="0.903904" stroke-linecap="round" stroke-linejoin="round"/>
<path d="M579.762 545.181C582.709 550.287 586.389 532.232 584.829 526.528C583.788 522.732 581.746 519.128 581.553 515.197C581.361 510.823 583.499 506.719 585.041 502.614C586.582 498.51 587.488 493.616 585.079 489.954C593.48 496.101 603.556 499.396 613.922 500.321C616.581 500.553 619.316 500.591 621.821 499.666C624.326 498.741 626.541 496.66 626.965 494.02C636.676 495.253 646.328 496.525 656.039 495.215C664.17 494.117 676.828 492.055 681.009 483.749C687.136 471.61 671.356 459.007 662.05 454.768C639.508 444.478 609.24 442.744 588.952 458.873C586.794 460.588 584.752 462.457 582.42 463.921C577.931 466.734 567.739 468.912 564.175 472.824C559.377 478.084 565.389 518.704 565.389 518.704C565.389 518.704 573.192 515.082 576.428 527.183C578.625 535.392 576.737 539.997 579.723 545.181H579.762Z" fill="#263238"/>
<path d="M653.361 492.594C653.226 493.114 653.149 493.635 653.11 494.136C652.764 498.722 653.573 503.347 654.729 507.779C655.249 509.763 655.981 511.69 656.289 513.694C657.041 518.512 657.041 523.156 660.586 527.087C660.586 527.087 667.406 503.25 664.67 486.216C664.343 484.25 663.726 479.279 660.701 480.204C658.505 480.878 656.906 484.655 656 486.486C655.056 488.355 653.9 490.494 653.38 492.594H653.361Z" fill="#263238"/>
<path d="M559.32 470.242C562.306 468.064 571.092 463.844 580.243 467.428C588.856 451.704 602.381 443.091 602.381 443.091" stroke="#263238" stroke-width="0.903904" stroke-linecap="round" stroke-linejoin="round"/>
<path opacity="0.47" d="M588.605 464.461C588.605 464.461 625.289 490.552 647.504 484.096C669.718 477.641 663.515 458.526 663.515 458.526" stroke="white" stroke-width="0.903904" stroke-linecap="round" stroke-linejoin="round"/>
<path opacity="0.47" d="M592.131 460.067C592.131 460.067 638.198 481.244 645.943 451.28" stroke="white" stroke-width="0.903904" stroke-linecap="round" stroke-linejoin="round"/>
<path d="M603.306 577.265C603.306 577.265 612.072 594.299 618.931 594.01C625.79 593.721 638.41 575.415 638.41 575.415C638.41 575.415 631.609 584.182 621.282 585.088C614.5 585.685 603.306 577.265 603.306 577.265Z" fill="#263238"/>
<path d="M656.309 701.515L657.734 700.859C659.372 700.146 660.297 698.374 659.969 696.62L659.68 694.886C659.391 693.113 657.927 691.784 656.135 691.668L654.421 691.533C653.033 691.437 651.82 690.589 651.222 689.336C650.76 688.354 650.259 687.409 649.719 686.484C649.026 685.29 649.026 683.825 649.719 682.63L650.606 681.127C651.492 679.586 651.242 677.64 649.989 676.368L648.756 675.135C647.504 673.844 645.519 673.612 643.978 674.557L642.456 675.462C641.261 676.156 639.797 676.156 638.602 675.462C636.136 674.056 633.516 672.976 630.761 672.263C629.393 671.917 628.314 670.818 627.986 669.45L627.543 667.658C627.119 665.885 625.52 664.633 623.69 664.691H621.956C620.145 664.633 618.526 665.866 618.103 667.639L617.621 669.566C617.274 670.915 616.253 671.974 614.904 672.341C613.941 672.61 612.978 672.899 612.072 673.246C610.762 673.728 609.278 673.458 608.219 672.533L606.677 671.204C605.348 670.028 603.383 669.932 601.938 670.934L600.57 671.859C599.048 672.861 598.45 674.807 599.125 676.503L599.818 678.314C600.339 679.605 600.107 681.089 599.221 682.168C598.605 682.9 598.027 683.671 597.487 684.461C596.697 685.637 595.31 686.272 593.903 686.118L591.977 685.945C590.185 685.752 588.509 686.812 587.911 688.508L587.295 690.203C586.678 691.861 587.256 693.71 588.701 694.713L590.474 695.965C591.611 696.755 592.227 698.104 592.092 699.491C591.977 700.493 591.938 701.515 591.938 702.517C591.9 703.866 591.168 705.099 590.012 705.792L588.2 706.794C586.582 707.642 585.792 709.492 586.274 711.246L586.717 712.922C587.16 714.676 588.759 715.87 590.57 715.813H592.497C593.884 715.813 595.175 716.545 595.869 717.74C596.389 718.665 596.948 719.551 597.545 720.418C598.316 721.555 598.431 723.019 597.834 724.272L597.044 725.91C596.235 727.529 596.678 729.475 598.065 730.612L599.394 731.729C600.762 732.905 602.747 732.963 604.192 731.903L605.56 730.939C606.677 730.13 608.161 729.995 609.413 730.573C610.396 731.036 611.398 731.46 612.419 731.845C613.71 732.327 614.635 733.464 614.866 734.812L615.155 736.489C615.444 738.262 616.908 739.591 618.7 739.707L620.472 739.861C622.245 740.035 623.902 738.955 624.48 737.26L625.019 735.757C625.482 734.427 626.619 733.464 628.006 733.232C629.104 733.059 630.183 732.828 631.243 732.539C632.572 732.192 634.017 732.577 634.98 733.56L636.117 734.716C637.35 735.988 639.296 736.258 640.837 735.352L642.359 734.485C643.978 733.637 644.768 731.787 644.286 730.034L643.862 728.531C643.458 727.162 643.824 725.679 644.845 724.677C645.635 723.887 646.406 723.058 647.118 722.191C648.024 721.112 649.43 720.611 650.798 720.881L652.34 721.17C654.093 721.516 655.866 720.611 656.598 718.973L657.33 717.393C658.12 715.755 657.657 713.809 656.232 712.691L655.076 711.747C653.997 710.899 653.457 709.531 653.65 708.163C653.843 707.006 653.958 705.85 654.016 704.694C654.151 703.287 655.018 702.073 656.309 701.515ZM633.111 702.517C633.111 708.143 628.564 712.691 622.939 712.691C617.313 712.691 612.766 708.143 612.766 702.517C612.766 696.89 617.313 692.342 622.939 692.342C628.526 692.342 633.073 696.871 633.092 702.459V702.517H633.111Z" fill="#263238"/>
<path d="M530.207 764.603C528.839 766.472 526.855 767.667 525.217 769.247C520.555 773.698 516.451 780.057 514.563 786.243C513.638 789.23 513.445 792.544 514.621 795.454C516.875 800.984 524.061 806.726 529.822 803.085" stroke="#263238" stroke-width="0.903904" stroke-linecap="round" stroke-linejoin="round"/>
<path d="M529.745 754.756C524.273 753.909 518.878 757.069 515.141 761.154C511.384 765.239 508.802 770.23 505.372 774.585" stroke="#263238" stroke-width="0.903904" stroke-linecap="round" stroke-linejoin="round"/>
<path d="M529.321 811.024C522.674 812.392 513.734 811.679 507.627 808.692C503.215 806.534 499.38 803.374 495.604 800.233L481.385 788.459C479.092 786.571 476.569 783.892 477.513 781.079C477.513 781.079 501.269 655.769 505.006 642.242C509.322 626.595 526.739 615.958 526.739 615.958" stroke="#263238" stroke-width="0.903904" stroke-linecap="round" stroke-linejoin="round"/>
<path d="M707.674 766.01C713.416 769.999 718.849 777.456 721.18 784.046C723.531 790.617 724.475 797.593 725.419 804.51C721.739 806.572 714.148 811.91 707.674 811.91" stroke="#263238" stroke-width="0.903904" stroke-linecap="round" stroke-linejoin="round"/>
<path d="M708.483 755.527C714.244 754.005 719.966 757.917 724.321 762.002C728.675 766.087 733.164 770.827 739.098 771.463" stroke="#263238" stroke-width="0.903904" stroke-linecap="round" stroke-linejoin="round"/>
<path d="M709.581 820.639C720.756 819.464 730.929 813.355 739.002 805.551C747.075 797.747 753.298 788.266 759.463 778.882C764.453 771.27 769.54 763.486 771.717 754.66C771.717 754.66 752.007 689.51 741.044 659.257C729.638 627.732 717.307 619.696 717.307 619.696" stroke="#263238" stroke-width="0.903904" stroke-linecap="round" stroke-linejoin="round"/>
<path d="M708.483 755.527C718.656 746.991 734.243 753.909 745.167 759.612" stroke="#263238" stroke-width="0.903904" stroke-linecap="round" stroke-linejoin="round"/>
<path d="M707.674 720.649H530.207V822.662H707.674V720.649Z" fill="white"/>
<path d="M708.483 822.662H529.321V828H708.483V822.662Z" fill="#263238"/>
<path d="M529.321 822.662L707.674 720.649L708.483 822.662H529.321Z" fill="#263238"/>
<path opacity="0.9" d="M529.321 822.662L707.674 720.649L708.483 822.662H529.321Z" fill="white"/>
<path d="M632.012 780.711C637.918 774.804 637.918 765.226 632.011 759.319C626.105 753.411 616.529 753.411 610.622 759.319C604.716 765.226 604.716 774.804 610.622 780.711C616.529 786.618 626.105 786.618 632.012 780.711Z" fill="#263238"/>
<path d="M707.674 720.649H530.207V822.662H707.674V720.649Z" stroke="#263238" stroke-width="0.903904" stroke-linecap="round" stroke-linejoin="round"/>
<path d="M574.617 513.348C574.617 513.348 578.49 548.996 583.442 555.336C588.374 561.695 604.269 584.972 621.551 584.626C638.834 584.279 650.124 562.042 652.956 552.503C655.788 542.984 658.601 529.573 659.314 515.448" stroke="#263238" stroke-width="0.903904" stroke-linecap="round" stroke-linejoin="round"/>
<path d="M654.767 548.823C654.767 548.823 667.599 542.194 659.314 525.372" stroke="#263238" stroke-width="0.903904" stroke-linecap="round" stroke-linejoin="round"/>
</g>
<g style="mix-blend-mode:darken" opacity="0.25">
<path d="M0.5 480C0.5 214.903 215.403 0 480.5 0H542.5C807.597 0 1022.5 214.903 1022.5 480H0.5Z" fill="url(#paint0_linear_2386_5801)"/>
</g>
<defs>
<linearGradient id="paint0_linear_2386_5801" x1="511.5" y1="0" x2="511.5" y2="480" gradientUnits="userSpaceOnUse">
<stop stop-color="#1474CC"/>
<stop offset="1" stop-color="#ADFFE7" stop-opacity="0"/>
</linearGradient>
<clipPath id="clip0_2386_5801">
<rect width="840.631" height="602" fill="white" transform="translate(90.5 226)"/>
</clipPath>
</defs>
</svg>
