<svg width="25" height="30" viewBox="0 0 25 30" fill="none" xmlns="http://www.w3.org/2000/svg">
<path d="M23.7335 10.228C23.5625 10.363 20.5437 12.0942 20.5437 15.9436C20.5437 20.396 24.385 21.9712 24.5 22.0102C24.4823 22.1062 23.8898 24.1674 22.4747 26.2676C21.2129 28.1158 19.8952 29.961 17.8905 29.961C15.8858 29.961 15.3699 28.7759 13.0557 28.7759C10.8005 28.7759 9.99859 30 8.16491 30C6.33122 30 5.05177 28.2898 3.5807 26.1896C1.87674 23.7234 0.5 19.892 0.5 16.2556C0.5 10.423 4.22632 7.32973 7.89369 7.32973C9.84234 7.32973 11.4667 8.63186 12.6901 8.63186C13.8546 8.63186 15.6706 7.25173 17.8875 7.25173C18.7277 7.25173 21.7465 7.32973 23.7335 10.228ZM16.8351 4.78248C17.7519 3.67537 18.4005 2.13921 18.4005 0.60306C18.4005 0.390039 18.3828 0.174017 18.3445 0C16.8528 0.0570057 15.0781 1.0111 14.0079 2.27423C13.1677 3.24632 12.3836 4.78248 12.3836 6.33963C12.3836 6.57366 12.4219 6.80768 12.4396 6.88269C12.5339 6.90069 12.6872 6.92169 12.8405 6.92169C14.1789 6.92169 15.8622 6.0096 16.8351 4.78248Z" fill="white"/>
</svg>
