<svg width="95" height="38" viewBox="0 0 95 38" fill="none" xmlns="http://www.w3.org/2000/svg">
<path d="M0.482422 23.471V0.0839844H14.3954V23.4596H0.482422V23.471ZM12.7097 18.03L13.0677 15.4467L11.7745 15.321L11.3819 17.3099C10.5737 17.71 9.58072 17.9043 8.39148 17.9043C6.77503 17.9043 5.49341 17.4013 4.55818 16.384C3.6114 15.3667 3.14956 14.0293 3.14956 12.3604C3.14956 10.7373 3.6114 9.39992 4.52354 8.34831C5.43568 7.29669 6.6365 6.77088 8.12594 6.77088C8.88798 6.77088 9.53454 6.86233 10.0541 7.03379C10.5737 7.20525 11.0471 7.43386 11.4974 7.73106L11.8784 9.69712L13.1946 9.57138L12.8136 6.98807C12.2594 6.51941 11.6013 6.1422 10.8392 5.84501C10.0772 5.55924 9.13044 5.41064 8.01048 5.41064C6.68268 5.41064 5.53962 5.7307 4.58129 6.38224C3.62297 7.03379 2.87247 7.89108 2.34136 8.95413C1.81024 10.0286 1.54467 11.1831 1.54467 12.4176C1.54467 14.3722 2.15661 16.0068 3.38049 17.3099C4.60438 18.613 6.19773 19.2645 8.1721 19.2645C10.1118 19.2645 11.6244 18.853 12.7097 18.03Z" fill="#092532"/>
<path d="M19.1182 23.471V0.0839844H25.099V23.4596H19.1182V23.471ZM19.7532 19.0588H24.4755V17.8814H22.8476V4.82768H19.7301V6.00503H21.3812V17.8814H19.7532V19.0588Z" fill="#092532"/>
<path d="M29.8213 23.471V0.0839844H40.3282V23.4596H29.8213V23.471ZM31.7264 10.5544L31.3916 12.6805L32.6039 12.8291L32.9618 11.2402C33.4814 10.9888 34.0702 10.863 34.763 10.863C35.5943 10.863 36.1601 11.0688 36.4488 11.4803C36.7374 11.8918 36.8759 12.429 36.8759 13.092V13.915C36.6219 13.8921 36.3564 13.8693 36.0677 13.8579C35.7791 13.8464 35.502 13.835 35.2249 13.835C34.1857 13.835 33.1927 14.0179 32.269 14.3837C31.3454 14.7494 30.8835 15.5153 30.8835 16.6698C30.8835 17.6528 31.1953 18.3272 31.8303 18.693C32.4654 19.0702 33.0888 19.2531 33.7008 19.2531C34.4513 19.2531 35.0978 19.0588 35.629 18.6701C36.1601 18.2815 36.5758 17.8471 36.8759 17.3442V17.3899C36.899 18.6358 37.4648 19.2531 38.5732 19.2531C39.0004 19.2531 39.4045 19.1502 39.7855 18.9445L39.7625 17.9957C39.5777 18.0757 39.3699 18.1215 39.139 18.1215C38.6078 18.1215 38.3423 17.79 38.3423 17.127V12.7491C38.3423 10.6916 37.2339 9.66283 35.017 9.66283C34.4051 9.66283 33.8278 9.73141 33.2851 9.86858C32.7309 10.0172 32.2113 10.2458 31.7264 10.5544ZM36.8644 15.6067C36.8067 16.3612 36.4949 16.967 35.9292 17.4013C35.3634 17.8471 34.763 18.0643 34.1164 18.0643C33.7123 18.0643 33.3198 17.95 32.9503 17.7328C32.5693 17.5156 32.3845 17.1041 32.3845 16.5098C32.3845 15.7896 32.6732 15.3324 33.2274 15.1152C33.7931 14.898 34.4166 14.7952 35.1209 14.7952C35.4327 14.7952 35.7329 14.8066 36.0215 14.8409C36.3102 14.8638 36.5988 14.8866 36.8528 14.898V15.6067H36.8644Z" fill="#092532"/>
<path d="M45.0615 23.471V0.0839844H54.6101V23.4596H45.0615V23.471ZM53.6056 16.3955C53.6056 15.6639 53.4093 15.1267 53.0167 14.7723C52.6242 14.418 52.1508 14.1779 51.5735 14.0407C50.9962 13.9036 50.4304 13.7893 49.8647 13.6978C49.2989 13.6064 48.814 13.4578 48.4214 13.2635C48.0289 13.0691 47.8326 12.7262 47.8326 12.2347C47.8326 11.7661 48.0173 11.4231 48.3983 11.1945C48.7793 10.9659 49.2527 10.863 49.8416 10.863C50.5228 10.863 51.1579 11.0116 51.7467 11.3203L51.9776 12.8062L53.19 12.6576L52.959 10.5087C52.5665 10.2686 52.0931 10.0743 51.5273 9.9143C50.9616 9.75427 50.3612 9.66283 49.7146 9.66283C48.8602 9.66283 48.0751 9.86858 47.3477 10.2686C46.6203 10.6687 46.2623 11.3546 46.2623 12.3376C46.2623 13.0577 46.4586 13.5835 46.8511 13.915C47.2437 14.2579 47.7287 14.4865 48.3175 14.6237C48.9064 14.7609 49.4836 14.8752 50.061 14.9781C50.6383 15.0695 51.1232 15.2295 51.5158 15.4353C51.9083 15.641 52.1046 15.9954 52.1046 16.5098C52.1046 17.0356 51.8506 17.4242 51.3425 17.6757C50.8345 17.9272 50.2572 18.0529 49.5991 18.0529C48.8602 18.0529 48.1674 17.9043 47.5324 17.5957L47.5901 16.3726L46.424 16.2469L46.1353 18.3386C46.5394 18.6016 47.0705 18.8187 47.7171 18.9902C48.3637 19.1617 49.0103 19.2531 49.6684 19.2531C50.7884 19.2531 51.7236 19.0016 52.4741 18.4872C53.2246 17.9957 53.6056 17.287 53.6056 16.3955Z" fill="#092532"/>
<path d="M59.333 23.471V0.0839844H68.8816V23.4596H59.333V23.471ZM67.877 16.3955C67.877 15.6639 67.6808 15.1267 67.2882 14.7723C66.8956 14.418 66.4222 14.1779 65.8449 14.0407C65.2676 13.9036 64.7019 13.7893 64.1361 13.6978C63.5704 13.6064 63.0854 13.4578 62.6929 13.2635C62.3003 13.0691 62.104 12.7262 62.104 12.2347C62.104 11.7661 62.2887 11.4231 62.6698 11.1945C63.0508 10.9659 63.5242 10.863 64.113 10.863C64.7942 10.863 65.4293 11.0116 66.0182 11.3203L66.2491 12.8062L67.4614 12.6576L67.2305 10.5087C66.8379 10.2686 66.3645 10.0743 65.7988 9.9143C65.233 9.75427 64.6326 9.66283 63.986 9.66283C63.1316 9.66283 62.3465 9.86858 61.6191 10.2686C60.8917 10.6687 60.5338 11.3546 60.5338 12.3376C60.5338 13.0577 60.7301 13.5835 61.1226 13.915C61.5152 14.2579 62.0002 14.4865 62.589 14.6237C63.1779 14.7609 63.7551 14.8752 64.3324 14.9781C64.9097 15.0695 65.3946 15.2295 65.7872 15.4353C66.1798 15.641 66.3761 15.9954 66.3761 16.5098C66.3761 17.0356 66.1221 17.4242 65.6141 17.6757C65.106 17.9272 64.5287 18.0529 63.8706 18.0529C63.1317 18.0529 62.4388 17.9043 61.8038 17.5957L61.8616 16.3726L60.6954 16.2469L60.4068 18.3386C60.8109 18.6016 61.342 18.8187 61.9886 18.9902C62.6352 19.1617 63.2817 19.2531 63.9399 19.2531C65.0598 19.2531 65.9951 19.0016 66.7456 18.4872C67.4961 17.9957 67.877 17.287 67.877 16.3955Z" fill="#092532"/>
<path d="M73.6035 23.471V0.0839844H79.8961V23.4596H73.6035V23.471ZM74.5272 19.0588H79.2496V17.8814H77.6215V9.85715H74.4926V11.0345H76.1667V17.8814H74.5387V19.0588H74.5272ZM76.0051 5.59353V7.47958H77.5985V5.59353H76.0051Z" fill="#092532"/>
<path d="M84.6182 23.471V0.0839844H94.6748V23.4596H84.6182V23.471ZM93.7742 15.9611L92.5157 15.6868C92.2386 17.2413 91.3958 18.0186 90.0102 18.0186C89.0865 18.0186 88.3822 17.71 87.8973 17.0927C87.4123 16.4755 87.1699 15.6067 87.1699 14.5094C87.1699 13.5149 87.3892 12.6691 87.8164 11.9604C88.2436 11.2517 88.9595 10.9088 89.9524 10.9088C90.7145 10.9088 91.3842 11.0802 91.9384 11.4231L92.2963 12.9777L93.5086 12.8291L93.1507 10.6116C92.6773 10.2572 92.1809 10.0057 91.6613 9.86858C91.1417 9.73141 90.5759 9.66283 89.964 9.66283C88.5207 9.66283 87.4239 10.1658 86.708 11.1717C85.9806 12.1776 85.6227 13.3206 85.6227 14.5894C85.6227 16.064 86.0037 17.2185 86.7773 18.03C87.5393 18.853 88.567 19.2645 89.8486 19.2645C91.1302 19.2645 92.077 18.9102 92.6774 18.2129C93.2778 17.5042 93.6472 16.7612 93.7742 15.9611Z" fill="#092532"/>
<path d="M6.49826 36.2396C6.2327 36.7197 5.84013 37.0969 5.3321 37.3598C4.81253 37.6227 4.20058 37.7598 3.48472 37.7598H1.41797V31.313H3.48472C4.20058 31.313 4.82407 31.4387 5.3321 31.7016C5.84013 31.9645 6.2327 32.3303 6.49826 32.8218C6.76382 33.3133 6.89083 33.8734 6.89083 34.5364C6.89083 35.188 6.76382 35.7595 6.49826 36.2396ZM5.35518 36.3653C5.80548 35.9309 6.02487 35.3251 6.02487 34.5364C6.02487 33.7477 5.80548 33.1419 5.35518 32.7075C4.90488 32.2732 4.2583 32.056 3.40389 32.056H2.23776V37.0169H3.40389C4.2583 37.0169 4.90488 36.7997 5.35518 36.3653Z" fill="#092532"/>
<path d="M11.1749 31.9869V34.193H13.6458V34.8331H11.1749V37.085H13.9229V37.7594H10.332V31.3125H13.9229V31.9869H11.1749Z" fill="#092532"/>
<path d="M21.2198 36.9361C21.0697 37.199 20.8503 37.4162 20.5501 37.5762C20.2499 37.7362 19.8804 37.8277 19.4301 37.8277C19.0029 37.8277 18.6103 37.7477 18.2755 37.5991C17.9407 37.439 17.6751 37.2333 17.4673 36.959C17.271 36.6846 17.1555 36.376 17.1209 36.0331H18.0215C18.0446 36.216 18.1023 36.3989 18.2062 36.5703C18.3101 36.7418 18.4718 36.8904 18.6681 37.0047C18.8643 37.119 19.1068 37.1761 19.3955 37.1761C19.7649 37.1761 20.0536 37.0847 20.2499 36.8789C20.4462 36.6732 20.5501 36.4331 20.5501 36.1245C20.5501 35.8616 20.4808 35.6444 20.3423 35.4844C20.2037 35.3244 20.0305 35.1872 19.8342 35.0958C19.6379 35.0043 19.3493 34.9014 19.0029 34.7871C18.5873 34.65 18.264 34.5242 18.01 34.4099C17.756 34.2956 17.5481 34.1127 17.3749 33.8727C17.2017 33.6326 17.1094 33.324 17.1094 32.9354C17.1094 32.6039 17.1902 32.3067 17.3518 32.0438C17.5135 31.7923 17.7444 31.5866 18.0561 31.4494C18.3563 31.3122 18.7258 31.2437 19.1299 31.2437C19.765 31.2437 20.2845 31.3923 20.654 31.7009C21.035 32.0095 21.2428 32.3981 21.3121 32.8782H20.4115C20.3653 32.6268 20.2268 32.3981 20.019 32.2038C19.7996 32.0095 19.5109 31.9066 19.1415 31.9066C18.8066 31.9066 18.5295 31.9981 18.3333 32.1695C18.1254 32.341 18.033 32.5925 18.033 32.9011C18.033 33.1526 18.1023 33.3583 18.2293 33.5069C18.3679 33.6669 18.5295 33.7812 18.7258 33.8727C18.9221 33.9641 19.1992 34.0556 19.534 34.1699C19.9497 34.3071 20.2845 34.4328 20.5501 34.5585C20.8041 34.6843 21.0235 34.8672 21.1967 35.1072C21.3698 35.3472 21.4622 35.6787 21.4622 36.0902C21.4391 36.3874 21.3699 36.6732 21.2198 36.9361Z" fill="#092532"/>
<path d="M25.7228 31.3125V37.7594H24.8799V31.3125H25.7228Z" fill="#092532"/>
<path d="M34.2438 31.8041C34.7634 32.1813 35.1098 32.6842 35.283 33.3244H34.3939C34.2438 32.9357 33.9783 32.6157 33.6203 32.387C33.2624 32.147 32.8352 32.0327 32.3387 32.0327C31.9 32.0327 31.4958 32.1356 31.1495 32.3413C30.8031 32.5471 30.526 32.8328 30.3182 33.2101C30.1219 33.5873 30.018 34.0331 30.018 34.5474C30.018 35.0732 30.1219 35.5305 30.3182 35.9077C30.5145 36.2849 30.8031 36.5821 31.161 36.7878C31.519 36.9936 31.9346 37.0965 32.408 37.0965C32.8121 37.0965 33.17 37.005 33.5049 36.845C33.8397 36.6735 34.1053 36.422 34.3246 36.102C34.544 35.7819 34.6595 35.3933 34.7057 34.9589H32.1424V34.3417H35.41V35.1075C35.3522 35.6219 35.1906 36.0791 34.9251 36.5021C34.6595 36.925 34.3016 37.245 33.8513 37.4851C33.401 37.7251 32.8929 37.8509 32.3156 37.8509C31.6921 37.8509 31.1379 37.7137 30.653 37.4394C30.1681 37.165 29.7986 36.7764 29.533 36.2735C29.2675 35.7819 29.1289 35.2104 29.1289 34.5703C29.1289 33.9302 29.2675 33.3586 29.533 32.8671C29.7986 32.3756 30.1796 31.9755 30.653 31.7012C31.1264 31.4269 31.6806 31.2783 32.3041 31.2783C33.0892 31.2554 33.7243 31.4383 34.2438 31.8041Z" fill="#092532"/>
<path d="M43.93 37.7594H43.0872L39.7042 32.6613V37.7594H38.8613V31.3125H39.7042L43.0872 36.4105V31.3125H43.93V37.7594Z" fill="#092532"/>
<path d="M56.0772 36.9361C55.9271 37.199 55.7077 37.4162 55.4075 37.5762C55.1073 37.7362 54.7379 37.8277 54.2876 37.8277C53.8604 37.8277 53.4678 37.7477 53.133 37.5991C52.7981 37.439 52.5326 37.2333 52.3247 36.959C52.1284 36.6846 52.013 36.376 51.9784 36.0331H52.8789C52.902 36.216 52.9598 36.3989 53.0637 36.5703C53.1676 36.7418 53.3292 36.8904 53.5255 37.0047C53.7218 37.119 53.9642 37.1761 54.2529 37.1761C54.6224 37.1761 54.911 37.0847 55.1073 36.8789C55.3036 36.6732 55.4075 36.4331 55.4075 36.1245C55.4075 35.8616 55.3382 35.6444 55.1997 35.4844C55.0611 35.3244 54.8879 35.1872 54.6917 35.0958C54.4954 35.0043 54.2067 34.9014 53.8604 34.7871C53.4447 34.65 53.1214 34.5242 52.8674 34.4099C52.6133 34.2956 52.4055 34.1127 52.2323 33.8727C52.0591 33.6326 51.9668 33.324 51.9668 32.9354C51.9668 32.6039 52.0476 32.3067 52.2092 32.0438C52.3709 31.7923 52.6018 31.5866 52.9136 31.4494C53.2138 31.3122 53.5832 31.2437 53.9874 31.2437C54.6224 31.2437 55.142 31.3923 55.5114 31.7009C55.8925 32.0095 56.1003 32.3981 56.1696 32.8782H55.269C55.2228 32.6268 55.0842 32.3981 54.8764 32.2038C54.657 32.0095 54.3684 31.9066 53.9989 31.9066C53.6641 31.9066 53.387 31.9981 53.1907 32.1695C52.9828 32.341 52.8905 32.5925 52.8905 32.9011C52.8905 33.1526 52.9597 33.3583 53.0867 33.5069C53.2253 33.6669 53.3869 33.7812 53.5832 33.8727C53.7795 33.9641 54.0566 34.0556 54.3914 34.1699C54.8071 34.3071 55.1419 34.4328 55.4075 34.5585C55.6615 34.6843 55.8809 34.8672 56.0541 35.1072C56.2273 35.3472 56.3196 35.6787 56.3196 36.0902C56.2965 36.3874 56.2273 36.6732 56.0772 36.9361Z" fill="#092532"/>
<path d="M63.7322 31.3125V31.9869H61.8963V37.7594H61.0419V31.9869H59.2061V31.3125H63.7322Z" fill="#092532"/>
<path d="M67.6576 31.3125V35.176C67.6576 35.8047 67.7962 36.2734 68.0848 36.582C68.3735 36.8792 68.7545 37.0392 69.2625 37.0392C69.759 37.0392 70.14 36.8906 70.4171 36.582C70.6942 36.2734 70.8328 35.8162 70.8328 35.1875V31.3239H71.6757V35.1875C71.6757 36.0676 71.4563 36.7306 71.0176 37.165C70.5788 37.6108 69.9899 37.8279 69.251 37.8279C68.5236 37.8279 67.9348 37.6108 67.496 37.165C67.0573 36.7192 66.8379 36.0676 66.8379 35.1875V31.3239H67.6576V31.3125Z" fill="#092532"/>
<path d="M80.3703 36.2391C80.1047 36.7192 79.7121 37.0964 79.2041 37.3593C78.6845 37.6222 78.0726 37.7594 77.3568 37.7594H75.29V31.3125H77.3568C78.0726 31.3125 78.6961 31.4382 79.2041 31.7011C79.7121 31.964 80.1047 32.3298 80.3703 32.8213C80.6358 33.3129 80.7629 33.873 80.7629 34.5359C80.7629 35.1875 80.6358 35.759 80.3703 36.2391ZM79.2388 36.3648C79.6891 35.9305 79.9085 35.3246 79.9085 34.5359C79.9085 33.7472 79.6891 33.1414 79.2388 32.707C78.7885 32.2727 78.1419 32.0555 77.2875 32.0555H76.1213V37.0164H77.2875C78.1303 37.0164 78.7885 36.7992 79.2388 36.3648Z" fill="#092532"/>
<path d="M85.0577 31.3125V37.7594H84.2148V31.3125H85.0577Z" fill="#092532"/>
<path d="M93.3241 31.6554C93.8091 31.9411 94.1901 32.3298 94.4672 32.8327C94.7443 33.3356 94.8828 33.9072 94.8828 34.5359C94.8828 35.1645 94.7443 35.7361 94.4672 36.239C94.1901 36.742 93.8091 37.1306 93.3241 37.4164C92.8392 37.7021 92.2965 37.8393 91.6961 37.8393C91.0957 37.8393 90.5415 37.7021 90.0566 37.4164C89.5716 37.1306 89.1791 36.742 88.902 36.239C88.6249 35.7361 88.4863 35.1645 88.4863 34.5359C88.4863 33.9072 88.6249 33.3356 88.902 32.8327C89.1791 32.3298 89.5601 31.9411 90.0566 31.6554C90.5531 31.3696 91.0957 31.2324 91.6961 31.2324C92.2965 31.2324 92.8392 31.3696 93.3241 31.6554ZM90.4838 32.3183C90.1258 32.5241 89.8488 32.8098 89.6525 33.1985C89.4562 33.5757 89.3523 34.0215 89.3523 34.5359C89.3523 35.0388 89.4562 35.4846 89.6525 35.8732C89.8488 36.2619 90.1258 36.5476 90.4838 36.7534C90.8417 36.9591 91.2342 37.062 91.6845 37.062C92.1233 37.062 92.5274 36.9591 92.8854 36.7534C93.2433 36.5476 93.5204 36.2505 93.7167 35.8732C93.9129 35.496 94.0169 35.0502 94.0169 34.5473C94.0169 34.0329 93.9129 33.5871 93.7167 33.2099C93.5204 32.8327 93.2433 32.5355 92.8854 32.3298C92.5274 32.124 92.1348 32.0211 91.6845 32.0211C91.2458 32.0097 90.8417 32.1126 90.4838 32.3183Z" fill="#092532"/>
</svg>
