<svg width="133" height="36" viewBox="0 0 133 36" fill="none" xmlns="http://www.w3.org/2000/svg">
<path d="M28.766 35.094H7.07389C3.50913 35.094 0.620117 32.2339 0.620117 28.7048V7.22958C0.620117 3.70047 3.50913 0.840332 7.07389 0.840332H28.766C32.3308 0.840332 35.2198 3.70047 35.2198 7.22958V28.7048C35.2198 32.2339 32.3308 35.094 28.766 35.094Z" fill="#092532"/>
<path d="M24.1529 18.2826C24.7699 19.0485 25.0832 19.9405 25.0832 20.9488C25.0832 22.4322 24.5838 23.5957 23.5849 24.4198C22.586 25.2439 21.1561 25.6705 19.2954 25.6705H11.167V8.36426H19.0995C20.8819 8.36426 22.253 8.75207 23.2225 9.51801C24.1921 10.2839 24.6817 11.3795 24.6817 12.795C24.6817 13.8421 24.3977 14.705 23.8395 15.4031C23.2813 16.1012 22.5468 16.5471 21.636 16.7604C22.7035 17.0125 23.5359 17.5167 24.1529 18.2826ZM15.3879 15.4419H18.1594C19.6284 15.4419 20.3629 14.8214 20.3629 13.5804C20.3629 12.3394 19.6088 11.7189 18.1104 11.7189H15.3879V15.4419ZM20.7546 20.3671C20.7546 19.7466 20.549 19.2618 20.1376 18.9128C19.7263 18.5638 19.1387 18.3893 18.3846 18.3893H15.3977V22.2771H18.414C19.9712 22.2674 20.7546 21.6372 20.7546 20.3671Z" fill="white"/>
<path d="M55.2666 25.6705L51.4863 19.1358H50.5266V25.6705H46.2959V8.36426H53.5135C54.8944 8.36426 56.0696 8.59695 57.0196 9.07202C57.9793 9.54709 58.6942 10.1967 59.1741 11.0208C59.6539 11.8449 59.889 12.7853 59.889 13.8518C59.889 15.1122 59.5364 16.1787 58.8411 17.061C58.136 17.9433 57.1273 18.5444 55.7856 18.874L59.9379 25.6802H55.2666V25.6705ZM50.5266 16.2757H53.1414C53.9836 16.2757 54.6006 16.0915 54.9923 15.723C55.3841 15.3546 55.5897 14.8117 55.5897 14.0942C55.5897 13.4058 55.3841 12.8726 54.9825 12.4751C54.581 12.0873 53.964 11.8837 53.1414 11.8837H50.5266V16.2757Z" fill="#092532"/>
<path d="M79.0253 22.519H72.4737L71.3866 25.6797H66.9404L73.3452 8.49951H78.2125L84.6173 25.6797H80.1222L79.0253 22.519ZM77.9383 19.3292L75.7642 12.9691L73.5607 19.3292H77.9383Z" fill="#092532"/>
<path d="M107.954 25.6705H103.723L96.6526 15.0444V25.6705H92.4219V8.36426H96.6526L103.723 19.0873V8.36426H107.954V25.6705Z" fill="#092532"/>
<path d="M131.674 21.5015C130.94 22.8104 129.882 23.8381 128.511 24.575C127.13 25.3118 125.514 25.6802 123.653 25.6802H117.053V8.37402H123.653C125.534 8.37402 127.159 8.73275 128.521 9.45021C129.892 10.1677 130.94 11.176 131.674 12.4849C132.409 13.7937 132.771 15.2868 132.771 16.9932C132.771 18.6802 132.399 20.183 131.674 21.5015ZM127.12 20.6289C128.031 19.7661 128.491 18.5444 128.491 16.9835C128.491 15.4128 128.031 14.2009 127.12 13.338C126.209 12.4752 124.927 12.0389 123.271 12.0389H121.274V21.9281H123.271C124.927 21.9281 126.209 21.5015 127.12 20.6289Z" fill="#092532"/>
</svg>
