<svg width="118" height="36" viewBox="0 0 118 36" fill="none" xmlns="http://www.w3.org/2000/svg">
<path d="M16.9776 7.39584L17.8436 7.21295C18.063 7.21295 18.2477 7.25867 18.3747 7.35012C18.5017 7.44156 18.571 7.53301 18.571 7.61302C18.571 7.69303 18.5479 7.81877 18.5132 7.96737C18.4786 8.11597 18.1553 9.64767 17.5549 12.5396C16.9545 15.4315 16.5158 17.5919 16.2387 19.0093C17.578 17.2033 19.1483 14.9858 20.9379 12.3453C22.7276 9.70482 23.7783 7.95594 24.0785 7.08721C24.1708 6.81288 24.2978 6.60713 24.4479 6.45853C24.598 6.30993 24.7366 6.21849 24.852 6.19563C24.9675 6.17276 25.1522 6.1499 25.3947 6.1499C25.6372 6.1499 25.9258 6.20706 26.2607 6.30993C26.5955 6.41281 26.7687 6.58427 26.7687 6.83574C26.7687 7.29296 26.0759 8.63034 24.7019 10.825C23.328 13.0197 21.7462 15.3515 19.9681 17.8205C18.19 20.2896 16.7121 22.2442 15.5228 23.6844C15.315 23.9359 15.0494 24.0731 14.7492 24.0731C14.449 24.0731 14.1258 24.0159 13.7909 23.9131C13.4561 23.8102 13.2829 23.6273 13.2829 23.353C13.2829 22.4957 14.0449 18.3578 15.569 10.9622C14.2643 12.6311 12.6825 14.9629 10.8236 17.9463C8.88383 21.0325 7.78697 22.9529 7.53295 23.6844C7.3944 24.1302 7.23276 24.3931 7.04802 24.4617C6.92101 24.5189 6.78245 24.5417 6.6439 24.5417L5.70867 24.6446C5.52394 24.6446 5.36229 24.5989 5.20064 24.496C5.05055 24.3931 4.96973 24.2903 4.96973 24.176C4.96973 23.8673 5.40848 22.93 6.27444 21.3755C7.14039 19.8209 8.16798 18.1292 9.33414 16.3003C10.5003 14.4714 11.7126 12.6996 12.9827 10.9736C14.2528 9.2476 15.2342 8.08167 15.9269 7.49871C16.0655 7.37298 16.2271 7.31582 16.4119 7.31582L16.9776 7.39584Z" fill="#092532"/>
<path d="M30.8553 15.1457C31.4557 15.1457 31.7559 15.3515 31.7559 15.7516C31.7559 15.9687 31.7097 16.1288 31.6058 16.2316C31.5019 16.3345 31.2825 16.666 30.9477 17.249C30.6128 17.8205 30.2433 18.552 29.8392 19.4551C29.4351 20.3467 29.1696 21.1125 29.0541 21.7412C29.031 21.8212 29.0195 21.9241 29.0195 22.0727C29.0195 22.507 29.1349 22.7128 29.3774 22.7128C29.6199 22.7128 29.897 22.5985 30.2203 22.3813C30.5435 22.1527 30.8322 21.9241 31.0862 21.6612C31.3402 21.4097 31.5827 21.1468 31.8252 20.8839C32.0676 20.621 32.2062 20.461 32.2524 20.4267C32.2986 20.3924 32.3678 20.3695 32.4602 20.3695C32.6103 20.3695 32.7027 20.4838 32.7373 20.7124C32.7719 20.941 32.7835 21.1697 32.7835 21.4211C32.7835 21.6726 32.7604 21.8326 32.7142 21.9241C32.4833 22.3699 31.9868 22.9071 31.2017 23.5358C30.4281 24.1645 29.7122 24.4731 29.0772 24.4731C28.4422 24.4731 27.9688 24.2788 27.6801 23.9016C27.3915 23.5244 27.2298 23.09 27.2298 22.6328C27.2298 22.1641 27.3107 21.7641 27.4723 21.4097C26.8142 22.2556 26.0637 22.9643 25.2208 23.5587C24.3664 24.1416 23.6852 24.4388 23.1425 24.4388C22.5999 24.4388 22.1727 24.2788 21.8263 23.9587C21.3875 23.5587 21.1797 23.01 21.1797 22.3013C21.1797 21.5926 21.3413 20.8839 21.6646 20.1638C21.9879 19.4551 22.4036 18.7921 22.9232 18.2091C23.4427 17.6147 24.02 17.0775 24.6435 16.5974C25.9482 15.5801 27.1605 15.0771 28.269 15.0771C28.6962 15.0771 29.0426 15.1457 29.3081 15.2829C29.5737 15.4201 29.7469 15.603 29.8162 15.8087C30.0009 15.5229 30.1625 15.3515 30.3011 15.2715C30.405 15.18 30.6013 15.1457 30.8553 15.1457ZM29.285 16.4488C27.9341 16.4488 26.5371 17.1918 25.0938 18.6778C24.5858 19.215 24.1124 19.8437 23.6736 20.5867C23.2349 21.3297 23.0271 21.8326 23.0271 22.107C23.0271 22.3813 23.1079 22.5185 23.2695 22.5185C23.4889 22.5185 24.1008 22.0841 25.1169 21.2268C26.133 20.3695 26.8026 19.7294 27.1259 19.3179C27.4954 18.8607 28.2112 17.9005 29.285 16.4488Z" fill="#092532"/>
<path d="M39.8389 8.95068L40.3238 9.06499C40.3931 9.06499 40.4624 9.09928 40.5086 9.16787C40.5663 9.23645 40.5894 9.30503 40.5894 9.36219C40.5894 9.41934 40.5086 9.5908 40.3354 9.86513C40.1622 10.1395 39.9774 10.4481 39.7465 10.791C39.5156 11.1339 39.4001 11.3282 39.3886 11.3625C40.0005 11.3168 40.4393 11.294 40.6933 11.294C40.9473 11.294 41.1205 11.3168 41.2244 11.3511C41.3168 11.3854 41.4322 11.4883 41.5477 11.6483C41.6747 11.8083 41.7786 11.9341 41.8825 12.0141C41.9865 12.0941 42.0327 12.2198 42.0327 12.3799C42.0327 12.5399 41.9287 12.6885 41.7324 12.7914C41.5362 12.9057 41.3168 12.9743 41.0859 12.9971C39.25 13.18 38.2455 13.2715 38.0608 13.2829C37.4258 14.2545 36.5252 15.7633 35.3821 17.8094C34.2391 19.8555 33.6271 21.1471 33.5578 21.6615C33.5232 21.9016 33.5117 22.0844 33.5117 22.233C33.5117 22.5417 33.6733 22.6903 33.9966 22.6903C34.3199 22.6903 34.6778 22.5645 35.0704 22.3245C35.4629 22.073 35.8324 21.8101 36.1557 21.5243C37.0447 20.7471 37.5181 20.347 37.5759 20.347C37.7837 20.347 37.8876 20.7013 37.8876 21.3986C37.8876 21.7758 37.7144 22.1187 37.3565 22.4274C36.5598 23.1018 35.8901 23.6161 35.3475 23.9591C34.8048 24.302 34.2621 24.4734 33.7079 24.4734C33.5925 24.4734 33.477 24.462 33.3731 24.4391C32.7381 24.3248 32.2762 24.0962 31.9876 23.7533C31.6874 23.4104 31.5488 22.9532 31.5488 22.3816C31.5488 21.8101 31.722 21.1014 32.0684 20.2784C32.4148 19.4554 32.842 18.5752 33.3616 17.6494C34.216 16.1291 35.0704 14.7117 35.9132 13.3858L35.4629 13.4429C34.5508 13.5458 34.0197 13.5915 33.8696 13.5915H33.7657C33.5347 13.5915 33.3154 13.5458 33.1075 13.4543C32.8997 13.3629 32.7842 13.2486 32.7842 13.1229C32.7842 12.9857 32.842 12.8599 32.9574 12.7342C33.0729 12.6085 33.1422 12.5056 33.1653 12.437C33.223 12.2656 33.4308 12.0712 33.7887 11.8655C34.1467 11.6597 34.4123 11.5454 34.597 11.534C34.7817 11.5226 34.9549 11.5111 35.1281 11.4997C35.3013 11.4883 35.486 11.4883 35.6939 11.4768C35.9017 11.4654 36.0633 11.4654 36.1788 11.454L37.241 11.4083C37.8992 10.4252 38.361 9.78512 38.6035 9.51078C38.8575 9.22502 38.996 9.07642 39.0307 9.05356C39.0653 9.0307 39.1461 9.00784 39.2731 9.00784L39.8389 8.95068Z" fill="#092532"/>
<path d="M46.9396 20.3693C47.0897 20.3693 47.1821 20.4836 47.2167 20.7122C47.2514 20.9408 47.2629 21.1695 47.2629 21.4209C47.2629 21.6724 47.2398 21.8324 47.1936 21.9239C46.9627 22.3582 46.4663 22.8955 45.6927 23.5242C44.9191 24.1528 44.1801 24.4729 43.4874 24.4729C43.0602 24.4729 42.6676 24.3472 42.2981 24.0957C41.9402 23.8442 41.7555 23.3984 41.7555 22.7697C41.7555 22.1411 41.9287 21.5124 42.2635 20.9065C40.3007 23.3413 38.7766 24.5529 37.6566 24.5529C37.2179 24.5529 36.8599 24.3929 36.5828 24.0843C36.3057 23.7756 36.1787 23.4556 36.1787 23.1127C36.1787 22.7812 36.2249 22.4382 36.3173 22.0839C36.4096 21.7296 36.5136 21.4095 36.6175 21.1237C36.7214 20.838 36.883 20.495 37.0908 20.0835C37.2987 19.672 37.4603 19.3748 37.5527 19.1805C37.6451 18.9862 37.8182 18.7119 38.0492 18.3347C38.2801 17.9575 38.5687 17.4431 38.9382 16.803C39.3077 16.1628 39.6079 15.6828 39.8503 15.3741C40.0928 15.0655 40.3237 14.9055 40.5547 14.9055C40.7856 14.9055 40.9819 14.9969 41.1551 15.1798C41.3283 15.3627 41.4206 15.5227 41.4206 15.637C41.4206 15.7513 41.1551 16.2772 40.624 17.2145C39.0652 20.015 38.2801 21.6381 38.2801 22.1068C38.2801 22.2211 38.3263 22.2782 38.4071 22.2782C38.7881 22.2782 39.7349 21.4666 41.2359 19.8435C42.7369 18.2204 43.6144 17.1802 43.8568 16.7229C44.0993 16.2657 44.3187 15.8771 44.5496 15.5685C44.769 15.2598 44.9422 15.0655 45.0576 14.9969C45.3925 14.7797 45.8312 14.6654 46.3739 14.6426C46.4663 14.6426 46.524 14.6426 46.5702 14.654C46.6163 14.6654 46.6741 14.734 46.7318 14.8483C46.7895 14.9626 46.8242 15.0655 46.8242 15.1455C46.7549 15.3627 46.4432 15.9457 45.8774 16.8944C45.3232 17.8431 45.0115 18.3804 44.9537 18.4947C44.0185 20.4036 43.5566 21.6495 43.5566 22.2211C43.5566 22.5526 43.6837 22.7126 43.9377 22.7126C44.3995 22.6554 44.9537 22.2896 45.6003 21.6267C45.8428 21.3866 46.0737 21.1352 46.3046 20.8837C46.5355 20.6322 46.6856 20.4836 46.7318 20.4493C46.7895 20.3922 46.8588 20.3693 46.9396 20.3693Z" fill="#092532"/>
<path d="M50.369 17.6606C52.2279 15.5688 53.8213 14.5172 55.126 14.5172C55.4493 14.5172 55.7149 14.6086 55.9227 14.803C56.1305 14.9973 56.2344 15.2373 56.2344 15.546C56.2344 15.8546 56.0151 16.3575 55.5763 17.0777C55.1376 17.7864 54.7334 18.3922 54.364 18.8837C54.1677 19.1352 53.9483 19.2609 53.6943 19.2609C53.4518 19.2609 53.2555 19.1695 53.117 18.9866C52.9784 18.8037 52.9092 18.5979 52.9092 18.3579C52.9092 17.8206 53.1978 17.2034 53.7867 16.529L53.7636 16.5061C53.498 16.529 52.863 17.0434 51.8238 18.0264C50.7962 19.0209 49.9187 19.9124 49.1913 20.6897C48.4755 21.4784 47.6903 22.4272 46.8359 23.5588C46.5935 23.8903 46.3856 24.0618 46.2125 24.0618C46.0393 24.0618 45.8199 24.0046 45.5428 23.9017C45.2657 23.7988 45.0925 23.7188 45.0348 23.6731C44.977 23.6274 44.9424 23.5474 44.9424 23.4331C44.9424 23.3302 44.977 23.193 45.0348 23.0559C45.0925 22.9073 45.2195 22.7015 45.3811 22.4386C45.5428 22.1757 45.8083 21.7413 46.1547 21.1469C46.5011 20.5526 47.0322 19.6495 47.7596 18.4493C48.487 17.2491 48.9142 16.5176 49.0643 16.2661C49.3645 15.7517 49.607 15.3745 49.8033 15.1459C50.1612 14.7001 50.7616 14.4829 51.6045 14.4829C51.7892 14.4829 51.8931 14.5972 51.8931 14.8373C51.8931 15.203 51.5467 15.9003 50.8655 16.9062L50.369 17.6606Z" fill="#092532"/>
<path d="M63.1042 15.2834C63.1042 15.7978 62.8963 16.255 62.4691 16.6436C62.0419 17.0323 61.5685 17.2266 61.0259 17.2266C60.8527 17.2266 60.7372 17.1809 60.6795 17.1009C60.6218 17.0209 60.5987 16.9065 60.5987 16.7808C60.5987 16.6551 60.6102 16.5179 60.6449 16.3922C60.3562 16.4836 60.0445 16.6322 59.6981 16.8265C59.3517 17.0209 58.9245 17.3066 58.4165 17.6953C57.9084 18.0839 57.6544 18.3582 57.6544 18.5526C57.6544 18.6097 57.7468 18.644 57.9315 18.644C58.1163 18.644 58.4049 18.5754 58.7859 18.4497C59.167 18.3239 59.4441 18.2554 59.5942 18.2554C59.7443 18.2554 59.8482 18.2668 59.8944 18.2782C59.9983 18.3354 60.1022 18.4497 60.2292 18.6326C60.3447 18.8155 60.4024 18.9641 60.4024 19.0669C60.4024 19.1698 60.2985 19.307 60.0907 19.4784C59.8828 19.6499 59.6519 19.7756 59.3979 19.8671C59.1323 19.9585 58.9591 20.0271 58.8783 20.0728C57.2157 20.9987 56.3844 21.6274 56.3844 21.9703C56.3844 22.5761 56.9039 22.8848 57.9546 22.8848C58.6243 22.8848 59.3055 22.679 59.9752 22.2561C60.5525 21.9017 61.0721 21.5359 61.5339 21.1587C61.9958 20.793 62.2844 20.5643 62.4114 20.4729C62.5384 20.3815 62.6308 20.3472 62.6885 20.3472C62.8963 20.3472 63.0002 20.5758 63.0002 21.033C63.0002 21.4902 62.9772 21.7874 62.9194 21.9246C62.8617 22.0732 62.7116 22.2446 62.446 22.4618C60.7603 23.8221 59.1554 24.5079 57.6544 24.5079C56.8462 24.5079 56.2112 24.3936 55.7262 24.1764C54.8372 23.7763 54.3984 23.1705 54.3984 22.3475C54.3984 21.273 55.1489 20.45 56.6615 19.9014C56.3613 19.7642 56.165 19.6042 56.0842 19.387C55.9918 19.1812 55.9572 18.8498 55.9572 18.3925C55.9572 17.9353 56.1765 17.4552 56.6037 16.9408C57.0309 16.4265 57.5621 16.0035 58.1855 15.6835C59.5711 14.9405 60.818 14.5747 61.9034 14.5747C62.1689 14.5747 62.423 14.6319 62.7001 14.7576C62.9772 14.8833 63.1042 15.0548 63.1042 15.2834Z" fill="#092532"/>
<path d="M90.0525 7.3273H90.2026C90.2488 7.3273 90.2835 7.3273 90.295 7.33873C90.3066 7.35016 90.3181 7.35016 90.3412 7.36159C90.3643 7.36159 90.3758 7.37302 90.3989 7.39588C90.4336 7.43018 90.4913 7.46447 90.5606 7.49876C90.6529 7.56734 90.6991 7.64736 90.6991 7.7388C90.6991 7.83025 90.6068 8.02457 90.422 8.32176C90.2373 8.61896 89.7639 9.33909 88.9903 10.505C87.2238 13.1798 85.642 15.6716 84.2449 17.9578C81.8318 21.9356 80.6079 23.936 80.5848 23.9588C80.5617 23.9817 80.5501 24.0045 80.5386 24.0274C80.527 24.0731 80.5039 24.096 80.4462 24.096L80.2846 24.0617L79.9613 24.1417L79.7765 24.1074L79.5803 24.1417H79.511L78.8529 24.2332C78.4603 24.2332 78.264 24.096 78.264 23.8331C78.264 23.7188 78.2986 23.5816 78.3679 23.4216C78.6104 22.8501 79.8458 20.7811 82.0627 17.1919C80.6079 17.2262 79.1646 17.2491 77.7444 17.2491L75.2043 17.2376C74.7887 17.9006 74.2113 18.8379 73.4839 20.061C71.9137 22.7243 71.0824 24.0617 70.9785 24.0846C70.8745 24.1074 70.7937 24.1303 70.7244 24.1303C70.6552 24.1303 70.5974 24.096 70.5513 24.016C70.4935 23.9474 70.4589 23.9017 70.4358 23.9017C70.4127 23.9017 70.3781 23.9131 70.3088 23.9474C70.251 23.9817 70.1587 23.9931 70.0317 23.9931L69.7546 23.9817L69.6507 23.9131C69.6391 23.9131 69.6276 23.9245 69.616 23.9474C69.6045 23.9703 69.5698 23.9817 69.5237 23.9817C69.1888 23.9817 69.0156 23.8445 69.0156 23.5588C69.0156 23.3759 69.0849 23.1244 69.2119 22.8158C69.3505 22.5071 69.5237 22.1756 69.743 21.8213C69.9624 21.467 70.5166 20.6097 71.4287 19.2723C72.3293 17.9349 72.7796 17.2605 72.7796 17.2491C72.6295 17.2376 72.4563 17.2376 72.2601 17.2262C71.856 17.2262 71.5788 17.2148 71.4057 17.1805C70.9554 17.1005 70.6436 16.7347 70.482 16.0831C70.3896 15.7631 70.355 15.5573 70.3665 15.4545C70.3665 15.2487 70.4589 15.1344 70.6436 15.1344L70.9554 15.2144C71.117 15.2258 71.4865 15.2373 72.0869 15.2716C72.6873 15.3059 73.1145 15.3173 73.38 15.3173L74.0497 15.2944C75.0773 13.7056 76.3012 11.8995 77.7329 9.88776C76.6938 10.7336 75.5392 11.1566 74.2691 11.1566C73.6687 11.1566 73.1491 11.0194 72.7219 10.7336C72.2832 10.4479 72.0753 10.0821 72.0753 9.64771C72.0753 9.21335 72.237 8.87043 72.5718 8.60753C72.9066 8.35606 73.2184 8.23032 73.5186 8.23032C73.8188 8.23032 73.9689 8.27604 73.9689 8.36749C73.9689 8.40178 73.9227 8.43607 73.8419 8.47036C73.761 8.51608 73.7149 8.55038 73.7149 8.58467C73.7149 8.7104 73.8534 8.82471 74.1305 8.91615C74.4076 9.0076 74.7194 9.06475 75.0657 9.06475C75.4121 9.06475 75.8278 8.96188 76.3358 8.76756C76.8439 8.57324 77.3634 8.31033 77.9061 8.00171C78.6681 7.56734 79.2685 7.20156 79.7073 6.9158C79.9613 6.79006 80.1922 6.73291 80.4231 6.73291C80.6541 6.73291 80.8042 6.75577 80.9081 6.81292C81.012 6.85865 81.0812 6.9158 81.1274 6.96152C81.1736 7.00725 81.2314 7.07583 81.2775 7.15584C81.3353 7.23586 81.3814 7.30444 81.4392 7.33873C81.4854 7.38446 81.52 7.43018 81.52 7.48733C81.52 7.54448 81.4854 7.6245 81.4276 7.75023C81.3699 7.86454 81.0697 8.34463 80.527 9.17906C79.9844 10.0135 79.2801 11.0765 78.4257 12.3682C77.5712 13.6599 76.9478 14.6086 76.5552 15.2258C78.6681 15.2258 80.9427 15.1916 83.3905 15.1115C86.3694 10.4593 87.9396 8.02457 88.1013 7.79596C88.2629 7.56734 88.413 7.41875 88.5516 7.35016C88.6901 7.28158 88.8517 7.24729 89.048 7.24729L90.0525 7.3273Z" fill="#092532"/>
<path d="M93.9095 15.123C94.152 15.123 94.3944 15.2259 94.6369 15.443C94.8909 15.6602 95.0064 15.9803 95.0064 16.4146C95.0064 16.849 94.8563 17.4091 94.5445 18.1064C94.2328 18.7922 93.8171 19.5009 93.2745 20.221C92.7433 20.9297 92.1429 21.6041 91.5079 22.2328C90.8613 22.8615 90.1686 23.3759 89.4296 23.7759C88.6791 24.176 88.0095 24.3818 87.3975 24.3818C86.7856 24.3818 86.3006 24.1874 85.9312 23.8102C85.5617 23.433 85.377 22.9072 85.377 22.2328C85.377 21.5584 85.5501 20.804 85.885 19.9924C86.2198 19.1694 86.647 18.4493 87.1781 17.8206C87.7093 17.1919 88.275 16.6318 88.8985 16.1289C90.1801 15.1001 91.3116 14.5972 92.2815 14.5972C92.7202 14.5972 93.0435 14.7 93.2629 14.9172C93.3437 14.9858 93.3784 15.0544 93.3784 15.1001V15.1687C93.5054 15.123 93.6786 15.123 93.9095 15.123ZM92.7202 16.6775H92.6394C92.3623 16.6775 92.2238 16.4832 92.2238 16.0831C91.6465 16.266 91.0461 16.5975 90.411 17.0662C89.776 17.5348 89.2102 18.0949 88.7138 18.735C87.6977 20.0153 87.1897 21.1012 87.1781 21.9813C87.1781 22.4157 87.3398 22.6329 87.6631 22.6329C87.9864 22.6329 88.4713 22.4157 89.1063 22.0042C89.7414 21.5927 90.3764 20.9869 91.0114 20.1982C91.6349 19.4209 92.1083 18.735 92.4201 18.1635C92.7318 17.592 92.8934 17.2033 92.8934 16.9862C92.8819 16.7804 92.8242 16.6775 92.7202 16.6775Z" fill="#092532"/>
<path d="M94.7518 24.1186L94.1745 24.0957H93.9667C93.8859 24.0729 93.805 24.0272 93.7127 23.9586C93.6203 23.89 93.551 23.8328 93.5048 23.81C93.4586 23.7871 93.4355 23.7185 93.4355 23.6385C93.4355 23.5585 93.4702 23.4099 93.5279 23.2156C95.0635 19.8664 96.553 17.1802 97.9962 15.1799C98.1579 14.9627 98.4119 14.7912 98.7583 14.6769C99.1047 14.5626 99.451 14.5055 99.7859 14.5055C99.9822 14.5055 100.086 14.6541 100.086 14.9627C100.086 15.0541 100.051 15.1684 99.9937 15.3056C99.936 15.4542 99.7743 15.6828 99.5203 16.0143C99.2663 16.3458 98.9661 16.723 98.6197 17.1345C98.2734 17.546 98.0771 17.7975 98.0309 17.8661C99.1162 16.7573 100.086 15.9343 100.964 15.3856C101.841 14.8484 102.465 14.574 102.857 14.574C103.25 14.574 103.55 14.6884 103.758 14.9055C103.966 15.1227 104.069 15.3628 104.069 15.6142C104.069 15.8657 104.046 16.0829 104.012 16.2429C103.977 16.4144 103.908 16.5858 103.815 16.7687C103.723 16.9516 103.642 17.1116 103.573 17.2374C103.504 17.3631 103.388 17.5346 103.238 17.7403C103.077 17.9461 102.973 18.0947 102.915 18.1747C102.857 18.2547 102.73 18.4033 102.545 18.6205C102.361 18.8377 102.257 18.9634 102.245 18.9863C102.465 18.7691 102.776 18.449 103.169 18.0147C103.561 17.5803 103.896 17.226 104.173 16.9402C104.45 16.6544 104.785 16.3229 105.201 15.9572C105.617 15.5914 105.998 15.2942 106.344 15.077C107.198 14.5512 108.064 14.2769 108.942 14.2769C109.242 14.2769 109.496 14.3683 109.704 14.5626C109.912 14.7569 110.016 14.9741 110.016 15.237C110.016 15.4999 109.692 16.1286 109.057 17.1116C108.422 18.0947 107.776 19.0891 107.141 20.0836C106.506 21.0781 106.182 21.7067 106.182 21.9696C106.182 22.324 106.252 22.5412 106.379 22.6098C106.517 22.6783 106.679 22.7012 106.864 22.6898C107.048 22.6783 107.325 22.5526 107.66 22.324C108.007 22.0954 108.307 21.8668 108.572 21.6153C109.011 21.2267 109.404 20.8495 109.785 20.4837C109.866 20.4151 109.946 20.3808 110.05 20.3808C110.2 20.3808 110.293 20.4951 110.327 20.7237C110.362 20.9523 110.374 21.1809 110.374 21.4324C110.374 21.6839 110.351 21.8439 110.304 21.9354C110.073 22.3697 109.565 22.907 108.792 23.5471C108.007 24.1758 107.256 24.4958 106.54 24.4958C106.448 24.4958 106.39 24.4958 106.356 24.4844C105.547 24.4044 104.982 24.1872 104.67 23.8214C104.358 23.4556 104.208 23.0213 104.208 22.5297C104.208 22.0382 104.381 21.421 104.728 20.7123C105.074 20.0036 105.443 19.352 105.859 18.7805C106.275 18.209 106.644 17.6832 106.991 17.2145C107.337 16.7459 107.51 16.4944 107.51 16.4601C107.51 16.4258 107.476 16.4029 107.418 16.4029C107.175 16.4029 106.633 16.7916 105.778 17.5803C104.335 18.9177 103.088 20.2093 102.037 21.4438C101.76 21.7753 101.102 22.5983 100.075 23.9357C99.9591 24.0957 99.7628 24.1758 99.5088 24.1758C99.2548 24.1758 98.9892 24.13 98.7121 24.0272C98.435 23.9243 98.2964 23.7985 98.2964 23.6499C98.2964 23.5699 98.9199 22.4726 100.178 20.3579C101.437 18.2433 102.06 17.0888 102.06 16.9059C102.06 16.7116 101.945 16.6201 101.714 16.6201C101.483 16.6201 100.998 16.963 100.271 17.6489C98.2733 19.5349 96.7262 21.421 95.6293 23.2842C95.56 23.3985 95.4215 23.5699 95.2136 23.7985C95.0058 24.0272 94.8211 24.1186 94.7518 24.1186Z" fill="#092532"/>
<path d="M117.648 15.2834C117.648 15.7978 117.44 16.255 117.013 16.6436C116.586 17.0323 116.112 17.2266 115.57 17.2266C115.397 17.2266 115.281 17.1809 115.223 17.1009C115.166 17.0209 115.143 16.9065 115.143 16.7808C115.143 16.6551 115.154 16.5179 115.189 16.3922C114.9 16.4836 114.588 16.6322 114.242 16.8265C113.896 17.0209 113.468 17.3066 112.96 17.6953C112.452 18.0839 112.198 18.3582 112.198 18.5526C112.198 18.6097 112.291 18.644 112.475 18.644C112.66 18.644 112.949 18.5754 113.33 18.4497C113.711 18.3239 113.988 18.2554 114.138 18.2554C114.288 18.2554 114.392 18.2668 114.438 18.2782C114.542 18.3354 114.646 18.4497 114.773 18.6326C114.889 18.8155 114.946 18.9641 114.946 19.0669C114.946 19.1698 114.842 19.307 114.635 19.4784C114.427 19.6499 114.196 19.7756 113.942 19.8671C113.676 19.9585 113.503 20.0271 113.422 20.0728C111.76 20.9987 110.928 21.6274 110.928 21.9703C110.928 22.5761 111.448 22.8848 112.499 22.8848C113.168 22.8848 113.849 22.679 114.519 22.2561C115.096 21.9017 115.616 21.5359 116.078 21.1587C116.54 20.793 116.828 20.5643 116.955 20.4729C117.082 20.3815 117.175 20.3472 117.232 20.3472C117.44 20.3472 117.544 20.5758 117.544 21.033C117.544 21.4902 117.521 21.7874 117.463 21.9246C117.406 22.0732 117.256 22.2446 116.99 22.4618C115.304 23.8221 113.699 24.5079 112.198 24.5079C111.39 24.5079 110.755 24.3936 110.27 24.1764C109.381 23.7763 108.942 23.1705 108.942 22.3475C108.942 21.273 109.693 20.45 111.205 19.9014C110.905 19.7642 110.709 19.6042 110.628 19.387C110.536 19.1812 110.501 18.8498 110.501 18.3925C110.501 17.9353 110.72 17.4552 111.148 16.9408C111.575 16.4265 112.106 16.0035 112.729 15.6835C114.115 14.9405 115.362 14.5747 116.447 14.5747C116.713 14.5747 116.967 14.6319 117.244 14.7576C117.521 14.8833 117.648 15.0548 117.648 15.2834Z" fill="#092532"/>
<path d="M0.605469 27.2843C3.64208 28.5417 6.73642 29.5133 9.88849 30.2562C13.0175 31.0335 16.2042 31.5822 19.3909 31.9251C20.9843 32.1423 22.5892 32.1652 24.171 32.3138C25.7759 32.3252 27.3692 32.4509 28.9626 32.3595L31.3526 32.3023C32.1493 32.2909 32.946 32.188 33.7427 32.1423C34.5393 32.0737 35.336 32.0394 36.1211 31.9365L38.4881 31.6051C41.6633 31.2621 44.7461 30.5306 47.8173 29.6504C50.9232 28.8046 53.8559 27.6844 56.9618 26.5184C60.137 25.364 63.5777 24.6095 67.0646 24.9753C68.785 25.1925 70.5169 25.7412 71.9255 26.7471C73.3457 27.7415 74.3617 29.1589 75.0083 30.6449C74.0384 29.3189 72.8261 28.233 71.429 27.5586C70.0319 26.8842 68.4963 26.6099 66.9722 26.6556C63.8894 26.7013 60.8528 27.7187 58.0009 28.9989C55.1029 30.4163 51.9623 31.6965 48.7987 32.7595C45.612 33.7769 42.3214 34.5884 38.9846 35C32.3456 35.8687 25.545 35.8801 18.9868 34.5656C15.6962 33.9712 12.4864 33.0453 9.38046 31.868C6.29767 30.6449 3.28415 29.2161 0.605469 27.2843Z" fill="#092532"/>
<path d="M111.02 8.25247C108.445 7.16656 105.824 6.3207 103.169 5.65772C100.525 4.96045 97.8461 4.46894 95.1559 4.12602C93.8166 3.92027 92.4541 3.87455 91.1148 3.71452C89.7639 3.68023 88.4245 3.54306 87.0737 3.60021C86.404 3.61165 85.7228 3.61165 85.0531 3.60021C84.3834 3.60021 83.7022 3.6688 83.0325 3.69166C82.3629 3.73738 81.6816 3.74881 81.012 3.8174L79.003 4.05744C76.3127 4.27462 73.7033 4.82329 71.0939 5.49769C68.4499 6.12638 65.9444 7.01796 63.2772 7.90955C60.5408 8.81257 57.5735 9.36124 54.5946 8.94973C53.1282 8.70969 51.6503 8.19531 50.4842 7.28087C49.2949 6.37785 48.4867 5.14334 47.9902 3.85169C48.81 4.98332 49.8261 5.9092 50.9922 6.48073C52.1584 7.05226 53.44 7.2923 54.7216 7.28087C57.3079 7.28087 59.8711 6.45786 62.2958 5.42911C64.7667 4.26319 67.48 3.23444 70.1818 2.38857C72.9066 1.577 75.747 0.959747 78.5873 0.662551C84.2564 0.0681604 90.0525 0.205327 95.6062 1.50842C98.3888 2.09138 101.102 2.98296 103.7 4.0803C106.309 5.2005 108.826 6.50359 111.02 8.25247Z" fill="#092532"/>
</svg>
