<svg width="83" height="82" viewBox="0 0 83 82" fill="none" xmlns="http://www.w3.org/2000/svg">
<g style="mix-blend-mode:multiply">
<path d="M41.4044 81.3633C63.9397 81.3633 82.2081 63.2775 82.2081 40.9675C82.2081 18.6576 63.9397 0.571777 41.4044 0.571777C18.8691 0.571777 0.600586 18.6576 0.600586 40.9675C0.600586 63.2775 18.8691 81.3633 41.4044 81.3633Z" fill="white"/>
<path d="M41.4045 81.9345C18.5895 81.9345 0.0234375 63.5541 0.0234375 40.9673C0.0234375 18.3804 18.5895 0 41.4045 0C64.2195 0 82.7856 18.3804 82.7856 40.9673C82.7856 63.5541 64.2195 81.9345 41.4045 81.9345ZM41.4045 1.14306C19.2245 1.14306 1.17804 19.0091 1.17804 40.9673C1.17804 62.9254 19.2245 80.7915 41.4045 80.7915C63.5845 80.7915 81.631 62.9254 81.631 40.9673C81.631 19.0091 63.5845 1.14306 41.4045 1.14306Z" fill="#092532"/>
<path d="M47.2236 4.67571C47.5007 4.69857 47.7432 4.71 47.9394 4.71L47.9163 4.89289C47.5931 4.93861 47.3159 5.17866 47.0966 5.63588L44.3486 11.0768L44.2678 11.0654L44.1985 11.054L42.4551 4.98434C42.3396 4.58427 42.1433 4.36708 41.8662 4.33279L41.8893 4.1499C42.1433 4.19562 42.4782 4.22992 42.8938 4.27564C43.4365 4.32136 43.8406 4.35565 44.1061 4.35565L44.0831 4.53854C43.8406 4.52711 43.6674 4.53854 43.5635 4.57283C43.4596 4.60713 43.4018 4.69857 43.3903 4.81288C43.3787 4.91575 43.4018 5.06435 43.4596 5.25867L44.7412 9.89949L46.6463 6.10453C46.8079 5.79591 46.8887 5.54444 46.9118 5.36155C46.9349 5.16723 46.8772 5.01863 46.7502 4.91575C46.6232 4.81288 46.4154 4.75572 46.1382 4.72143L46.1613 4.53854C46.4962 4.5957 46.8541 4.64142 47.2236 4.67571Z" fill="#092532"/>
<path d="M54.9824 7.0873C54.8669 7.0873 54.7745 7.13302 54.7053 7.22447C54.636 7.31591 54.5552 7.46451 54.4743 7.68169L52.8232 12.0253C52.7424 12.2425 52.6962 12.414 52.6962 12.5283C52.6962 12.6426 52.7309 12.734 52.8117 12.8026C52.8925 12.8712 53.0426 12.9512 53.2504 13.0426L53.1812 13.2141C52.9156 13.0998 52.5461 12.9512 52.0727 12.7683C51.5647 12.574 51.1837 12.4483 50.9297 12.3682L50.999 12.1968C51.2183 12.2654 51.38 12.2997 51.4839 12.2997C51.5878 12.2997 51.6917 12.2539 51.761 12.1625C51.8303 12.071 51.9111 11.9224 51.9919 11.7053L53.643 7.36163C53.7238 7.14445 53.77 6.97299 53.77 6.85869C53.77 6.74438 53.7354 6.65294 53.6546 6.58435C53.5737 6.51577 53.4236 6.43576 53.2158 6.34431L53.2851 6.17285C53.5276 6.27573 53.897 6.42432 54.4051 6.61864C54.8784 6.80153 55.2595 6.92727 55.5366 7.00729L55.4673 7.17874C55.2595 7.11016 55.0978 7.07587 54.9824 7.0873Z" fill="#092532"/>
<path d="M65.2582 13.1343C65.1428 13.1114 65.0273 13.1457 64.9234 13.2143C64.8195 13.2829 64.6925 13.42 64.5539 13.6143L61.2056 18.1066L61.0324 17.9808L61.4827 10.7567L58.5153 14.7345C58.3768 14.9289 58.2844 15.0889 58.2382 15.2146C58.1921 15.3404 58.2152 15.4547 58.2729 15.569C58.3306 15.6833 58.4692 15.809 58.6654 15.969L58.55 16.1176C58.3768 15.969 58.1228 15.7747 57.7879 15.5233C57.4877 15.3061 57.2453 15.1346 57.0605 15.0317L57.176 14.8831C57.3607 15.0089 57.5108 15.0775 57.6263 15.0889C57.7418 15.1118 57.8572 15.0775 57.9611 15.0089C58.0651 14.9289 58.1921 14.8031 58.3306 14.6088L61.0555 10.951C61.194 10.7567 61.2864 10.6081 61.321 10.5052C61.3557 10.4023 61.3441 10.2995 61.2864 10.208C61.2287 10.1166 61.1132 10.0023 60.9285 9.85368L61.0439 9.70508C61.194 9.84225 61.425 10.0251 61.7367 10.2423C61.9676 10.4138 62.1639 10.5509 62.3486 10.6538L61.9792 16.712L64.3807 13.4886C64.5193 13.2943 64.6232 13.1343 64.6579 13.0085C64.6925 12.8828 64.6809 12.7685 64.6232 12.6542C64.5655 12.5399 64.4269 12.4027 64.2306 12.2541L64.3461 12.1055C64.5193 12.2541 64.7733 12.4484 65.1081 12.6999C65.4083 12.9171 65.6508 13.0885 65.8356 13.1914L65.7201 13.34C65.5238 13.2257 65.3737 13.1457 65.2582 13.1343Z" fill="#092532"/>
<path d="M69.1263 18.2896C69.4265 18.0724 69.7383 17.8324 70.0731 17.5352C70.3617 17.9695 70.8698 18.6896 71.5972 19.707C72.3246 20.7129 72.8442 21.4216 73.1559 21.8331C72.7633 22.0617 72.4285 22.2674 72.1283 22.4732C71.8743 22.6561 71.6665 22.8161 71.5164 22.9418L71.3893 22.7704C71.7588 22.4503 72.0128 22.1874 72.1629 21.9931C72.313 21.7988 72.3708 21.593 72.3592 21.3758C72.3477 21.1587 72.2091 20.8958 71.9897 20.5757L71.6895 20.1642L67.3136 23.2505C67.1058 23.3991 66.9557 23.5362 66.8864 23.6391C66.8171 23.742 66.794 23.8677 66.8402 24.0049C66.8748 24.1306 66.9788 24.3135 67.1289 24.5421L66.9788 24.6564C66.8056 24.3821 66.54 23.9934 66.1936 23.5248C65.8241 23.0104 65.547 22.6446 65.3623 22.416L65.5124 22.3017C65.6856 22.5189 65.8241 22.6675 65.9396 22.7475C66.0551 22.8275 66.1705 22.8504 66.2975 22.8161C66.4245 22.7818 66.5977 22.6904 66.8056 22.5418L71.1815 19.4555L70.8813 19.044C70.6504 18.7239 70.4426 18.5296 70.2463 18.4382C70.05 18.3467 69.8306 18.3353 69.5997 18.4153C69.3688 18.4953 69.034 18.6439 68.6067 18.884L68.4797 18.7125C68.6529 18.6211 68.8608 18.4839 69.1263 18.2896Z" fill="#092532"/>
<path d="M71.3429 34.1555L71.1581 34.2127C71.0889 33.9612 70.9965 33.6412 70.8579 33.2525C70.6848 32.7496 70.5462 32.3724 70.4423 32.1209L70.627 32.0637C70.7078 32.2809 70.8002 32.4409 70.8695 32.521C70.9503 32.601 71.0542 32.6238 71.1697 32.5781C71.2736 32.5438 71.4006 32.4638 71.5507 32.3381L72.8323 31.2979L72.1049 29.1604L71.0311 29.1146C70.6848 29.0918 70.4192 29.1146 70.2345 29.1832C70.0497 29.2518 69.9343 29.3547 69.8881 29.5033C69.8534 29.6519 69.8765 29.8691 69.9574 30.132L69.7726 30.1891C69.6802 29.8462 69.5648 29.5033 69.4493 29.1604C69.357 28.8975 69.2761 28.6803 69.1953 28.5088L69.38 28.4517C69.5417 28.726 69.8881 28.8746 70.3961 28.886L76.5386 29.1604L76.5848 29.2975L71.6893 33.3325C71.3891 33.6183 71.2736 33.8812 71.3429 34.1555ZM75.3494 29.2975L72.3243 29.1718L73.0055 31.1836L75.3494 29.2975Z" fill="#092532"/>
<path d="M72.1861 42.8995C72.3016 42.8538 72.3593 42.7966 72.3593 42.7166C72.3593 42.6709 72.3478 42.6366 72.3247 42.6023C72.3016 42.568 72.2554 42.4994 72.1861 42.408C72.0129 42.1908 71.8859 41.9622 71.7936 41.7336C71.7012 41.505 71.655 41.2421 71.655 40.9563C71.6435 40.3162 71.7705 39.7675 72.0245 39.2989C72.2901 38.8302 72.6595 38.4759 73.1676 38.2244C73.664 37.9729 74.2644 37.8472 74.9687 37.8357C75.6961 37.8243 76.3312 37.9386 76.8738 38.1901C77.4165 38.4416 77.8437 38.7845 78.1439 39.2417C78.4441 39.6989 78.6057 40.2133 78.6057 40.7848C78.6057 41.0363 78.5827 41.2649 78.5365 41.4592C78.4903 41.6536 78.421 41.825 78.3402 41.9736C78.2594 42.1222 78.1555 42.2937 78.0169 42.4766C77.9592 42.5566 77.9245 42.6252 77.9245 42.6709C77.9245 42.7852 78.1208 42.8652 78.5018 42.8995V43.1167C78.0977 43.0938 77.3703 43.0938 76.3312 43.1167V42.8995C76.666 42.8423 76.9431 42.7738 77.1625 42.7052C77.3819 42.6366 77.5666 42.5337 77.7282 42.408C77.9476 42.2251 78.1324 41.9851 78.2594 41.6879C78.3864 41.3907 78.4441 41.0935 78.4441 40.7734C78.4326 40.3619 78.294 40.0076 78.0169 39.6989C77.7398 39.3903 77.3472 39.1617 76.8507 38.9902C76.3427 38.8302 75.7654 38.7502 75.0957 38.7616C74.3337 38.773 73.7218 38.8645 73.2368 39.036C72.7519 39.2074 72.4055 39.4589 72.1746 39.7904C71.9437 40.1219 71.8398 40.5448 71.8513 41.0592C71.8628 41.4364 71.9668 41.7564 72.163 42.0308C72.2439 42.1451 72.3131 42.2137 72.394 42.248C72.4632 42.2822 72.5672 42.2937 72.6942 42.2937L73.6063 42.2822C73.8719 42.2822 74.0566 42.248 74.1836 42.2022C74.2991 42.1565 74.3914 42.0651 74.4261 41.9279C74.4723 41.8022 74.4953 41.5964 74.4953 41.3221H74.6801C74.6685 41.6307 74.657 42.0651 74.6685 42.648C74.6801 43.0824 74.6916 43.4139 74.7147 43.6196H74.53C74.5184 43.471 74.4838 43.3682 74.4492 43.311C74.4145 43.2538 74.3337 43.2081 74.2298 43.1853C74.1259 43.1624 73.9527 43.151 73.7102 43.1624L71.8398 43.1967V43.0138C71.9437 42.9681 72.0707 42.9452 72.1861 42.8995Z" fill="#092532"/>
<path d="M70.8125 52.6268C70.4776 52.5239 70.0851 52.421 69.6348 52.3296C69.7849 51.9295 70.0042 51.2551 70.316 50.2949C70.6855 49.1519 70.951 48.2832 71.1127 47.7002L71.2974 47.7573C71.2397 47.9745 71.2166 48.1346 71.2166 48.2489C71.2281 48.3632 71.2743 48.4432 71.3667 48.5118C71.459 48.5804 71.6207 48.6489 71.8401 48.7175L76.3084 50.1121C76.5393 50.1806 76.701 50.2149 76.8164 50.2149C76.9319 50.2149 77.0242 50.1692 77.0935 50.0778C77.1628 49.9863 77.2321 49.8377 77.3129 49.632L77.4976 49.6891C77.2898 50.2721 77.0127 51.1294 76.6432 52.2724C76.3661 53.1412 76.1698 53.7698 76.0775 54.1471C75.6964 53.987 75.3501 53.8499 75.0268 53.7584C74.7959 53.6898 74.5996 53.6327 74.461 53.6098L74.5303 53.4041C74.9344 53.4841 75.2462 53.5184 75.454 53.5184C75.6618 53.5184 75.835 53.4498 75.9735 53.3126C76.1121 53.1869 76.2276 52.9583 76.3315 52.6496L76.5624 51.9067C76.6317 51.6895 76.6663 51.5294 76.6548 51.4266C76.6432 51.3237 76.6086 51.2322 76.5162 51.1637C76.4238 51.0951 76.2737 51.0265 76.0428 50.9579L73.9184 50.2949L73.7336 50.8893C73.6412 51.1865 73.6643 51.4151 73.8144 51.5752C73.9645 51.7352 74.1262 51.8495 74.3109 51.9295C74.4957 52.0095 74.6111 52.0667 74.6573 52.0895L74.588 52.2953C74.2994 52.181 74.0223 52.0781 73.7452 51.9981L73.318 51.8724C73.0178 51.7809 72.579 51.6552 72.0248 51.5294L72.0941 51.3237C72.1403 51.3351 72.2904 51.358 72.5444 51.4151C72.7984 51.4609 73.0178 51.438 73.1909 51.3466C73.3641 51.2551 73.4796 51.0837 73.5604 50.8436L73.7452 50.2492L71.5745 49.5748C71.3436 49.5062 71.1819 49.4719 71.0665 49.4719C70.951 49.4719 70.8586 49.5177 70.8009 49.6091C70.7316 49.7006 70.6624 49.8491 70.5931 50.0663L70.3853 50.7179C70.2698 51.0951 70.2236 51.3923 70.2698 51.6095C70.3044 51.8381 70.4199 52.021 70.6162 52.181C70.8125 52.3296 71.1127 52.501 71.5168 52.6839L71.4475 52.8897C71.3089 52.7868 71.0896 52.7182 70.8125 52.6268Z" fill="#092532"/>
<path d="M67.5219 66.6521C67.5681 66.5493 67.5565 66.4464 67.5104 66.3435C67.4642 66.2406 67.3487 66.1149 67.1755 65.9434L63.781 62.7314C63.6078 62.5714 63.4692 62.4685 63.3653 62.4228C63.2614 62.3771 63.1575 62.3771 63.0536 62.4228C62.9497 62.4685 62.8227 62.5714 62.661 62.7314L62.5225 62.6057C62.7418 62.4114 63.0189 62.1256 63.3769 61.7713C63.7463 61.3826 64.0234 61.0854 64.1966 60.8911L64.3352 61.0169C64.1851 61.1883 64.0927 61.3255 64.0465 61.4169C64.0004 61.5198 64.0119 61.6227 64.0581 61.7255C64.1043 61.8284 64.2197 61.9542 64.3929 62.1256L67.7875 65.3376C67.9607 65.4976 68.0992 65.6005 68.2031 65.6462C68.307 65.692 68.4109 65.692 68.5149 65.6462C68.6188 65.6005 68.7458 65.4976 68.9074 65.3376L69.046 65.4634C68.8497 65.6348 68.561 65.9206 68.1916 66.3092C67.8336 66.675 67.5681 66.9722 67.3834 67.1894L67.2448 67.0636C67.3834 66.8922 67.4757 66.755 67.5219 66.6521Z" fill="#092532"/>
<path d="M57.9038 73.6251C57.9731 73.5223 57.9846 73.4194 57.9615 73.2937C57.9384 73.1679 57.8576 73.0079 57.7306 72.7907L54.8672 67.9784L55.0519 67.8641L61.587 71.099L59.0584 66.8468C58.9314 66.641 58.8275 66.4924 58.7236 66.4124C58.6197 66.3324 58.5042 66.2981 58.3772 66.3096C58.2502 66.321 58.077 66.3896 57.8576 66.5039L57.7537 66.3438C57.9615 66.2524 58.2386 66.0924 58.5966 65.8866C58.9199 65.6923 59.1623 65.5437 59.3355 65.418L59.4279 65.578C59.2431 65.6923 59.1161 65.8066 59.0584 65.9095C58.9891 66.0124 58.9776 66.1152 59.0007 66.241C59.0238 66.3667 59.1046 66.5267 59.2316 66.7439L61.5639 70.6646C61.6794 70.8704 61.7833 71.0075 61.8756 71.0761C61.968 71.1447 62.0604 71.179 62.1758 71.1561C62.2798 71.1333 62.4414 71.0761 62.6377 70.9732L62.7301 71.1333C62.5453 71.2247 62.2913 71.3619 61.9565 71.5562C61.714 71.6934 61.5062 71.8305 61.333 71.9448L55.8486 69.2358L57.9038 72.6878C58.0308 72.8936 58.1347 73.0422 58.2386 73.1222C58.331 73.2022 58.4465 73.2365 58.585 73.2251C58.7236 73.2136 58.8968 73.1451 59.1161 73.0307L59.2085 73.1908C59.0007 73.2822 58.7236 73.4423 58.3656 73.648C58.0424 73.8423 57.7999 73.9909 57.6267 74.1167L57.5343 73.9566C57.7075 73.8309 57.8345 73.7166 57.9038 73.6251Z" fill="#092532"/>
<path d="M51.5531 75.1219C51.6339 75.4763 51.7378 75.8649 51.8764 76.2764C51.3568 76.3679 50.4909 76.5508 49.267 76.8022C48.0431 77.0652 47.1887 77.2595 46.6807 77.3852C46.6229 76.9394 46.5652 76.5508 46.4844 76.1964C46.4151 75.8878 46.3574 75.6363 46.2881 75.4534L46.4959 75.4077C46.646 75.8764 46.7846 76.2079 46.9116 76.425C47.0386 76.6422 47.2002 76.7794 47.4081 76.848C47.6159 76.9166 47.9161 76.9051 48.2971 76.8251L48.7936 76.7222L47.6621 71.5213C47.6043 71.2698 47.5466 71.0869 47.4658 70.9841C47.385 70.8812 47.2926 70.8126 47.154 70.8012C47.0155 70.7783 46.8077 70.8012 46.5306 70.8469L46.4959 70.664C46.8192 70.6183 47.281 70.5268 47.8584 70.4011C48.4703 70.2639 48.9321 70.1611 49.2208 70.0811L49.2554 70.2639C48.9783 70.3325 48.7936 70.4011 48.6781 70.4697C48.5627 70.5383 48.4934 70.6412 48.4703 70.7669C48.4472 70.8926 48.4587 71.0869 48.5165 71.3384L49.648 76.5393L50.1445 76.4365C50.5255 76.3565 50.8026 76.2421 50.9642 76.0935C51.1259 75.9449 51.2183 75.7506 51.2413 75.5106C51.2644 75.2705 51.2529 74.9048 51.1952 74.4247L51.403 74.379C51.4376 74.5618 51.4838 74.8133 51.5531 75.1219Z" fill="#092532"/>
<path d="M36.2313 71.9107C36.266 71.5563 36.2775 71.1562 36.2775 70.7104C36.7047 70.7676 37.4206 70.8362 38.4366 70.9276C39.6374 71.0305 40.5495 71.1105 41.173 71.1448L41.1615 71.3277C40.9306 71.3163 40.7689 71.3277 40.665 71.362C40.5611 71.3963 40.4803 71.4534 40.4341 71.5563C40.3879 71.6592 40.3533 71.8306 40.3302 72.0593L39.9145 76.6886C39.8914 76.9173 39.903 77.0887 39.9261 77.203C39.9492 77.3173 40.0184 77.3973 40.1223 77.4431C40.2263 77.4888 40.3879 77.5345 40.6073 77.5574L40.5957 77.7403C39.9838 77.6717 39.0717 77.5802 37.8709 77.4774C36.9472 77.3973 36.2891 77.3516 35.8965 77.3288C35.9773 76.9287 36.035 76.5629 36.0581 76.2314C36.0812 75.9914 36.0928 75.7971 36.0812 75.6485L36.3006 75.6713C36.3121 76.0828 36.3352 76.38 36.393 76.5858C36.4391 76.7915 36.5431 76.9401 36.7047 77.043C36.8548 77.1459 37.1088 77.2145 37.4321 77.2373L38.2172 77.3059C38.4482 77.3288 38.6098 77.3173 38.7137 77.2945C38.8176 77.2716 38.8985 77.203 38.9446 77.1001C38.9908 76.9973 39.0255 76.8258 39.0486 76.5972L39.2448 74.4025L38.6214 74.3454C38.3096 74.3225 38.0902 74.3911 37.9632 74.574C37.8478 74.7569 37.7554 74.9398 37.7208 75.1341C37.6746 75.3284 37.6515 75.4541 37.6399 75.5113L37.4206 75.4884C37.4667 75.1798 37.5014 74.894 37.536 74.6083L37.5707 74.1625C37.5938 73.8424 37.6168 73.4081 37.6399 72.8365L37.8593 72.8594C37.8593 72.9051 37.8709 73.0537 37.8709 73.3166C37.8824 73.5795 37.9401 73.7853 38.0787 73.9224C38.2057 74.071 38.402 74.1511 38.656 74.1739L39.2795 74.2311L39.4758 71.9907C39.4989 71.7621 39.4873 71.5906 39.4642 71.4763C39.4411 71.3734 39.3719 71.2934 39.2679 71.2477C39.164 71.202 39.0024 71.1677 38.783 71.1448L38.0902 71.0877C37.6977 71.0534 37.3975 71.0762 37.1781 71.1677C36.9703 71.2477 36.8086 71.4077 36.6932 71.6249C36.5777 71.8421 36.4853 72.1736 36.393 72.6079L36.1736 72.5851C36.1736 72.4136 36.1967 72.185 36.2313 71.9107Z" fill="#092532"/>
<path d="M27.1453 67.6698C27.3185 67.6355 27.5147 67.6698 27.7226 67.7612C27.965 67.8641 28.1267 68.0127 28.2191 68.207C28.3114 68.4128 28.323 68.6985 28.2652 69.0757L28.092 70.0131C28.0343 70.3445 27.9997 70.596 27.9881 70.7903C27.9766 70.9732 28.0228 71.1447 28.1036 71.2933C28.1844 71.4419 28.3345 71.5562 28.5539 71.6476L29.3852 71.9905L30.2281 70.0016C30.3204 69.7844 30.3666 69.6244 30.3782 69.5101C30.3897 69.3958 30.3435 69.3044 30.2627 69.2243C30.1819 69.1443 30.0433 69.0643 29.8355 68.9729L29.9048 68.8014C30.1703 68.9271 30.5283 69.0872 31.0017 69.2815C31.4981 69.4872 31.8792 69.6358 32.1332 69.7159L32.0639 69.8873C31.8445 69.8073 31.6829 69.773 31.579 69.7616C31.4635 69.7616 31.3711 69.7959 31.3018 69.8873C31.221 69.9673 31.1402 70.1159 31.0478 70.3331L29.2351 74.6196C29.1427 74.8368 29.0966 74.9968 29.085 75.1111C29.0735 75.2254 29.1196 75.3169 29.2005 75.3969C29.2813 75.4769 29.4198 75.5569 29.6277 75.6598L29.5584 75.8312C29.3159 75.7169 28.9695 75.5569 28.5077 75.3626C28.2768 75.2711 28.0343 75.1683 27.7572 75.054C27.4801 74.9396 27.2954 74.8711 27.1915 74.8253C26.7412 74.631 26.3832 74.4138 26.1177 74.1509C25.8521 73.888 25.702 73.6137 25.6327 73.3165C25.5635 73.0193 25.5981 72.7335 25.7251 72.4478C25.8175 72.2192 25.9676 72.0134 26.1754 71.8305C26.3832 71.6476 26.6488 71.5105 26.9721 71.4419C27.2954 71.3733 27.6879 71.3847 28.1151 71.4876L28.0112 71.4305C27.7688 71.2819 27.584 71.1333 27.4686 70.9732C27.3531 70.8246 27.2723 70.6532 27.2492 70.4703C27.2145 70.2874 27.2261 70.0588 27.2723 69.7844L27.4339 68.8128C27.4686 68.6185 27.4917 68.4699 27.4917 68.3556C27.4917 68.2413 27.4801 68.1499 27.4455 68.0813C27.4108 68.0127 27.3531 67.9555 27.2723 67.9327C27.1799 67.887 27.0875 67.887 27.0067 67.9098C26.9259 67.9327 26.8104 67.9898 26.6603 68.0699L26.568 67.9213C26.7758 67.7955 26.9721 67.7041 27.1453 67.6698ZM27.7226 71.7391C27.4455 71.7734 27.2261 71.8762 27.0529 72.0477C26.8797 72.2192 26.7296 72.4478 26.6026 72.745C26.4063 73.2136 26.3601 73.6251 26.4871 73.9566C26.6141 74.2881 26.9259 74.5624 27.4455 74.7796C27.6302 74.8596 27.7688 74.8939 27.8842 74.8825C27.9881 74.8825 28.0805 74.8368 28.1613 74.7453C28.2421 74.6539 28.323 74.5053 28.4038 74.2995L29.3044 72.1734L28.7155 71.9334C28.3345 71.7734 27.9997 71.7048 27.7226 71.7391Z" fill="#092532"/>
<path d="M18.1392 69.2244C18.2431 69.2587 18.347 69.2358 18.4394 69.1787C18.5317 69.1215 18.6587 68.9958 18.8088 68.8129L21.7069 65.1551C21.857 64.9722 21.9494 64.8236 21.984 64.7208C22.0186 64.6179 22.0071 64.515 21.9494 64.4236C21.8916 64.3321 21.7762 64.2064 21.603 64.0578L21.7185 63.9092C21.9378 64.1035 22.238 64.355 22.6421 64.6636C23.0693 64.9951 23.3926 65.2351 23.612 65.3837L23.4965 65.5323C23.3118 65.3952 23.1617 65.3151 23.0578 65.2923C22.9539 65.258 22.85 65.2694 22.7576 65.338C22.6652 65.3952 22.5382 65.5209 22.3881 65.7038L19.4901 69.3616C19.34 69.5445 19.2476 69.6931 19.213 69.7959C19.1783 69.8988 19.1899 70.0017 19.2476 70.0931C19.3053 70.1846 19.4208 70.3103 19.594 70.4589L19.4785 70.6075C19.2822 70.4361 18.9705 70.1846 18.5433 69.8417C18.1392 69.533 17.8159 69.293 17.585 69.133L17.7004 68.9844C17.8967 69.1101 18.0353 69.1901 18.1392 69.2244Z" fill="#092532"/>
<path d="M10.6808 61.0856C10.6346 60.5712 10.7501 60.0568 11.0157 59.5653C11.2928 59.0624 11.7084 58.6166 12.2857 58.1937C12.8515 57.7936 13.4172 57.5307 14.0061 57.4278C14.5949 57.3249 15.1376 57.3592 15.6456 57.5535C16.1537 57.7479 16.5809 58.0794 16.9157 58.548C17.2736 59.0281 17.4699 59.531 17.5161 60.0454C17.5623 60.5598 17.4468 61.0742 17.1813 61.5657C16.9042 62.0686 16.4885 62.5144 15.9112 62.9374C15.3454 63.3374 14.7797 63.6003 14.1908 63.7032C13.6135 63.8061 13.0593 63.7718 12.5513 63.5775C12.0433 63.3831 11.6161 63.0517 11.2812 62.5944C10.9233 62.1029 10.727 61.6 10.6808 61.0856ZM12.4127 63.1202C12.8168 63.2003 13.2787 63.166 13.7867 63.0059C14.2947 62.8459 14.8028 62.583 15.3339 62.1944C15.865 61.8172 16.2807 61.4057 16.5693 60.9713C16.8695 60.5369 17.0312 60.1026 17.0543 59.6911C17.0889 59.2796 16.985 58.9138 16.7656 58.6052C16.5231 58.2851 16.2114 58.0794 15.7957 57.9993C15.3916 57.9193 14.9298 57.9536 14.4218 58.1136C13.9137 58.2737 13.4057 58.5366 12.8746 58.9138C12.3435 59.291 11.9278 59.7025 11.6392 60.1483C11.339 60.5827 11.1773 61.0056 11.1427 61.4285C11.108 61.84 11.2119 62.2058 11.4313 62.5144C11.6738 62.8345 11.9971 63.0402 12.4127 63.1202Z" fill="#092532"/>
<path d="M11.5693 47.3237C11.7079 47.4265 11.8118 47.598 11.8811 47.8266C11.9619 48.0666 11.9504 48.2952 11.858 48.4896C11.7656 48.6953 11.5462 48.8896 11.2114 49.084L10.3685 49.5526C10.0799 49.7241 9.86052 49.8612 9.71042 49.9756C9.56032 50.0899 9.4564 50.227 9.39867 50.3871C9.34094 50.5471 9.34094 50.73 9.41022 50.9586L9.67578 51.8159L11.7541 51.1758C11.985 51.1072 12.1351 51.0386 12.2275 50.97C12.3198 50.9014 12.366 50.81 12.3776 50.7071C12.3891 50.6042 12.3545 50.4328 12.2967 50.2156L12.4815 50.1584C12.5507 50.4328 12.6547 50.8214 12.8163 51.3015C12.978 51.8159 13.105 52.1931 13.1973 52.4331L13.0126 52.4903C12.9318 52.2731 12.8625 52.1245 12.7932 52.0445C12.7239 51.9645 12.6316 51.9073 12.5161 51.9073C12.4007 51.9073 12.2275 51.9302 12.0081 52.0102L7.52821 53.3819C7.29729 53.4505 7.14719 53.519 7.05483 53.5876C6.96246 53.6562 6.91627 53.7476 6.90473 53.8505C6.89318 53.9648 6.92782 54.1249 6.98555 54.342L6.80081 54.3992C6.74308 54.1477 6.63917 53.7819 6.48907 53.3019C6.41979 53.0732 6.32742 52.8103 6.23506 52.536C6.14269 52.2617 6.07341 52.0673 6.03877 51.9645C5.88867 51.4958 5.84249 51.0843 5.87713 50.7185C5.91177 50.3528 6.02723 50.0556 6.21196 49.8155C6.3967 49.5755 6.63917 49.4155 6.93936 49.324C7.17029 49.2554 7.4243 49.2326 7.7014 49.2669C7.97851 49.3011 8.24407 49.4155 8.52117 49.6212C8.79828 49.827 9.0292 50.1241 9.22548 50.5242L9.21394 50.4099C9.1793 50.1241 9.16775 49.8955 9.21394 49.7012C9.26012 49.5069 9.34094 49.3469 9.45641 49.2097C9.58341 49.0725 9.76815 48.9239 10.0106 48.7868L10.865 48.2838C11.0382 48.1924 11.1768 48.1009 11.2576 48.0323C11.3384 47.9638 11.4077 47.8952 11.4423 47.8266C11.477 47.758 11.477 47.678 11.4539 47.598C11.4192 47.4951 11.3731 47.4265 11.3038 47.3808C11.2345 47.3351 11.119 47.2779 10.9574 47.2208L11.0151 47.0493C11.246 47.1293 11.4423 47.2208 11.5693 47.3237ZM8.80983 50.3871C8.61354 50.2042 8.38262 50.1013 8.14015 50.0784C7.89769 50.0556 7.62058 50.0899 7.30884 50.1927C6.81236 50.3413 6.47752 50.5814 6.29278 50.89C6.10805 51.1986 6.10805 51.6216 6.26969 52.1359C6.32742 52.3188 6.3967 52.456 6.46598 52.536C6.53525 52.616 6.63917 52.6617 6.75463 52.6617C6.87009 52.6617 7.04328 52.6275 7.25111 52.5703L9.46795 51.8845L9.28321 51.2786C9.16775 50.8671 9.00611 50.5699 8.80983 50.3871Z" fill="#092532"/>
<path d="M10.6803 36.476C11.1191 36.2817 11.3846 35.9159 11.5001 35.3672C11.5347 35.1615 11.5347 34.9557 11.477 34.7614C11.4193 34.5671 11.3154 34.3956 11.1537 34.247C10.9921 34.0984 10.7727 33.9956 10.484 33.9498C10.2416 33.9041 10.0222 33.927 9.81438 34.007C9.60655 34.087 9.39872 34.2127 9.20244 34.3842C9.00615 34.5557 8.77523 34.7843 8.52122 35.07C8.23257 35.3901 7.97855 35.653 7.75918 35.8359C7.5398 36.0302 7.29734 36.1674 7.03178 36.2703C6.76622 36.3731 6.46602 36.3846 6.13118 36.3274C5.7848 36.2588 5.49615 36.1331 5.28832 35.9273C5.08049 35.7216 4.93039 35.4815 4.86112 35.1958C4.79184 34.91 4.79184 34.6128 4.84957 34.2928C4.88421 34.0984 4.93039 33.9498 4.98812 33.8127C5.04585 33.6755 5.10358 33.5726 5.17286 33.4926C5.24214 33.4126 5.31141 33.3212 5.40378 33.2297C5.51924 33.104 5.57697 33.0125 5.60006 32.944C5.61161 32.8868 5.58852 32.8411 5.53079 32.7954C5.47306 32.7496 5.36914 32.7153 5.23059 32.6696L5.26523 32.4639C5.62316 32.5553 6.24664 32.6925 7.15878 32.8639L7.12414 33.0697C6.80085 33.0354 6.50066 33.0468 6.20046 33.1154C5.91181 33.1726 5.65779 33.2983 5.44997 33.4926C5.24214 33.6755 5.10358 33.9384 5.04585 34.2585C4.99967 34.4757 5.01122 34.67 5.06895 34.8643C5.12668 35.0586 5.23059 35.2072 5.36914 35.3329C5.51924 35.4587 5.69243 35.5387 5.90026 35.5844C6.2351 35.6416 6.52375 35.5959 6.76622 35.4358C7.00868 35.2758 7.2396 35.07 7.45898 34.83C7.67836 34.59 7.81691 34.4299 7.89773 34.3499C8.22102 34.007 8.48658 33.7441 8.70595 33.5498C8.92533 33.3555 9.1678 33.2183 9.43336 33.1268C9.69892 33.0354 9.98757 33.024 10.2993 33.0811C10.6803 33.1497 10.9921 33.2983 11.223 33.5155C11.4539 33.7441 11.604 34.007 11.6848 34.3271C11.7657 34.6471 11.7657 34.99 11.6964 35.3558C11.6387 35.653 11.5694 35.8816 11.4655 36.0645C11.3731 36.2474 11.2461 36.4074 11.1075 36.556C10.9921 36.6818 10.9343 36.7732 10.9113 36.8418C10.8997 36.8989 10.9228 36.9447 10.9805 36.9904C11.0383 37.0361 11.1422 37.0818 11.2807 37.1161L11.2461 37.3219C10.9113 37.2304 10.1723 37.0818 9.02924 36.8761L9.06388 36.6703C9.71046 36.7275 10.2416 36.6703 10.6803 36.476Z" fill="#092532"/>
<path d="M8.39455 26.8395C8.07126 26.668 7.70179 26.508 7.28613 26.348C7.54015 25.9022 7.96735 25.1249 8.54465 24.0161C9.12196 22.9188 9.52607 22.1415 9.74544 21.6729C10.1265 21.9129 10.4728 22.1186 10.7846 22.2787C11.0617 22.4273 11.3042 22.5301 11.4889 22.6102L11.385 22.8045C10.9231 22.6216 10.5768 22.5073 10.3343 22.473C10.0918 22.4273 9.87245 22.473 9.68771 22.5873C9.50298 22.7016 9.31824 22.9302 9.14505 23.2731L8.91413 23.7304L13.6827 26.1879C13.9136 26.3137 14.0983 26.3708 14.2253 26.3823C14.3523 26.3937 14.4678 26.3594 14.5717 26.268C14.6756 26.1765 14.7911 26.0051 14.9296 25.765L15.1028 25.8565C14.9296 26.1422 14.7102 26.5423 14.4331 27.0681C14.1445 27.6168 13.9367 28.0397 13.8097 28.3026L13.6365 28.2112C13.7519 27.9597 13.8327 27.7654 13.8443 27.6396C13.8674 27.5025 13.8327 27.3882 13.7404 27.2853C13.648 27.1824 13.4979 27.0795 13.267 26.9538L8.49847 24.4848L8.256 24.9306C8.07127 25.2735 7.99044 25.5478 8.00199 25.765C8.01353 25.9822 8.1059 26.1765 8.27909 26.348C8.45229 26.5194 8.74094 26.748 9.15659 27.0109L9.05268 27.2053C8.90258 27.1138 8.67166 26.9881 8.39455 26.8395Z" fill="#092532"/>
<path d="M16.546 13.7058C16.7423 13.5115 16.904 13.3286 17.0194 13.1914L17.158 13.3286C17.0887 13.4314 17.054 13.58 17.0656 13.7515C17.0771 13.923 17.1233 14.163 17.2157 14.4488L18.2664 17.5465L19.4903 18.7467C19.6635 18.9067 19.7905 19.021 19.8944 19.0667C19.9983 19.1125 20.1022 19.1125 20.2061 19.0667C20.31 19.021 20.437 18.9181 20.6102 18.7695L20.7488 18.9067C20.5294 19.101 20.2408 19.3754 19.8828 19.7297C19.5018 20.1069 19.2247 20.4041 19.0515 20.5984L18.913 20.4613C19.0631 20.2898 19.167 20.1641 19.2132 20.0612C19.2593 19.9583 19.2593 19.8554 19.2016 19.7526C19.1554 19.6497 19.04 19.5125 18.8783 19.3525L17.8623 18.358L14.0059 17.2378C13.775 17.1693 13.6018 17.1464 13.4863 17.1578C13.3709 17.1693 13.29 17.2035 13.2323 17.2607L13.0938 17.1235C13.2785 16.9635 13.4863 16.7806 13.6941 16.5634C14.1213 16.1291 14.4331 15.8204 14.6063 15.6147L14.7448 15.7519C14.4331 16.0605 14.3638 16.3005 14.537 16.472C14.6063 16.5406 14.6987 16.5863 14.8372 16.632L18.0816 17.6265L17.2272 15.1003C17.1002 14.7345 16.9732 14.4831 16.8347 14.3573C16.7077 14.2316 16.5691 14.1973 16.419 14.243C16.2689 14.2887 16.0957 14.4031 15.8879 14.5974L15.7493 14.4602C16.0264 14.2087 16.2805 13.9573 16.546 13.7058Z" fill="#092532"/>
<path d="M23.5317 9.09931C23.4624 9.17933 23.4277 9.2822 23.4508 9.39651C23.4739 9.51082 23.5317 9.67084 23.6471 9.8766L25.8755 13.9687C25.991 14.1745 26.0833 14.3117 26.1757 14.3917C26.2565 14.4717 26.3604 14.4946 26.4644 14.4831C26.5683 14.4717 26.7299 14.4031 26.9262 14.3002L27.5381 13.9687C27.8845 13.7859 28.127 13.5915 28.254 13.3972C28.381 13.2029 28.4272 12.9857 28.3925 12.7228C28.3579 12.4599 28.254 12.1284 28.0693 11.6941L28.2655 11.5912C28.3464 11.7741 28.4618 12.0027 28.6119 12.277C28.7851 12.5856 28.9929 12.9286 29.247 13.3058C28.8659 13.4887 28.2194 13.8202 27.3303 14.3002C26.2681 14.8718 25.4598 15.3061 24.9287 15.6148L24.8364 15.4547C25.0326 15.3404 25.1712 15.2375 25.2405 15.1575C25.3097 15.0775 25.3444 14.9746 25.3213 14.8603C25.2982 14.746 25.2405 14.586 25.125 14.3803L22.8735 10.2881C22.7581 10.0823 22.6657 9.94518 22.5733 9.86516C22.4925 9.78515 22.3886 9.76229 22.2847 9.77372C22.1692 9.78515 22.0191 9.8423 21.8113 9.94518L21.7305 9.77372C21.9729 9.67084 22.3309 9.48795 22.8043 9.22505C23.2545 8.98501 23.6009 8.79069 23.8434 8.64209L23.9358 8.80212C23.7395 8.91642 23.6125 9.0193 23.5317 9.09931Z" fill="#092532"/>
<path d="M37.5948 9.83045C37.6641 10.1734 37.768 10.562 37.895 10.9964C37.4678 11.065 36.7635 11.1907 35.7705 11.385C34.5813 11.6136 33.6922 11.7965 33.0803 11.9337L33.0456 11.7508C33.265 11.6936 33.4266 11.6479 33.519 11.5793C33.6114 11.5222 33.6691 11.4307 33.6807 11.3279C33.6922 11.2136 33.6807 11.0421 33.6345 10.8135L32.7339 6.25268C32.6877 6.02406 32.6415 5.86404 32.5722 5.76116C32.503 5.65828 32.4337 5.60113 32.3182 5.5897C32.2143 5.56684 32.0411 5.57827 31.8217 5.61256L31.7871 5.42967C32.3991 5.3268 33.2996 5.16677 34.4773 4.93816C35.3895 4.75527 36.0361 4.62953 36.4055 4.53809C36.4402 4.94959 36.4979 5.31537 36.5556 5.63542C36.6018 5.87547 36.648 6.05836 36.6942 6.19552L36.4864 6.24125C36.3593 5.8526 36.2439 5.56684 36.14 5.38395C36.0361 5.20106 35.886 5.08675 35.7128 5.0296C35.528 4.97245 35.2856 4.97245 34.9507 5.04103L34.1771 5.18963C33.9578 5.23535 33.7961 5.28108 33.7038 5.33823C33.6114 5.39538 33.5537 5.47539 33.5306 5.5897C33.519 5.70401 33.5306 5.87547 33.5767 6.10408L34.004 8.27589L34.6159 8.15016C34.9276 8.093 35.1124 7.95584 35.1817 7.75008C35.2509 7.54433 35.274 7.35001 35.2625 7.15569C35.2509 6.96137 35.2394 6.83564 35.2394 6.77848L35.4472 6.73276C35.4818 7.04139 35.528 7.32715 35.5858 7.60149L35.6781 8.03585C35.7359 8.34448 35.8398 8.77884 35.9899 9.32751L35.782 9.37323C35.7705 9.32751 35.7243 9.19034 35.6435 8.93887C35.5627 8.68739 35.4472 8.51593 35.274 8.41306C35.1008 8.31018 34.9045 8.28732 34.6505 8.33305L34.0386 8.44735L34.4773 10.6535C34.5235 10.8821 34.5697 11.0421 34.6274 11.145C34.6852 11.2364 34.766 11.2936 34.8815 11.3164C34.9854 11.3279 35.1586 11.3164 35.3779 11.2707L36.0592 11.1335C36.4402 11.0535 36.7288 10.9507 36.9136 10.8135C37.0983 10.6763 37.2022 10.482 37.2484 10.242C37.2946 10.0019 37.2946 9.65899 37.2599 9.2132L37.4678 9.16748C37.5024 9.33894 37.537 9.55612 37.5948 9.83045Z" fill="#092532"/>
<path d="M29.8118 53.4838C29.2807 52.7751 28.8189 51.9979 28.4147 51.1406C28.0106 50.2833 27.6873 49.4145 27.4449 48.523C26.9138 44.6023 26.9022 40.7959 27.3987 37.1038C27.8952 33.4117 28.7034 29.7768 29.8118 26.1876C29.9966 25.7875 30.4007 25.5932 31.0242 25.5932C31.6476 25.5932 32.2596 25.7303 32.8831 26.0047C33.5066 26.279 34.0146 26.6448 34.4187 27.102C34.8228 27.5592 34.9152 28.0393 34.6958 28.5308C34.3494 29.2624 34.0146 30.2569 33.6798 31.4914C33.3449 32.7373 33.0101 34.109 32.7099 35.6064C32.3981 37.1038 32.1326 38.6812 31.9017 40.3158C31.6707 41.9504 31.4975 43.5278 31.3936 45.0252C31.2897 46.5226 31.2666 47.8828 31.3244 49.0945C31.3821 50.3061 31.5668 51.2663 31.8786 51.9636C33.3334 50.0318 34.6612 48.0314 35.8735 45.9625C37.0858 43.8936 38.2174 41.8018 39.2796 39.6642C40.3418 37.5382 41.3579 35.3892 42.3162 33.206C43.2745 31.0341 44.2213 28.8852 45.145 26.7705C45.6068 25.6961 46.0687 24.5644 46.519 23.3756C46.9693 22.1754 47.5581 21.1581 48.3086 20.3008C48.6204 20.0265 48.8628 19.935 49.0245 20.0265C49.1977 20.1179 49.3131 20.2894 49.3708 20.5523C49.4286 20.8152 49.4632 21.0895 49.4632 21.3753C49.4632 21.6611 49.4632 21.8897 49.4632 22.0383C49.2438 23.4442 49.0591 24.8388 48.909 26.2219C48.7589 27.605 48.4241 28.9309 47.9391 30.2226C47.1309 32.2458 46.3111 34.2461 45.4567 36.2465C44.6023 38.2354 43.6902 40.2015 42.7203 42.1333C41.7504 44.065 40.6882 45.9396 39.5682 47.7571C38.4367 49.586 37.2128 51.3235 35.8735 52.9695C34.8228 54.284 33.7721 54.9812 32.7445 55.0613C31.6707 55.1527 30.7124 54.6155 29.8118 53.4838Z" fill="#092532" stroke="white" stroke-width="0.775307" stroke-miterlimit="10"/>
<path d="M48.9324 48.2944C48.309 47.4371 47.697 46.5684 47.0966 45.6768C46.4962 44.7852 46.196 43.8136 46.196 42.7391C46.196 41.5503 46.5424 40.4187 47.2352 39.3557C47.9279 38.304 48.7246 37.4467 49.6252 36.8066C49.9947 36.5666 50.3757 36.3608 50.7567 36.2122C51.1377 36.0636 51.5534 36.0751 51.9921 36.258C52.1769 36.3494 52.3732 36.418 52.5695 36.4637C52.7657 36.5094 52.9505 36.5666 53.1006 36.6237C53.2507 36.6809 53.4239 36.7723 53.6086 36.8981C53.7933 37.0238 53.8857 37.1838 53.8857 37.401C53.8857 38.2583 53.9088 38.9556 53.955 39.4928C54.0012 40.0301 54.0704 40.4873 54.1628 40.8759C54.2552 41.2646 54.3475 41.596 54.4399 41.8818C54.5323 42.179 54.6247 42.4876 54.717 42.8191C54.7747 43.1277 54.7632 43.3907 54.6708 43.5964C54.5785 43.8136 54.3475 43.8364 53.9781 43.6878C53.2969 43.4478 52.7888 42.9563 52.4655 42.2133C52.1422 41.4703 51.8998 40.8073 51.7497 40.1901C51.715 40.0643 51.6458 39.8586 51.5188 39.55C51.3918 39.2413 51.3225 39.0242 51.2878 38.9099C51.0454 38.8527 50.7452 38.9327 50.4103 39.1613C50.0755 39.3899 49.7638 39.71 49.5097 40.0986C49.2442 40.4987 49.071 40.9559 49.0017 41.4817C48.9209 42.0076 49.0248 42.5219 49.3019 43.0477C49.4289 43.2306 49.6021 43.4592 49.833 43.7107C50.064 43.9736 50.2949 44.2365 50.5258 44.5108C50.7567 44.7852 50.9876 45.0595 51.2186 45.311C51.4495 45.5625 51.6458 45.7796 51.7959 45.9282C51.9806 46.1111 52.1076 46.214 52.1653 46.2254C52.2231 46.2369 52.3847 46.2026 52.6272 46.1111C52.9389 45.9625 53.4123 45.7568 54.0473 45.5167C54.6824 45.2767 55.3521 45.0252 56.0448 44.7852C56.7376 44.5451 57.4073 44.3394 58.0423 44.1679C58.6773 43.9965 59.1623 43.9165 59.5086 43.9165C59.728 43.9165 59.8781 43.9965 59.9705 44.1451C60.0628 44.2365 60.0513 44.3623 59.9243 44.5108C59.7973 44.6594 59.6356 44.8195 59.4394 44.9681C59.2431 45.1167 59.0237 45.2538 58.8159 45.3796C58.5965 45.5053 58.4579 45.5739 58.4002 45.6082C57.8691 45.9168 57.211 46.2597 56.4027 46.6484C55.5945 47.0256 54.9018 47.4028 54.3129 47.7686C54.2552 47.8257 54.1397 47.8943 53.9665 47.9515C53.7933 48.0086 53.6663 48.0772 53.574 48.1344C53.9434 48.9574 54.209 49.6775 54.3591 50.2719C54.5092 50.8663 54.5669 51.4378 54.5207 51.9979C54.4746 52.5466 54.3591 53.1067 54.1744 53.6782C53.9896 54.2497 53.7356 54.9013 53.4354 55.6328C52.9967 56.3415 52.5579 57.0159 52.1076 57.656C51.6573 58.2962 51.1608 58.8791 50.5951 59.4049C50.0409 59.9307 49.4289 60.3422 48.7823 60.6394C48.1358 60.9481 47.4199 61.0967 46.6463 61.0967C46.2076 61.0967 45.7919 61.0395 45.3878 60.9366C44.9837 60.8338 44.6489 60.6051 44.3717 60.2736C43.6559 59.5078 43.2633 58.6734 43.171 57.7703C43.0786 56.8673 43.1594 55.9757 43.4019 55.0842C43.5866 54.5355 43.8175 54.0325 44.0946 53.5639C44.7759 52.398 45.5264 51.4149 46.3461 50.6034C47.1774 49.8032 48.0319 49.0259 48.9324 48.2944ZM50.5143 50.3633C50.1679 50.7062 49.706 51.1863 49.1172 51.815C48.5283 52.4437 47.9857 53.1295 47.4661 53.8611C46.9581 54.5926 46.5424 55.3242 46.2191 56.0443C45.8958 56.7645 45.815 57.3817 45.9651 57.9075C46.5886 57.6332 47.2236 57.176 47.8702 56.5473C48.5168 55.9186 49.0941 55.2328 49.5906 54.4783C50.0871 53.7239 50.4334 52.9809 50.6297 52.2494C50.826 51.5064 50.7914 50.8777 50.5143 50.3633Z" fill="#092532" stroke="white" stroke-width="0.775307" stroke-miterlimit="10"/>
<path d="M41.4041 66.9038C26.9599 66.9038 15.2061 55.2675 15.2061 40.9678C15.2061 26.6681 26.9599 15.0317 41.4041 15.0317C55.8482 15.0317 67.6021 26.6681 67.6021 40.9678C67.6021 55.2675 55.8482 66.9038 41.4041 66.9038ZM41.4041 16.1748C27.595 16.1748 16.3607 27.2968 16.3607 40.9678C16.3607 54.6388 27.595 65.7607 41.4041 65.7607C55.2132 65.7607 66.4475 54.6388 66.4475 40.9678C66.4475 27.2968 55.2132 16.1748 41.4041 16.1748Z" fill="#092532"/>
</g>
</svg>
