<svg width="107" height="34" viewBox="0 0 107 34" fill="none" xmlns="http://www.w3.org/2000/svg">
<path d="M9.41003 0.00390625V0.152505L8.78657 0.301102V6.88513L9.41003 7.03373V7.18232H6.45424V7.03373L7.07774 6.88513V1.2727L4.62998 7.2852H4.31822L1.14305 1.2727V6.7251L1.97437 7.03373V7.18232H0V7.03373L0.831318 6.7251V0.301102L0.207821 0.152505V0.00390625H1.50097C1.69726 0.00390625 1.87045 0.0267668 2.009 0.0724892C2.14756 0.118212 2.28613 0.175364 2.39004 0.255379C2.5055 0.335393 2.59787 0.42684 2.67869 0.529715C2.75952 0.63259 2.8288 0.758326 2.89807 0.884063L5.16109 5.17054L6.893 0.884063C6.95073 0.735465 7.00848 0.609729 7.0893 0.506853C7.15857 0.403978 7.25092 0.312533 7.35484 0.232519C7.45875 0.152505 7.58578 0.0953502 7.73588 0.0610584C7.88597 0.0267666 8.0707 0.00390625 8.30162 0.00390625H9.41003Z" fill="#092532"/>
<path d="M13.1044 1.9126C13.5316 1.9126 13.9242 1.96975 14.259 2.09549C14.5939 2.22122 14.8825 2.40411 15.125 2.63272C15.3674 2.87277 15.5406 3.15853 15.6676 3.49002C15.7946 3.82151 15.8524 4.21015 15.8524 4.63308C15.8524 5.05601 15.7946 5.44465 15.6676 5.77614C15.5406 6.10763 15.3559 6.39339 15.125 6.63343C14.8825 6.87348 14.5939 7.04494 14.259 7.17067C13.9242 7.29641 13.5316 7.35356 13.1044 7.35356C12.6772 7.35356 12.2846 7.29641 11.9498 7.17067C11.615 7.04494 11.3263 6.86205 11.0839 6.63343C10.8414 6.39339 10.6682 6.10763 10.5412 5.77614C10.4142 5.44465 10.3564 5.05601 10.3564 4.63308C10.3564 4.21015 10.4142 3.82151 10.5412 3.49002C10.6682 3.15853 10.8529 2.87277 11.0839 2.63272C11.3263 2.39268 11.615 2.22122 11.9498 2.09549C12.2846 1.96975 12.6657 1.9126 13.1044 1.9126ZM13.1044 7.15924C13.2199 7.15924 13.3353 7.12495 13.4623 7.04494C13.5778 6.96492 13.6817 6.83919 13.7741 6.64487C13.8664 6.45054 13.9473 6.19907 14.005 5.87901C14.0627 5.54753 14.0974 5.13603 14.0974 4.64451C14.0974 4.14156 14.0627 3.73006 14.005 3.41001C13.9473 3.08995 13.8664 2.82704 13.7741 2.64416C13.6817 2.46127 13.5778 2.3241 13.4623 2.24409C13.3469 2.16407 13.2314 2.12978 13.1044 2.12978C12.989 2.12978 12.8735 2.16407 12.7465 2.24409C12.631 2.3241 12.5271 2.44984 12.4347 2.64416C12.3424 2.83848 12.2616 3.08995 12.2038 3.41001C12.1461 3.74149 12.1114 4.15299 12.1114 4.64451C12.1114 5.14746 12.1461 5.55896 12.2038 5.87901C12.2616 6.19907 12.3424 6.46198 12.4347 6.64487C12.5271 6.82775 12.631 6.96492 12.7465 7.04494C12.8619 7.11352 12.9774 7.15924 13.1044 7.15924Z" fill="#092532"/>
<path d="M20.8983 0.00390625C21.5217 0.00390625 21.8335 0.312532 21.8335 0.929784V6.89656L22.457 7.04515V7.19375H21.5218C21.2677 7.19375 21.0714 7.15946 20.9213 7.07945C20.7712 6.99943 20.6442 6.90799 20.5634 6.81654C20.4595 6.70224 20.3787 6.56507 20.3325 6.4279C20.2401 6.61079 20.1247 6.75939 19.9861 6.89656C19.8706 7.01086 19.709 7.11374 19.5127 7.21661C19.3164 7.31949 19.0855 7.36521 18.8199 7.36521C18.5197 7.36521 18.2426 7.30806 17.9886 7.19375C17.7231 7.07945 17.5037 6.90799 17.319 6.67938C17.1342 6.45076 16.9726 6.165 16.8687 5.83351C16.7532 5.49059 16.707 5.10195 16.707 4.64473C16.707 4.1875 16.7648 3.79887 16.8687 3.45595C16.9842 3.11303 17.1342 2.8387 17.3421 2.61008C17.5383 2.38147 17.7808 2.21001 18.0579 2.09571C18.335 1.9814 18.6468 1.92425 18.9932 1.92425C19.1779 1.92425 19.3395 1.94711 19.4896 1.9814C19.6397 2.02712 19.7667 2.07285 19.8706 2.13C19.9976 2.18715 20.1016 2.25574 20.1939 2.33575V0.335395L19.5705 0.186796V0.0381988H20.8983V0.00390625ZM20.1708 2.63294C20.09 2.55293 20.0208 2.48435 19.9284 2.42719C19.8476 2.37004 19.7667 2.32432 19.6744 2.27859C19.582 2.23287 19.4896 2.22144 19.3857 2.22144C19.2587 2.22144 19.1317 2.25573 19.0162 2.32432C18.9008 2.3929 18.8084 2.50721 18.716 2.67867C18.6352 2.85013 18.566 3.1016 18.5198 3.41022C18.4736 3.73028 18.4505 4.13035 18.4505 4.6333C18.4505 5.12481 18.4736 5.51345 18.5198 5.82208C18.566 6.13071 18.6237 6.37075 18.7045 6.54221C18.7738 6.71367 18.8546 6.83941 18.9585 6.89656C19.0509 6.95371 19.1433 6.988 19.2356 6.988C19.3973 6.988 19.5358 6.94228 19.6513 6.86227C19.7667 6.78225 19.8591 6.67938 19.9399 6.5765C20.0323 6.45076 20.1131 6.3136 20.1824 6.165V2.63294H20.1708Z" fill="#092532"/>
<path d="M25.9326 7.36577C25.0436 7.36577 24.3509 7.12573 23.8659 6.64564C23.3694 6.16556 23.127 5.49115 23.127 4.64529C23.127 4.22235 23.1847 3.83371 23.3117 3.50223C23.4387 3.17074 23.6119 2.88497 23.8313 2.64493C24.0507 2.40489 24.3162 2.23343 24.6395 2.10769C24.9512 1.98196 25.2976 1.9248 25.6786 1.9248C26.0712 1.9248 26.4176 1.98196 26.7178 2.08483C27.0295 2.19914 27.2835 2.34774 27.5029 2.53063C27.7223 2.71352 27.8839 2.9307 27.9994 3.18217C28.1149 3.43364 28.1726 3.69655 28.1726 3.98231C28.1726 4.07376 28.1726 4.1652 28.1611 4.23379C28.1495 4.30237 28.138 4.37095 28.1264 4.42811C28.1033 4.49669 28.0918 4.55384 28.0687 4.59957C27.7685 4.65672 27.4452 4.71387 27.0988 4.74816C26.8101 4.79388 26.4753 4.82818 26.0943 4.85104C25.7133 4.8739 25.3207 4.89676 24.9051 4.89676C24.9051 5.31969 24.9397 5.67404 24.9974 5.95981C25.0551 6.24557 25.1475 6.47418 25.2514 6.63421C25.3669 6.80567 25.4939 6.91998 25.644 6.98856C25.7941 7.05714 25.9673 7.09144 26.1405 7.09144C26.3483 7.09144 26.5446 7.05714 26.7293 6.97713C26.9141 6.89712 27.0757 6.80567 27.2027 6.67993C27.3413 6.5542 27.4452 6.4056 27.526 6.24557C27.6068 6.08554 27.6415 5.92552 27.6415 5.75406H27.8955C27.8955 5.95981 27.8493 6.15413 27.7569 6.34845C27.6646 6.54277 27.526 6.71423 27.3528 6.86282C27.1796 7.01142 26.9718 7.12573 26.7293 7.21717C26.4984 7.32005 26.2328 7.36577 25.9326 7.36577ZM24.8935 4.63386C25.1244 4.63386 25.3323 4.63386 25.517 4.62243C25.7017 4.611 25.8518 4.59957 25.9788 4.58813C26.1289 4.5767 26.2444 4.55384 26.3483 4.54241C26.3599 4.47383 26.383 4.39381 26.3945 4.3138C26.4061 4.23379 26.4176 4.15377 26.4291 4.06233C26.4407 3.97088 26.4407 3.86801 26.4407 3.76513C26.4407 3.45651 26.4176 3.1936 26.3714 2.98785C26.3252 2.7821 26.2675 2.61064 26.1867 2.47347C26.1174 2.34774 26.0366 2.24486 25.9326 2.19914C25.8287 2.15342 25.7479 2.11912 25.6555 2.11912C25.5632 2.11912 25.4708 2.15342 25.3784 2.222C25.2861 2.29058 25.2053 2.41632 25.1244 2.58778C25.0552 2.77067 24.9859 3.02214 24.9397 3.35363C24.8935 3.68512 24.8935 4.10805 24.8935 4.63386Z" fill="#092532"/>
<path d="M32.5371 2.2671C32.3293 2.2671 32.1446 2.31282 31.9829 2.39283C31.8213 2.47285 31.6827 2.57572 31.5672 2.6786C31.4402 2.80434 31.3363 2.9415 31.2324 3.0901V6.89649L31.8559 7.04509V7.19369H28.9463V7.04509L29.5698 6.89649V2.36997L28.9463 2.22138V2.07278H29.8815C30.124 2.07278 30.3203 2.1185 30.4819 2.19851C30.632 2.27853 30.759 2.36997 30.8514 2.46142C30.9553 2.57572 31.0361 2.70146 31.0823 2.83863C31.1862 2.69003 31.3132 2.55286 31.4633 2.42713C31.5903 2.32425 31.752 2.23281 31.9483 2.14136C32.1446 2.04992 32.3639 2.01562 32.6295 2.01562C32.999 2.01562 33.2761 2.10707 33.4608 2.2671C33.6455 2.43856 33.7263 2.6786 33.7263 2.98723C33.7263 3.21584 33.6571 3.41016 33.5185 3.54733C33.38 3.68449 33.1837 3.75308 32.9528 3.75308C32.895 3.75308 32.8488 3.75308 32.7911 3.75308C32.7334 3.75308 32.6988 3.74165 32.6641 3.74165C32.6179 3.73022 32.5717 3.73021 32.5371 3.70735V2.2671Z" fill="#092532"/>
<path d="M38.1939 3.60453C38.1939 3.37591 38.1709 3.17016 38.1247 2.99871C38.0785 2.82725 38.0208 2.69008 37.94 2.5872C37.8707 2.4729 37.7899 2.39288 37.686 2.34716C37.5936 2.30144 37.5012 2.26715 37.4088 2.26715C37.2472 2.26715 37.1086 2.31287 36.9932 2.39288C36.8777 2.4729 36.7738 2.57577 36.7045 2.67865C36.6122 2.80438 36.5429 2.94155 36.4736 3.09015V6.89654L37.0971 7.04514V7.19374H34.1875V7.04514L34.811 6.89654V2.37002L34.1875 2.22142V2.07283H35.1227C35.3652 2.07283 35.5615 2.11855 35.7231 2.19856C35.8732 2.27858 36.0002 2.37002 36.0926 2.46147C36.1965 2.57577 36.2773 2.70151 36.3235 2.83868C36.4159 2.66722 36.5313 2.50719 36.6699 2.37002C36.7854 2.25572 36.947 2.15284 37.1317 2.04997C37.3165 1.94709 37.5589 1.90137 37.836 1.90137C38.1362 1.90137 38.4134 1.94709 38.6558 2.04997C38.9098 2.14141 39.1176 2.27858 39.2908 2.42718C39.464 2.5872 39.6026 2.75866 39.7065 2.96441C39.8104 3.17016 39.8566 3.37591 39.8566 3.5931V6.88511L40.4801 7.03371V7.18231H39.1292C38.5057 7.18231 38.1939 6.87368 38.1939 6.25642V3.60453Z" fill="#092532"/>
<path d="M1.09668 14.4181V13.9951H9.12117V14.4181L7.43546 14.841V23.4711H13.4856V14.841L11.7999 14.4181V13.9951H19.8244V14.4181L18.1386 14.841V32.6727L19.8244 33.0957V33.5186H11.7999V33.0842L13.4856 32.6613V24.1684H7.43546V32.6613L9.12117 33.0842V33.5072H1.09668V33.0842L2.78239 32.6613V14.8296L1.09668 14.4181Z" fill="#092532"/>
<path d="M29.8005 19.1504C30.9667 19.1504 32.0058 19.3218 32.9295 19.6533C33.8532 19.9848 34.6268 20.4763 35.2734 21.1165C35.9199 21.7566 36.4164 22.5338 36.7513 23.4483C37.0861 24.3627 37.2593 25.3915 37.2593 26.546C37.2593 27.7005 37.0861 28.7292 36.7513 29.6437C36.4164 30.5581 35.9199 31.324 35.2734 31.9641C34.6268 32.6042 33.8417 33.0957 32.9295 33.4272C32.0058 33.7587 30.9667 33.9302 29.8005 33.9302C28.6344 33.9302 27.5953 33.7587 26.6716 33.4272C25.7479 33.0957 24.9743 32.6042 24.3277 31.9641C23.6811 31.324 23.1847 30.5467 22.8498 29.6437C22.515 28.7292 22.3418 27.7005 22.3418 26.546C22.3418 25.3915 22.515 24.3627 22.8498 23.4483C23.1847 22.5338 23.6811 21.768 24.3277 21.1165C24.9743 20.4649 25.7594 19.9848 26.6716 19.6533C27.5953 19.3218 28.6344 19.1504 29.8005 19.1504ZM29.8005 33.3586C30.1238 33.3586 30.4356 33.2558 30.7589 33.05C31.0822 32.8442 31.3593 32.4899 31.6133 31.9755C31.8673 31.4611 32.0751 30.7639 32.2368 29.8837C32.3984 29.0036 32.4792 27.8834 32.4792 26.5231C32.4792 25.1629 32.3984 24.0427 32.2368 23.1625C32.0751 22.2824 31.8673 21.5851 31.6133 21.0707C31.3593 20.5564 31.0706 20.202 30.7589 19.9963C30.4471 19.7905 30.1238 19.6876 29.8005 19.6876C29.4773 19.6876 29.1655 19.7905 28.8422 19.9963C28.5189 20.202 28.2418 20.5564 27.9878 21.0707C27.7338 21.5851 27.526 22.2824 27.3643 23.1625C27.2027 24.0427 27.1218 25.1629 27.1218 26.5231C27.1218 27.8834 27.2027 29.0036 27.3643 29.8837C27.526 30.7639 27.7338 31.4611 27.9878 31.9755C28.2418 32.4899 28.5305 32.8442 28.8422 33.05C29.1655 33.2558 29.4773 33.3586 29.8005 33.3586Z" fill="#092532"/>
<path d="M58.3538 23.7459C58.3538 23.0829 58.296 22.5114 58.1806 22.0656C58.0651 21.6198 57.9266 21.2426 57.7418 20.9568C57.5571 20.6711 57.3608 20.4653 57.153 20.3281C56.9336 20.2024 56.7258 20.1338 56.5179 20.1338C56.16 20.1338 55.8483 20.2481 55.5712 20.4767C55.2941 20.7054 55.0631 20.9683 54.8553 21.2426C54.6359 21.5741 54.4281 21.9513 54.2664 22.3514V32.6618L55.9637 33.0847V33.5076H48.0893V33.0847L49.775 32.6618V23.7459C49.775 23.0829 49.7173 22.5114 49.6018 22.0656C49.4864 21.6198 49.3478 21.2426 49.1631 20.9568C48.9783 20.6711 48.7821 20.4653 48.5742 20.3281C48.3549 20.2024 48.147 20.1338 47.9392 20.1338C47.5813 20.1338 47.2695 20.2481 46.9924 20.4767C46.7153 20.7054 46.4844 20.9683 46.2766 21.2426C46.0456 21.5741 45.8494 21.9513 45.6877 22.3514V32.6618L47.3734 33.0847V33.5076H39.499V33.0847L41.1848 32.6618V20.4082L39.499 19.9852V19.5623H42.0276C42.6857 19.5623 43.2284 19.6766 43.6441 19.8938C44.0713 20.111 44.3946 20.3624 44.6486 20.6139C44.9257 20.934 45.1335 21.2769 45.2721 21.6427C45.5145 21.174 45.8147 20.7625 46.1726 20.3853C46.4959 20.0652 46.8885 19.7795 47.3504 19.5166C47.8238 19.2537 48.3895 19.1279 49.0707 19.1279C50.1907 19.1279 51.1721 19.3794 51.9803 19.8709C52.8001 20.3624 53.4236 21.0025 53.8508 21.7798C54.0933 21.2997 54.3935 20.8654 54.7514 20.4653C55.0747 20.1338 55.4672 19.8252 55.9291 19.5509C56.4025 19.2765 56.9682 19.1279 57.6494 19.1279C58.423 19.1279 59.1158 19.2537 59.7624 19.4937C60.3974 19.7338 60.9516 20.0652 61.4135 20.4882C61.8753 20.9111 62.2332 21.3912 62.4872 21.9513C62.7413 22.5114 62.8683 23.1058 62.8683 23.7345V32.6503L64.554 33.0733V33.4962H60.8939C59.2082 33.4962 58.3653 32.6618 58.3653 30.9929V23.7459H58.3538Z" fill="#092532"/>
<path d="M73.8376 33.9189C71.436 33.9189 69.5655 33.2674 68.2377 31.9529C66.9099 30.6383 66.2402 28.8437 66.2402 26.5348C66.2402 25.3803 66.4134 24.3515 66.7483 23.4371C67.0831 22.5226 67.5565 21.7568 68.1569 21.1052C68.7573 20.4651 69.4847 19.9736 70.3391 19.6421C71.1935 19.3106 72.1287 19.1392 73.1332 19.1392C74.1839 19.1392 75.1307 19.2878 75.962 19.585C76.7933 19.8821 77.5092 20.2822 78.0865 20.7852C78.6638 21.2881 79.1141 21.8825 79.4258 22.5569C79.7376 23.2313 79.8877 23.9514 79.8877 24.7173C79.8877 24.9802 79.8761 25.2088 79.8415 25.4031C79.8069 25.5974 79.7838 25.7689 79.7376 25.9175C79.6799 26.1004 79.6337 26.2604 79.599 26.3862C78.7677 26.5576 77.9018 26.6948 76.9781 26.8091C76.193 26.9234 75.2808 27.0148 74.2532 27.1063C73.2256 27.1863 72.1403 27.232 71.0203 27.232C71.0203 28.3865 71.1011 29.3467 71.2743 30.1125C71.4475 30.8784 71.6784 31.4956 71.9786 31.9529C72.2788 32.4101 72.6367 32.7301 73.0524 32.9245C73.4681 33.1188 73.9184 33.2217 74.4033 33.2217C74.9691 33.2217 75.5002 33.1188 75.9967 32.913C76.4931 32.7073 76.9203 32.4329 77.2898 32.09C77.6593 31.7471 77.948 31.3585 78.1673 30.9241C78.3867 30.4897 78.4906 30.044 78.4906 29.5982H79.1949C79.1949 30.1583 79.0679 30.6955 78.8139 31.2099C78.5599 31.7357 78.202 32.1929 77.7286 32.593C77.2552 32.993 76.701 33.3131 76.0429 33.5531C75.3732 33.7932 74.6342 33.9189 73.8376 33.9189ZM71.0203 26.5348C71.6554 26.5348 72.2211 26.5233 72.706 26.489C73.191 26.4547 73.6066 26.4319 73.9415 26.3976C74.334 26.3633 74.6689 26.3176 74.9575 26.2604C74.9922 26.0775 75.0383 25.8718 75.0961 25.6432C75.1307 25.4374 75.1653 25.2088 75.1884 24.9573C75.2115 24.7059 75.2346 24.443 75.2346 24.1686C75.2346 23.3342 75.1653 22.6369 75.0383 22.0654C74.9113 21.4939 74.7381 21.0366 74.5419 20.6823C74.3456 20.3279 74.1147 20.0765 73.8722 19.9279C73.6182 19.7793 73.3641 19.6993 73.1217 19.6993C72.8792 19.6993 72.6252 19.7907 72.3712 19.9622C72.1172 20.145 71.8978 20.4765 71.7015 20.9681C71.5053 21.4596 71.3436 22.1568 71.2051 23.0484C71.0896 23.94 71.0203 25.1059 71.0203 26.5348Z" fill="#092532"/>
<path d="M93.7075 33.2207V21.9158L83.6162 14.0059V33.2207H93.7075Z" fill="#092532"/>
<path d="M106.189 33.2207V21.9158L96.2598 14.0059V33.2207H106.189Z" fill="#092532"/>
</svg>
