<svg width="69" height="68" viewBox="0 0 69 68" fill="none" xmlns="http://www.w3.org/2000/svg">
<path d="M34.125 0C15.425 0 0.125 15.3 0.125 34C0.125 52.7 15.425 68 34.125 68C52.825 68 68.125 52.7 68.125 34C68.125 15.3 52.825 0 34.125 0ZM34.125 61.2C19.131 61.2 6.925 48.994 6.925 34C6.925 19.006 19.131 6.8 34.125 6.8C49.119 6.8 61.325 19.006 61.325 34C61.325 48.994 49.119 61.2 34.125 61.2ZM49.731 18.972L27.325 41.378L18.519 32.606L13.725 37.4L27.325 51L54.525 23.8L49.731 18.972Z" fill="#27AB85"/>
</svg>
