<svg width="70" height="57" viewBox="0 0 70 57" fill="none" xmlns="http://www.w3.org/2000/svg">
<path d="M25.5003 37.875C17.0453 37.875 0.166992 42.0625 0.166992 50.375V56.625H50.8337V50.375C50.8337 42.0625 33.9553 37.875 25.5003 37.875ZM40.542 16H38.167C38.167 11.375 35.602 7.40625 31.8337 5.21875V8.1875C31.8337 9.0625 31.137 9.75 30.2503 9.75C29.3637 9.75 28.667 9.0625 28.667 8.1875V3.9375C27.6537 3.6875 26.6087 3.5 25.5003 3.5C24.392 3.5 23.347 3.6875 22.3337 3.9375V8.1875C22.3337 9.0625 21.637 9.75 20.7503 9.75C19.8637 9.75 19.167 9.0625 19.167 8.1875V5.21875C15.3987 7.40625 12.8337 11.375 12.8337 16H10.4587V19.125H40.542V16ZM25.5003 31.625C31.3903 31.625 36.2987 27.625 37.7237 22.25H13.277C14.702 27.625 19.6103 31.625 25.5003 31.625ZM66.6037 10.4688L69.5487 7.875L67.1737 3.8125L63.4053 5.03125C62.962 4.6875 62.4553 4.40625 61.917 4.1875L61.1253 0.375H56.3753L55.5837 4.1875C55.0453 4.40625 54.5387 4.6875 54.0637 5.03125L50.327 3.8125L47.952 7.875L50.897 10.4688C50.8337 11 50.8337 11.5625 50.897 12.0938L47.952 14.75L50.327 18.8125L54.127 17.625C54.5387 17.9375 55.0137 18.1875 55.4887 18.4063L56.3753 22.25H61.1253L61.9803 18.4375C62.487 18.2188 62.9303 17.9688 63.3737 17.6562L67.142 18.8438L69.517 14.7812L66.572 12.125C66.667 11.5313 66.6353 11 66.6037 10.4688ZM58.7503 15.2188C57.7005 15.2188 56.6937 14.8072 55.9514 14.0746C55.209 13.3421 54.792 12.3485 54.792 11.3125C54.792 10.2765 55.209 9.28293 55.9514 8.55036C56.6937 7.8178 57.7005 7.40625 58.7503 7.40625C59.8001 7.40625 60.807 7.8178 61.5493 8.55036C62.2916 9.28293 62.7087 10.2765 62.7087 11.3125C62.7087 12.3485 62.2916 13.3421 61.5493 14.0746C60.807 14.8072 59.8001 15.2188 58.7503 15.2188ZM58.4337 24.7188L55.742 25.5938C55.4253 25.3438 55.077 25.1562 54.697 25L54.127 22.25H50.7387L50.1687 24.9688C49.7887 25.125 49.4087 25.3438 49.092 25.5625L46.432 24.6875L44.722 27.5938L46.812 29.4375C46.7803 29.8438 46.7803 30.2188 46.812 30.5938L44.722 32.5L46.432 35.4062L49.1553 34.5625C49.472 34.7812 49.7887 34.9688 50.137 35.125L50.707 37.875H54.0953L54.697 35.1562C55.0453 35 55.3937 34.8125 55.7103 34.5938L58.402 35.4375L60.112 32.5312L58.022 30.625C58.0537 30.2188 58.0537 29.8438 58.022 29.4688L60.112 27.625L58.4337 24.7188ZM52.417 32.8438C50.8653 32.8438 49.5987 31.5938 49.5987 30.0625C49.5987 28.5312 50.8653 27.2812 52.417 27.2812C53.9687 27.2812 55.2353 28.5312 55.2353 30.0625C55.2353 31.5938 53.9687 32.8438 52.417 32.8438Z" fill="#0F3209"/>
</svg>
