<svg width="23" height="21" viewBox="0 0 23 21" fill="none" xmlns="http://www.w3.org/2000/svg">
<g filter="url(#filter0_d_1807_2669)">
<path d="M18.6801 1.57226C18.2641 2.18567 17.7611 2.70832 17.1711 3.14021C17.1773 3.22784 17.1804 3.35928 17.1804 3.53454C17.1804 4.34825 17.0625 5.16196 16.8265 5.97566C16.5905 6.78311 16.2303 7.55926 15.746 8.30412C15.2678 9.04897 14.6965 9.70932 14.032 10.2852C13.3676 10.8548 12.5665 11.3117 11.6288 11.656C10.6911 11.994 9.68824 12.163 8.62014 12.163C6.93727 12.163 5.39722 11.7092 4 10.8016C4.21735 10.8266 4.45953 10.8391 4.72655 10.8391C6.12377 10.8391 7.36885 10.4072 8.46179 9.54345C7.80975 9.53093 7.22603 9.33064 6.71061 8.94256C6.19519 8.54823 5.84123 8.04748 5.64872 7.44033C5.85365 7.47163 6.04305 7.48728 6.21692 7.48728C6.48395 7.48728 6.74787 7.45285 7.00868 7.384C6.31318 7.24004 5.73566 6.89265 5.27613 6.34183C4.82281 5.78475 4.59615 5.14005 4.59615 4.40771V4.37016C5.01842 4.60801 5.47174 4.73632 5.95611 4.7551C5.54626 4.47969 5.22024 4.11979 4.97805 3.67538C4.73587 3.23097 4.61478 2.749 4.61478 2.22948C4.61478 1.67867 4.75139 1.16853 5.02463 0.699088C5.77602 1.63172 6.68887 2.3797 7.76318 2.94304C8.8437 3.50012 9.99873 3.80995 11.2283 3.87254C11.1786 3.63469 11.1538 3.4031 11.1538 3.17776C11.1538 2.33902 11.4456 1.62546 12.0294 1.03709C12.6193 0.442457 13.3303 0.145142 14.1624 0.145142C15.0318 0.145142 15.7646 0.464365 16.3607 1.10281C17.0376 0.971367 17.6741 0.727255 18.2703 0.370476C18.0405 1.09029 17.5996 1.64737 16.9476 2.0417C17.5251 1.97911 18.1026 1.82263 18.6801 1.57226Z" fill="#092532"/>
</g>
<defs>
<filter id="filter0_d_1807_2669" x="0" y="0.145142" width="22.6797" height="20.0178" filterUnits="userSpaceOnUse" color-interpolation-filters="sRGB">
<feFlood flood-opacity="0" result="BackgroundImageFix"/>
<feColorMatrix in="SourceAlpha" type="matrix" values="0 0 0 0 0 0 0 0 0 0 0 0 0 0 0 0 0 0 127 0" result="hardAlpha"/>
<feOffset dy="4"/>
<feGaussianBlur stdDeviation="2"/>
<feComposite in2="hardAlpha" operator="out"/>
<feColorMatrix type="matrix" values="0 0 0 0 0 0 0 0 0 0 0 0 0 0 0 0 0 0 0.25 0"/>
<feBlend mode="normal" in2="BackgroundImageFix" result="effect1_dropShadow_1807_2669"/>
<feBlend mode="normal" in="SourceGraphic" in2="effect1_dropShadow_1807_2669" result="shape"/>
</filter>
</defs>
</svg>
