<svg width="180" height="38" viewBox="0 0 180 38" fill="none" xmlns="http://www.w3.org/2000/svg">
<g clip-path="url(#clip0_1472_2352)">
<path d="M18.9203 0.333984C8.65536 0.333984 0.333984 8.65536 0.333984 18.9203C0.333984 29.1852 8.65536 37.5066 18.9203 37.5066C29.1852 37.5066 37.5066 29.1852 37.5066 18.9203C37.5066 8.65536 29.1852 0.333984 18.9203 0.333984ZM18.9203 4.14142C27.0824 4.14142 33.6992 10.7581 33.6992 18.9203C33.6992 27.0824 27.0824 33.6992 18.9203 33.6992C10.7581 33.6992 4.14142 27.0824 4.14142 18.9203C4.14142 10.7581 10.7581 4.14142 18.9203 4.14142Z" fill="white"/>
<path fill-rule="evenodd" clip-rule="evenodd" d="M9.65332 12.6176L12.3796 9.76876L18.7408 16.1787L32.776 2.03613L35.7042 4.78325L18.8418 21.7747L9.65332 12.6176Z" fill="white"/>
<path fill-rule="evenodd" clip-rule="evenodd" d="M45.4287 19.7171C44.9202 20.8681 44.666 22.1495 44.666 23.5606C44.666 24.972 44.9202 26.2593 45.4287 27.4229C45.9372 28.5866 46.6254 29.5833 47.4935 30.4127C48.3616 31.2421 49.3909 31.892 50.5815 32.3625C51.772 32.833 53.0369 33.0678 54.3763 33.0678C55.7156 33.0678 56.9806 32.833 58.1711 32.3625C59.3616 31.892 60.3909 31.2421 61.2591 30.4127C62.1272 29.5833 62.8154 28.5866 63.3239 27.4229C63.8324 26.2593 64.0866 24.972 64.0866 23.5606C64.0866 22.1495 63.8324 20.8681 63.3239 19.7171C62.8154 18.5656 62.1272 17.5815 61.2591 16.7646C60.3909 15.9474 59.3616 15.3163 58.1711 14.8706C56.9806 14.4248 55.7156 14.2021 54.3763 14.2021C53.0369 14.2021 51.772 14.4248 50.5815 14.8706C49.3909 15.3163 48.3616 15.9474 47.4935 16.7646C46.6254 17.5815 45.9372 18.5656 45.4287 19.7171ZM49.5212 25.6404C49.3103 24.9472 49.2049 24.2541 49.2049 23.5609C49.2049 22.8674 49.3103 22.1806 49.5212 21.4996C49.732 20.8186 50.0482 20.206 50.4699 19.6613C50.8915 19.1166 51.4248 18.6771 52.0696 18.3429C52.7145 18.0087 53.4834 17.8415 54.3763 17.8415C55.2692 17.8415 56.0381 18.0087 56.683 18.3429C57.3278 18.6771 57.8611 19.1166 58.2827 19.6613C58.7044 20.206 59.0206 20.8186 59.2314 21.4996C59.4423 22.1806 59.5477 22.8674 59.5477 23.5609C59.5477 24.2541 59.4423 24.9472 59.2314 25.6404C59.0206 26.3339 58.7044 26.9528 58.2827 27.4975C57.8611 28.0422 57.3278 28.4876 56.683 28.8343C56.0381 29.1811 55.2692 29.3543 54.3763 29.3543C53.4834 29.3543 52.7145 29.1811 52.0696 28.8343C51.4248 28.4876 50.8915 28.0422 50.4699 27.4975C50.0482 26.9528 49.732 26.3339 49.5212 25.6404Z" fill="white"/>
<path d="M67.9707 4.77148H72.3439V22.3132H72.4532L79.0858 14.9H84.6978L77.1178 22.8635L85.1718 32.5152H79.3773L72.4532 23.4875H72.3439V32.5152H67.9707V4.77148Z" fill="white"/>
<path fill-rule="evenodd" clip-rule="evenodd" d="M86.4884 19.7171C85.9797 20.8681 85.7256 22.1495 85.7256 23.5606C85.7256 24.972 85.9797 26.2593 86.4884 27.4229C86.9967 28.5866 87.6852 29.5833 88.5531 30.4127C89.4213 31.2421 90.4505 31.892 91.641 32.3625C92.8315 32.833 94.0967 33.0678 95.4359 33.0678C96.7754 33.0678 98.0403 32.833 99.2307 32.3625C100.421 31.892 101.45 31.2421 102.319 30.4127C103.187 29.5833 103.875 28.5866 104.383 27.4229C104.892 26.2593 105.146 24.972 105.146 23.5606C105.146 22.1495 104.892 20.8681 104.383 19.7171C103.875 18.5656 103.187 17.5815 102.319 16.7646C101.45 15.9474 100.421 15.3163 99.2307 14.8706C98.0403 14.4248 96.7754 14.2021 95.4359 14.2021C94.0967 14.2021 92.8315 14.4248 91.641 14.8706C90.4505 15.3163 89.4213 15.9474 88.5531 16.7646C87.6852 17.5815 86.9967 18.5656 86.4884 19.7171ZM90.5807 25.6404C90.3699 24.9472 90.2644 24.2541 90.2644 23.5609C90.2644 22.8674 90.3699 22.1806 90.5807 21.4996C90.7912 20.8186 91.1075 20.206 91.5293 19.6613C91.951 19.1166 92.4841 18.6771 93.1289 18.3429C93.7741 18.0087 94.5428 17.8415 95.4355 17.8415C96.3286 17.8415 97.0973 18.0087 97.7425 18.3429C98.3873 18.6771 98.9204 19.1166 99.3421 19.6613C99.7638 20.206 100.08 20.8186 100.291 21.4996C100.502 22.1806 100.607 22.8674 100.607 23.5609C100.607 24.2541 100.502 24.9472 100.291 25.6404C100.08 26.3339 99.7638 26.9528 99.3421 27.4975C98.9204 28.0422 98.3873 28.4876 97.7425 28.8343C97.0973 29.1811 96.3286 29.3543 95.4355 29.3543C94.5428 29.3543 93.7741 29.1811 93.1289 28.8343C92.4841 28.4876 91.951 28.0422 91.5293 27.4975C91.1075 26.9528 90.7912 26.3339 90.5807 25.6404Z" fill="white"/>
<path fill-rule="evenodd" clip-rule="evenodd" d="M122.628 32.5555H126.789V4.77148H122.41V17.1568H122.3C122.081 16.8626 121.802 16.5563 121.461 16.238C121.12 15.9194 120.713 15.6255 120.238 15.3558C119.764 15.0865 119.21 14.8596 118.578 14.6761C117.946 14.4923 117.228 14.4002 116.425 14.4002C115.185 14.4002 114.041 14.6392 112.995 15.1169C111.949 15.5948 111.049 16.2501 110.295 17.0833C109.54 17.9162 108.957 18.8963 108.543 20.0233C108.13 21.1503 107.923 22.3632 107.923 23.6617C107.923 24.9604 108.124 26.1792 108.525 27.3187C108.926 28.4578 109.498 29.45 110.24 30.2952C110.982 31.1408 111.882 31.8144 112.94 32.3168C113.998 32.819 115.197 33.07 116.534 33.07C117.775 33.07 118.937 32.8007 120.02 32.2617C121.102 31.7226 121.947 30.9384 122.556 29.9097H122.628V32.5555ZM112.685 25.7199C112.478 25.0336 112.375 24.3476 112.375 23.6617C112.375 22.9757 112.478 22.2956 112.685 21.6218C112.892 20.9482 113.202 20.3416 113.615 19.8026C114.029 19.2636 114.552 18.8287 115.185 18.498C115.817 18.1672 116.559 18.002 117.41 18.002C118.213 18.002 118.931 18.1734 119.563 18.5166C120.196 18.8594 120.737 19.3005 121.187 19.8395C121.637 20.3785 121.978 20.991 122.209 21.677C122.44 22.3632 122.556 23.0492 122.556 23.7351C122.556 24.4211 122.44 25.1012 122.209 25.7747C121.978 26.4486 121.637 27.0552 121.187 27.5942C120.737 28.1332 120.196 28.5681 119.563 28.8988C118.931 29.2296 118.213 29.3948 117.41 29.3948C116.559 29.3948 115.817 29.2234 115.185 28.8802C114.552 28.5374 114.029 28.0963 113.615 27.5573C113.202 27.0183 112.892 26.4058 112.685 25.7199Z" fill="white"/>
<path fill-rule="evenodd" clip-rule="evenodd" d="M148.982 24.452V23.8579C148.982 22.2485 148.762 20.8434 148.323 19.6428C147.883 18.4419 147.274 17.4393 146.495 16.6346C145.717 15.83 144.794 15.2232 143.726 14.8148C142.658 14.4064 141.497 14.2021 140.241 14.2021C138.885 14.2021 137.622 14.4311 136.454 14.889C135.286 15.3469 134.275 15.9906 133.421 16.82C132.567 17.6494 131.895 18.6524 131.406 19.8282C130.916 21.0044 130.671 22.3105 130.671 23.7463C130.671 25.2072 130.916 26.513 131.406 27.6644C131.895 28.8159 132.574 29.7875 133.44 30.5796C134.307 31.3721 135.33 31.9847 136.511 32.4182C137.691 32.8514 138.985 33.0678 140.391 33.0678C143.782 33.0678 146.37 31.8795 148.153 29.5027L145.139 27.126C144.637 27.8439 143.996 28.4071 143.217 28.8159C142.439 29.2243 141.484 29.4285 140.354 29.4285C139.701 29.4285 139.073 29.317 138.47 29.0943C137.867 28.8713 137.327 28.5681 136.85 28.1844C136.373 27.8007 135.99 27.3424 135.701 26.8103C135.412 26.2778 135.242 25.6899 135.192 25.0462H148.944C148.969 24.8483 148.982 24.65 148.982 24.452ZM144.216 20.2182C144.379 20.7381 144.46 21.2828 144.46 21.8523H135.192C135.293 20.5897 135.814 19.5561 136.756 18.7514C137.698 17.9467 138.847 17.5442 140.203 17.5442C140.932 17.5442 141.566 17.662 142.106 17.8972C142.646 18.1325 143.092 18.4482 143.443 18.8441C143.795 19.2403 144.052 19.6982 144.216 20.2182Z" fill="white"/>
<path d="M153.421 14.7208H157.66V17.6864H157.734C158.225 16.6484 158.913 15.8081 159.798 15.1656C160.683 14.5232 161.715 14.2021 162.894 14.2021C163.067 14.2021 163.251 14.2081 163.447 14.2206C163.644 14.2328 163.816 14.2637 163.963 14.3131V18.3907C163.668 18.3163 163.417 18.2669 163.208 18.2422C162.999 18.2175 162.796 18.2053 162.6 18.2053C161.592 18.2053 160.781 18.3907 160.166 18.7612C159.552 19.1319 159.073 19.5768 158.729 20.0958C158.385 20.6147 158.152 21.1459 158.028 21.6895C157.906 22.2332 157.844 22.6655 157.844 22.9869V32.513H153.421V14.7208Z" fill="white"/>
<path d="M176.564 19.4755C176.163 18.9556 175.611 18.5036 174.908 18.1199C174.205 17.7362 173.44 17.5445 172.612 17.5445C171.884 17.5445 171.219 17.693 170.617 17.9899C170.014 18.2872 169.713 18.7824 169.713 19.4755C169.713 20.1687 170.046 20.6576 170.711 20.9424C171.376 21.2271 172.348 21.5181 173.628 21.8153C174.306 21.9638 174.989 22.1617 175.68 22.4095C176.37 22.6569 176.997 22.9852 177.562 23.3937C178.126 23.8021 178.584 24.3095 178.936 24.9162C179.287 25.523 179.463 26.2593 179.463 27.126C179.463 28.2154 179.256 29.1375 178.842 29.8927C178.427 30.6479 177.875 31.2606 177.185 31.731C176.495 32.2015 175.692 32.542 174.776 32.7525C173.86 32.9626 172.913 33.0678 171.934 33.0678C170.529 33.0678 169.161 32.8141 167.831 32.3067C166.501 31.799 165.397 31.0748 164.519 30.1342L167.492 27.386C167.994 28.0297 168.647 28.5618 169.45 28.9828C170.253 29.4038 171.144 29.6143 172.122 29.6143C172.449 29.6143 172.781 29.577 173.12 29.5027C173.458 29.4285 173.773 29.3107 174.061 29.1501C174.35 28.9891 174.582 28.7723 174.757 28.5001C174.933 28.2276 175.021 27.8934 175.021 27.4972C175.021 26.7545 174.676 26.2224 173.985 25.9004C173.296 25.5784 172.26 25.2567 170.88 24.9347C170.202 24.7862 169.544 24.5942 168.904 24.3593C168.264 24.1241 167.693 23.8146 167.191 23.4306C166.689 23.0469 166.288 22.5705 165.987 22.0011C165.685 21.4316 165.535 20.7259 165.535 19.884C165.535 18.8936 165.742 18.0394 166.156 17.3215C166.57 16.6036 167.116 16.0157 167.793 15.5574C168.471 15.0995 169.236 14.759 170.09 14.5364C170.943 14.3133 171.821 14.2021 172.724 14.2021C174.03 14.2021 175.303 14.4248 176.545 14.8706C177.788 15.3163 178.772 15.9969 179.5 16.9131L176.564 19.4755Z" fill="white"/>
</g>
<defs>
<clipPath id="clip0_1472_2352">
<rect width="179.167" height="37.1726" fill="white" transform="translate(0.333984 0.333984)"/>
</clipPath>
</defs>
</svg>
