<svg width="19" height="18" viewBox="0 0 19 18" fill="none" xmlns="http://www.w3.org/2000/svg">
<path d="M14.4317 2.14551C14.8111 2.14551 15.1749 2.2962 15.4431 2.56444C15.7113 2.83267 15.862 3.19648 15.862 3.57582V13.588C15.862 13.9673 15.7113 14.3311 15.4431 14.5994C15.1749 14.8676 14.8111 15.0183 14.4317 15.0183H4.41957C4.04023 15.0183 3.67642 14.8676 3.40819 14.5994C3.13995 14.3311 2.98926 13.9673 2.98926 13.588V3.57582C2.98926 3.19648 3.13995 2.83267 3.40819 2.56444C3.67642 2.2962 4.04023 2.14551 4.41957 2.14551H14.4317ZM14.0742 13.2304V9.44008C14.0742 8.82176 13.8285 8.22875 13.3913 7.79153C12.9541 7.35431 12.3611 7.10868 11.7427 7.10868C11.1349 7.10868 10.4269 7.48056 10.0836 8.03838V7.24456H8.08831V13.2304H10.0836V9.70469C10.0836 9.15402 10.527 8.70347 11.0777 8.70347C11.3432 8.70347 11.5979 8.80896 11.7856 8.99672C11.9734 9.18449 12.0789 9.43915 12.0789 9.70469V13.2304H14.0742ZM5.76406 6.12177C6.0827 6.12177 6.3883 5.99518 6.61362 5.76987C6.83893 5.54455 6.96552 5.23895 6.96552 4.92031C6.96552 4.25521 6.42915 3.7117 5.76406 3.7117C5.44351 3.7117 5.1361 3.83903 4.90944 4.06569C4.68278 4.29235 4.55545 4.59976 4.55545 4.92031C4.55545 5.5854 5.09896 6.12177 5.76406 6.12177M6.75812 13.2304V7.24456H4.77714V13.2304H6.75812V13.2304Z" fill="#092532"/>
</svg>
