<svg width="78" height="77" viewBox="0 0 78 77" fill="none" xmlns="http://www.w3.org/2000/svg">
<path d="M38.625 35.2916C42.8795 35.2916 46.9597 36.9817 49.9681 39.9901C52.9765 42.9985 54.6666 47.0788 54.6666 51.3333V70.5833H48.25V51.3333C48.2501 48.8782 47.3121 46.5159 45.6278 44.7297C43.9436 42.9435 41.6404 41.8684 39.1896 41.7243L38.625 41.7083C36.1699 41.7082 33.8076 42.6462 32.0214 44.3304C30.2351 46.0147 29.16 48.3178 29.016 50.7686L29 51.3333V70.5833H22.5833V51.3333C22.5833 47.0788 24.2734 42.9985 27.2818 39.9901C30.2902 36.9817 34.3704 35.2916 38.625 35.2916ZM17.7708 44.9166C18.6659 44.9166 19.5354 45.0225 20.3695 45.2182C19.821 46.8513 19.4961 48.5511 19.4038 50.2713L19.375 51.3333V51.6092C19.0062 51.4772 18.6226 51.3911 18.2328 51.3525L17.7708 51.3333C16.5745 51.3334 15.421 51.779 14.5354 52.5833C13.6499 53.3876 13.0956 54.493 12.9808 55.6838L12.9583 56.1458V70.5833H6.54163V56.1458C6.54163 53.1676 7.7247 50.3115 9.83057 48.2056C11.9365 46.0997 14.7926 44.9166 17.7708 44.9166ZM59.4791 44.9166C62.4573 44.9166 65.3135 46.0997 67.4193 48.2056C69.5252 50.3115 70.7083 53.1676 70.7083 56.1458V70.5833H64.2916V56.1458C64.2916 54.9495 63.8459 53.796 63.0416 52.9104C62.2373 52.0249 61.1319 51.4706 59.9411 51.3558L59.4791 51.3333C58.9177 51.3333 58.3787 51.4295 57.875 51.606V51.3333C57.875 49.1965 57.5285 47.1432 56.8836 45.2246C57.7334 45.0189 58.6048 44.9155 59.4791 44.9166ZM17.7708 25.6666C19.8981 25.6666 21.9382 26.5117 23.4424 28.0159C24.9466 29.5201 25.7916 31.5602 25.7916 33.6875C25.7916 35.8147 24.9466 37.8548 23.4424 39.359C21.9382 40.8632 19.8981 41.7083 17.7708 41.7083C15.6435 41.7083 13.6034 40.8632 12.0992 39.359C10.595 37.8548 9.74996 35.8147 9.74996 33.6875C9.74996 31.5602 10.595 29.5201 12.0992 28.0159C13.6034 26.5117 15.6435 25.6666 17.7708 25.6666ZM59.4791 25.6666C61.6064 25.6666 63.6465 26.5117 65.1507 28.0159C66.6549 29.5201 67.5 31.5602 67.5 33.6875C67.5 35.8147 66.6549 37.8548 65.1507 39.359C63.6465 40.8632 61.6064 41.7083 59.4791 41.7083C57.3519 41.7083 55.3117 40.8632 53.8075 39.359C52.3033 37.8548 51.4583 35.8147 51.4583 33.6875C51.4583 31.5602 52.3033 29.5201 53.8075 28.0159C55.3117 26.5117 57.3519 25.6666 59.4791 25.6666ZM17.7708 32.0833C17.3453 32.0833 16.9373 32.2523 16.6365 32.5531C16.3356 32.854 16.1666 33.262 16.1666 33.6875C16.1666 34.1129 16.3356 34.5209 16.6365 34.8218C16.9373 35.1226 17.3453 35.2916 17.7708 35.2916C18.1962 35.2916 18.6043 35.1226 18.9051 34.8218C19.2059 34.5209 19.375 34.1129 19.375 33.6875C19.375 33.262 19.2059 32.854 18.9051 32.5531C18.6043 32.2523 18.1962 32.0833 17.7708 32.0833ZM59.4791 32.0833C59.0537 32.0833 58.6456 32.2523 58.3448 32.5531C58.044 32.854 57.875 33.262 57.875 33.6875C57.875 34.1129 58.044 34.5209 58.3448 34.8218C58.6456 35.1226 59.0537 35.2916 59.4791 35.2916C59.9046 35.2916 60.3126 35.1226 60.6134 34.8218C60.9143 34.5209 61.0833 34.1129 61.0833 33.6875C61.0833 33.262 60.9143 32.854 60.6134 32.5531C60.3126 32.2523 59.9046 32.0833 59.4791 32.0833ZM38.625 6.41663C42.0286 6.41663 45.2928 7.76871 47.6995 10.1754C50.1062 12.5821 51.4583 15.8463 51.4583 19.25C51.4583 22.6536 50.1062 25.9178 47.6995 28.3245C45.2928 30.7312 42.0286 32.0833 38.625 32.0833C35.2213 32.0833 31.9571 30.7312 29.5504 28.3245C27.1437 25.9178 25.7916 22.6536 25.7916 19.25C25.7916 15.8463 27.1437 12.5821 29.5504 10.1754C31.9571 7.76871 35.2213 6.41663 38.625 6.41663ZM38.625 12.8333C36.9232 12.8333 35.2911 13.5093 34.0877 14.7127C32.8843 15.916 32.2083 17.5482 32.2083 19.25C32.2083 20.9518 32.8843 22.5839 34.0877 23.7872C35.2911 24.9906 36.9232 25.6666 38.625 25.6666C40.3268 25.6666 41.9589 24.9906 43.1622 23.7872C44.3656 22.5839 45.0416 20.9518 45.0416 19.25C45.0416 17.5482 44.3656 15.916 43.1622 14.7127C41.9589 13.5093 40.3268 12.8333 38.625 12.8333Z" fill="#27AB85"/>
</svg>
