<svg width="76" height="47" viewBox="0 0 76 47" fill="none" xmlns="http://www.w3.org/2000/svg">
<path d="M38 0.416504C40.9395 0.416504 43.7586 1.58421 45.8371 3.66274C47.9156 5.74127 49.0833 8.56035 49.0833 11.4998C49.0833 14.4393 47.9156 17.2584 45.8371 19.3369C43.7586 21.4155 40.9395 22.5832 38 22.5832C35.0605 22.5832 32.2414 21.4155 30.1629 19.3369C28.0844 17.2584 26.9167 14.4393 26.9167 11.4998C26.9167 8.56035 28.0844 5.74127 30.1629 3.66274C32.2414 1.58421 35.0605 0.416504 38 0.416504ZM15.8333 8.33317C17.6067 8.33317 19.2533 8.80817 20.6783 9.66317C20.2033 14.1915 21.5333 18.6882 24.2567 22.2032C22.6733 25.2432 19.5067 27.3332 15.8333 27.3332C13.3138 27.3332 10.8974 26.3323 9.11582 24.5507C7.33422 22.7691 6.33333 20.3527 6.33333 17.8332C6.33333 15.3136 7.33422 12.8973 9.11582 11.1157C10.8974 9.33406 13.3138 8.33317 15.8333 8.33317ZM60.1667 8.33317C62.6862 8.33317 65.1026 9.33406 66.8842 11.1157C68.6658 12.8973 69.6667 15.3136 69.6667 17.8332C69.6667 20.3527 68.6658 22.7691 66.8842 24.5507C65.1026 26.3323 62.6862 27.3332 60.1667 27.3332C56.4933 27.3332 53.3267 25.2432 51.7433 22.2032C54.5043 18.6388 55.7858 14.1478 55.3217 9.66317C56.7467 8.80817 58.3933 8.33317 60.1667 8.33317ZM17.4167 40.7915C17.4167 34.2365 26.6317 28.9165 38 28.9165C49.3683 28.9165 58.5833 34.2365 58.5833 40.7915V46.3332H17.4167V40.7915ZM0 46.3332V41.5832C0 37.1815 5.985 33.4765 14.0917 32.3998C12.2233 34.5532 11.0833 37.5298 11.0833 40.7915V46.3332H0ZM76 46.3332H64.9167V40.7915C64.9167 37.5298 63.7767 34.5532 61.9083 32.3998C70.015 33.4765 76 37.1815 76 41.5832V46.3332Z" fill="#0F3209"/>
</svg>
