<svg width="69" height="78" viewBox="0 0 69 78" fill="none" xmlns="http://www.w3.org/2000/svg">
<path d="M7.96389 40.8316H19.0139C19.7065 40.8316 20.3676 41.0011 20.9972 41.3401C21.6269 41.6816 22.0991 42.1926 22.4139 42.8732L26.5694 51.0395L38.2806 28.0253C38.9731 26.6024 40.1065 25.8909 41.6806 25.8909C43.2546 25.8909 44.388 26.6024 45.0806 28.0253L51.5972 40.8316H60.2861C59.3417 34.5213 56.4139 29.2317 51.5028 24.9629C46.5917 20.6942 40.7991 18.5598 34.125 18.5598C27.4509 18.5598 21.6583 20.6942 16.7472 24.9629C11.8361 29.2317 8.90833 34.5213 7.96389 40.8316ZM34.125 70.5273C40.7991 70.5273 46.5917 68.3929 51.5028 64.1242C56.4139 59.8554 59.3417 54.5659 60.2861 48.2555H49.2361C48.5435 48.2555 47.8824 48.086 47.2528 47.747C46.6231 47.4055 46.1509 46.8945 45.8361 46.2139L41.6806 38.0476L29.9694 61.0618C29.2768 62.4847 28.1435 63.1962 26.5694 63.1962C24.9954 63.1962 23.862 62.4847 23.1694 61.0618L16.6528 48.2555H7.96389C8.90833 54.5659 11.8361 59.8554 16.7472 64.1242C21.6583 68.3929 27.4509 70.5273 34.125 70.5273ZM34.125 77.9512C29.4657 77.9512 25.0734 77.0702 20.9481 75.3083C16.8253 73.5439 13.2213 71.146 10.1361 68.1145C7.05093 65.0831 4.61048 61.5419 2.81478 57.4909C1.02159 53.4374 0.125 49.1216 0.125 44.5436H7.68056C7.68056 51.72 10.262 57.8448 15.425 62.9178C20.588 67.9908 26.8213 70.5273 34.125 70.5273C41.4287 70.5273 47.662 67.9908 52.825 62.9178C57.988 57.8448 60.5694 51.72 60.5694 44.5436H68.125C68.125 49.1216 67.2284 53.4374 65.4352 57.4909C63.6395 61.5419 61.1991 65.0831 58.1139 68.1145C55.0287 71.146 51.4247 73.5439 47.3019 75.3083C43.1766 77.0702 38.7843 77.9512 34.125 77.9512ZM0.125 44.5436C0.125 39.9655 1.02159 35.6497 2.81478 31.5962C4.61048 27.5452 7.05093 24.004 10.1361 20.9726C13.2213 17.9412 16.8253 15.5445 20.9481 13.7825C25.0734 12.0181 29.4657 11.1359 34.125 11.1359C38.0287 11.1359 41.775 11.7545 45.3639 12.9919C48.9528 14.2292 52.3213 16.0233 55.4694 18.3742L60.7583 13.1775L66.0472 18.3742L60.7583 23.571C63.1509 26.6643 64.9769 29.9741 66.2361 33.5005C67.4954 37.0268 68.125 40.7079 68.125 44.5436H60.5694C60.5694 37.3671 57.988 31.2424 52.825 26.1693C47.662 21.0963 41.4287 18.5598 34.125 18.5598C26.8213 18.5598 20.588 21.0963 15.425 26.1693C10.262 31.2424 7.68056 37.3671 7.68056 44.5436H0.125ZM22.7917 7.42393V0H45.4583V7.42393H22.7917ZM34.125 70.5273C26.8213 70.5273 20.588 67.9908 15.425 62.9178C10.262 57.8448 7.68056 51.72 7.68056 44.5436C7.68056 37.3671 10.262 31.2424 15.425 26.1693C20.588 21.0963 26.8213 18.5598 34.125 18.5598C41.4287 18.5598 47.662 21.0963 52.825 26.1693C57.988 31.2424 60.5694 37.3671 60.5694 44.5436C60.5694 51.72 57.988 57.8448 52.825 62.9178C47.662 67.9908 41.4287 70.5273 34.125 70.5273Z" fill="#27AB85"/>
</svg>
