<svg width="39" height="38" viewBox="0 0 39 38" fill="none" xmlns="http://www.w3.org/2000/svg">
<g clip-path="url(#clip0_1802_2470)">
<path d="M29.6333 27.3283C29.3167 27.17 28.6833 27.0117 28.2083 26.695C27.7333 28.595 27.2583 30.8117 26.7833 33.1867L36.7583 31.6033L33.4333 9.27832L33.275 9.43665C32.6417 10.07 31.85 12.1283 30.2667 18.145H30.425L30.9 20.6783L29.6333 20.8367C29.475 21.6283 29.3167 22.42 29 23.37C31.6917 24.795 30.2667 28.2783 30.1083 28.2783C29.95 28.2783 29.95 28.2783 29.95 28.12C29.95 27.9617 30.1083 27.4867 29.6333 27.3283Z" fill="white"/>
<path d="M38.025 6.74498C37.7084 7.69498 37.2334 8.80331 36.9167 8.80331C36.4417 8.80331 35.3334 8.48665 35.0167 8.01165C34.8584 7.69498 34.3834 7.21998 33.5917 7.21998C33.1167 7.21998 32.8 7.53665 32.1667 7.85331C31.185 8.62915 29.9659 12.1441 28.7784 16.4508L26.435 16.055C27.48 12.825 28.2717 10.1491 28.3667 9.11998C28.3667 8.64498 28.525 6.42831 27.1 4.68665C26.15 3.73665 25.2 3.41998 24.25 3.41998C23.4584 3.41998 22.5084 3.73665 21.875 3.73665C21.5584 3.73665 21.0834 3.89498 21.0834 3.89498C21.0834 3.89498 20.925 3.89498 20.925 3.73665C20.925 3.48331 21.4159 3.22998 21.6217 3.13498C21.4317 3.16665 21.0517 3.26165 20.925 3.26165C20.7667 3.26165 20.7667 3.10331 20.925 2.94498C21.0834 2.94498 21.5584 2.78665 21.7167 2.62831C22.35 2.31165 22.825 2.15331 23.4584 1.99498C24.8834 1.51998 26.4667 1.51998 27.8917 1.67831C28.8417 1.67831 29.95 1.67831 30.9 1.99498C31.85 2.31165 32.8 2.62831 33.5917 3.41998C34.0667 3.89498 34.7 4.36998 35.3334 4.36998C35.9667 4.36998 36.2834 4.21165 36.4417 4.05331C36.7584 4.05331 38.025 4.36998 38.1834 4.52831C38.3417 4.68665 38.3417 5.79498 38.025 6.74498Z" fill="#CFD8DC"/>
<path d="M16.4917 9.91169C16.9667 9.59502 17.6 9.59502 17.9167 10.07L23.9333 17.0367C25.2 13.2367 26.3083 9.91169 26.3083 8.80335C26.4667 8.48669 26.4667 7.37835 25.9917 6.27002L0.5 10.2284L4.61667 36.67L18.2333 34.4534C18.075 33.345 21.7167 23.845 22.35 22.1034L15.3833 23.2117L16.3333 20.3617L21.2417 19.57L22.5083 21.1534C22.5083 21.1534 22.825 20.3617 22.825 20.045L16.0167 11.6534C15.7 11.1784 15.7 10.545 16.175 10.2284L16.4917 9.91169ZM6.99167 21.945L11.2667 21.1534L10.1583 24.0034L7.30833 24.4784L6.99167 21.945ZM16.175 13.87L16.65 14.0284C17.2833 14.1867 17.4417 14.82 17.2833 15.4534L12.5333 28.12L9.68333 31.92L10 27.17L14.75 14.5034C14.9083 13.87 15.5417 13.7117 16.175 13.87Z" fill="white"/>
<path d="M28.7783 16.4509C26.5775 24.5576 24.5191 35.4667 24.4083 36.1951C24.0916 36.8284 23.4583 37.3034 21.7166 36.8284C19.975 36.3534 19.975 35.5617 20.2916 34.1367C20.5133 33.1551 24.1233 23.2117 26.435 16.0551L28.7783 16.4509Z" fill="#1F2228"/>
</g>
<defs>
<clipPath id="clip0_1802_2470">
<rect width="38" height="38" fill="white" transform="translate(0.5)"/>
</clipPath>
</defs>
</svg>
