<svg width="96" height="62" viewBox="0 0 96 62" fill="none" xmlns="http://www.w3.org/2000/svg">
<path d="M0.0730001 31.168C0.0730001 21.7653 1.98633 14.358 5.813 8.946C9.63967 3.534 15.653 0.827996 23.853 0.827996C32.053 0.827996 38.0663 3.534 41.893 8.946C45.7743 14.358 47.715 21.7653 47.715 31.168C47.715 40.68 45.8017 48.142 41.975 53.554C38.1483 58.966 32.1077 61.672 23.853 61.672C15.5983 61.672 9.55767 58.966 5.731 53.554C1.959 48.142 0.0730001 40.68 0.0730001 31.168ZM31.807 31.168C31.807 26.248 31.2877 22.5033 30.249 19.934C29.2103 17.31 27.0783 15.998 23.853 15.998C20.6277 15.998 18.4957 17.31 17.457 19.934C16.4183 22.5033 15.899 26.248 15.899 31.168C15.899 36.1973 16.391 40.024 17.375 42.648C18.4137 45.2173 20.573 46.502 23.853 46.502C27.133 46.502 29.265 45.2173 30.249 42.648C31.2877 40.024 31.807 36.1973 31.807 31.168ZM53.4736 49.126C58.7762 44.9713 63.1222 41.3907 66.5116 38.384C69.9009 35.3773 72.7436 32.2887 75.0396 29.118C77.3356 25.8927 78.4836 22.8313 78.4836 19.934C78.4836 18.1847 78.0736 16.818 77.2536 15.834C76.4882 14.85 75.3402 14.358 73.8096 14.358C72.2242 14.358 70.9942 15.0413 70.1196 16.408C69.2449 17.72 68.8349 19.6607 68.8896 22.23H53.3096C53.4736 17.3647 54.5396 13.3467 56.5076 10.176C58.4756 6.95066 61.0449 4.6 64.2156 3.124C67.3862 1.59333 70.9122 0.827996 74.7936 0.827996C81.5176 0.827996 86.5196 2.49533 89.7996 5.82999C93.0796 9.16466 94.7196 13.4833 94.7196 18.786C94.7196 24.4713 92.8062 29.8013 88.9796 34.776C85.2076 39.7507 80.4789 44.206 74.7936 48.142H95.2936V61.18H53.4736V49.126Z" fill="url(#paint0_linear_1715_2782)"/>
<defs>
<linearGradient id="paint0_linear_1715_2782" x1="44.375" y1="-3" x2="45.875" y2="67" gradientUnits="userSpaceOnUse">
<stop stop-color="#14CC97"/>
<stop offset="0.286458" stop-color="#14CC97"/>
<stop offset="0.776042" stop-color="#0A1F1E"/>
</linearGradient>
</defs>
</svg>
