<svg width="97" height="63" viewBox="0 0 97 63" fill="none" xmlns="http://www.w3.org/2000/svg">
<path opacity="0.25" d="M0.0730001 31.168C0.0730001 21.7653 1.98633 14.358 5.813 8.946C9.63967 3.534 15.653 0.827996 23.853 0.827996C32.053 0.827996 38.0663 3.534 41.893 8.946C45.7743 14.358 47.715 21.7653 47.715 31.168C47.715 40.68 45.8017 48.142 41.975 53.554C38.1483 58.966 32.1077 61.672 23.853 61.672C15.5983 61.672 9.55767 58.966 5.731 53.554C1.959 48.142 0.0730001 40.68 0.0730001 31.168ZM31.807 31.168C31.807 26.248 31.2877 22.5033 30.249 19.934C29.2103 17.31 27.0783 15.998 23.853 15.998C20.6277 15.998 18.4957 17.31 17.457 19.934C16.4183 22.5033 15.899 26.248 15.899 31.168C15.899 36.1973 16.391 40.024 17.375 42.648C18.4137 45.2173 20.573 46.502 23.853 46.502C27.133 46.502 29.265 45.2173 30.249 42.648C31.2877 40.024 31.807 36.1973 31.807 31.168ZM54.7036 19.934C54.9222 13.7567 56.8356 9.028 60.4436 5.748C64.0516 2.41333 69.0809 0.745997 75.5316 0.745997C79.7409 0.745997 83.3216 1.484 86.2736 2.96C89.2802 4.38133 91.5489 6.34933 93.0796 8.864C94.6102 11.324 95.3756 14.112 95.3756 17.228C95.3756 20.9453 94.4736 23.9247 92.6696 26.166C90.8656 28.3527 88.8156 29.8287 86.5196 30.594V30.922C93.1342 33.382 96.4416 38.0833 96.4416 45.026C96.4416 48.47 95.6489 51.504 94.0636 54.128C92.4782 56.752 90.1822 58.802 87.1756 60.278C84.1689 61.754 80.5882 62.492 76.4336 62.492C69.6002 62.492 64.1882 60.852 60.1976 57.572C56.2616 54.2373 54.2116 49.1533 54.0476 42.32H69.7096C69.6002 44.5067 70.0649 46.2013 71.1036 47.404C72.1422 48.6067 73.7002 49.208 75.7776 49.208C77.3629 49.208 78.5929 48.716 79.4676 47.732C80.3969 46.748 80.8616 45.436 80.8616 43.796C80.8616 41.7187 80.1782 40.188 78.8116 39.204C77.4996 38.22 75.3402 37.728 72.3336 37.728H69.4636V24.69H72.2516C74.3289 24.7447 76.0782 24.4167 77.4996 23.706C78.9756 22.9407 79.7136 21.4373 79.7136 19.196C79.7136 17.5013 79.3036 16.244 78.4836 15.424C77.6636 14.5493 76.5429 14.112 75.1216 14.112C73.5362 14.112 72.3609 14.686 71.5956 15.834C70.8849 16.9273 70.4749 18.294 70.3656 19.934H54.7036Z" fill="url(#paint0_linear_1715_2788)"/>
<defs>
<linearGradient id="paint0_linear_1715_2788" x1="44.375" y1="-3" x2="45.875" y2="67" gradientUnits="userSpaceOnUse">
<stop stop-color="white"/>
<stop offset="0.286458" stop-color="white"/>
<stop offset="0.776042" stop-color="#0A1F1E"/>
</linearGradient>
</defs>
</svg>
