<svg width="105" height="62" viewBox="0 0 105 62" fill="none" xmlns="http://www.w3.org/2000/svg">
<path opacity="0.25" d="M0.0730001 31.168C0.0730001 21.7653 1.98633 14.358 5.813 8.946C9.63967 3.534 15.653 0.827996 23.853 0.827996C32.053 0.827996 38.0663 3.534 41.893 8.946C45.7743 14.358 47.715 21.7653 47.715 31.168C47.715 40.68 45.8017 48.142 41.975 53.554C38.1483 58.966 32.1077 61.672 23.853 61.672C15.5983 61.672 9.55767 58.966 5.731 53.554C1.959 48.142 0.0730001 40.68 0.0730001 31.168ZM31.807 31.168C31.807 26.248 31.2877 22.5033 30.249 19.934C29.2103 17.31 27.0783 15.998 23.853 15.998C20.6277 15.998 18.4957 17.31 17.457 19.934C16.4183 22.5033 15.899 26.248 15.899 31.168C15.899 36.1973 16.391 40.024 17.375 42.648C18.4137 45.2173 20.573 46.502 23.853 46.502C27.133 46.502 29.265 45.2173 30.249 42.648C31.2877 40.024 31.807 36.1973 31.807 31.168ZM54.9496 52.16V38.876L80.1236 2.96H97.7536V38.22H104.068V52.16H97.7536V62H81.5176V52.16H54.9496ZM82.7476 21.082L71.4316 38.22H82.7476V21.082Z" fill="url(#paint0_linear_1715_2792)"/>
<defs>
<linearGradient id="paint0_linear_1715_2792" x1="44.375" y1="-3" x2="45.875" y2="67" gradientUnits="userSpaceOnUse">
<stop stop-color="white"/>
<stop offset="0.286458" stop-color="white"/>
<stop offset="0.776042" stop-color="#0A1F1E"/>
</linearGradient>
</defs>
</svg>
