<svg width="76" height="37" viewBox="0 0 76 37" fill="none" xmlns="http://www.w3.org/2000/svg">
<path d="M0.171 9.33516V1.70316H13.467V36.7432H4.923V9.33516H0.171ZM19.0819 18.7432C19.0819 13.2392 20.1379 8.90316 22.2499 5.73516C24.3939 2.56716 27.8339 0.983161 32.5699 0.983161C37.3059 0.983161 40.7299 2.56716 42.8419 5.73516C44.9859 8.90316 46.0579 13.2392 46.0579 18.7432C46.0579 24.3112 44.9859 28.6792 42.8419 31.8472C40.7299 35.0152 37.3059 36.5992 32.5699 36.5992C27.8339 36.5992 24.3939 35.0152 22.2499 31.8472C20.1379 28.6792 19.0819 24.3112 19.0819 18.7432ZM37.9939 18.7432C37.9939 15.5112 37.6419 13.0312 36.9379 11.3032C36.2339 9.54316 34.7779 8.66316 32.5699 8.66316C30.3619 8.66316 28.9059 9.54316 28.2019 11.3032C27.4979 13.0312 27.1459 15.5112 27.1459 18.7432C27.1459 20.9192 27.2739 22.7272 27.5299 24.1672C27.7859 25.5752 28.2979 26.7272 29.0659 27.6232C29.8659 28.4872 31.0339 28.9192 32.5699 28.9192C34.1059 28.9192 35.2579 28.4872 36.0259 27.6232C36.8259 26.7272 37.3539 25.5752 37.6099 24.1672C37.8659 22.7272 37.9939 20.9192 37.9939 18.7432ZM75.5464 23.6392H67.1944V32.1832H59.4184V23.6392H51.0664V16.2952H59.4184V7.70316H67.1944V16.2952H75.5464V23.6392Z" fill="url(#paint0_linear_1648_2395)"/>
<defs>
<linearGradient id="paint0_linear_1648_2395" x1="124.875" y1="15.1809" x2="-13.6387" y2="15.1809" gradientUnits="userSpaceOnUse">
<stop offset="0.171875" stop-color="#043BFF"/>
<stop offset="1" stop-color="#45D92D"/>
</linearGradient>
</defs>
</svg>
