<svg width="107" height="36" viewBox="0 0 107 36" fill="none" xmlns="http://www.w3.org/2000/svg">
<path d="M0.171 8.59212V0.960121H13.467V36.0001H4.923V8.59212H0.171ZM43.7539 8.11212H28.7779V14.7361C29.4179 14.0321 30.3139 13.4561 31.4659 13.0081C32.6179 12.5601 33.8659 12.3361 35.2099 12.3361C37.6099 12.3361 39.5939 12.8801 41.1619 13.9681C42.7619 15.0561 43.9299 16.4641 44.6659 18.1921C45.4019 19.9201 45.7699 21.7921 45.7699 23.8081C45.7699 27.5521 44.7139 30.5281 42.6019 32.7361C40.4899 34.9121 37.5139 36.0001 33.6739 36.0001C31.1139 36.0001 28.8899 35.5681 27.0019 34.7041C25.1139 33.8081 23.6579 32.5761 22.6339 31.0081C21.6099 29.4401 21.0499 27.6321 20.9539 25.5841H28.9699C29.1619 26.5761 29.6259 27.4081 30.3619 28.0801C31.0979 28.7201 32.1059 29.0401 33.3859 29.0401C34.8899 29.0401 36.0099 28.5601 36.7459 27.6001C37.4819 26.6401 37.8499 25.3601 37.8499 23.7601C37.8499 22.1921 37.4659 20.9921 36.6979 20.1601C35.9299 19.3281 34.8099 18.9121 33.3379 18.9121C32.2499 18.9121 31.3539 19.1841 30.6499 19.7281C29.9459 20.2401 29.4819 20.9281 29.2579 21.7921H21.3379V0.912122H43.7539V8.11212ZM50.3006 18.0001C50.3006 12.4961 51.3566 8.16012 53.4686 4.99212C55.6126 1.82412 59.0526 0.240119 63.7886 0.240119C68.5246 0.240119 71.9486 1.82412 74.0606 4.99212C76.2046 8.16012 77.2766 12.4961 77.2766 18.0001C77.2766 23.5681 76.2046 27.9361 74.0606 31.1041C71.9486 34.2721 68.5246 35.8561 63.7886 35.8561C59.0526 35.8561 55.6126 34.2721 53.4686 31.1041C51.3566 27.9361 50.3006 23.5681 50.3006 18.0001ZM69.2126 18.0001C69.2126 14.7681 68.8606 12.2881 68.1566 10.5601C67.4526 8.80012 65.9966 7.92012 63.7886 7.92012C61.5806 7.92012 60.1246 8.80012 59.4206 10.5601C58.7166 12.2881 58.3646 14.7681 58.3646 18.0001C58.3646 20.1761 58.4926 21.9841 58.7486 23.4241C59.0046 24.8321 59.5166 25.9841 60.2846 26.8801C61.0846 27.7441 62.2526 28.1761 63.7886 28.1761C65.3246 28.1761 66.4766 27.7441 67.2446 26.8801C68.0446 25.9841 68.5726 24.8321 68.8286 23.4241C69.0846 21.9841 69.2126 20.1761 69.2126 18.0001ZM106.765 22.8961H98.4131V31.4401H90.6371V22.8961H82.2851V15.5521H90.6371V6.96012H98.4131V15.5521H106.765V22.8961Z" fill="url(#paint0_linear_1648_2399)"/>
<defs>
<linearGradient id="paint0_linear_1648_2399" x1="124.875" y1="16.4066" x2="-13.6387" y2="16.4066" gradientUnits="userSpaceOnUse">
<stop offset="0.171875" stop-color="#043BFF"/>
<stop offset="1" stop-color="#45D92D"/>
</linearGradient>
</defs>
</svg>
