<svg width="76" height="36" viewBox="0 0 76 36" fill="none" xmlns="http://www.w3.org/2000/svg">
<path d="M0.171 8.3922V0.760201H13.467V35.8002H4.923V8.3922H0.171ZM43.7539 7.9122H28.7779V14.5362C29.4179 13.8322 30.3139 13.2562 31.4659 12.8082C32.6179 12.3602 33.8659 12.1362 35.2099 12.1362C37.6099 12.1362 39.5939 12.6802 41.1619 13.7682C42.7619 14.8562 43.9299 16.2642 44.6659 17.9922C45.4019 19.7202 45.7699 21.5922 45.7699 23.6082C45.7699 27.3522 44.7139 30.3282 42.6019 32.5362C40.4899 34.7122 37.5139 35.8002 33.6739 35.8002C31.1139 35.8002 28.8899 35.3682 27.0019 34.5042C25.1139 33.6082 23.6579 32.3762 22.6339 30.8082C21.6099 29.2402 21.0499 27.4322 20.9539 25.3842H28.9699C29.1619 26.3762 29.6259 27.2082 30.3619 27.8802C31.0979 28.5202 32.1059 28.8402 33.3859 28.8402C34.8899 28.8402 36.0099 28.3602 36.7459 27.4002C37.4819 26.4402 37.8499 25.1602 37.8499 23.5602C37.8499 21.9922 37.4659 20.7922 36.6979 19.9602C35.9299 19.1282 34.8099 18.7122 33.3379 18.7122C32.2499 18.7122 31.3539 18.9842 30.6499 19.5282C29.9459 20.0402 29.4819 20.7282 29.2579 21.5922H21.3379V0.712201H43.7539V7.9122ZM75.4526 22.6962H67.1006V31.2402H59.3246V22.6962H50.9726V15.3522H59.3246V6.7602H67.1006V15.3522H75.4526V22.6962Z" fill="url(#paint0_linear_1648_2396)"/>
<defs>
<linearGradient id="paint0_linear_1648_2396" x1="118.875" y1="14.7301" x2="-13.0428" y2="14.7301" gradientUnits="userSpaceOnUse">
<stop offset="0.171875" stop-color="#043BFF"/>
<stop offset="1" stop-color="#45D92D"/>
</linearGradient>
</defs>
</svg>
