<svg width="117" height="37" viewBox="0 0 117 37" fill="none" xmlns="http://www.w3.org/2000/svg">
<path d="M0.747 30.1672C1.835 29.3032 2.331 28.9032 2.235 28.9672C5.371 26.3752 7.835 24.2472 9.627 22.5832C11.451 20.9192 12.987 19.1752 14.235 17.3512C15.483 15.5272 16.107 13.7512 16.107 12.0232C16.107 10.7112 15.803 9.68716 15.195 8.95116C14.587 8.21516 13.675 7.84716 12.459 7.84716C11.243 7.84716 10.283 8.31116 9.579 9.23916C8.907 10.1352 8.571 11.4152 8.571 13.0792H0.651C0.715 10.3592 1.291 8.08716 2.379 6.26316C3.499 4.43916 4.955 3.09516 6.747 2.23116C8.571 1.36716 10.587 0.935162 12.795 0.935162C16.603 0.935162 19.467 1.91116 21.387 3.86316C23.339 5.81516 24.315 8.35916 24.315 11.4952C24.315 14.9192 23.147 18.1032 20.811 21.0472C18.475 23.9592 15.499 26.8072 11.883 29.5912H24.843V36.2632H0.747V30.1672ZM28.4569 18.7432C28.4569 13.2392 29.5129 8.90316 31.6249 5.73516C33.7689 2.56716 37.2089 0.983161 41.9449 0.983161C46.6809 0.983161 50.1049 2.56716 52.2169 5.73516C54.3609 8.90316 55.4329 13.2392 55.4329 18.7432C55.4329 24.3112 54.3609 28.6792 52.2169 31.8472C50.1049 35.0152 46.6809 36.5992 41.9449 36.5992C37.2089 36.5992 33.7689 35.0152 31.6249 31.8472C29.5129 28.6792 28.4569 24.3112 28.4569 18.7432ZM47.3689 18.7432C47.3689 15.5112 47.0169 13.0312 46.3129 11.3032C45.6089 9.54316 44.1529 8.66316 41.9449 8.66316C39.7369 8.66316 38.2809 9.54316 37.5769 11.3032C36.8729 13.0312 36.5209 15.5112 36.5209 18.7432C36.5209 20.9192 36.6489 22.7272 36.9049 24.1672C37.1609 25.5752 37.6729 26.7272 38.4409 27.6232C39.2409 28.4872 40.4089 28.9192 41.9449 28.9192C43.4809 28.9192 44.6329 28.4872 45.4009 27.6232C46.2009 26.7272 46.7289 25.5752 46.9849 24.1672C47.2409 22.7272 47.3689 20.9192 47.3689 18.7432ZM59.7694 18.7432C59.7694 13.2392 60.8254 8.90316 62.9374 5.73516C65.0814 2.56716 68.5214 0.983161 73.2574 0.983161C77.9934 0.983161 81.4174 2.56716 83.5294 5.73516C85.6734 8.90316 86.7454 13.2392 86.7454 18.7432C86.7454 24.3112 85.6734 28.6792 83.5294 31.8472C81.4174 35.0152 77.9934 36.5992 73.2574 36.5992C68.5214 36.5992 65.0814 35.0152 62.9374 31.8472C60.8254 28.6792 59.7694 24.3112 59.7694 18.7432ZM78.6814 18.7432C78.6814 15.5112 78.3294 13.0312 77.6254 11.3032C76.9214 9.54316 75.4654 8.66316 73.2574 8.66316C71.0494 8.66316 69.5934 9.54316 68.8894 11.3032C68.1854 13.0312 67.8334 15.5112 67.8334 18.7432C67.8334 20.9192 67.9614 22.7272 68.2174 24.1672C68.4734 25.5752 68.9854 26.7272 69.7534 27.6232C70.5534 28.4872 71.7214 28.9192 73.2574 28.9192C74.7934 28.9192 75.9454 28.4872 76.7134 27.6232C77.5134 26.7272 78.0414 25.5752 78.2974 24.1672C78.5534 22.7272 78.6814 20.9192 78.6814 18.7432ZM116.234 23.6392H107.882V32.1832H100.106V23.6392H91.7539V16.2952H100.106V7.70316H107.882V16.2952H116.234V23.6392Z" fill="url(#paint0_linear_1648_2395)"/>
<defs>
<linearGradient id="paint0_linear_1648_2395" x1="124.875" y1="15.1809" x2="-13.6387" y2="15.1809" gradientUnits="userSpaceOnUse">
<stop offset="0.171875" stop-color="#043BFF"/>
<stop offset="1" stop-color="#45D92D"/>
</linearGradient>
</defs>
</svg>
