<svg width="87" height="37" viewBox="0 0 87 37" fill="none" xmlns="http://www.w3.org/2000/svg">
<path d="M1.323 10.8481C1.451 7.42412 2.571 4.78412 4.683 2.92812C6.795 1.07212 9.659 0.14412 13.275 0.14412C15.675 0.14412 17.723 0.560121 19.419 1.39212C21.147 2.22412 22.443 3.36012 23.307 4.80012C24.203 6.24012 24.651 7.85612 24.651 9.64812C24.651 11.7601 24.123 13.4881 23.067 14.8321C22.011 16.1441 20.779 17.0401 19.371 17.5201V17.7121C21.195 18.3201 22.635 19.3281 23.691 20.7361C24.747 22.1441 25.275 23.9521 25.275 26.1601C25.275 28.1441 24.811 29.9041 23.883 31.4401C22.987 32.9441 21.659 34.1281 19.899 34.9921C18.171 35.8561 16.107 36.2881 13.707 36.2881C9.867 36.2881 6.795 35.3441 4.491 33.4561C2.219 31.5681 1.019 28.7201 0.891 24.9121H8.859C8.891 26.3201 9.291 27.4401 10.059 28.2721C10.827 29.0721 11.947 29.4721 13.419 29.4721C14.667 29.4721 15.627 29.1201 16.299 28.4161C17.003 27.6801 17.355 26.7201 17.355 25.5361C17.355 24.0001 16.859 22.8961 15.867 22.2241C14.907 21.5201 13.355 21.1681 11.211 21.1681H9.675V14.4961H11.211C12.843 14.4961 14.155 14.2241 15.147 13.6801C16.171 13.1041 16.683 12.0961 16.683 10.6561C16.683 9.50412 16.363 8.60812 15.723 7.96812C15.083 7.32812 14.203 7.00812 13.083 7.00812C11.867 7.00812 10.955 7.37612 10.347 8.11212C9.771 8.84812 9.435 9.76012 9.339 10.8481H1.323ZM30.0975 18.0001C30.0975 12.4961 31.1535 8.16012 33.2655 4.99212C35.4095 1.82412 38.8495 0.240119 43.5855 0.240119C48.3215 0.240119 51.7455 1.82412 53.8575 4.99212C56.0015 8.16012 57.0735 12.4961 57.0735 18.0001C57.0735 23.5681 56.0015 27.9361 53.8575 31.1041C51.7455 34.2721 48.3215 35.8561 43.5855 35.8561C38.8495 35.8561 35.4095 34.2721 33.2655 31.1041C31.1535 27.9361 30.0975 23.5681 30.0975 18.0001ZM49.0095 18.0001C49.0095 14.7681 48.6575 12.2881 47.9535 10.5601C47.2495 8.80012 45.7935 7.92012 43.5855 7.92012C41.3775 7.92012 39.9215 8.80012 39.2175 10.5601C38.5135 12.2881 38.1615 14.7681 38.1615 18.0001C38.1615 20.1761 38.2895 21.9841 38.5455 23.4241C38.8015 24.8321 39.3135 25.9841 40.0815 26.8801C40.8815 27.7441 42.0495 28.1761 43.5855 28.1761C45.1215 28.1761 46.2735 27.7441 47.0415 26.8801C47.8415 25.9841 48.3695 24.8321 48.6255 23.4241C48.8815 21.9841 49.0095 20.1761 49.0095 18.0001ZM86.562 22.8961H78.21V31.4401H70.434V22.8961H62.082V15.5521H70.434V6.96012H78.21V15.5521H86.562V22.8961Z" fill="url(#paint0_linear_1648_2399)"/>
<defs>
<linearGradient id="paint0_linear_1648_2399" x1="124.875" y1="16.4066" x2="-13.6387" y2="16.4066" gradientUnits="userSpaceOnUse">
<stop offset="0.171875" stop-color="#043BFF"/>
<stop offset="1" stop-color="#45D92D"/>
</linearGradient>
</defs>
</svg>
