<svg width="458" height="131" viewBox="0 0 458 131" fill="none" xmlns="http://www.w3.org/2000/svg">
<path d="M28.069 27.68C30.5903 28.2173 32.6157 29.478 34.145 31.462C35.6743 33.4047 36.439 35.6367 36.439 38.158C36.439 41.7953 35.1577 44.6887 32.595 46.838C30.0737 48.946 26.5397 50 21.993 50H1.719V6.476H21.311C25.7337 6.476 29.185 7.48866 31.665 9.514C34.1863 11.5393 35.447 14.288 35.447 17.76C35.447 20.3227 34.765 22.4513 33.401 24.146C32.0783 25.8407 30.301 27.0187 28.069 27.68ZM12.321 24.084H19.265C21.001 24.084 22.3237 23.712 23.233 22.968C24.1837 22.1827 24.659 21.046 24.659 19.558C24.659 18.07 24.1837 16.9333 23.233 16.148C22.3237 15.3627 21.001 14.97 19.265 14.97H12.321V24.084ZM20.133 41.444C21.9103 41.444 23.2743 41.0513 24.225 40.266C25.217 39.4393 25.713 38.2613 25.713 36.732C25.713 35.2027 25.1963 34.004 24.163 33.136C23.171 32.268 21.7863 31.834 20.009 31.834H12.321V41.444H20.133ZM53.1901 21.17C54.4301 19.2687 55.9801 17.7807 57.8401 16.706C59.7001 15.59 61.7668 15.032 64.0401 15.032V26.254H61.1261C58.4808 26.254 56.4968 26.8327 55.1741 27.99C53.8515 29.106 53.1901 31.09 53.1901 33.942V50H42.5881V15.404H53.1901V21.17ZM66.9997 32.64C66.9997 29.0853 67.661 25.9647 68.9837 23.278C70.3477 20.5913 72.187 18.5247 74.5017 17.078C76.8163 15.6313 79.3997 14.908 82.2517 14.908C84.6903 14.908 86.819 15.404 88.6377 16.396C90.4977 17.388 91.9237 18.69 92.9157 20.302V15.404H103.518V50H92.9157V45.102C91.8823 46.714 90.4357 48.016 88.5757 49.008C86.757 50 84.6283 50.496 82.1897 50.496C79.379 50.496 76.8163 49.7727 74.5017 48.326C72.187 46.838 70.3477 44.7507 68.9837 42.064C67.661 39.336 66.9997 36.1947 66.9997 32.64ZM92.9157 32.702C92.9157 30.0567 92.1717 27.9693 90.6837 26.44C89.237 24.9107 87.4597 24.146 85.3517 24.146C83.2437 24.146 81.4457 24.9107 79.9577 26.44C78.511 27.928 77.7877 29.9947 77.7877 32.64C77.7877 35.2853 78.511 37.3933 79.9577 38.964C81.4457 40.4933 83.2437 41.258 85.3517 41.258C87.4597 41.258 89.237 40.4933 90.6837 38.964C92.1717 37.4347 92.9157 35.3473 92.9157 32.702ZM116.52 11.808C114.66 11.808 113.13 11.2707 111.932 10.196C110.774 9.08 110.196 7.716 110.196 6.104C110.196 4.45067 110.774 3.08666 111.932 2.012C113.13 0.895997 114.66 0.337996 116.52 0.337996C118.338 0.337996 119.826 0.895997 120.984 2.012C122.182 3.08666 122.782 4.45067 122.782 6.104C122.782 7.716 122.182 9.08 120.984 10.196C119.826 11.2707 118.338 11.808 116.52 11.808ZM121.79 15.404V50H111.188V15.404H121.79ZM150.553 15.032C154.604 15.032 157.828 16.3547 160.225 19C162.664 21.604 163.883 25.2 163.883 29.788V50H153.343V31.214C153.343 28.8993 152.744 27.1013 151.545 25.82C150.346 24.5387 148.734 23.898 146.709 23.898C144.684 23.898 143.072 24.5387 141.873 25.82C140.674 27.1013 140.075 28.8993 140.075 31.214V50H129.473V15.404H140.075V19.992C141.15 18.4627 142.596 17.264 144.415 16.396C146.234 15.4867 148.28 15.032 150.553 15.032ZM185.324 50.496C182.307 50.496 179.62 49.9793 177.264 48.946C174.908 47.9127 173.048 46.5073 171.684 44.73C170.32 42.9113 169.556 40.886 169.39 38.654H179.868C179.992 39.8527 180.55 40.824 181.542 41.568C182.534 42.312 183.754 42.684 185.2 42.684C186.523 42.684 187.536 42.436 188.238 41.94C188.982 41.4027 189.354 40.7207 189.354 39.894C189.354 38.902 188.838 38.1787 187.804 37.724C186.771 37.228 185.097 36.6907 182.782 36.112C180.302 35.5333 178.236 34.934 176.582 34.314C174.929 33.6527 173.503 32.64 172.304 31.276C171.106 29.8707 170.506 27.99 170.506 25.634C170.506 23.65 171.044 21.852 172.118 20.24C173.234 18.5867 174.846 17.2847 176.954 16.334C179.104 15.3833 181.646 14.908 184.58 14.908C188.92 14.908 192.33 15.9827 194.81 18.132C197.332 20.2813 198.778 23.1333 199.15 26.688H189.354C189.189 25.4893 188.652 24.5387 187.742 23.836C186.874 23.1333 185.717 22.782 184.27 22.782C183.03 22.782 182.08 23.03 181.418 23.526C180.757 23.9807 180.426 24.6213 180.426 25.448C180.426 26.44 180.943 27.184 181.976 27.68C183.051 28.176 184.704 28.672 186.936 29.168C189.499 29.8293 191.586 30.4907 193.198 31.152C194.81 31.772 196.216 32.8053 197.414 34.252C198.654 35.6573 199.295 37.5587 199.336 39.956C199.336 41.9813 198.758 43.8 197.6 45.412C196.484 46.9827 194.852 48.2227 192.702 49.132C190.594 50.0413 188.135 50.496 185.324 50.496ZM225.105 41.01V50H219.711C215.867 50 212.87 49.07 210.721 47.21C208.571 45.3087 207.497 42.2293 207.497 37.972V24.208H203.281V15.404H207.497V6.972H218.099V15.404H225.043V24.208H218.099V38.096C218.099 39.1293 218.347 39.8733 218.843 40.328C219.339 40.7827 220.165 41.01 221.323 41.01H225.105ZM246.758 50.496C243.369 50.496 240.31 49.7727 237.582 48.326C234.895 46.8793 232.767 44.8127 231.196 42.126C229.667 39.4393 228.902 36.298 228.902 32.702C228.902 29.1473 229.687 26.0267 231.258 23.34C232.829 20.612 234.978 18.5247 237.706 17.078C240.434 15.6313 243.493 14.908 246.882 14.908C250.271 14.908 253.33 15.6313 256.058 17.078C258.786 18.5247 260.935 20.612 262.506 23.34C264.077 26.0267 264.862 29.1473 264.862 32.702C264.862 36.2567 264.056 39.398 262.444 42.126C260.873 44.8127 258.703 46.8793 255.934 48.326C253.206 49.7727 250.147 50.496 246.758 50.496ZM246.758 41.32C248.783 41.32 250.499 40.576 251.904 39.088C253.351 37.6 254.074 35.4713 254.074 32.702C254.074 29.9327 253.371 27.804 251.966 26.316C250.602 24.828 248.907 24.084 246.882 24.084C244.815 24.084 243.1 24.828 241.736 26.316C240.372 27.7627 239.69 29.8913 239.69 32.702C239.69 35.4713 240.351 37.6 241.674 39.088C243.038 40.576 244.733 41.32 246.758 41.32ZM281.089 21.17C282.329 19.2687 283.879 17.7807 285.739 16.706C287.599 15.59 289.665 15.032 291.939 15.032V26.254H289.025C286.379 26.254 284.395 26.8327 283.073 27.99C281.75 29.106 281.089 31.09 281.089 33.942V50H270.487V15.404H281.089V21.17ZM341.15 15.032C345.449 15.032 348.859 16.334 351.38 18.938C353.943 21.542 355.224 25.1587 355.224 29.788V50H344.684V31.214C344.684 28.982 344.085 27.2667 342.886 26.068C341.729 24.828 340.117 24.208 338.05 24.208C335.983 24.208 334.351 24.828 333.152 26.068C331.995 27.2667 331.416 28.982 331.416 31.214V50H320.876V31.214C320.876 28.982 320.277 27.2667 319.078 26.068C317.921 24.828 316.309 24.208 314.242 24.208C312.175 24.208 310.543 24.828 309.344 26.068C308.187 27.2667 307.608 28.982 307.608 31.214V50H297.006V15.404H307.608V19.744C308.683 18.2973 310.088 17.1607 311.824 16.334C313.56 15.466 315.523 15.032 317.714 15.032C320.318 15.032 322.633 15.59 324.658 16.706C326.725 17.822 328.337 19.4133 329.494 21.48C330.693 19.5787 332.325 18.0287 334.392 16.83C336.459 15.6313 338.711 15.032 341.15 15.032ZM367.971 11.808C366.111 11.808 364.582 11.2707 363.383 10.196C362.226 9.08 361.647 7.716 361.647 6.104C361.647 4.45067 362.226 3.08666 363.383 2.012C364.582 0.895997 366.111 0.337996 367.971 0.337996C369.79 0.337996 371.278 0.895997 372.435 2.012C373.634 3.08666 374.233 4.45067 374.233 6.104C374.233 7.716 373.634 9.08 372.435 10.196C371.278 11.2707 369.79 11.808 367.971 11.808ZM373.241 15.404V50H362.639V15.404H373.241ZM402.004 15.032C406.055 15.032 409.279 16.3547 411.676 19C414.115 21.604 415.334 25.2 415.334 29.788V50H404.794V31.214C404.794 28.8993 404.195 27.1013 402.996 25.82C401.797 24.5387 400.185 23.898 398.16 23.898C396.135 23.898 394.523 24.5387 393.324 25.82C392.125 27.1013 391.526 28.8993 391.526 31.214V50H380.924V15.404H391.526V19.992C392.601 18.4627 394.047 17.264 395.866 16.396C397.685 15.4867 399.731 15.032 402.004 15.032ZM435.845 14.908C438.284 14.908 440.413 15.404 442.231 16.396C444.091 17.388 445.517 18.69 446.509 20.302V15.404H457.111V49.938C457.111 53.1207 456.471 55.9933 455.189 58.556C453.949 61.16 452.027 63.2267 449.423 64.756C446.861 66.2853 443.657 67.05 439.813 67.05C434.688 67.05 430.534 65.8307 427.351 63.392C424.169 60.9947 422.35 57.7293 421.895 53.596H432.373C432.704 54.9187 433.489 55.952 434.729 56.696C435.969 57.4813 437.499 57.874 439.317 57.874C441.508 57.874 443.244 57.2333 444.525 55.952C445.848 54.712 446.509 52.7073 446.509 49.938V45.04C445.476 46.652 444.05 47.9747 442.231 49.008C440.413 50 438.284 50.496 435.845 50.496C432.993 50.496 430.41 49.7727 428.095 48.326C425.781 46.838 423.941 44.7507 422.577 42.064C421.255 39.336 420.593 36.1947 420.593 32.64C420.593 29.0853 421.255 25.9647 422.577 23.278C423.941 20.5913 425.781 18.5247 428.095 17.078C430.41 15.6313 432.993 14.908 435.845 14.908ZM446.509 32.702C446.509 30.0567 445.765 27.9693 444.277 26.44C442.831 24.9107 441.053 24.146 438.945 24.146C436.837 24.146 435.039 24.9107 433.551 26.44C432.105 27.928 431.381 29.9947 431.381 32.64C431.381 35.2853 432.105 37.3933 433.551 38.964C435.039 40.4933 436.837 41.258 438.945 41.258C441.053 41.258 442.831 40.4933 444.277 38.964C445.765 37.4347 446.509 35.3473 446.509 32.702ZM35.013 130L30.983 126.094C26.9737 129.153 22.179 130.682 16.599 130.682C13.251 130.682 10.337 130.145 7.857 129.07C5.377 127.954 3.455 126.404 2.091 124.42C0.768333 122.395 0.107 120.039 0.107 117.352C0.107 114.624 0.830333 112.165 2.277 109.974C3.765 107.742 5.97633 105.923 8.911 104.518C7.83633 103.195 7.07167 101.935 6.617 100.736C6.16233 99.496 5.935 98.1527 5.935 96.706C5.935 94.6393 6.47233 92.7587 7.547 91.064C8.62167 89.3693 10.1717 88.0467 12.197 87.096C14.2637 86.104 16.7023 85.608 19.513 85.608C22.365 85.608 24.783 86.1247 26.767 87.158C28.751 88.1913 30.239 89.576 31.231 91.312C32.223 93.048 32.6777 94.9493 32.595 97.016H22.613C22.6543 95.9 22.365 95.0527 21.745 94.474C21.1663 93.854 20.381 93.544 19.389 93.544C18.397 93.544 17.5703 93.8333 16.909 94.412C16.2477 94.9907 15.917 95.7347 15.917 96.644C15.917 97.512 16.1857 98.4213 16.723 99.372C17.3017 100.323 18.1903 101.418 19.389 102.658L29.991 113.012C30.0737 112.805 30.177 112.557 30.301 112.268C30.4663 111.979 30.6317 111.648 30.797 111.276L33.091 107.37H43.693L40.717 112.764C39.601 115.203 38.3197 117.517 36.873 119.708L47.351 130H35.013ZM17.095 122.126C19.8643 122.126 22.3237 121.341 24.473 119.77L14.801 110.408C11.825 111.937 10.337 114.004 10.337 116.608C10.337 118.179 10.9363 119.501 12.135 120.576C13.375 121.609 15.0283 122.126 17.095 122.126ZM86.5205 130L77.4685 113.57H74.9265V130H64.3245V86.476H82.1185C85.5491 86.476 88.4631 87.0753 90.8605 88.274C93.2991 89.4727 95.1178 91.126 96.3165 93.234C97.5151 95.3007 98.1145 97.6153 98.1145 100.178C98.1145 103.071 97.2878 105.655 95.6345 107.928C94.0225 110.201 91.6251 111.813 88.4425 112.764L98.4865 130H86.5205ZM74.9265 106.068H81.4985C83.4411 106.068 84.8878 105.593 85.8385 104.642C86.8305 103.691 87.3265 102.348 87.3265 100.612C87.3265 98.9587 86.8305 97.6567 85.8385 96.706C84.8878 95.7553 83.4411 95.28 81.4985 95.28H74.9265V106.068ZM137.382 112.144C137.382 113.136 137.32 114.169 137.196 115.244H113.202C113.367 117.393 114.049 119.047 115.248 120.204C116.488 121.32 117.996 121.878 119.774 121.878C122.419 121.878 124.258 120.762 125.292 118.53H136.576C135.997 120.803 134.943 122.849 133.414 124.668C131.926 126.487 130.045 127.913 127.772 128.946C125.498 129.979 122.956 130.496 120.146 130.496C116.756 130.496 113.739 129.773 111.094 128.326C108.448 126.879 106.382 124.813 104.894 122.126C103.406 119.439 102.662 116.298 102.662 112.702C102.662 109.106 103.385 105.965 104.832 103.278C106.32 100.591 108.386 98.5247 111.032 97.078C113.677 95.6313 116.715 94.908 120.146 94.908C123.494 94.908 126.47 95.6107 129.074 97.016C131.678 98.4213 133.703 100.426 135.15 103.03C136.638 105.634 137.382 108.672 137.382 112.144ZM126.532 109.354C126.532 107.535 125.912 106.089 124.672 105.014C123.432 103.939 121.882 103.402 120.022 103.402C118.244 103.402 116.736 103.919 115.496 104.952C114.297 105.985 113.553 107.453 113.264 109.354H126.532ZM157.049 130.496C154.032 130.496 151.345 129.979 148.989 128.946C146.633 127.913 144.773 126.507 143.409 124.73C142.045 122.911 141.28 120.886 141.115 118.654H151.593C151.717 119.853 152.275 120.824 153.267 121.568C154.259 122.312 155.478 122.684 156.925 122.684C158.248 122.684 159.26 122.436 159.963 121.94C160.707 121.403 161.079 120.721 161.079 119.894C161.079 118.902 160.562 118.179 159.529 117.724C158.496 117.228 156.822 116.691 154.507 116.112C152.027 115.533 149.96 114.934 148.307 114.314C146.654 113.653 145.228 112.64 144.029 111.276C142.83 109.871 142.231 107.99 142.231 105.634C142.231 103.65 142.768 101.852 143.843 100.24C144.959 98.5867 146.571 97.2847 148.679 96.334C150.828 95.3833 153.37 94.908 156.305 94.908C160.645 94.908 164.055 95.9827 166.535 98.132C169.056 100.281 170.503 103.133 170.875 106.688H161.079C160.914 105.489 160.376 104.539 159.467 103.836C158.599 103.133 157.442 102.782 155.995 102.782C154.755 102.782 153.804 103.03 153.143 103.526C152.482 103.981 152.151 104.621 152.151 105.448C152.151 106.44 152.668 107.184 153.701 107.68C154.776 108.176 156.429 108.672 158.661 109.168C161.224 109.829 163.311 110.491 164.923 111.152C166.535 111.772 167.94 112.805 169.139 114.252C170.379 115.657 171.02 117.559 171.061 119.956C171.061 121.981 170.482 123.8 169.325 125.412C168.209 126.983 166.576 128.223 164.427 129.132C162.319 130.041 159.86 130.496 157.049 130.496ZM210.159 112.144C210.159 113.136 210.097 114.169 209.973 115.244H185.979C186.144 117.393 186.826 119.047 188.025 120.204C189.265 121.32 190.774 121.878 192.551 121.878C195.196 121.878 197.036 120.762 198.069 118.53H209.353C208.774 120.803 207.72 122.849 206.191 124.668C204.703 126.487 202.822 127.913 200.549 128.946C198.276 129.979 195.734 130.496 192.923 130.496C189.534 130.496 186.516 129.773 183.871 128.326C181.226 126.879 179.159 124.813 177.671 122.126C176.183 119.439 175.439 116.298 175.439 112.702C175.439 109.106 176.162 105.965 177.609 103.278C179.097 100.591 181.164 98.5247 183.809 97.078C186.454 95.6313 189.492 94.908 192.923 94.908C196.271 94.908 199.247 95.6107 201.851 97.016C204.455 98.4213 206.48 100.426 207.927 103.03C209.415 105.634 210.159 108.672 210.159 112.144ZM199.309 109.354C199.309 107.535 198.689 106.089 197.449 105.014C196.209 103.939 194.659 103.402 192.799 103.402C191.022 103.402 189.513 103.919 188.273 104.952C187.074 105.985 186.33 107.453 186.041 109.354H199.309ZM213.644 112.64C213.644 109.085 214.306 105.965 215.628 103.278C216.992 100.591 218.832 98.5247 221.146 97.078C223.461 95.6313 226.044 94.908 228.896 94.908C231.335 94.908 233.464 95.404 235.282 96.396C237.142 97.388 238.568 98.69 239.56 100.302V95.404H250.162V130H239.56V125.102C238.527 126.714 237.08 128.016 235.22 129.008C233.402 130 231.273 130.496 228.834 130.496C226.024 130.496 223.461 129.773 221.146 128.326C218.832 126.838 216.992 124.751 215.628 122.064C214.306 119.336 213.644 116.195 213.644 112.64ZM239.56 112.702C239.56 110.057 238.816 107.969 237.328 106.44C235.882 104.911 234.104 104.146 231.996 104.146C229.888 104.146 228.09 104.911 226.602 106.44C225.156 107.928 224.432 109.995 224.432 112.64C224.432 115.285 225.156 117.393 226.602 118.964C228.09 120.493 229.888 121.258 231.996 121.258C234.104 121.258 235.882 120.493 237.328 118.964C238.816 117.435 239.56 115.347 239.56 112.702ZM268.434 101.17C269.674 99.2687 271.224 97.7807 273.084 96.706C274.944 95.59 277.011 95.032 279.284 95.032V106.254H276.37C273.725 106.254 271.741 106.833 270.418 107.99C269.096 109.106 268.434 111.09 268.434 113.942V130H257.832V95.404H268.434V101.17ZM282.244 112.702C282.244 109.106 282.967 105.965 284.414 103.278C285.902 100.591 287.948 98.5247 290.552 97.078C293.197 95.6313 296.214 94.908 299.604 94.908C303.944 94.908 307.56 96.0447 310.454 98.318C313.388 100.591 315.31 103.795 316.22 107.928H304.936C303.985 105.283 302.146 103.96 299.418 103.96C297.475 103.96 295.925 104.725 294.768 106.254C293.61 107.742 293.032 109.891 293.032 112.702C293.032 115.513 293.61 117.683 294.768 119.212C295.925 120.7 297.475 121.444 299.418 121.444C302.146 121.444 303.985 120.121 304.936 117.476H316.22C315.31 121.527 313.388 124.709 310.454 127.024C307.519 129.339 303.902 130.496 299.604 130.496C296.214 130.496 293.197 129.773 290.552 128.326C287.948 126.879 285.902 124.813 284.414 122.126C282.967 119.439 282.244 116.298 282.244 112.702ZM343.157 95.032C347.125 95.032 350.308 96.3547 352.705 99C355.102 101.604 356.301 105.2 356.301 109.788V130H345.761V111.214C345.761 108.899 345.162 107.101 343.963 105.82C342.764 104.539 341.152 103.898 339.127 103.898C337.102 103.898 335.49 104.539 334.291 105.82C333.092 107.101 332.493 108.899 332.493 111.214V130H321.891V84.12H332.493V100.054C333.568 98.5247 335.035 97.3053 336.895 96.396C338.755 95.4867 340.842 95.032 343.157 95.032Z" fill="#E0E0E0"/>
</svg>
