<svg width="114" height="114" viewBox="0 0 114 114" fill="none" xmlns="http://www.w3.org/2000/svg">
<rect width="97.7297" height="97.7297" rx="13.9255" transform="matrix(1 0 0 -1 0.875 97.7297)" fill="url(#paint0_linear_1801_2961)"/>
<g filter="url(#filter0_b_1801_2961)">
<rect width="97.7297" height="97.7297" rx="13.9255" transform="matrix(1 0 0 -1 16.1445 113.003)" fill="#EEEEEE" fill-opacity="0.61"/>
<rect x="0.464183" y="-0.464183" width="96.8014" height="96.8014" rx="13.4613" transform="matrix(1 0 0 -1 16.1445 112.075)" stroke="white" stroke-width="0.928367"/>
</g>
<path d="M81.0671 38.5102L78.8864 40.6909C78.5481 41.0472 77.9167 41.0819 77.526 40.6909C77.1495 40.3147 77.1495 39.7067 77.526 39.3304L79.7067 37.1497C80.0829 36.7734 80.6909 36.7734 81.0768 37.1497C81.4531 37.5261 81.4531 38.134 81.0671 38.5102Z" fill="#218AA7"/>
<path d="M84.2118 45.1966C84.1925 45.7177 83.768 46.123 83.2469 46.123H83.2083L80.1303 45.9974C79.5995 45.9686 79.1847 45.5246 79.204 44.9844C79.2233 44.4729 79.6478 44.0676 80.1689 44.0676H80.2076L83.2856 44.1932C83.826 44.2125 84.2311 44.666 84.2118 45.1966Z" fill="#218AA7"/>
<path d="M74.022 34.9277L74.1476 38.0058C74.1766 38.5365 73.7616 38.9899 73.2308 39.0092H73.1827C72.6712 39.0092 72.2467 38.6041 72.2274 38.083L72.0922 35.005C72.073 34.4742 72.488 34.0208 73.0186 34.0014C73.5589 33.9725 74.0028 34.3874 74.022 34.9277Z" fill="#218AA7"/>
<path d="M67.874 59.7667L58.4483 50.3419L59.7263 42.473L75.7459 58.4927L67.874 59.7667ZM79.3089 57.9156L78.0951 58.112L60.1076 40.1255L60.305 38.9102C60.4311 38.1337 61.3835 37.8263 61.9397 38.3826L79.8371 56.2808C80.3936 56.8373 80.0857 57.79 79.3089 57.9156ZM75.386 42.8365C77.2526 44.7032 77.4562 47.613 75.9994 49.7133L68.5016 42.2155C70.6029 40.7606 73.5165 40.9679 75.386 42.8365ZM52.6984 68.5055C51.8748 69.3281 50.533 69.33 49.7094 68.5055C48.8849 67.681 48.8849 66.3401 49.7094 65.5156L51.2115 64.0136C51.3081 64.1102 54.3924 67.1938 54.2012 67.0027L52.6984 68.5055ZM57.5116 67.5839C55.2419 65.3145 53.1745 63.2474 50.6301 60.7033C50.1137 60.1869 50.1137 59.3455 50.6301 58.8281L57.4183 52.0408L66.1741 60.7966C56.9415 70.0277 68.5091 58.462 59.3859 67.5839C58.8845 68.0843 58.0139 68.0862 57.5116 67.5839ZM73.1735 72.53C72.5722 71.9286 75.6846 75.047 65.1743 64.5214C64.4217 65.2739 62.27 67.4257 62.1735 67.5222L70.1822 75.5213C71.0024 76.3511 72.3435 76.3511 73.1735 75.5213C74.0033 74.7011 74.0033 73.3503 73.1735 72.53Z" fill="#218AA7"/>
<path d="M35.875 84.3188V86.1699C35.875 88.7503 37.9692 90.8445 40.5495 90.8445H91.0248C93.6051 90.8445 95.6993 88.7503 95.6993 86.1699V84.3188C94.027 84.3188 104.402 84.3188 35.875 84.3188Z" fill="#218AA7"/>
<path d="M90.5423 47.3518H78.8475C78.7318 48.5579 78.3168 49.7545 77.5835 50.8061L77.3905 51.0957L78.4713 52.1763H88.5545V77.5631H73.6274C72.4479 78.2205 70.9512 78.2441 69.7291 77.5631H43.0206V52.1763H54.5415L56.51 50.208L56.9731 47.3518H41.0328C39.4697 47.3518 38.196 48.6159 38.196 50.179V82.3877H93.379V50.179C93.379 48.6159 92.1053 47.3518 90.5423 47.3518Z" fill="#218AA7"/>
<defs>
<filter id="filter0_b_1801_2961" x="8.7176" y="7.8465" width="112.584" height="112.584" filterUnits="userSpaceOnUse" color-interpolation-filters="sRGB">
<feFlood flood-opacity="0" result="BackgroundImageFix"/>
<feGaussianBlur in="BackgroundImageFix" stdDeviation="3.71347"/>
<feComposite in2="SourceAlpha" operator="in" result="effect1_backgroundBlur_1801_2961"/>
<feBlend mode="normal" in="SourceGraphic" in2="effect1_backgroundBlur_1801_2961" result="shape"/>
</filter>
<linearGradient id="paint0_linear_1801_2961" x1="48.8649" y1="0" x2="48.8649" y2="97.7297" gradientUnits="userSpaceOnUse">
<stop stop-color="#38D4FF"/>
<stop offset="1" stop-color="#D9F7FF"/>
</linearGradient>
</defs>
</svg>
