<svg width="286" height="147" viewBox="0 0 286 147" fill="none" xmlns="http://www.w3.org/2000/svg">
<path opacity="0.75" d="M17.025 6.476C21.613 6.476 25.6223 7.38533 29.053 9.204C32.4837 11.0227 35.129 13.5853 36.989 16.892C38.8903 20.1573 39.841 23.9393 39.841 28.238C39.841 32.4953 38.8903 36.2773 36.989 39.584C35.129 42.8907 32.463 45.4533 28.991 47.272C25.5603 49.0907 21.5717 50 17.025 50H0.719V6.476H17.025ZM16.343 40.824C20.3523 40.824 23.473 39.7287 25.705 37.538C27.937 35.3473 29.053 32.2473 29.053 28.238C29.053 24.2287 27.937 21.108 25.705 18.876C23.473 16.644 20.3523 15.528 16.343 15.528H11.321V40.824H16.343ZM78.3779 32.144C78.3779 33.136 78.3159 34.1693 78.1919 35.244H54.1979C54.3632 37.3933 55.0452 39.0467 56.2439 40.204C57.4839 41.32 58.9925 41.878 60.7699 41.878C63.4152 41.878 65.2545 40.762 66.2879 38.53H77.5719C76.9932 40.8033 75.9392 42.8493 74.4099 44.668C72.9219 46.4867 71.0412 47.9127 68.7679 48.946C66.4945 49.9793 63.9525 50.496 61.1419 50.496C57.7525 50.496 54.7352 49.7727 52.0899 48.326C49.4445 46.8793 47.3779 44.8127 45.8899 42.126C44.4019 39.4393 43.6579 36.298 43.6579 32.702C43.6579 29.106 44.3812 25.9647 45.8279 23.278C47.3159 20.5913 49.3825 18.5247 52.0279 17.078C54.6732 15.6313 57.7112 14.908 61.1419 14.908C64.4899 14.908 67.4659 15.6107 70.0699 17.016C72.6739 18.4213 74.6992 20.426 76.1459 23.03C77.6339 25.634 78.3779 28.672 78.3779 32.144ZM67.5279 29.354C67.5279 27.5353 66.9079 26.0887 65.6679 25.014C64.4279 23.9393 62.8779 23.402 61.0179 23.402C59.2405 23.402 57.7319 23.9187 56.4919 24.952C55.2932 25.9853 54.5492 27.4527 54.2599 29.354H67.5279ZM94.573 4.12V50H83.971V4.12H94.573ZM107.588 11.808C105.728 11.808 104.199 11.2707 103 10.196C101.843 9.08 101.264 7.716 101.264 6.104C101.264 4.45067 101.843 3.08666 103 2.012C104.199 0.895997 105.728 0.337996 107.588 0.337996C109.407 0.337996 110.895 0.895997 112.052 2.012C113.251 3.08666 113.85 4.45067 113.85 6.104C113.85 7.716 113.251 9.08 112.052 10.196C110.895 11.2707 109.407 11.808 107.588 11.808ZM112.858 15.404V50H102.256V15.404H112.858ZM136.103 40.08L143.605 15.404H154.889L142.613 50H129.531L117.255 15.404H128.601L136.103 40.08ZM191.964 32.144C191.964 33.136 191.902 34.1693 191.778 35.244H167.784C167.949 37.3933 168.631 39.0467 169.83 40.204C171.07 41.32 172.578 41.878 174.356 41.878C177.001 41.878 178.84 40.762 179.874 38.53H191.158C190.579 40.8033 189.525 42.8493 187.996 44.668C186.508 46.4867 184.627 47.9127 182.354 48.946C180.08 49.9793 177.538 50.496 174.728 50.496C171.338 50.496 168.321 49.7727 165.676 48.326C163.03 46.8793 160.964 44.8127 159.476 42.126C157.988 39.4393 157.244 36.298 157.244 32.702C157.244 29.106 157.967 25.9647 159.414 23.278C160.902 20.5913 162.968 18.5247 165.614 17.078C168.259 15.6313 171.297 14.908 174.728 14.908C178.076 14.908 181.052 15.6107 183.656 17.016C186.26 18.4213 188.285 20.426 189.732 23.03C191.22 25.634 191.964 28.672 191.964 32.144ZM181.114 29.354C181.114 27.5353 180.494 26.0887 179.254 25.014C178.014 23.9393 176.464 23.402 174.604 23.402C172.826 23.402 171.318 23.9187 170.078 24.952C168.879 25.9853 168.135 27.4527 167.846 29.354H181.114ZM208.159 21.17C209.399 19.2687 210.949 17.7807 212.809 16.706C214.669 15.59 216.736 15.032 219.009 15.032V26.254H216.095C213.45 26.254 211.466 26.8327 210.143 27.99C208.82 29.106 208.159 31.09 208.159 33.942V50H197.557V15.404H208.159V21.17ZM270.509 50L266.479 46.094C262.47 49.1527 257.675 50.682 252.095 50.682C248.747 50.682 245.833 50.1447 243.353 49.07C240.873 47.954 238.951 46.404 237.587 44.42C236.264 42.3947 235.603 40.0387 235.603 37.352C235.603 34.624 236.326 32.1647 237.773 29.974C239.261 27.742 241.472 25.9233 244.407 24.518C243.332 23.1953 242.568 21.9347 242.113 20.736C241.658 19.496 241.431 18.1527 241.431 16.706C241.431 14.6393 241.968 12.7587 243.043 11.064C244.118 9.36933 245.668 8.04666 247.693 7.096C249.76 6.104 252.198 5.608 255.009 5.608C257.861 5.608 260.279 6.12466 262.263 7.158C264.247 8.19133 265.735 9.576 266.727 11.312C267.719 13.048 268.174 14.9493 268.091 17.016H258.109C258.15 15.9 257.861 15.0527 257.241 14.474C256.662 13.854 255.877 13.544 254.885 13.544C253.893 13.544 253.066 13.8333 252.405 14.412C251.744 14.9907 251.413 15.7347 251.413 16.644C251.413 17.512 251.682 18.4213 252.219 19.372C252.798 20.3227 253.686 21.418 254.885 22.658L265.487 33.012C265.57 32.8053 265.673 32.5573 265.797 32.268C265.962 31.9787 266.128 31.648 266.293 31.276L268.587 27.37H279.189L276.213 32.764C275.097 35.2027 273.816 37.5173 272.369 39.708L282.847 50H270.509ZM252.591 42.126C255.36 42.126 257.82 41.3407 259.969 39.77L250.297 30.408C247.321 31.9373 245.833 34.004 245.833 36.608C245.833 38.1787 246.432 39.5013 247.631 40.576C248.871 41.6093 250.524 42.126 252.591 42.126ZM33.889 100.488C33.889 103.009 33.3103 105.324 32.153 107.432C30.9957 109.499 29.2183 111.173 26.821 112.454C24.4237 113.735 21.4477 114.376 17.893 114.376H11.321V130H0.719V86.476H17.893C21.365 86.476 24.2997 87.0753 26.697 88.274C29.0943 89.4727 30.8923 91.126 32.091 93.234C33.2897 95.342 33.889 97.76 33.889 100.488ZM17.087 105.944C19.1123 105.944 20.621 105.469 21.613 104.518C22.605 103.567 23.101 102.224 23.101 100.488C23.101 98.752 22.605 97.4087 21.613 96.458C20.621 95.5073 19.1123 95.032 17.087 95.032H11.321V105.944H17.087ZM37.3005 112.64C37.3005 109.085 37.9618 105.965 39.2845 103.278C40.6485 100.591 42.4878 98.5247 44.8025 97.078C47.1171 95.6313 49.7005 94.908 52.5525 94.908C54.9911 94.908 57.1198 95.404 58.9385 96.396C60.7985 97.388 62.2245 98.69 63.2165 100.302V95.404H73.8185V130H63.2165V125.102C62.1831 126.714 60.7365 128.016 58.8765 129.008C57.0578 130 54.9291 130.496 52.4905 130.496C49.6798 130.496 47.1171 129.773 44.8025 128.326C42.4878 126.838 40.6485 124.751 39.2845 122.064C37.9618 119.336 37.3005 116.195 37.3005 112.64ZM63.2165 112.702C63.2165 110.057 62.4725 107.969 60.9845 106.44C59.5378 104.911 57.7605 104.146 55.6525 104.146C53.5445 104.146 51.7465 104.911 50.2585 106.44C48.8118 107.928 48.0885 109.995 48.0885 112.64C48.0885 115.285 48.8118 117.393 50.2585 118.964C51.7465 120.493 53.5445 121.258 55.6525 121.258C57.7605 121.258 59.5378 120.493 60.9845 118.964C62.4725 117.435 63.2165 115.347 63.2165 112.702ZM116.829 95.404L95.1285 146.43H83.7205L91.6565 128.822L77.5825 95.404H89.4245L97.4225 117.042L105.359 95.404H116.829ZM164.806 95.032C169.105 95.032 172.515 96.334 175.036 98.938C177.599 101.542 178.88 105.159 178.88 109.788V130H168.34V111.214C168.34 108.982 167.741 107.267 166.542 106.068C165.385 104.828 163.773 104.208 161.706 104.208C159.64 104.208 158.007 104.828 156.808 106.068C155.651 107.267 155.072 108.982 155.072 111.214V130H144.532V111.214C144.532 108.982 143.933 107.267 142.734 106.068C141.577 104.828 139.965 104.208 137.898 104.208C135.832 104.208 134.199 104.828 133 106.068C131.843 107.267 131.264 108.982 131.264 111.214V130H120.662V95.404H131.264V99.744C132.339 98.2973 133.744 97.1607 135.48 96.334C137.216 95.466 139.18 95.032 141.37 95.032C143.974 95.032 146.289 95.59 148.314 96.706C150.381 97.822 151.993 99.4133 153.15 101.48C154.349 99.5787 155.982 98.0287 158.048 96.83C160.115 95.6313 162.368 95.032 164.806 95.032ZM218.907 112.144C218.907 113.136 218.845 114.169 218.721 115.244H194.727C194.893 117.393 195.575 119.047 196.773 120.204C198.013 121.32 199.522 121.878 201.299 121.878C203.945 121.878 205.784 120.762 206.817 118.53H218.101C217.523 120.803 216.469 122.849 214.939 124.668C213.451 126.487 211.571 127.913 209.297 128.946C207.024 129.979 204.482 130.496 201.671 130.496C198.282 130.496 195.265 129.773 192.619 128.326C189.974 126.879 187.907 124.813 186.419 122.126C184.931 119.439 184.187 116.298 184.187 112.702C184.187 109.106 184.911 105.965 186.357 103.278C187.845 100.591 189.912 98.5247 192.557 97.078C195.203 95.6313 198.241 94.908 201.671 94.908C205.019 94.908 207.995 95.6107 210.599 97.016C213.203 98.4213 215.229 100.426 216.675 103.03C218.163 105.634 218.907 108.672 218.907 112.144ZM208.057 109.354C208.057 107.535 207.437 106.089 206.197 105.014C204.957 103.939 203.407 103.402 201.547 103.402C199.77 103.402 198.261 103.919 197.021 104.952C195.823 105.985 195.079 107.453 194.789 109.354H208.057ZM245.58 95.032C249.631 95.032 252.855 96.3547 255.252 99C257.691 101.604 258.91 105.2 258.91 109.788V130H248.37V111.214C248.37 108.899 247.771 107.101 246.572 105.82C245.374 104.539 243.762 103.898 241.736 103.898C239.711 103.898 238.099 104.539 236.9 105.82C235.702 107.101 235.102 108.899 235.102 111.214V130H224.5V95.404H235.102V99.992C236.177 98.4627 237.624 97.264 239.442 96.396C241.261 95.4867 243.307 95.032 245.58 95.032ZM285.56 121.01V130H280.166C276.322 130 273.325 129.07 271.176 127.21C269.026 125.309 267.952 122.229 267.952 117.972V104.208H263.736V95.404H267.952V86.972H278.554V95.404H285.498V104.208H278.554V118.096C278.554 119.129 278.802 119.873 279.298 120.328C279.794 120.783 280.62 121.01 281.778 121.01H285.56Z" fill="#E0E0E0"/>
</svg>
