<svg width="244" height="131" viewBox="0 0 244 131" fill="none" xmlns="http://www.w3.org/2000/svg">
<path opacity="0.75" d="M17.025 6.476C21.613 6.476 25.6223 7.38533 29.053 9.204C32.4837 11.0227 35.129 13.5853 36.989 16.892C38.8903 20.1573 39.841 23.9393 39.841 28.238C39.841 32.4953 38.8903 36.2773 36.989 39.584C35.129 42.8907 32.463 45.4533 28.991 47.272C25.5603 49.0907 21.5717 50 17.025 50H0.719V6.476H17.025ZM16.343 40.824C20.3523 40.824 23.473 39.7287 25.705 37.538C27.937 35.3473 29.053 32.2473 29.053 28.238C29.053 24.2287 27.937 21.108 25.705 18.876C23.473 16.644 20.3523 15.528 16.343 15.528H11.321V40.824H16.343ZM78.3779 32.144C78.3779 33.136 78.3159 34.1693 78.1919 35.244H54.1979C54.3632 37.3933 55.0452 39.0467 56.2439 40.204C57.4839 41.32 58.9925 41.878 60.7699 41.878C63.4152 41.878 65.2545 40.762 66.2879 38.53H77.5719C76.9932 40.8033 75.9392 42.8493 74.4099 44.668C72.9219 46.4867 71.0412 47.9127 68.7679 48.946C66.4945 49.9793 63.9525 50.496 61.1419 50.496C57.7525 50.496 54.7352 49.7727 52.0899 48.326C49.4445 46.8793 47.3779 44.8127 45.8899 42.126C44.4019 39.4393 43.6579 36.298 43.6579 32.702C43.6579 29.106 44.3812 25.9647 45.8279 23.278C47.3159 20.5913 49.3825 18.5247 52.0279 17.078C54.6732 15.6313 57.7112 14.908 61.1419 14.908C64.4899 14.908 67.4659 15.6107 70.0699 17.016C72.6739 18.4213 74.6992 20.426 76.1459 23.03C77.6339 25.634 78.3779 28.672 78.3779 32.144ZM67.5279 29.354C67.5279 27.5353 66.9079 26.0887 65.6679 25.014C64.4279 23.9393 62.8779 23.402 61.0179 23.402C59.2405 23.402 57.7319 23.9187 56.4919 24.952C55.2932 25.9853 54.5492 27.4527 54.2599 29.354H67.5279ZM98.045 50.496C95.0276 50.496 92.341 49.9793 89.985 48.946C87.629 47.9127 85.769 46.5073 84.405 44.73C83.041 42.9113 82.2763 40.886 82.111 38.654H92.589C92.713 39.8527 93.271 40.824 94.263 41.568C95.255 42.312 96.4743 42.684 97.921 42.684C99.2436 42.684 100.256 42.436 100.959 41.94C101.703 41.4027 102.075 40.7207 102.075 39.894C102.075 38.902 101.558 38.1787 100.525 37.724C99.4916 37.228 97.8176 36.6907 95.503 36.112C93.023 35.5333 90.9563 34.934 89.303 34.314C87.6496 33.6527 86.2236 32.64 85.025 31.276C83.8263 29.8707 83.227 27.99 83.227 25.634C83.227 23.65 83.7643 21.852 84.839 20.24C85.955 18.5867 87.567 17.2847 89.675 16.334C91.8243 15.3833 94.3663 14.908 97.301 14.908C101.641 14.908 105.051 15.9827 107.531 18.132C110.052 20.2813 111.499 23.1333 111.871 26.688H102.075C101.91 25.4893 101.372 24.5387 100.463 23.836C99.595 23.1333 98.4376 22.782 96.991 22.782C95.751 22.782 94.8003 23.03 94.139 23.526C93.4776 23.9807 93.147 24.6213 93.147 25.448C93.147 26.44 93.6636 27.184 94.697 27.68C95.7716 28.176 97.425 28.672 99.657 29.168C102.22 29.8293 104.307 30.4907 105.919 31.152C107.531 31.772 108.936 32.8053 110.135 34.252C111.375 35.6573 112.016 37.5587 112.057 39.956C112.057 41.9813 111.478 43.8 110.321 45.412C109.205 46.9827 107.572 48.2227 105.423 49.132C103.315 50.0413 100.856 50.496 98.045 50.496ZM123.875 11.808C122.015 11.808 120.486 11.2707 119.287 10.196C118.13 9.08 117.551 7.716 117.551 6.104C117.551 4.45067 118.13 3.08666 119.287 2.012C120.486 0.895997 122.015 0.337996 123.875 0.337996C125.694 0.337996 127.182 0.895997 128.339 2.012C129.538 3.08666 130.137 4.45067 130.137 6.104C130.137 7.716 129.538 9.08 128.339 10.196C127.182 11.2707 125.694 11.808 123.875 11.808ZM129.145 15.404V50H118.543V15.404H129.145ZM149.972 14.908C152.411 14.908 154.54 15.404 156.358 16.396C158.218 17.388 159.644 18.69 160.636 20.302V15.404H171.238V49.938C171.238 53.1207 170.598 55.9933 169.316 58.556C168.076 61.16 166.154 63.2267 163.55 64.756C160.988 66.2853 157.784 67.05 153.94 67.05C148.815 67.05 144.661 65.8307 141.478 63.392C138.296 60.9947 136.477 57.7293 136.022 53.596H146.5C146.831 54.9187 147.616 55.952 148.856 56.696C150.096 57.4813 151.626 57.874 153.444 57.874C155.635 57.874 157.371 57.2333 158.652 55.952C159.975 54.712 160.636 52.7073 160.636 49.938V45.04C159.603 46.652 158.177 47.9747 156.358 49.008C154.54 50 152.411 50.496 149.972 50.496C147.12 50.496 144.537 49.7727 142.222 48.326C139.908 46.838 138.068 44.7507 136.704 42.064C135.382 39.336 134.72 36.1947 134.72 32.64C134.72 29.0853 135.382 25.9647 136.704 23.278C138.068 20.5913 139.908 18.5247 142.222 17.078C144.537 15.6313 147.12 14.908 149.972 14.908ZM160.636 32.702C160.636 30.0567 159.892 27.9693 158.404 26.44C156.958 24.9107 155.18 24.146 153.072 24.146C150.964 24.146 149.166 24.9107 147.678 26.44C146.232 27.928 145.508 29.9947 145.508 32.64C145.508 35.2853 146.232 37.3933 147.678 38.964C149.166 40.4933 150.964 41.258 153.072 41.258C155.18 41.258 156.958 40.4933 158.404 38.964C159.892 37.4347 160.636 35.3473 160.636 32.702ZM199.988 15.032C204.039 15.032 207.263 16.3547 209.66 19C212.099 21.604 213.318 25.2 213.318 29.788V50H202.778V31.214C202.778 28.8993 202.179 27.1013 200.98 25.82C199.782 24.5387 198.17 23.898 196.144 23.898C194.119 23.898 192.507 24.5387 191.308 25.82C190.11 27.1013 189.51 28.8993 189.51 31.214V50H178.908V15.404H189.51V19.992C190.585 18.4627 192.032 17.264 193.85 16.396C195.669 15.4867 197.715 15.032 199.988 15.032ZM33.889 100.488C33.889 103.009 33.3103 105.324 32.153 107.432C30.9957 109.499 29.2183 111.173 26.821 112.454C24.4237 113.735 21.4477 114.376 17.893 114.376H11.321V130H0.719V86.476H17.893C21.365 86.476 24.2997 87.0753 26.697 88.274C29.0943 89.4727 30.8923 91.126 32.091 93.234C33.2897 95.342 33.889 97.76 33.889 100.488ZM17.087 105.944C19.1123 105.944 20.621 105.469 21.613 104.518C22.605 103.567 23.101 102.224 23.101 100.488C23.101 98.752 22.605 97.4087 21.613 96.458C20.621 95.5073 19.1123 95.032 17.087 95.032H11.321V105.944H17.087ZM50.0105 101.17C51.2505 99.2687 52.8005 97.7807 54.6605 96.706C56.5205 95.59 58.5871 95.032 60.8605 95.032V106.254H57.9465C55.3011 106.254 53.3171 106.833 51.9945 107.99C50.6718 109.106 50.0105 111.09 50.0105 113.942V130H39.4085V95.404H50.0105V101.17ZM81.676 130.496C78.2867 130.496 75.228 129.773 72.5 128.326C69.8133 126.879 67.6847 124.813 66.114 122.126C64.5847 119.439 63.82 116.298 63.82 112.702C63.82 109.147 64.6053 106.027 66.176 103.34C67.7467 100.612 69.896 98.5247 72.624 97.078C75.352 95.6313 78.4107 94.908 81.8 94.908C85.1893 94.908 88.248 95.6313 90.976 97.078C93.704 98.5247 95.8533 100.612 97.424 103.34C98.9947 106.027 99.78 109.147 99.78 112.702C99.78 116.257 98.974 119.398 97.362 122.126C95.7913 124.813 93.6213 126.879 90.852 128.326C88.124 129.773 85.0653 130.496 81.676 130.496ZM81.676 121.32C83.7013 121.32 85.4167 120.576 86.822 119.088C88.2687 117.6 88.992 115.471 88.992 112.702C88.992 109.933 88.2893 107.804 86.884 106.316C85.52 104.828 83.8253 104.084 81.8 104.084C79.7333 104.084 78.018 104.828 76.654 106.316C75.29 107.763 74.608 109.891 74.608 112.702C74.608 115.471 75.2693 117.6 76.592 119.088C77.956 120.576 79.6507 121.32 81.676 121.32ZM103.297 112.702C103.297 109.106 104.02 105.965 105.467 103.278C106.955 100.591 109.001 98.5247 111.605 97.078C114.25 95.6313 117.267 94.908 120.657 94.908C124.997 94.908 128.613 96.0447 131.507 98.318C134.441 100.591 136.363 103.795 137.273 107.928H125.989C125.038 105.283 123.199 103.96 120.471 103.96C118.528 103.96 116.978 104.725 115.821 106.254C114.663 107.742 114.085 109.891 114.085 112.702C114.085 115.513 114.663 117.683 115.821 119.212C116.978 120.7 118.528 121.444 120.471 121.444C123.199 121.444 125.038 120.121 125.989 117.476H137.273C136.363 121.527 134.441 124.709 131.507 127.024C128.572 129.339 124.955 130.496 120.657 130.496C117.267 130.496 114.25 129.773 111.605 128.326C109.001 126.879 106.955 124.813 105.467 122.126C104.02 119.439 103.297 116.298 103.297 112.702ZM175.556 112.144C175.556 113.136 175.494 114.169 175.37 115.244H151.376C151.541 117.393 152.223 119.047 153.422 120.204C154.662 121.32 156.17 121.878 157.948 121.878C160.593 121.878 162.432 120.762 163.466 118.53H174.75C174.171 120.803 173.117 122.849 171.588 124.668C170.1 126.487 168.219 127.913 165.946 128.946C163.672 129.979 161.13 130.496 158.32 130.496C154.93 130.496 151.913 129.773 149.268 128.326C146.622 126.879 144.556 124.813 143.068 122.126C141.58 119.439 140.836 116.298 140.836 112.702C140.836 109.106 141.559 105.965 143.006 103.278C144.494 100.591 146.56 98.5247 149.206 97.078C151.851 95.6313 154.889 94.908 158.32 94.908C161.668 94.908 164.644 95.6107 167.248 97.016C169.852 98.4213 171.877 100.426 173.324 103.03C174.812 105.634 175.556 108.672 175.556 112.144ZM164.706 109.354C164.706 107.535 164.086 106.089 162.846 105.014C161.606 103.939 160.056 103.402 158.196 103.402C156.418 103.402 154.91 103.919 153.67 104.952C152.471 105.985 151.727 107.453 151.438 109.354H164.706ZM195.223 130.496C192.205 130.496 189.519 129.979 187.163 128.946C184.807 127.913 182.947 126.507 181.583 124.73C180.219 122.911 179.454 120.886 179.289 118.654H189.767C189.891 119.853 190.449 120.824 191.441 121.568C192.433 122.312 193.652 122.684 195.099 122.684C196.421 122.684 197.434 122.436 198.137 121.94C198.881 121.403 199.253 120.721 199.253 119.894C199.253 118.902 198.736 118.179 197.703 117.724C196.669 117.228 194.995 116.691 192.681 116.112C190.201 115.533 188.134 114.934 186.481 114.314C184.827 113.653 183.401 112.64 182.203 111.276C181.004 109.871 180.405 107.99 180.405 105.634C180.405 103.65 180.942 101.852 182.017 100.24C183.133 98.5867 184.745 97.2847 186.853 96.334C189.002 95.3833 191.544 94.908 194.479 94.908C198.819 94.908 202.229 95.9827 204.709 98.132C207.23 100.281 208.677 103.133 209.049 106.688H199.253C199.087 105.489 198.55 104.539 197.641 103.836C196.773 103.133 195.615 102.782 194.169 102.782C192.929 102.782 191.978 103.03 191.317 103.526C190.655 103.981 190.325 104.621 190.325 105.448C190.325 106.44 190.841 107.184 191.875 107.68C192.949 108.176 194.603 108.672 196.835 109.168C199.397 109.829 201.485 110.491 203.097 111.152C204.709 111.772 206.114 112.805 207.313 114.252C208.553 115.657 209.193 117.559 209.235 119.956C209.235 121.981 208.656 123.8 207.499 125.412C206.383 126.983 204.75 128.223 202.601 129.132C200.493 130.041 198.033 130.496 195.223 130.496ZM229.795 130.496C226.778 130.496 224.091 129.979 221.735 128.946C219.379 127.913 217.519 126.507 216.155 124.73C214.791 122.911 214.026 120.886 213.861 118.654H224.339C224.463 119.853 225.021 120.824 226.013 121.568C227.005 122.312 228.224 122.684 229.671 122.684C230.994 122.684 232.006 122.436 232.709 121.94C233.453 121.403 233.825 120.721 233.825 119.894C233.825 118.902 233.308 118.179 232.275 117.724C231.242 117.228 229.568 116.691 227.253 116.112C224.773 115.533 222.706 114.934 221.053 114.314C219.4 113.653 217.974 112.64 216.775 111.276C215.576 109.871 214.977 107.99 214.977 105.634C214.977 103.65 215.514 101.852 216.589 100.24C217.705 98.5867 219.317 97.2847 221.425 96.334C223.574 95.3833 226.116 94.908 229.051 94.908C233.391 94.908 236.801 95.9827 239.281 98.132C241.802 100.281 243.249 103.133 243.621 106.688H233.825C233.66 105.489 233.122 104.539 232.213 103.836C231.345 103.133 230.188 102.782 228.741 102.782C227.501 102.782 226.55 103.03 225.889 103.526C225.228 103.981 224.897 104.621 224.897 105.448C224.897 106.44 225.414 107.184 226.447 107.68C227.522 108.176 229.175 108.672 231.407 109.168C233.97 109.829 236.057 110.491 237.669 111.152C239.281 111.772 240.686 112.805 241.885 114.252C243.125 115.657 243.766 117.559 243.807 119.956C243.807 121.981 243.228 123.8 242.071 125.412C240.955 126.983 239.322 128.223 237.173 129.132C235.065 130.041 232.606 130.496 229.795 130.496Z" fill="#E0E0E0"/>
</svg>
