<svg width="751" height="742" viewBox="0 0 751 742" fill="none" xmlns="http://www.w3.org/2000/svg">
<g clip-path="url(#clip0_1662_2683)">
<path d="M703.659 381.415C703.659 381.415 703.659 372.852 691.669 360.847C679.68 348.863 671.953 342 671.953 342C671.953 342 665.948 361.707 677.097 373.692C688.246 385.676 703.659 396.82 703.659 396.82V381.394V381.415Z" fill="#14CC97"/>
<path d="M686.258 434.904C686.258 434.904 686.258 426.34 674.269 414.336C662.279 402.351 654.552 395.489 654.552 395.489C654.552 395.489 648.547 415.196 659.697 427.18C670.846 439.165 686.258 450.309 686.258 450.309V434.883V434.904Z" fill="#14CC97"/>
<path d="M702.921 396.001C702.921 396.001 703.823 387.479 717.022 376.826C730.221 366.173 738.624 360.171 738.624 360.171C738.624 360.171 742.497 380.391 730.159 391.146C717.821 401.901 701.302 411.345 701.302 411.345L702.942 396.001H702.921Z" fill="#14CC97"/>
<path d="M681.873 459.179C681.873 459.179 683.676 450.801 697.92 441.582C712.164 432.363 721.141 427.283 721.141 427.283C721.141 427.283 722.883 447.81 709.459 457.192C696.055 466.595 678.634 474.237 678.634 474.237L681.873 459.159V459.179Z" fill="#14CC97"/>
<path d="M685.828 528.074C685.828 528.074 685.828 519.51 697.818 507.506C709.807 495.521 717.534 488.659 717.534 488.659C717.534 488.659 723.539 508.366 712.39 520.35C701.24 532.335 685.828 543.479 685.828 543.479V528.053V528.074Z" fill="#14CC97"/>
<path d="M685.623 544.893C685.623 544.893 686.832 536.411 676.667 522.829C666.501 509.247 659.84 501.38 659.84 501.38C659.84 501.38 651.109 520.023 660.414 533.482C669.719 546.941 683.43 560.155 683.43 560.155L685.623 544.893Z" fill="#14CC97"/>
<path d="M673.797 594.735C673.797 594.735 673.797 586.172 685.787 574.167C697.777 562.183 705.503 555.32 705.503 555.32C705.503 555.32 711.508 575.027 700.359 587.012C689.21 598.996 673.797 610.14 673.797 610.14V594.714V594.735Z" fill="#14CC97"/>
<path d="M681.811 639.906C681.811 639.906 679.638 631.609 688.205 616.982C696.772 602.335 702.491 593.751 702.491 593.751C702.491 593.751 713.291 611.287 705.544 625.709C697.797 640.132 685.705 654.82 685.705 654.82L681.79 639.906H681.811Z" fill="#14CC97"/>
<path d="M704.745 379.202C704.048 388.36 703.003 397.824 701.466 405.793C696.732 430.294 684.865 446.089 680.13 468.214C675.396 490.339 689.005 518.834 685.357 547.269C681.709 575.683 670.641 591.498 673.797 610.447C676.954 629.417 693.555 680.776 693.555 680.776" stroke="#263238" stroke-width="0.5" stroke-linecap="round" stroke-linejoin="round"/>
<path d="M702.798 401.696L715.731 391.781" stroke="#263238" stroke-width="0.5" stroke-linecap="round" stroke-linejoin="round"/>
<path d="M703.392 390.265L697.982 380.657" stroke="#263238" stroke-width="0.5" stroke-linecap="round" stroke-linejoin="round"/>
<path d="M680.848 467.23C680.848 467.23 691.669 459.118 702.798 451.006" stroke="#263238" stroke-width="0.5" stroke-linecap="round" stroke-linejoin="round"/>
<path d="M686.258 450.33C686.258 450.33 677.241 432.65 667.013 420.932" stroke="#263238" stroke-width="0.5" stroke-linecap="round" stroke-linejoin="round"/>
<path d="M686.259 540.263C686.259 540.263 694.682 523.731 709.418 509.308" stroke="#263238" stroke-width="0.5" stroke-linecap="round" stroke-linejoin="round"/>
<path d="M684.147 552.288C684.147 552.288 678.737 539.361 672.424 530.04C666.112 520.719 665.21 519.51 665.21 519.51" stroke="#263238" stroke-width="0.5" stroke-linecap="round" stroke-linejoin="round"/>
<path d="M673.797 610.468C673.797 610.468 678.142 599.467 683.553 590.76C688.964 582.033 696.178 574.228 696.178 574.228" stroke="#263238" stroke-width="0.5" stroke-linecap="round" stroke-linejoin="round"/>
<path d="M685.726 654.84C685.726 654.84 684.455 644.577 688.964 635.87C693.473 627.143 698.597 615.733 700.687 611.226" stroke="#263238" stroke-width="0.5" stroke-linecap="round" stroke-linejoin="round"/>
<path d="M625.081 495.849C625.081 495.849 624.158 490.482 630.368 481.653C636.599 472.823 640.677 467.702 640.677 467.702C640.677 467.702 646.58 479.399 640.903 488.147C635.226 496.874 626.761 505.539 626.761 505.539L625.081 495.87V495.849Z" fill="#14CC97"/>
<path d="M641.825 527.52C641.825 527.52 640.903 522.153 647.113 513.324C653.343 504.494 657.422 499.373 657.422 499.373C657.422 499.373 663.324 511.07 657.647 519.818C651.97 528.545 643.506 537.21 643.506 537.21L641.825 527.541V527.52Z" fill="#14CC97"/>
<path d="M627.15 504.925C627.15 504.925 625.654 499.68 616.227 494.436C606.799 489.191 600.876 486.323 600.876 486.323C600.876 486.323 600.63 499.434 609.545 504.822C618.461 510.23 629.835 514.348 629.835 514.348L627.15 504.904V504.925Z" fill="#14CC97"/>
<path d="M647.195 542.27C647.195 542.27 645.166 537.21 635.226 532.97C625.285 528.729 619.116 526.517 619.116 526.517C619.116 526.517 620.264 539.566 629.692 544.012C639.12 548.457 650.884 551.366 650.884 551.366L647.215 542.27H647.195Z" fill="#14CC97"/>
<path d="M652.196 585.905C652.196 585.905 651.273 580.538 642.44 574.31C633.606 568.083 628.032 564.62 628.032 564.62C628.032 564.62 626.413 577.629 634.693 583.939C642.973 590.248 653.876 595.554 653.876 595.554L652.196 585.885V585.905Z" fill="#14CC97"/>
<path d="M654.163 596.415C654.163 596.415 652.482 591.232 657.381 581.603C662.279 571.995 665.599 566.321 665.599 566.321C665.599 566.321 673.101 577.076 668.715 586.52C664.329 595.964 657.176 605.736 657.176 605.736L654.143 596.394L654.163 596.415Z" fill="#14CC97"/>
<path d="M669.227 639.763C669.227 639.763 669.842 634.355 678.306 627.635C686.771 620.916 692.141 617.146 692.141 617.146C692.141 617.146 694.498 630.032 686.586 636.813C678.675 643.594 668.1 649.514 668.1 649.514L669.227 639.763Z" fill="#14CC97"/>
<path d="M666.993 626.386C666.993 626.386 666.071 621.018 657.237 614.791C648.404 608.563 642.829 605.101 642.829 605.101C642.829 605.101 641.21 618.109 649.49 624.419C657.77 630.729 668.674 636.034 668.674 636.034L666.993 626.365V626.386Z" fill="#14CC97"/>
<path d="M666.87 655.598C666.87 655.598 667.321 650.17 660.373 641.914C653.405 633.658 648.896 628.905 648.896 628.905C648.896 628.905 644.038 641.074 650.453 649.289C656.868 657.504 666.05 665.391 666.05 665.391L666.87 655.619V655.598Z" fill="#14CC97"/>
<path d="M624.179 494.6C625.613 500.274 627.294 506.092 629.139 510.927C634.775 525.779 643.936 534.404 649.306 547.761C654.675 561.117 649.244 580.477 654.614 597.89C659.984 615.323 668.653 624.03 668.715 636.26C668.797 648.49 663.96 682.496 663.96 682.496" stroke="#263238" stroke-width="0.5" stroke-linecap="round" stroke-linejoin="round"/>
<path d="M627.847 508.489L618.645 503.675" stroke="#263238" stroke-width="0.5" stroke-linecap="round" stroke-linejoin="round"/>
<path d="M626.228 501.38L628.565 494.763" stroke="#263238" stroke-width="0.5" stroke-linecap="round" stroke-linejoin="round"/>
<path d="M648.732 547.187C648.732 547.187 641.067 543.274 633.197 539.382" stroke="#263238" stroke-width="0.5" stroke-linecap="round" stroke-linejoin="round"/>
<path d="M643.506 537.19C643.506 537.19 647.236 525.124 652.38 516.663" stroke="#263238" stroke-width="0.5" stroke-linecap="round" stroke-linejoin="round"/>
<path d="M653.261 593.588C653.261 593.588 646.191 584.144 635.369 576.687" stroke="#263238" stroke-width="0.5" stroke-linecap="round" stroke-linejoin="round"/>
<path d="M655.885 600.901C655.885 600.901 657.873 592.215 660.824 585.68C663.775 579.145 664.206 578.305 664.206 578.305" stroke="#263238" stroke-width="0.5" stroke-linecap="round" stroke-linejoin="round"/>
<path d="M668.284 645.54C668.284 645.54 674.372 638.083 678.163 635.297C681.955 632.511 684.578 629.725 684.578 629.725" stroke="#263238" stroke-width="0.5" stroke-linecap="round" stroke-linejoin="round"/>
<path d="M668.694 636.26C668.694 636.26 664.78 629.848 660.435 624.951C656.09 620.076 650.72 615.958 650.72 615.958" stroke="#263238" stroke-width="0.5" stroke-linecap="round" stroke-linejoin="round"/>
<path d="M666.05 665.37C666.05 665.37 665.722 658.794 661.951 653.816C658.18 648.838 653.733 642.221 651.929 639.64" stroke="#263238" stroke-width="0.5" stroke-linecap="round" stroke-linejoin="round"/>
<path d="M639.427 676.576H717.924V735.371C717.924 738.812 715.136 741.598 711.693 741.598H645.658C642.214 741.598 639.427 738.812 639.427 735.371V676.576Z" fill="#263238"/>
<path d="M717.247 686.819H639.427C636.025 686.819 633.279 684.074 633.279 680.673C633.279 677.273 636.025 674.527 639.427 674.527H717.247C720.649 674.527 723.396 677.273 723.396 680.673C723.396 684.074 720.649 686.819 717.247 686.819Z" fill="#263238"/>
<path d="M565.394 139.304C603.879 139.304 635.077 108.12 635.077 69.6521C635.077 31.1843 603.879 0 565.394 0C526.909 0 495.71 31.1843 495.71 69.6521C495.71 108.12 526.909 139.304 565.394 139.304Z" fill="#263238"/>
<path d="M588.113 125.631C619.045 113.089 633.949 77.8576 621.401 46.9394C608.853 16.0213 573.606 1.12445 542.674 13.6664C511.742 26.2084 496.838 61.4399 509.386 92.358C521.933 123.276 557.181 138.173 588.113 125.631Z" fill="white"/>
<path d="M526.187 80.7555L565.394 69.6521V14.8318" stroke="#263238" stroke-width="2" stroke-miterlimit="10"/>
<path d="M227.306 381.038H150.797L50.6372 112.365H127.146L227.306 381.038Z" fill="#263238"/>
<path opacity="0.2" d="M227.306 381.038H150.797L50.6372 112.365H127.146L227.306 381.038Z" fill="white"/>
<path d="M106.691 177.982H87.0161C84.5567 177.982 81.8308 175.995 80.929 173.536L73.3253 153.153C72.403 150.694 73.6532 148.707 76.1127 148.707H95.788C98.2474 148.707 100.973 150.694 101.875 153.153L109.479 173.536C110.401 175.995 109.151 177.982 106.691 177.982Z" fill="#263238"/>
<path d="M132.208 125.947H55.6995L50.6372 112.365H127.146L132.208 125.947Z" fill="#263238"/>
<path d="M81.8308 128.16L84.0238 134.06" stroke="#263238" stroke-linecap="round" stroke-linejoin="round"/>
<path d="M84.7822 128.16L86.9752 134.06" stroke="#263238" stroke-linecap="round" stroke-linejoin="round"/>
<path d="M87.7334 128.16L89.9264 134.06" stroke="#263238" stroke-linecap="round" stroke-linejoin="round"/>
<path d="M90.6848 128.16L92.8778 134.06" stroke="#263238" stroke-linecap="round" stroke-linejoin="round"/>
<path d="M93.636 128.16L95.829 134.06" stroke="#263238" stroke-linecap="round" stroke-linejoin="round"/>
<path d="M96.5669 128.16L98.7804 134.06" stroke="#263238" stroke-linecap="round" stroke-linejoin="round"/>
<path d="M99.5181 128.16L101.711 134.06" stroke="#263238" stroke-linecap="round" stroke-linejoin="round"/>
<path d="M102.469 128.16L104.662 134.06" stroke="#263238" stroke-linecap="round" stroke-linejoin="round"/>
<path d="M105.421 128.16L107.614 134.06" stroke="#263238" stroke-linecap="round" stroke-linejoin="round"/>
<path d="M108.372 128.16L110.565 134.06" stroke="#263238" stroke-linecap="round" stroke-linejoin="round"/>
<path d="M100.338 165.198L81.8104 153.46C81.38 153.194 80.8881 153.132 80.5807 153.337C80.2733 153.542 80.2118 153.952 80.3962 154.382L88.8812 172.676C89.0862 173.126 89.5371 173.495 90.029 173.618C90.1314 173.639 90.2339 173.659 90.3159 173.659C90.6643 173.659 90.9308 173.495 91.0332 173.208L92.9803 167.186L100.359 167.104C100.809 167.104 101.096 166.817 101.096 166.387C101.096 165.956 100.789 165.485 100.338 165.198Z" fill="white"/>
<path d="M99.9485 166.018L81.4414 154.279L89.9264 172.594L92.0169 166.12L99.9485 166.018Z" fill="#263238"/>
<path d="M134.585 166.018L116.058 154.279L124.543 172.594L126.654 166.12L134.585 166.018Z" fill="white"/>
<path d="M144.075 176.445L142.394 172.676L140.222 175.831L144.075 176.445Z" fill="white"/>
<path d="M188.836 296.513L187.155 292.744L184.983 295.919L188.836 296.513Z" fill="white"/>
<path d="M202.568 333.367L200.887 329.598L198.715 332.773L202.568 333.367Z" fill="white"/>
<path d="M216.648 371.164L214.988 367.394L212.815 370.549L216.648 371.164Z" fill="white"/>
<path d="M137.762 253.964L136.102 250.195L133.909 253.37L137.762 253.964Z" fill="white"/>
<path d="M153.625 296.513L151.965 292.744L149.772 295.919L153.625 296.513Z" fill="white"/>
<path d="M167.378 333.367L165.697 329.598L163.525 332.773L167.378 333.367Z" fill="white"/>
<path d="M181.458 371.164L179.777 367.394L177.604 370.549L181.458 371.164Z" fill="white"/>
<path d="M100.318 216.864L103.556 218.954L112.389 200.475L109.172 198.406L100.318 216.864Z" fill="white"/>
<path d="M104.294 198.795C99.6209 195.128 99.2725 194.411 100.42 190.273C98.0018 193.592 97.2844 193.653 92.1401 190.949C96.813 194.616 97.1615 195.333 96.0137 199.471C98.4321 196.153 99.1495 196.091 104.294 198.795Z" fill="white"/>
<path d="M119.747 200.782C116.857 198.529 116.652 198.078 117.349 195.518C115.853 197.566 115.423 197.607 112.225 195.948C115.115 198.201 115.32 198.652 114.623 201.213C116.119 199.164 116.55 199.123 119.747 200.782Z" fill="white"/>
<path d="M118.866 209.448C116.796 207.83 116.652 207.522 117.165 205.679C116.099 207.133 115.792 207.174 113.517 205.986C115.587 207.604 115.73 207.912 115.218 209.755C116.283 208.301 116.591 208.26 118.866 209.448Z" fill="white"/>
<path d="M165.328 291.33L167.316 292.744L176.15 274.265L174.162 272.872L165.328 291.33Z" fill="white"/>
<path d="M157.909 212.111L141.554 201.745L149.055 217.888L150.9 212.193L157.909 212.111Z" fill="white"/>
<path d="M145.612 213.053C139.627 213.053 133.438 209.53 131.819 205.187C130.2 200.844 133.766 197.32 139.75 197.32C145.735 197.32 151.924 200.844 153.544 205.187C155.163 209.53 151.596 213.053 145.612 213.053ZM140.099 198.263C134.626 198.263 131.327 201.377 132.761 205.187C134.176 208.997 139.791 212.111 145.263 212.111C150.736 212.111 154.035 208.997 152.601 205.187C151.187 201.377 145.571 198.263 140.099 198.263Z" fill="white"/>
<path d="M138.398 211.476C136.922 211.476 135.282 210.267 134.729 208.792C134.176 207.317 134.934 206.109 136.41 206.109C137.885 206.109 139.525 207.317 140.078 208.792C140.632 210.267 139.873 211.476 138.398 211.476ZM136.758 207.072C135.795 207.072 135.323 207.85 135.672 208.813C136.02 209.776 137.086 210.554 138.049 210.554C139.012 210.554 139.484 209.776 139.135 208.813C138.787 207.85 137.721 207.072 136.758 207.072Z" fill="white"/>
<path d="M138.664 214.283L138.008 213.402C139.197 212.91 139.832 212.193 139.914 211.271C140.037 210.104 139.218 208.977 139.218 208.977L139.976 208.649C139.976 208.649 141.062 210.145 140.919 211.681C140.796 212.849 140.037 213.73 138.644 214.303L138.664 214.283Z" fill="white"/>
<path d="M128.416 240.914L117.021 232.618L114.603 236.469L125.998 244.766L128.416 240.914Z" fill="white"/>
<path d="M110.155 251.669L112.02 253.022L116.201 246.364C115.73 245.872 115.545 245.216 115.832 244.786C116.16 244.274 116.98 244.274 117.677 244.786C118.374 245.298 118.681 246.118 118.374 246.63C118.107 247.06 117.492 247.122 116.877 246.835L112.696 253.493L114.439 254.763L124.748 251.874L125.383 245.79L114.131 237.596L108.946 240.382L110.155 251.669Z" fill="white"/>
<path d="M99.3542 225.611H165.205" stroke="#263238" stroke-linecap="round" stroke-linejoin="round"/>
<path d="M156.638 232.618L154.22 236.469L165.615 244.766L168.033 240.914L156.638 232.618Z" fill="white"/>
<path d="M148.542 240.382L149.752 251.669L151.617 253.022L155.798 246.364C155.326 245.872 155.142 245.216 155.429 244.786C155.757 244.274 156.577 244.274 157.273 244.786C157.97 245.298 158.278 246.118 157.97 246.63C157.704 247.06 157.089 247.122 156.474 246.835L152.293 253.493L154.035 254.763L164.344 251.874L164.98 245.79L153.728 237.596L148.542 240.382Z" fill="white"/>
<path d="M145.735 243.7C145.837 242.901 145.96 242.041 146.042 241.078C146.206 239.132 145.653 237.411 144.423 235.936C142.476 233.621 139.545 232.863 139.422 232.843C139.115 232.761 138.869 232.925 138.91 233.212C138.93 233.498 139.217 233.785 139.525 233.867C139.545 233.867 142.046 234.502 143.624 236.387C144.607 237.555 145.038 238.989 144.894 240.628C144.812 241.57 144.71 242.43 144.607 243.209C144.054 247.306 143.726 249.764 150.531 253.841C150.653 253.923 150.776 253.943 150.899 253.943C151.063 253.943 151.186 253.882 151.248 253.739C151.35 253.513 151.166 253.165 150.879 252.981C144.976 249.436 145.202 247.757 145.755 243.68L145.735 243.7Z" fill="white"/>
<path d="M116.591 271.09L116.98 272.155C117.124 272.524 118.374 275.843 119.03 276.97L120.936 276.498C120.628 275.986 120.014 274.491 119.522 273.221H127.658L134.463 291.474H131.409L132.208 293.604H140.447L139.648 291.474H136.594L129.79 273.221H137.701C138.131 274.368 138.808 276.171 139.136 277.072H141.288C140.775 275.699 139.463 272.155 139.463 272.155L139.074 271.09H116.591Z" fill="white"/>
<path opacity="0.44" d="M159.385 321.752C161.127 326.443 157.274 330.254 150.777 330.254C144.28 330.254 137.578 326.443 135.836 321.752C134.094 317.061 137.947 313.25 144.444 313.25C150.941 313.25 157.643 317.061 159.385 321.752Z" fill="white"/>
<path d="M159.385 321.752C161.127 326.443 157.274 330.254 150.777 330.254C144.28 330.254 137.578 326.443 135.836 321.752C134.094 317.061 137.947 313.25 144.444 313.25C150.941 313.25 157.643 317.061 159.385 321.752Z" stroke="white" stroke-miterlimit="10"/>
<path d="M183.63 321.998L191.357 307.965C191.685 307.391 192.505 307.268 193.325 307.678C194.308 308.17 194.944 309.214 194.739 309.993L190.578 325.501L183.63 321.998Z" fill="white"/>
<path d="M182.339 323.165C185.372 322.756 191.316 325.357 191.48 329.291C191.521 330.274 190.865 330.95 190.107 331.401C187.811 332.794 184.594 332.855 181.458 332.896C182.216 332.364 182.524 331.38 182.278 330.315C182.032 329.209 181.273 328.102 180.864 326.996C180.31 325.419 180.597 323.288 182.319 323.186" fill="white"/>
<path d="M166.271 353.956C165.369 351.989 164.242 350.78 163.463 350.125L161.127 353.833C162.028 354.591 163.34 355.963 164.365 358.176C165.267 360.142 166.087 361.556 166.681 362.457L168.956 358.811C168.218 357.766 167.234 356.066 166.25 353.956H166.271Z" fill="white"/>
<path d="M163.566 358.258C162.664 356.291 161.537 355.082 160.758 354.427L158.421 358.135C159.323 358.893 160.635 360.265 161.66 362.478C162.561 364.445 163.381 365.858 163.976 366.759L166.251 363.113C165.513 362.068 164.529 360.368 163.545 358.258H163.566Z" fill="white"/>
<path d="M167.05 353.894C167.952 355.861 168.772 357.274 169.366 358.176L172.727 352.808L165.205 347.318L163.812 349.531C164.714 350.289 166.025 351.661 167.05 353.874V353.894Z" fill="white"/>
<path d="M160.881 362.539C159.979 360.573 158.852 359.364 158.073 358.708L156.126 361.822L156.454 368.91C156.474 369.402 157.13 369.873 157.54 369.689L163.525 367.333C162.787 366.288 161.824 364.608 160.881 362.539ZM158.237 367.272L158.053 363.502L161.475 366.001L158.237 367.272Z" fill="white"/>
<path d="M190.414 357.315L187.852 361.413L201.092 371.061L203.654 366.964L204.453 367.558L210.499 357.909L195.64 347.093L189.594 356.742L190.394 357.336L190.414 357.315ZM200.211 368.706L190.168 361.392L191.992 358.463L202.035 365.776L200.19 368.706H200.211Z" fill="white"/>
<path d="M65.4142 115.95L65.8856 117.241L64.041 119.515L67.5662 121.768L68.0581 123.059L62.5039 119.515L65.4142 115.95Z" fill="white"/>
<path d="M60.7824 115.95L61.2538 117.241L59.4297 119.515L62.9549 121.768L63.4263 123.059L57.8721 119.515L60.7824 115.95Z" fill="white"/>
<path d="M375.465 273.487H217.222L168.853 138.628H327.096L375.465 273.487Z" fill="#263238"/>
<path d="M364.254 266.133H223.186L180.085 145.983H321.153L364.254 266.133Z" fill="#14CC97"/>
<path d="M337.426 191.338L314.103 174.171L295.677 222.006L247.903 208.506L223.186 266.133H364.254L337.426 191.338Z" fill="white"/>
<path d="M240.217 171.733C236.938 162.597 226.875 155.181 217.714 155.181C208.552 155.181 203.818 162.597 207.097 171.733C210.377 180.87 220.44 188.286 229.601 188.286C238.762 188.286 243.497 180.87 240.217 171.733Z" fill="white"/>
<path d="M391.861 250.276H233.618L185.25 115.397H343.493L391.861 250.276Z" fill="#263238"/>
<path d="M380.651 242.922H239.582L196.481 122.752H337.549L380.651 242.922Z" fill="#14CC97"/>
<path d="M353.822 168.128L330.499 150.961L312.074 198.775L264.299 185.295L239.582 242.922H380.65L353.822 168.128Z" fill="white"/>
<path d="M256.614 148.502C253.335 139.366 243.271 131.95 234.11 131.95C224.949 131.95 220.214 139.366 223.494 148.502C226.773 157.639 236.836 165.055 245.997 165.055C255.159 165.055 259.893 157.639 256.614 148.502Z" fill="white"/>
<path d="M392.579 94.2351L396.391 103.454H395.284C394.485 101.835 393.768 100.668 393.132 99.9712C392.128 98.8445 391.021 98.025 389.832 97.4924C388.644 96.9598 387.23 96.6935 385.61 96.6935H380.077L391.062 126.746C391.943 129.164 392.763 130.68 393.501 131.274C394.526 132.093 395.817 132.482 397.334 132.482H398.707L399.096 133.548H382.413L382.024 132.482H383.417C385.078 132.482 386.082 131.97 386.41 130.966C386.615 130.352 386.307 128.938 385.508 126.726L374.523 96.673H369.788C367.944 96.673 366.693 96.8164 366.017 97.0827C365.136 97.4514 364.541 98.1479 364.214 99.1927C363.886 100.238 363.968 101.651 364.48 103.433H363.373L360.463 94.2147H392.599L392.579 94.2351Z" fill="black"/>
<path d="M416.538 112.775H428.589" stroke="#263238" stroke-width="0.5" stroke-miterlimit="10"/>
<path d="M428.199 144.672H367.595L345.153 83.3367H405.757L428.199 144.672Z" stroke="#263238" stroke-width="0.5" stroke-miterlimit="10"/>
<path d="M358.967 115.049H354.437L352.777 110.501H357.307L358.967 115.049Z" fill="white" stroke="#263238" stroke-width="0.5" stroke-miterlimit="10"/>
<path d="M419.632 115.049H415.103L413.443 110.501H417.972L419.632 115.049Z" fill="white" stroke="#263238" stroke-width="0.5" stroke-miterlimit="10"/>
<path d="M348.33 85.9384H343.78L342.12 81.3905H346.67L348.33 85.9384Z" fill="white" stroke="#263238" stroke-width="0.5" stroke-miterlimit="10"/>
<path d="M408.995 85.9384H404.446L402.785 81.3905H407.335L408.995 85.9384Z" fill="white" stroke="#263238" stroke-width="0.5" stroke-miterlimit="10"/>
<path d="M378.683 85.9384H374.133L372.473 81.3905H377.023L378.683 85.9384Z" fill="white" stroke="#263238" stroke-width="0.5" stroke-miterlimit="10"/>
<path d="M370.505 146.577H365.976L364.316 142.029H368.845L370.505 146.577Z" fill="white" stroke="#263238" stroke-width="0.5" stroke-miterlimit="10"/>
<path d="M431.171 146.577H426.642L424.981 142.029H429.511L431.171 146.577Z" fill="white" stroke="#263238" stroke-width="0.5" stroke-miterlimit="10"/>
<path d="M398.235 145.737L402.642 157.782" stroke="#263238" stroke-width="0.5" stroke-miterlimit="10"/>
<path d="M400.859 146.577H396.329L394.669 142.029H399.199L400.859 146.577Z" fill="white" stroke="#263238" stroke-width="0.5" stroke-miterlimit="10"/>
<path d="M405.798 160.056H401.248L399.588 155.509H404.138L405.798 160.056Z" fill="#263238"/>
<path d="M363.968 133.158H414.857" stroke="#263238" stroke-width="0.5" stroke-miterlimit="10"/>
<path d="M430.966 112.775C430.474 111.464 429.019 110.378 427.707 110.378C426.396 110.378 425.699 111.443 426.191 112.775C426.683 114.086 428.138 115.172 429.45 115.172C430.761 115.172 431.458 114.106 430.966 112.775Z" fill="#263238"/>
<path opacity="0.2" d="M150.1 438.03L205.007 485.066L152.682 740.955H156.208L214.414 489.777L267.742 534.457L192.443 740.648L197.157 739.87L276.371 539.169L498.754 742H632.875L474.026 432.54L150.1 438.03Z" fill="black"/>
<path d="M156.208 740.955H152.683L147.374 433.646H161.536L156.208 740.955Z" fill="#263238" stroke="#263238" stroke-linecap="round" stroke-linejoin="round"/>
<path d="M461.299 740.955H457.753L452.445 433.646H466.607L461.299 740.955Z" fill="#263238" stroke="#263238" stroke-linecap="round" stroke-linejoin="round"/>
<path d="M482.921 428.914H141.964V436.883H482.921V428.914Z" fill="white" stroke="#263238" stroke-linecap="round" stroke-linejoin="round"/>
<path d="M64.9635 593.887L58.7739 606.957C58.7739 606.957 66.3571 615.213 69.8003 615.213C73.2435 615.213 74.6167 611.771 78.7567 610.398C82.8967 609.026 89.7831 595.935 89.7831 595.935C89.7831 595.935 85.6431 589.052 81.5236 588.356C77.404 587.659 71.194 585.61 67.7508 584.914C64.3076 584.217 65.0045 593.866 65.0045 593.866L64.9635 593.887Z" fill="white" stroke="#263238" stroke-linecap="round" stroke-linejoin="round"/>
<path d="M64.9634 593.887L69.1034 600.77V606.957C69.1034 606.957 73.2434 609.026 74.6166 606.957C75.9898 604.888 82.1998 598.004 82.1998 598.004L79.4535 591.818" stroke="#263238" stroke-linecap="round" stroke-linejoin="round"/>
<path d="M69.1035 606.977L61.5203 605.584" stroke="#263238" stroke-linecap="round" stroke-linejoin="round"/>
<path d="M183.651 717.745L169.735 721.719C169.735 721.719 168.525 732.863 170.8 735.444C173.075 738.026 176.58 736.797 180.331 738.989C184.102 741.181 198.469 737.718 198.469 737.718C198.469 737.718 200.908 730.077 198.694 726.513C196.481 722.948 193.939 716.946 192.177 713.893C190.414 710.861 183.63 717.745 183.63 717.745H183.651Z" fill="white" stroke="#263238" stroke-linecap="round" stroke-linejoin="round"/>
<path d="M183.651 717.745L181.212 725.386L176.56 729.483C176.56 729.483 177.728 733.949 180.208 733.621C182.688 733.293 191.931 733.396 191.931 733.396L194.759 727.23" stroke="#263238" stroke-linecap="round" stroke-linejoin="round"/>
<path d="M176.539 729.483L172.583 722.887" stroke="#263238" stroke-linecap="round" stroke-linejoin="round"/>
<path d="M42.9309 591.142C42.9309 591.142 31.2282 598.721 33.2982 602.839C35.3682 606.957 36.7414 609.722 38.8114 611.095C40.8814 612.467 47.0709 614.537 49.141 613.164C51.211 611.791 56.0273 608.35 56.7242 602.839C57.421 597.328 59.4705 596.652 57.421 593.887C55.351 591.142 42.9514 591.142 42.9514 591.142H42.9309Z" fill="white" stroke="#263238" stroke-linecap="round" stroke-linejoin="round"/>
<path d="M33.2776 602.839L41.5371 608.35L48.4235 607.653L51.1699 600.074C51.1699 600.074 51.1699 595.935 47.0298 595.935C42.8898 595.935 40.8403 598.004 40.8403 598.004L42.2135 602.143" stroke="#263238" stroke-linecap="round" stroke-linejoin="round"/>
<path d="M93.8819 581.493C93.8819 581.493 83.5523 591.121 84.9255 598.004C86.2987 604.888 99.3951 610.398 99.3951 610.398L115.238 601.446L110.422 589.052L100.092 583.541L93.9024 581.472L93.8819 581.493Z" fill="white" stroke="#263238" stroke-linecap="round" stroke-linejoin="round"/>
<path d="M84.9255 598.025L95.9519 602.143L108.352 598.025L103.535 587.004" stroke="#263238" stroke-linecap="round" stroke-linejoin="round"/>
<path d="M93.8819 581.493L93.2056 595.956L101.465 598.701" stroke="#263238" stroke-linecap="round" stroke-linejoin="round"/>
<path d="M124.871 710.923C124.871 710.923 114.541 720.551 115.914 727.434C117.287 734.318 130.384 739.829 130.384 739.829L146.227 730.876L141.41 718.482L131.081 712.971L124.891 710.902L124.871 710.923Z" fill="white" stroke="#263238" stroke-linecap="round" stroke-linejoin="round"/>
<path d="M115.935 727.434L126.941 731.573L139.34 727.434L134.524 716.434" stroke="#263238" stroke-linecap="round" stroke-linejoin="round"/>
<path d="M124.871 710.923L124.194 725.365L132.454 728.131" stroke="#263238" stroke-linecap="round" stroke-linejoin="round"/>
<path d="M56.0069 571.168C56.0069 571.168 45.6773 580.796 47.0505 587.68C48.4237 594.563 61.5201 600.074 61.5201 600.074L77.3629 591.121L72.5465 578.727L62.2169 573.216L56.0274 571.147L56.0069 571.168Z" fill="white" stroke="#263238" stroke-linecap="round" stroke-linejoin="round"/>
<path d="M47.0505 587.7L58.0769 591.818L70.4765 587.7L65.6601 576.679" stroke="#263238" stroke-linecap="round" stroke-linejoin="round"/>
<path d="M56.0069 571.168L55.3306 585.631L63.5901 588.376" stroke="#263238" stroke-linecap="round" stroke-linejoin="round"/>
<path d="M113.803 740.955H32.0686L19.8125 605.543H126.059L113.803 740.955Z" fill="#263238" stroke="#263238" stroke-linecap="round" stroke-linejoin="round"/>
<path d="M59.45 718.482C59.45 718.482 47.7472 726.062 49.8172 730.18C51.8873 734.297 53.2604 737.063 55.3304 738.435C57.4005 739.808 63.59 741.877 65.66 740.505C67.73 739.132 72.5464 735.69 73.2432 730.18C73.9401 724.669 75.9896 723.993 73.9401 721.227C71.87 718.482 59.4705 718.482 59.4705 718.482H59.45Z" fill="white" stroke="#263238" stroke-linecap="round" stroke-linejoin="round"/>
<path d="M49.8171 730.2L58.0767 735.711L64.9631 735.014L67.7094 727.434C67.7094 727.434 67.7094 723.296 63.5694 723.296C59.4294 723.296 57.3799 725.365 57.3799 725.365L58.753 729.504" stroke="#263238" stroke-linecap="round" stroke-linejoin="round"/>
<path d="M276.166 335.252C276.166 337.383 274.137 339.124 271.637 339.124C269.136 339.124 267.107 337.383 267.107 335.252C267.107 333.122 269.136 331.38 271.637 331.38C274.137 331.38 276.166 333.122 276.166 335.252Z" fill="#808080" stroke="#263238" stroke-linecap="round" stroke-linejoin="round"/>
<path d="M280.511 347.052C280.511 349.183 278.482 350.924 275.982 350.924C273.481 350.924 271.452 349.183 271.452 347.052C271.452 344.921 273.481 343.18 275.982 343.18C278.482 343.18 280.511 344.921 280.511 347.052Z" fill="#808080" stroke="#263238" stroke-linecap="round" stroke-linejoin="round"/>
<path d="M284.877 358.852C284.877 360.982 282.847 362.724 280.347 362.724C277.847 362.724 275.818 360.982 275.818 358.852C275.818 356.721 277.847 354.98 280.347 354.98C282.847 354.98 284.877 356.721 284.877 358.852Z" fill="#808080" stroke="#263238" stroke-linecap="round" stroke-linejoin="round"/>
<path d="M289.221 370.652C289.221 372.782 287.192 374.524 284.692 374.524C282.192 374.524 280.163 372.782 280.163 370.652C280.163 368.521 282.192 366.78 284.692 366.78C287.192 366.78 289.221 368.521 289.221 370.652Z" fill="#808080" stroke="#263238" stroke-linecap="round" stroke-linejoin="round"/>
<path d="M227.839 428.156H196.788L192.136 376.716H232.491L227.839 428.156Z" fill="#263238" stroke="#263238" stroke-linecap="round" stroke-linejoin="round"/>
<path d="M230.954 393.616L195.313 411.767L196.788 428.156H213.41L229.519 409.636L230.954 393.616Z" fill="#14CC97" stroke="#263238" stroke-linecap="round" stroke-linejoin="round"/>
<path d="M236.098 370.549H188.549V381.735H236.098V370.549Z" fill="#14CC97" stroke="#263238" stroke-linecap="round" stroke-linejoin="round"/>
<path d="M320.271 430.673H264.421C260.507 430.673 257.33 427.497 257.33 423.585C257.33 419.672 260.507 416.496 264.421 416.496H320.271C324.185 416.496 327.362 419.672 327.362 423.585C327.362 427.497 324.185 430.673 320.271 430.673Z" fill="#263238" stroke="#263238" stroke-linecap="round" stroke-linejoin="round"/>
<path d="M468.799 430.857H296.886L255.875 319.291H427.809L468.799 430.857Z" fill="#263238" stroke="#263238" stroke-linecap="round" stroke-linejoin="round"/>
<path d="M457.896 419.242H311.089L276.062 323.982H422.89L457.896 419.242Z" fill="#808080" stroke="#263238" stroke-linecap="round" stroke-linejoin="round"/>
<path d="M486.753 470.702C486.753 470.702 479.334 481.601 473.247 487.111C467.16 492.622 448.55 509.871 433.117 535.991C417.684 562.11 406.965 588.804 396.759 611.912C386.552 635.02 368.147 677.671 358.802 690.66C349.456 703.648 343.307 710.592 343.307 710.592C343.307 710.592 328.038 710.941 309.962 709.343C291.885 707.745 284.404 704.467 284.179 709.179C283.953 713.891 296.394 726.838 305.371 729.071C314.348 731.304 325.784 734.786 328.571 737.449C331.338 740.133 334.822 743.206 339.29 741.239C343.738 739.273 357.367 720.344 372.533 707.274C387.7 694.204 405.756 681.297 422.111 650.876C438.466 620.454 439.307 603.062 450.763 591.651C462.22 580.22 474.333 562.295 488.966 552.851C503.6 543.407 547.275 525.912 561.232 507.7C575.19 489.508 567.914 467.363 554.49 459.455C541.065 451.548 497.267 448.7 486.774 470.702H486.753Z" fill="#263238" stroke="#263238" stroke-linecap="round" stroke-linejoin="round"/>
<path d="M369.603 671.464C365.483 679.741 361.712 686.624 358.802 690.66C349.456 703.648 343.307 710.592 343.307 710.592C343.307 710.592 328.038 710.941 309.962 709.343C291.885 707.745 284.404 704.467 284.179 709.179C283.953 713.891 296.394 726.838 305.371 729.071C314.348 731.324 325.784 734.786 328.571 737.449C331.338 740.133 334.822 743.206 339.29 741.239C343.738 739.273 357.367 720.344 372.533 707.274C379.584 701.189 387.269 695.125 395.119 687.341C382.74 684.37 374.378 676.975 369.623 671.464H369.603Z" fill="white" stroke="#263238" stroke-linecap="round" stroke-linejoin="round"/>
<path d="M339.29 741.239C340.643 740.645 342.877 738.433 345.746 735.319C333.49 732.881 327.157 726.715 321.541 725.137C313.651 722.945 306.969 718.623 306.969 718.623L313.077 709.589C312.052 709.507 311.007 709.425 309.962 709.322C291.885 707.724 284.404 704.447 284.179 709.158C283.953 713.87 296.394 726.817 305.371 729.05C314.348 731.304 325.784 734.766 328.571 737.429C331.338 740.113 334.822 743.185 339.29 741.219V741.239Z" fill="#14CC97" stroke="#263238" stroke-linecap="round" stroke-linejoin="round"/>
<path d="M360.523 528.37C360.523 528.37 363.782 543.591 371.037 558.095C378.293 572.599 394.258 587.82 405.859 596.527C417.459 605.233 454.821 638.584 473.329 665.052C475.645 668.371 466.791 679.556 455.928 689.348C445.045 699.141 440.331 702.767 446.132 704.569C451.932 706.372 465.725 705.655 479.498 694.06C493.291 682.465 502.35 674.844 506.695 665.421C508.867 660.709 496.898 654.912 489.643 648.745C482.387 642.579 455.539 601.976 447.197 583.129C438.856 564.282 417.807 537.445 402.21 528.022" fill="#263238"/>
<path d="M360.523 528.37C360.523 528.37 363.782 543.591 371.037 558.095C378.293 572.599 394.258 587.82 405.859 596.527C417.459 605.233 454.821 638.584 473.329 665.052C475.645 668.371 466.791 679.556 455.928 689.348C445.045 699.141 440.331 702.767 446.132 704.569C451.932 706.372 465.725 705.655 479.498 694.06C493.291 682.465 502.35 674.844 506.695 665.421C508.867 660.709 496.898 654.912 489.643 648.745C482.387 642.579 455.539 601.976 447.197 583.129C438.856 564.282 417.807 537.445 402.21 528.022" stroke="#263238" stroke-linecap="round" stroke-linejoin="round"/>
<path d="M506.695 665.421C508.867 660.709 496.898 654.912 489.643 648.745C483.535 643.562 463.593 614.042 452.444 593.556L427.747 615.374C443.098 629.57 461.831 648.643 473.308 665.073C475.624 668.391 466.77 679.577 455.908 689.369C445.025 699.161 440.311 702.787 446.111 704.59C451.911 706.393 465.704 705.676 479.477 694.081C493.27 682.486 502.329 674.865 506.674 665.441L506.695 665.421Z" fill="white" stroke="#263238" stroke-linecap="round" stroke-linejoin="round"/>
<path d="M499.255 655.813C497.308 658.722 494.766 662.676 491.836 667.613C484.949 679.208 466.073 694.081 463.552 691.54C462.138 690.127 460.703 687.689 459.74 685.804C458.51 686.993 457.24 688.201 455.949 689.369C445.066 699.161 440.352 702.787 446.152 704.59C451.952 706.393 465.745 705.676 479.518 694.081C493.311 682.486 502.37 674.865 506.715 665.441C508.027 662.573 504.133 659.316 499.255 655.813Z" fill="#14CC97" stroke="#263238" stroke-linecap="round" stroke-linejoin="round"/>
<path d="M597.734 688.98H474.415V694.777H597.734V688.98Z" fill="white" stroke="#263238" stroke-linecap="round" stroke-linejoin="round"/>
<path d="M485.667 533.451L464.085 739.662C463.983 740.645 464.762 741.485 465.745 741.485C466.565 741.485 467.262 740.891 467.385 740.072L499.46 533.451H485.667Z" fill="white" stroke="#263238" stroke-linecap="round" stroke-linejoin="round"/>
<path d="M584.331 533.451L605.912 739.662C606.014 740.645 605.236 741.485 604.252 741.485C603.432 741.485 602.735 740.891 602.612 740.072L570.537 533.451H584.331Z" fill="white" stroke="#263238" stroke-linecap="round" stroke-linejoin="round"/>
<path d="M545.144 533.451L546.23 739.826C546.23 740.748 545.492 741.485 544.57 741.485H544.549C543.668 741.485 542.93 740.789 542.889 739.908L531.371 533.43H545.164L545.144 533.451Z" fill="white" stroke="#263238" stroke-linecap="round" stroke-linejoin="round"/>
<path d="M591.196 502.271H476.997C471.372 502.271 466.811 506.829 466.811 512.453V525.441C466.811 531.064 471.372 535.622 476.997 535.622H591.196C596.822 535.622 601.383 531.064 601.383 525.441V512.453C601.383 506.829 596.822 502.271 591.196 502.271Z" fill="#14CC97"/>
<path opacity="0.2" d="M591.196 502.271H479.6L476.28 509.257C476.28 509.257 579.33 511.039 579.33 517C579.33 522.962 581.113 530.685 560.864 530.685C544.467 530.685 489.438 531.463 469.066 531.771C469.885 532.795 470.869 533.635 472.017 534.29L478.002 535.643H591.196C596.812 535.643 601.382 531.095 601.382 525.461V512.473C601.382 506.86 596.833 502.292 591.196 502.292V502.271Z" fill="black"/>
<path d="M591.196 502.271H476.997C471.372 502.271 466.811 506.829 466.811 512.453V525.441C466.811 531.064 471.372 535.622 476.997 535.622H591.196C596.822 535.622 601.383 531.064 601.383 525.441V512.453C601.383 506.829 596.822 502.271 591.196 502.271Z" stroke="#263238" stroke-linecap="round" stroke-linejoin="round"/>
<path d="M363.434 541.42C360.892 533.082 350.378 516.406 400.796 481.601C427.522 463.143 485.318 448.967 485.318 448.967L490.75 442.8C490.75 442.8 506.346 459.107 536.823 458.021C567.299 456.936 586.154 443.517 589.782 444.603C593.41 445.689 593.779 455.112 592.324 472.874C590.868 490.635 589.065 499.71 574.923 504.053C560.781 508.396 529.588 509.851 507.105 509.482C484.621 509.113 473.739 507.679 473.739 507.679C473.739 507.679 425.493 538.142 395.386 540.313" fill="#263238"/>
<path d="M363.434 541.42C360.892 533.082 350.378 516.406 400.796 481.601C427.522 463.143 485.318 448.967 485.318 448.967L490.75 442.8C490.75 442.8 506.346 459.107 536.823 458.021C567.299 456.936 586.154 443.517 589.782 444.603C593.41 445.689 593.779 455.112 592.324 472.874C590.868 490.635 589.065 499.71 574.923 504.053C560.781 508.396 529.588 509.851 507.105 509.482C484.621 509.113 473.739 507.679 473.739 507.679C473.739 507.679 425.493 538.142 395.386 540.313" stroke="#263238" stroke-linecap="round" stroke-linejoin="round"/>
<path d="M475.153 341.661C472.96 342.358 406.596 355.448 400.796 354.342C394.996 353.256 379.768 340.207 374.316 340.555C368.885 340.924 358.002 342.727 356.916 345.636C355.83 348.545 359.457 358.316 359.457 358.316C359.457 358.316 355.83 363.745 357.654 366.285C359.458 368.826 369.992 362.659 369.992 362.659C369.992 362.659 381.961 371.366 387.392 369.543C392.824 367.74 398.644 365.548 398.644 365.548C398.644 365.548 483.884 370.628 484.97 370.977C486.056 371.346 496.57 373.517 497.656 358.296C498.743 343.075 487.86 337.626 475.173 341.62L475.153 341.661Z" fill="white" stroke="#263238" stroke-linecap="round" stroke-linejoin="round"/>
<path d="M359.437 358.337L374.316 346.004" stroke="#263238" stroke-linecap="round" stroke-linejoin="round"/>
<path d="M364.868 352.908L372.861 327.874L376.12 328.612L372.123 346.742L364.868 352.908Z" fill="#263238"/>
<path d="M423.279 368.129C423.279 368.129 335.13 392.426 320.988 390.602C306.846 388.8 302.481 382.633 299.222 382.633C295.963 382.633 286.884 386.976 282.908 386.628C278.911 386.259 274.198 385.174 274.198 387.714C274.198 390.254 277.825 394.249 279.998 394.249C282.17 394.249 290.881 393.88 290.881 393.88C290.881 393.88 273.829 398.961 273.111 402.218C272.394 405.475 274.566 408.384 277.825 409.101C281.084 409.818 282.539 411.273 282.539 411.273C282.539 411.273 283.994 416.701 286.167 419.242C288.339 421.782 294.877 422.868 302.132 421.413C309.388 419.959 322.074 413.444 324.985 411.621C327.895 409.798 416.024 401.829 422.562 400.374C429.1 398.92 437.073 398.92 439.614 394.577C442.155 390.234 423.3 368.109 423.3 368.109L423.279 368.129Z" fill="white"/>
<path d="M316.684 408.159C301.538 408.159 304.899 393.02 299.857 395.539C295.451 397.731 278.256 399.944 273.378 405.496C274.095 407.278 275.735 408.63 277.825 409.101C281.084 409.818 282.539 411.273 282.539 411.273C282.539 411.273 283.994 416.701 286.167 419.242C288.339 421.782 294.877 422.868 302.132 421.413C309.388 419.959 322.074 413.444 324.985 411.621C327.895 409.818 416.024 401.829 422.562 400.374C427.829 399.206 434.06 398.981 437.585 396.625C438.835 395.355 439.593 394.556 439.593 394.556L430.248 385.419C430.248 385.419 331.83 408.118 316.684 408.118V408.159Z" fill="#14CC97"/>
<path opacity="0.5" d="M316.889 408.036C301.743 408.036 305.104 392.897 300.063 395.416C295.656 397.608 278.461 399.821 273.583 405.373C274.3 407.155 275.94 408.507 278.03 408.978C281.289 409.695 282.744 411.15 282.744 411.15C282.744 411.15 284.199 416.578 286.372 419.119C288.544 421.659 295.082 422.745 302.337 421.29C309.593 419.836 322.279 413.321 325.19 411.498C328.1 409.695 416.229 401.706 422.767 400.251C428.034 399.083 434.265 398.858 437.79 396.502C439.04 395.232 439.799 394.433 439.799 394.433L430.453 385.296C430.453 385.296 332.035 407.995 316.889 407.995V408.036Z" fill="white"/>
<path d="M423.279 368.129C423.279 368.129 335.13 392.426 320.988 390.602C306.846 388.8 302.481 382.633 299.222 382.633C295.963 382.633 286.884 386.976 282.908 386.628C278.911 386.259 274.198 385.174 274.198 387.714C274.198 390.254 277.825 394.249 279.998 394.249C282.17 394.249 290.881 393.88 290.881 393.88C290.881 393.88 273.829 398.961 273.111 402.218C272.394 405.475 274.566 408.384 277.825 409.101C281.084 409.818 282.539 411.273 282.539 411.273C282.539 411.273 283.994 416.701 286.167 419.242C288.339 421.782 294.877 422.868 302.132 421.413C309.388 419.959 322.074 413.444 324.985 411.621C327.895 409.798 416.024 401.829 422.562 400.374C429.1 398.92 437.073 398.92 439.614 394.577C442.155 390.234 423.3 368.109 423.3 368.109L423.279 368.129Z" stroke="#263238" stroke-linecap="round" stroke-linejoin="round"/>
<path d="M497.636 279.302C497.636 279.302 489.663 301.058 479.497 315.562C469.332 330.066 464.987 345.287 471.525 361.615C478.063 377.922 492.204 381.548 492.204 381.548C492.204 381.548 487.122 429.403 488.577 442.104C490.032 454.785 509.605 469.657 538.995 470.743C568.385 471.829 593.758 461.32 593.758 451.159C593.758 440.998 573.078 386.976 573.078 375.75C573.078 364.524 574.882 329.349 565.106 297.801C555.309 266.253 520.857 256.112 497.636 279.302Z" fill="#14CC97"/>
<path opacity="0.2" d="M565.106 297.781C559.838 280.777 547.398 270.022 533.42 267.318C526.677 268.813 508.273 273.136 503.661 274.201C501.591 275.676 499.583 277.356 497.636 279.282C497.636 279.282 489.663 301.038 479.497 315.542C472.693 325.273 468.512 335.311 468.45 345.8C495.217 352.13 536.084 362.414 532.026 363.561C526.144 365.241 500.894 351.781 508.477 360.201C516.04 368.6 556.416 407.278 544.651 403.918C532.867 400.558 506.797 372.8 513.519 386.259C520.242 399.719 538.749 421.577 532.867 421.577C526.985 421.577 495.852 390.459 506.797 408.958C517.741 427.456 567.36 456.874 551.374 461.094C542.151 463.512 522.578 462.877 511.203 464.802C518.91 468.08 528.276 470.313 538.974 470.723C568.364 471.808 593.737 461.299 593.737 451.138C593.737 440.977 573.058 386.956 573.058 375.729C573.058 364.503 574.861 329.329 565.085 297.781H565.106Z" fill="black"/>
<path d="M497.636 279.302C497.636 279.302 489.663 301.058 479.497 315.562C469.332 330.066 464.987 345.287 471.525 361.615C478.063 377.922 492.204 381.548 492.204 381.548C492.204 381.548 487.122 429.403 488.577 442.104C490.032 454.785 509.605 469.657 538.995 470.743C568.385 471.829 593.758 461.32 593.758 451.159C593.758 440.998 573.078 386.976 573.078 375.75C573.078 364.524 574.882 329.349 565.106 297.801C555.309 266.253 520.857 256.112 497.636 279.302V279.302Z" stroke="#263238" stroke-linecap="round" stroke-linejoin="round"/>
<path d="M502.083 367.269C502.083 367.269 528.727 410.289 567.667 422.581" stroke="#263238" stroke-linecap="round" stroke-linejoin="round"/>
<path d="M499.009 374.439C499.009 374.439 509.256 408.241 535.9 424.629" stroke="#263238" stroke-linecap="round" stroke-linejoin="round"/>
<path d="M504.522 347.356C504.522 347.356 528.604 336.868 538.462 330.087" stroke="#263238" stroke-linecap="round" stroke-linejoin="round"/>
<path d="M494.643 349.835C494.643 349.835 503.292 351.679 525.509 349.835" stroke="#263238" stroke-linecap="round" stroke-linejoin="round"/>
<path d="M495.463 284.731C495.463 284.731 488.577 288.726 480.235 297.412C471.894 306.098 431.621 367.023 431.621 367.023C431.621 367.023 443.59 392.036 447.218 392.774C450.845 393.491 513.95 339.469 519.771 332.955C525.571 326.42 529.198 314.456 527.395 309.396" fill="#14CC97"/>
<path opacity="0.2" d="M519.75 332.955C525.55 326.42 529.178 314.456 527.374 309.396L513.048 298.334L508.478 303.066C508.478 303.066 508.15 321.626 491.651 331.644C475.152 341.661 468.102 341.743 465.581 354.342C463.06 366.962 471.463 370.321 461.38 372.001C451.296 373.681 444.553 374.521 444.553 381.24C444.553 383.227 444.779 387.017 445.312 391.217C446.07 392.098 446.726 392.671 447.218 392.774C450.845 393.491 513.95 339.469 519.77 332.955H519.75Z" fill="black"/>
<path d="M495.463 284.731C495.463 284.731 488.577 288.726 480.235 297.412C471.894 306.098 431.621 367.023 431.621 367.023C431.621 367.023 443.59 392.036 447.218 392.774C450.845 393.491 513.95 339.469 519.771 332.955C525.571 326.42 529.198 314.456 527.395 309.396" stroke="#263238" stroke-linecap="round" stroke-linejoin="round"/>
<path d="M417.828 370.669C417.828 370.669 429.079 397.506 431.621 400.395C434.162 403.304 447.587 401.48 451.932 398.223C456.276 394.966 455.559 388.431 455.559 388.431C455.559 388.431 438.876 359.054 437.052 357.62C435.248 356.165 434.511 359.423 426.886 361.963C419.262 364.503 416.372 365.589 417.828 370.669Z" fill="white" stroke="#263238" stroke-linecap="round" stroke-linejoin="round"/>
<path d="M435.966 210.777C435.966 210.777 435.249 221.286 437.052 224.564C438.856 227.821 443.939 231.099 443.939 235.442C443.939 239.785 440.311 245.603 441.397 248.86C442.483 252.117 448.284 252.486 448.284 252.486C448.284 252.486 459.167 265.904 462.425 270.616C465.684 275.328 467.139 273.525 472.222 272.071C477.305 270.616 488.188 261.193 494.357 253.941C500.526 246.689 490.36 224.564 476.956 209.712C463.552 194.859 443.59 195.208 439.225 199.551C434.88 203.894 435.966 210.797 435.966 210.797V210.777Z" fill="white"/>
<path d="M464.721 200.616C463.04 208.892 461.36 222.905 466.401 232.431C473.964 246.73 479.867 254.289 475.645 266.068C474.886 268.158 474.128 270.002 473.349 271.641C478.781 269.305 488.598 260.681 494.336 253.92C500.505 246.668 490.34 224.543 476.936 209.691C473.206 205.553 468.963 202.644 464.7 200.616H464.721Z" fill="#C6FF00"/>
<path opacity="0.5" d="M464.721 200.616C463.04 208.892 461.36 222.905 466.401 232.431C473.964 246.73 479.867 254.289 475.645 266.068C474.886 268.158 474.128 270.002 473.349 271.641C478.781 269.305 488.598 260.681 494.336 253.92C500.505 246.668 490.34 224.543 476.936 209.691C473.206 205.553 468.963 202.644 464.7 200.616H464.721Z" fill="#14CC97"/>
<path d="M443.959 226.367C443.959 226.367 443.959 220.938 450.497 224.564" stroke="#263238" stroke-linecap="round" stroke-linejoin="round"/>
<path d="M448.591 231.427L449.452 236.425C449.452 236.425 453.428 237.798 456.359 232.635" stroke="#263238" stroke-linecap="round" stroke-linejoin="round"/>
<path d="M435.966 210.777C435.966 210.777 435.249 221.286 437.052 224.564C438.856 227.821 443.939 231.099 443.939 235.442C443.939 239.785 440.311 245.603 441.397 248.86C442.483 252.117 448.284 252.486 448.284 252.486C448.284 252.486 459.167 265.904 462.425 270.616C465.684 275.328 467.139 273.525 472.222 272.071C477.305 270.616 488.188 261.193 494.357 253.941C500.526 246.689 490.36 224.564 476.956 209.712C463.552 194.859 443.59 195.208 439.225 199.551C434.88 203.894 435.966 210.797 435.966 210.797V210.777Z" stroke="#263238" stroke-linecap="round" stroke-linejoin="round"/>
<path d="M424.734 194.818L424.673 196.273L423.997 214.034L443.59 216.574L447.935 208.954V217.291C447.935 217.291 456.276 216.206 465.704 219.832C475.132 223.458 487.101 249.208 486.384 259.718C485.667 270.227 476.587 272.399 477.673 288.357C478.76 304.316 503.067 320.254 521.554 310.113C540.04 299.973 542.951 286.903 550.575 289.443C558.199 291.983 569.799 307.573 577.054 285.448C584.31 263.323 581.051 249.188 563.999 231.058C546.947 212.928 533.523 214.382 531.35 199.878C529.178 185.374 524.464 165.79 508.867 154.912C493.27 144.034 470.787 143.317 451.563 151.655C432.338 159.992 424.714 185.374 424.714 194.798L424.734 194.818Z" fill="#263238"/>
<path d="M435.638 203.156C435.515 203.156 435.372 203.156 435.249 203.115C433.158 202.644 432.851 199.018 432.666 190.189C432.605 187.915 432.564 185.538 432.42 183.674C432.42 183.49 432.379 183.326 432.359 183.203C430.637 185.292 426.928 193.958 424.14 201.702L422.214 201.005C429.633 180.355 432.051 180.663 432.83 180.765C434.244 180.949 434.388 182.814 434.449 183.51C434.593 185.456 434.654 187.833 434.695 190.148C434.777 193.794 434.9 199.755 435.679 201.026C435.986 200.8 436.704 200.022 437.974 197.482C440.106 193.22 441.991 191.254 443.959 191.356C446.398 191.459 447.648 194.675 448.57 197.031C448.837 197.727 449.124 198.465 449.329 198.752C450.231 198.997 453.428 195.72 455.149 193.978C455.662 193.466 456.154 192.934 456.646 192.462C457.424 191.684 458.429 190.844 459.556 191.008C460.683 191.172 461.257 192.237 461.851 193.364C462.405 194.409 463.019 195.576 464.147 196.478C464.803 196.99 465.13 196.908 465.274 196.887C466.75 196.539 468.533 192.565 470.603 187.956C471.095 186.89 471.586 185.743 472.14 184.555C472.816 183.08 473.738 181.38 475.255 181.523C477.182 181.666 478.042 184.657 479.354 189.185C480.42 192.872 481.65 197.072 483.433 199.366C483.884 199.94 484.539 200.616 485.113 200.534C486.712 200.288 488.474 195.556 489.54 192.708C490.196 190.967 490.749 189.472 491.303 188.55C491.877 187.587 492.615 187.402 493.045 187.423C494.562 187.464 495.586 189.492 497.021 192.258C498.087 194.347 499.542 197.195 500.751 197.666C500.997 197.768 501.079 197.707 501.14 197.686C501.94 197.277 502.616 194.654 503.19 192.524C503.825 190.066 504.502 187.525 505.69 185.743C506.408 184.657 507.351 184.022 508.478 183.838C511.163 183.408 514.134 185.723 516.143 187.28C516.04 186.235 515.815 184.801 515.631 183.551C514.606 176.75 514.298 173.431 516.02 172.509C516.819 172.079 517.762 172.325 518.828 173.267C520.242 174.517 522.107 176.586 524.075 178.778C527.825 182.977 533.523 189.349 535.818 188.734C536.454 188.57 536.802 187.587 536.966 186.788L538.975 187.218C538.544 189.185 537.663 190.352 536.351 190.701C533.051 191.561 528.563 186.87 522.558 180.13C520.631 177.979 518.828 175.951 517.496 174.783C517.27 174.599 517.106 174.476 517.004 174.414C516.553 175.705 517.311 180.745 517.68 183.223C518.418 188.037 518.561 189.328 517.619 189.922C517.209 190.189 516.696 190.168 516.245 189.861C515.897 189.635 515.446 189.287 514.954 188.898C513.335 187.648 510.65 185.559 508.847 185.845C508.273 185.948 507.822 186.255 507.433 186.87C506.428 188.365 505.813 190.742 505.219 193.036C504.42 196.068 503.743 198.69 502.124 199.51C501.694 199.735 500.956 199.919 500.054 199.551C498.128 198.772 496.673 195.925 495.258 193.159C494.623 191.909 493.68 190.086 493.127 189.553C492.655 190.332 492.102 191.827 491.528 193.384C490.012 197.461 488.29 202.091 485.482 202.521C484.232 202.705 483.002 202.07 481.875 200.595C479.826 197.973 478.555 193.589 477.428 189.717C476.731 187.3 475.767 184.002 475.091 183.531C475.091 183.613 474.681 183.961 474.046 185.374C473.493 186.563 473.001 187.689 472.509 188.755C469.947 194.47 468.246 198.239 465.786 198.834C464.823 199.059 463.86 198.793 462.897 198.035C461.421 196.867 460.642 195.371 460.068 194.265C459.802 193.774 459.433 193.077 459.248 192.975C459.248 192.975 458.941 193.057 458.121 193.876C457.629 194.347 457.137 194.859 456.646 195.371C453.243 198.854 451.071 200.944 449.206 200.8C448.57 200.739 448.038 200.411 447.669 199.858C447.361 199.387 447.074 198.67 446.726 197.748C446.131 196.232 445.045 193.425 443.938 193.384C443.611 193.323 442.237 193.692 439.88 198.383C438.22 201.722 436.97 203.156 435.699 203.156H435.638Z" fill="#575757"/>
<path d="M476.403 285.468C476.403 285.468 481.486 266.56 486.548 272.542C491.631 278.544 495.32 280.388 495.771 275.307C496.242 270.227 495.771 262.852 500.854 269.776C505.936 276.701 518.397 283.625 519.32 273.013C520.242 262.401 521.636 248.102 527.62 255.477C533.625 262.852 538.688 268.404 539.159 264.245C539.63 260.086 543.77 256.87 545.615 261.48C547.46 266.089 548.853 270.698 550.226 260.086C551.62 249.475 545.144 237.941 552.071 240.707C558.998 243.472 562.216 252.691 562.216 247.631C562.216 242.571 553.916 236.569 561.294 238.412C568.672 240.256 569.594 244.865 570.517 242.1C571.439 239.334 566.356 232.881 572.833 232.881" stroke="#575757" stroke-miterlimit="10"/>
<path d="M424.734 194.818L424.673 196.273L423.997 214.034L443.59 216.574L447.935 208.954V217.291C447.935 217.291 456.276 216.206 465.704 219.832C475.132 223.458 487.101 249.208 486.384 259.718C485.667 270.227 476.587 272.399 477.673 288.357C478.76 304.316 503.067 320.254 521.554 310.113C540.04 299.973 542.951 286.903 550.575 289.443C558.199 291.983 569.799 307.573 577.054 285.448C584.31 263.323 581.051 249.188 563.999 231.058C546.947 212.928 533.523 214.382 531.35 199.878C529.178 185.374 524.464 165.79 508.867 154.912C493.27 144.034 470.787 143.317 451.563 151.655C432.338 159.992 424.714 185.374 424.714 194.798L424.734 194.818Z" stroke="#263238" stroke-linecap="round" stroke-linejoin="round"/>
</g>
<defs>
<clipPath id="clip0_1662_2683">
<rect width="750" height="742" fill="white" transform="translate(0.875)"/>
</clipPath>
</defs>
</svg>
