<svg width="114" height="114" viewBox="0 0 114 114" fill="none" xmlns="http://www.w3.org/2000/svg">
<rect width="97.7297" height="97.7297" rx="13.9255" transform="matrix(1 0 0 -1 0.875 97.7297)" fill="url(#paint0_linear_1793_3183)"/>
<g filter="url(#filter0_b_1793_3183)">
<rect width="97.7297" height="97.7297" rx="13.9255" transform="matrix(1 0 0 -1 16.1445 113.003)" fill="#EEEEEE" fill-opacity="0.61"/>
<rect x="0.464183" y="-0.464183" width="96.8014" height="96.8014" rx="13.4613" transform="matrix(1 0 0 -1 16.1445 112.075)" stroke="white" stroke-width="0.928367"/>
</g>
<path d="M100.61 38.4368H92.9472C92.4391 38.4368 91.9519 38.6386 91.5926 38.9979C91.2334 39.3571 91.0315 39.8444 91.0315 40.3524V42.2681H77.6219V40.3524C77.6219 39.8444 77.4201 39.3571 77.0608 38.9979C76.7016 38.6386 76.2143 38.4368 75.7063 38.4368H68.0436C67.5355 38.4368 67.0483 38.6386 66.689 38.9979C66.3298 39.3571 66.128 39.8444 66.128 40.3524V42.2681H52.7183V40.3524C52.7183 39.8444 52.5165 39.3571 52.1572 38.9979C51.798 38.6386 51.3107 38.4368 50.8027 38.4368H43.14C42.632 38.4368 42.1447 38.6386 41.7854 38.9979C41.4262 39.3571 41.2244 39.8444 41.2244 40.3524V48.0151C41.2244 48.5231 41.4262 49.0104 41.7854 49.3696C42.1447 49.7289 42.632 49.9307 43.14 49.9307H50.8027C51.3107 49.9307 51.798 49.7289 52.1572 49.3696C52.5165 49.0104 52.7183 48.5231 52.7183 48.0151V46.0994H66.128V48.0151C66.128 48.5231 66.3298 49.0104 66.689 49.3696C67.0483 49.7289 67.5355 49.9307 68.0436 49.9307H75.7063C76.2143 49.9307 76.7016 49.7289 77.0608 49.3696C77.4201 49.0104 77.6219 48.5231 77.6219 48.0151V46.6741C83.0241 48.0151 92.2192 52.8234 92.9472 69.0873H91.0315C90.5235 69.0873 90.0362 69.2892 89.677 69.6484C89.3177 70.0077 89.1159 70.4949 89.1159 71.003V78.6656C89.1159 79.1737 89.3177 79.661 89.677 80.0202C90.0362 80.3795 90.5235 80.5813 91.0315 80.5813H98.6942C99.2022 80.5813 99.6895 80.3795 100.049 80.0202C100.408 79.661 100.61 79.1737 100.61 78.6656V71.003C100.61 70.4949 100.408 70.0077 100.049 69.6484C99.6895 69.2892 99.2022 69.0873 98.6942 69.0873H96.7785C96.2996 56.2907 91.0315 49.5859 85.5911 46.0994H91.0315V48.0151C91.0315 48.5231 91.2334 49.0104 91.5926 49.3696C91.9519 49.7289 92.4391 49.9307 92.9472 49.9307H100.61C101.118 49.9307 101.605 49.7289 101.964 49.3696C102.324 49.0104 102.526 48.5231 102.526 48.0151V40.3524C102.526 39.8444 102.324 39.3571 101.964 38.9979C101.605 38.6386 101.118 38.4368 100.61 38.4368ZM48.887 46.0994H45.0557V42.2681H48.887V46.0994ZM73.7906 46.0994H69.9593V42.2681H73.7906V46.0994ZM92.9472 72.9187H96.7785V76.75H92.9472V72.9187ZM98.6942 46.0994H94.8629V42.2681H98.6942V46.0994Z" fill="#DA3D38"/>
<path d="M60.1701 52.9012C60.0112 52.5825 59.7666 52.3143 59.4638 52.1268C59.1609 51.9394 58.8118 51.8401 58.4556 51.8401C58.0994 51.8401 57.7503 51.9394 57.4474 52.1268C57.1446 52.3143 56.9 52.5825 56.7411 52.9012L45.2471 75.8892C45.0699 76.2483 45.0097 76.654 45.0749 77.0492C45.1402 77.4443 45.3277 77.8091 45.6111 78.0922L48.2164 80.6975C47.8497 80.8345 47.5338 81.0805 47.3112 81.4024C47.0886 81.7244 46.9699 82.1068 46.9712 82.4982V86.3295C46.9712 86.8376 47.173 87.3248 47.5323 87.6841C47.8915 88.0433 48.3788 88.2452 48.8869 88.2452H50.8025V93.9922H54.6338V88.2452H62.2965V93.9922H66.1278V88.2452H68.0435C68.5515 88.2452 69.0388 88.0433 69.398 87.6841C69.7573 87.3248 69.9591 86.8376 69.9591 86.3295V82.4982C69.9551 82.1078 69.8318 81.7279 69.6058 81.4095C69.3798 81.0911 69.062 80.8494 68.6948 80.7166L71.3001 78.1113C71.5834 77.8283 71.771 77.4635 71.8362 77.0683C71.9015 76.6732 71.8413 76.2675 71.6641 75.9083L60.1701 52.9012ZM63.4267 80.5825H53.5036L49.2892 76.3681L56.5495 61.8857V72.9199H60.3808V61.8857L67.622 76.3872L63.4267 80.5825Z" fill="#DA3D38"/>
<defs>
<filter id="filter0_b_1793_3183" x="8.7176" y="7.8465" width="112.584" height="112.584" filterUnits="userSpaceOnUse" color-interpolation-filters="sRGB">
<feFlood flood-opacity="0" result="BackgroundImageFix"/>
<feGaussianBlur in="BackgroundImageFix" stdDeviation="3.71347"/>
<feComposite in2="SourceAlpha" operator="in" result="effect1_backgroundBlur_1793_3183"/>
<feBlend mode="normal" in="SourceGraphic" in2="effect1_backgroundBlur_1793_3183" result="shape"/>
</filter>
<linearGradient id="paint0_linear_1793_3183" x1="48.8649" y1="0" x2="48.8649" y2="97.7297" gradientUnits="userSpaceOnUse">
<stop stop-color="#FA6488"/>
<stop offset="1" stop-color="#FFD1CF"/>
</linearGradient>
</defs>
</svg>
