<svg width="114" height="114" viewBox="0 0 114 114" fill="none" xmlns="http://www.w3.org/2000/svg">
<rect width="97.7297" height="97.7297" rx="13.9255" transform="matrix(1 0 0 -1 0.875 97.7336)" fill="url(#paint0_linear_1793_3166)"/>
<g filter="url(#filter0_b_1793_3166)">
<rect width="97.7297" height="97.7297" rx="13.9255" transform="matrix(1 0 0 -1 16.1445 113.007)" fill="#EEEEEE" fill-opacity="0.61"/>
<rect x="0.464183" y="-0.464183" width="96.8014" height="96.8014" rx="13.4613" transform="matrix(1 0 0 -1 16.1445 112.079)" stroke="white" stroke-width="0.928367"/>
</g>
<path d="M73.0326 50.0721V36.3081C73.0326 35.5928 72.7132 34.9528 72.21 34.5311C72.0988 34.4407 71.9803 34.3579 71.855 34.2826C71.5356 34.1094 71.1651 34.004 70.7723 34.004H39.136C37.891 34.004 36.8757 35.0356 36.8757 36.3081V93.7058C36.8757 94.9776 37.891 96.0024 39.136 96.0024H70.7723C72.0247 96.0024 73.0333 94.9783 73.0333 93.7058V76.8246H69.8319V84.8059H40.0772V37.7387H69.8312V50.0721H73.0326ZM54.9505 86.8163C56.7513 86.8163 58.2038 88.2996 58.2038 90.1225C58.2038 91.9447 56.7513 93.4205 54.9505 93.4205C53.1571 93.4205 51.7046 91.9447 51.7046 90.1225C51.7046 88.2996 53.1571 86.8163 54.9505 86.8163Z" fill="#4340CE"/>
<path d="M61.5903 61.268V71.5157C61.5903 72.411 60.8789 73.1413 59.997 73.1413H49.911C49.0291 73.1413 48.3103 72.411 48.3103 71.5157V61.268C48.3103 60.372 49.0291 59.6416 49.911 59.6416H59.997C60.8789 59.6416 61.5903 60.372 61.5903 61.268Z" fill="#4340CE"/>
<path d="M98.8752 44.8467V58.3095C98.8752 59.4917 97.9333 60.4479 96.778 60.4479H89.8786V54.4318C89.8786 52.0299 87.9518 50.0722 85.5878 50.0722H81.4304V44.8467C81.4304 43.6721 82.3716 42.7158 83.5277 42.7158H96.778C97.9341 42.7158 98.8752 43.6721 98.8752 44.8467Z" fill="#4340CE"/>
<path d="M88.3953 54.4293V68.359H83.3486C81.6515 68.359 80.2731 69.767 80.2731 71.4913V75.3163H67.838C66.2817 75.3163 65.0293 74.0438 65.0293 72.4626V54.4293C65.0293 52.8556 66.2817 51.5756 67.838 51.5756H85.5866C87.1354 51.5756 88.3953 52.8556 88.3953 54.4293Z" fill="#4340CE"/>
<path d="M95.0275 71.4936V81.7413C95.0275 82.6373 94.316 83.3677 93.4342 83.3677H83.3482C82.4663 83.3677 81.7549 82.6373 81.7549 81.7413V71.4936C81.7549 70.5976 82.4663 69.8672 83.3482 69.8672H93.4342C94.316 69.8672 95.0275 70.5976 95.0275 71.4936Z" fill="#4340CE"/>
<defs>
<filter id="filter0_b_1793_3166" x="8.7176" y="7.85041" width="112.584" height="112.584" filterUnits="userSpaceOnUse" color-interpolation-filters="sRGB">
<feFlood flood-opacity="0" result="BackgroundImageFix"/>
<feGaussianBlur in="BackgroundImageFix" stdDeviation="3.71347"/>
<feComposite in2="SourceAlpha" operator="in" result="effect1_backgroundBlur_1793_3166"/>
<feBlend mode="normal" in="SourceGraphic" in2="effect1_backgroundBlur_1793_3166" result="shape"/>
</filter>
<linearGradient id="paint0_linear_1793_3166" x1="48.8649" y1="0" x2="48.8649" y2="97.7297" gradientUnits="userSpaceOnUse">
<stop stop-color="#807DFF"/>
<stop offset="1" stop-color="#BAB9FF" stop-opacity="0.34"/>
</linearGradient>
</defs>
</svg>
