<svg width="474" height="131" viewBox="0 0 474 131" fill="none" xmlns="http://www.w3.org/2000/svg">
<path d="M11.135 6.476V32.516C11.135 35.12 11.7757 37.1247 13.057 38.53C14.3383 39.9353 16.219 40.638 18.699 40.638C21.179 40.638 23.0803 39.9353 24.403 38.53C25.7257 37.1247 26.387 35.12 26.387 32.516V6.476H36.989V32.454C36.989 36.3393 36.1623 39.6253 34.509 42.312C32.8557 44.9987 30.6237 47.024 27.813 48.388C25.0437 49.752 21.9437 50.434 18.513 50.434C15.0823 50.434 12.003 49.7727 9.275 48.45C6.58833 47.086 4.45967 45.0607 2.889 42.374C1.31833 39.646 0.533 36.3393 0.533 32.454V6.476H11.135ZM65.5138 15.032C69.5645 15.032 72.7885 16.3547 75.1858 19C77.6245 21.604 78.8438 25.2 78.8438 29.788V50H68.3038V31.214C68.3038 28.8993 67.7045 27.1013 66.5058 25.82C65.3072 24.5387 63.6952 23.898 61.6698 23.898C59.6445 23.898 58.0325 24.5387 56.8338 25.82C55.6352 27.1013 55.0358 28.8993 55.0358 31.214V50H44.4338V15.404H55.0358V19.992C56.1105 18.4627 57.5572 17.264 59.3758 16.396C61.1945 15.4867 63.2405 15.032 65.5138 15.032ZM84.1032 32.64C84.1032 29.0853 84.7645 25.9647 86.0872 23.278C87.4512 20.5913 89.2905 18.5247 91.6052 17.078C93.9199 15.6313 96.5032 14.908 99.3552 14.908C101.629 14.908 103.695 15.3833 105.555 16.334C107.457 17.2847 108.945 18.566 110.019 20.178V4.12H120.621V50H110.019V45.04C109.027 46.6933 107.601 48.016 105.741 49.008C103.923 50 101.794 50.496 99.3552 50.496C96.5032 50.496 93.9199 49.7727 91.6052 48.326C89.2905 46.838 87.4512 44.7507 86.0872 42.064C84.7645 39.336 84.1032 36.1947 84.1032 32.64ZM110.019 32.702C110.019 30.0567 109.275 27.9693 107.787 26.44C106.341 24.9107 104.563 24.146 102.455 24.146C100.347 24.146 98.5492 24.9107 97.0612 26.44C95.6145 27.928 94.8912 29.9947 94.8912 32.64C94.8912 35.2853 95.6145 37.3933 97.0612 38.964C98.5492 40.4933 100.347 41.258 102.455 41.258C104.563 41.258 106.341 40.4933 107.787 38.964C109.275 37.4347 110.019 35.3473 110.019 32.702ZM160.903 32.144C160.903 33.136 160.841 34.1693 160.717 35.244H136.723C136.889 37.3933 137.571 39.0467 138.769 40.204C140.009 41.32 141.518 41.878 143.295 41.878C145.941 41.878 147.78 40.762 148.813 38.53H160.097C159.519 40.8033 158.465 42.8493 156.935 44.668C155.447 46.4867 153.567 47.9127 151.293 48.946C149.02 49.9793 146.478 50.496 143.667 50.496C140.278 50.496 137.261 49.7727 134.615 48.326C131.97 46.8793 129.903 44.8127 128.415 42.126C126.927 39.4393 126.183 36.298 126.183 32.702C126.183 29.106 126.907 25.9647 128.353 23.278C129.841 20.5913 131.908 18.5247 134.553 17.078C137.199 15.6313 140.237 14.908 143.667 14.908C147.015 14.908 149.991 15.6107 152.595 17.016C155.199 18.4213 157.225 20.426 158.671 23.03C160.159 25.634 160.903 28.672 160.903 32.144ZM150.053 29.354C150.053 27.5353 149.433 26.0887 148.193 25.014C146.953 23.9393 145.403 23.402 143.543 23.402C141.766 23.402 140.257 23.9187 139.017 24.952C137.819 25.9853 137.075 27.4527 136.785 29.354H150.053ZM177.098 21.17C178.338 19.2687 179.888 17.7807 181.748 16.706C183.608 15.59 185.675 15.032 187.948 15.032V26.254H185.034C182.389 26.254 180.405 26.8327 179.082 27.99C177.76 29.106 177.098 31.09 177.098 33.942V50H166.496V15.404H177.098V21.17ZM207.09 50.496C204.073 50.496 201.386 49.9793 199.03 48.946C196.674 47.9127 194.814 46.5073 193.45 44.73C192.086 42.9113 191.321 40.886 191.156 38.654H201.634C201.758 39.8527 202.316 40.824 203.308 41.568C204.3 42.312 205.519 42.684 206.966 42.684C208.289 42.684 209.301 42.436 210.004 41.94C210.748 41.4027 211.12 40.7207 211.12 39.894C211.12 38.902 210.603 38.1787 209.57 37.724C208.537 37.228 206.863 36.6907 204.548 36.112C202.068 35.5333 200.001 34.934 198.348 34.314C196.695 33.6527 195.269 32.64 194.07 31.276C192.871 29.8707 192.272 27.99 192.272 25.634C192.272 23.65 192.809 21.852 193.884 20.24C195 18.5867 196.612 17.2847 198.72 16.334C200.869 15.3833 203.411 14.908 206.346 14.908C210.686 14.908 214.096 15.9827 216.576 18.132C219.097 20.2813 220.544 23.1333 220.916 26.688H211.12C210.955 25.4893 210.417 24.5387 209.508 23.836C208.64 23.1333 207.483 22.782 206.036 22.782C204.796 22.782 203.845 23.03 203.184 23.526C202.523 23.9807 202.192 24.6213 202.192 25.448C202.192 26.44 202.709 27.184 203.742 27.68C204.817 28.176 206.47 28.672 208.702 29.168C211.265 29.8293 213.352 30.4907 214.964 31.152C216.576 31.772 217.981 32.8053 219.18 34.252C220.42 35.6573 221.061 37.5587 221.102 39.956C221.102 41.9813 220.523 43.8 219.366 45.412C218.25 46.9827 216.617 48.2227 214.468 49.132C212.36 50.0413 209.901 50.496 207.09 50.496ZM246.87 41.01V50H241.476C237.632 50 234.635 49.07 232.486 47.21C230.337 45.3087 229.262 42.2293 229.262 37.972V24.208H225.046V15.404H229.262V6.972H239.864V15.404H246.808V24.208H239.864V38.096C239.864 39.1293 240.112 39.8733 240.608 40.328C241.104 40.7827 241.931 41.01 243.088 41.01H246.87ZM250.668 32.64C250.668 29.0853 251.329 25.9647 252.652 23.278C254.016 20.5913 255.855 18.5247 258.17 17.078C260.484 15.6313 263.068 14.908 265.92 14.908C268.358 14.908 270.487 15.404 272.306 16.396C274.166 17.388 275.592 18.69 276.584 20.302V15.404H287.186V50H276.584V45.102C275.55 46.714 274.104 48.016 272.244 49.008C270.425 50 268.296 50.496 265.858 50.496C263.047 50.496 260.484 49.7727 258.17 48.326C255.855 46.838 254.016 44.7507 252.652 42.064C251.329 39.336 250.668 36.1947 250.668 32.64ZM276.584 32.702C276.584 30.0567 275.84 27.9693 274.352 26.44C272.905 24.9107 271.128 24.146 269.02 24.146C266.912 24.146 265.114 24.9107 263.626 26.44C262.179 27.928 261.456 29.9947 261.456 32.64C261.456 35.2853 262.179 37.3933 263.626 38.964C265.114 40.4933 266.912 41.258 269.02 41.258C271.128 41.258 272.905 40.4933 274.352 38.964C275.84 37.4347 276.584 35.3473 276.584 32.702ZM315.936 15.032C319.986 15.032 323.21 16.3547 325.608 19C328.046 21.604 329.266 25.2 329.266 29.788V50H318.726V31.214C318.726 28.8993 318.126 27.1013 316.928 25.82C315.729 24.5387 314.117 23.898 312.092 23.898C310.066 23.898 308.454 24.5387 307.256 25.82C306.057 27.1013 305.458 28.8993 305.458 31.214V50H294.856V15.404H305.458V19.992C306.532 18.4627 307.979 17.264 309.798 16.396C311.616 15.4867 313.662 15.032 315.936 15.032ZM334.525 32.64C334.525 29.0853 335.186 25.9647 336.509 23.278C337.873 20.5913 339.712 18.5247 342.027 17.078C344.342 15.6313 346.925 14.908 349.777 14.908C352.05 14.908 354.117 15.3833 355.977 16.334C357.878 17.2847 359.366 18.566 360.441 20.178V4.12H371.043V50H360.441V45.04C359.449 46.6933 358.023 48.016 356.163 49.008C354.344 50 352.216 50.496 349.777 50.496C346.925 50.496 344.342 49.7727 342.027 48.326C339.712 46.838 337.873 44.7507 336.509 42.064C335.186 39.336 334.525 36.1947 334.525 32.64ZM360.441 32.702C360.441 30.0567 359.697 27.9693 358.209 26.44C356.762 24.9107 354.985 24.146 352.877 24.146C350.769 24.146 348.971 24.9107 347.483 26.44C346.036 27.928 345.313 29.9947 345.313 32.64C345.313 35.2853 346.036 37.3933 347.483 38.964C348.971 40.4933 350.769 41.258 352.877 41.258C354.985 41.258 356.762 40.4933 358.209 38.964C359.697 37.4347 360.441 35.3473 360.441 32.702ZM384.045 11.808C382.185 11.808 380.656 11.2707 379.457 10.196C378.3 9.08 377.721 7.716 377.721 6.104C377.721 4.45067 378.3 3.08666 379.457 2.012C380.656 0.895997 382.185 0.337996 384.045 0.337996C385.864 0.337996 387.352 0.895997 388.509 2.012C389.708 3.08666 390.307 4.45067 390.307 6.104C390.307 7.716 389.708 9.08 388.509 10.196C387.352 11.2707 385.864 11.808 384.045 11.808ZM389.315 15.404V50H378.713V15.404H389.315ZM418.078 15.032C422.129 15.032 425.353 16.3547 427.75 19C430.189 21.604 431.408 25.2 431.408 29.788V50H420.868V31.214C420.868 28.8993 420.269 27.1013 419.07 25.82C417.872 24.5387 416.26 23.898 414.234 23.898C412.209 23.898 410.597 24.5387 409.398 25.82C408.2 27.1013 407.6 28.8993 407.6 31.214V50H396.998V15.404H407.6V19.992C408.675 18.4627 410.122 17.264 411.94 16.396C413.759 15.4867 415.805 15.032 418.078 15.032ZM451.92 14.908C454.358 14.908 456.487 15.404 458.306 16.396C460.166 17.388 461.592 18.69 462.584 20.302V15.404H473.186V49.938C473.186 53.1207 472.545 55.9933 471.264 58.556C470.024 61.16 468.102 63.2267 465.498 64.756C462.935 66.2853 459.732 67.05 455.888 67.05C450.762 67.05 446.608 65.8307 443.426 63.392C440.243 60.9947 438.424 57.7293 437.97 53.596H448.448C448.778 54.9187 449.564 55.952 450.804 56.696C452.044 57.4813 453.573 57.874 455.392 57.874C457.582 57.874 459.318 57.2333 460.6 55.952C461.922 54.712 462.584 52.7073 462.584 49.938V45.04C461.55 46.652 460.124 47.9747 458.306 49.008C456.487 50 454.358 50.496 451.92 50.496C449.068 50.496 446.484 49.7727 444.17 48.326C441.855 46.838 440.016 44.7507 438.652 42.064C437.329 39.336 436.668 36.1947 436.668 32.64C436.668 29.0853 437.329 25.9647 438.652 23.278C440.016 20.5913 441.855 18.5247 444.17 17.078C446.484 15.6313 449.068 14.908 451.92 14.908ZM462.584 32.702C462.584 30.0567 461.84 27.9693 460.352 26.44C458.905 24.9107 457.128 24.146 455.02 24.146C452.912 24.146 451.114 24.9107 449.626 26.44C448.179 27.928 447.456 29.9947 447.456 32.64C447.456 35.2853 448.179 37.3933 449.626 38.964C451.114 40.4933 452.912 41.258 455.02 41.258C457.128 41.258 458.905 40.4933 460.352 38.964C461.84 37.4347 462.584 35.3473 462.584 32.702ZM27.069 107.68C29.5903 108.217 31.6157 109.478 33.145 111.462C34.6743 113.405 35.439 115.637 35.439 118.158C35.439 121.795 34.1577 124.689 31.595 126.838C29.0737 128.946 25.5397 130 20.993 130H0.719V86.476H20.311C24.7337 86.476 28.185 87.4887 30.665 89.514C33.1863 91.5393 34.447 94.288 34.447 97.76C34.447 100.323 33.765 102.451 32.401 104.146C31.0783 105.841 29.301 107.019 27.069 107.68ZM11.321 104.084H18.265C20.001 104.084 21.3237 103.712 22.233 102.968C23.1837 102.183 23.659 101.046 23.659 99.558C23.659 98.07 23.1837 96.9333 22.233 96.148C21.3237 95.3627 20.001 94.97 18.265 94.97H11.321V104.084ZM19.133 121.444C20.9103 121.444 22.2743 121.051 23.225 120.266C24.217 119.439 24.713 118.261 24.713 116.732C24.713 115.203 24.1963 114.004 23.163 113.136C22.171 112.268 20.7863 111.834 19.009 111.834H11.321V121.444H19.133ZM52.1901 101.17C53.4301 99.2687 54.9801 97.7807 56.8401 96.706C58.7001 95.59 60.7668 95.032 63.0401 95.032V106.254H60.1261C57.4808 106.254 55.4968 106.833 54.1741 107.99C52.8515 109.106 52.1901 111.09 52.1901 113.942V130H41.5881V95.404H52.1901V101.17ZM73.4397 91.808C71.5797 91.808 70.0503 91.2707 68.8517 90.196C67.6943 89.08 67.1157 87.716 67.1157 86.104C67.1157 84.4507 67.6943 83.0867 68.8517 82.012C70.0503 80.896 71.5797 80.338 73.4397 80.338C75.2583 80.338 76.7463 80.896 77.9037 82.012C79.1023 83.0867 79.7017 84.4507 79.7017 86.104C79.7017 87.716 79.1023 89.08 77.9037 90.196C76.7463 91.2707 75.2583 91.808 73.4397 91.808ZM78.7097 95.404V130H68.1077V95.404H78.7097ZM119.005 112.144C119.005 113.136 118.943 114.169 118.819 115.244H94.8248C94.9902 117.393 95.6722 119.047 96.8708 120.204C98.1108 121.32 99.6195 121.878 101.397 121.878C104.042 121.878 105.881 120.762 106.915 118.53H118.199C117.62 120.803 116.566 122.849 115.037 124.668C113.549 126.487 111.668 127.913 109.395 128.946C107.121 129.979 104.579 130.496 101.769 130.496C98.3795 130.496 95.3622 129.773 92.7168 128.326C90.0715 126.879 88.0048 124.813 86.5168 122.126C85.0288 119.439 84.2848 116.298 84.2848 112.702C84.2848 109.106 85.0082 105.965 86.4548 103.278C87.9428 100.591 90.0095 98.5247 92.6548 97.078C95.3002 95.6313 98.3382 94.908 101.769 94.908C105.117 94.908 108.093 95.6107 110.697 97.016C113.301 98.4213 115.326 100.426 116.773 103.03C118.261 105.634 119.005 108.672 119.005 112.144ZM108.155 109.354C108.155 107.535 107.535 106.089 106.295 105.014C105.055 103.939 103.505 103.402 101.645 103.402C99.8675 103.402 98.3588 103.919 97.1188 104.952C95.9202 105.985 95.1762 107.453 94.8868 109.354H108.155ZM141.958 104.208H136.254V130H125.652V104.208H121.808V95.404H125.652V94.412C125.652 90.1547 126.871 86.9307 129.31 84.74C131.749 82.508 135.324 81.392 140.036 81.392C140.821 81.392 141.4 81.4127 141.772 81.454V90.444C139.747 90.32 138.321 90.6093 137.494 91.312C136.667 92.0147 136.254 93.2753 136.254 95.094V95.404H141.958V104.208Z" fill="#E0E0E0" fill-opacity="0.75"/>
</svg>
