<svg width="25" height="24" viewBox="0 0 25 24" fill="none" xmlns="http://www.w3.org/2000/svg">
<path d="M12.241 0C5.4805 0 0 5.37258 0 12C0 18.6274 5.4805 24 12.241 24C19.0016 24 24.4821 18.6274 24.4821 12C24.4821 5.37258 19.0016 0 12.241 0ZM12.241 2.45822C17.6167 2.45822 21.9745 6.73022 21.9745 12C21.9745 17.2698 17.6167 21.5418 12.241 21.5418C6.8654 21.5418 2.5076 17.2698 2.5076 12C2.5076 6.73022 6.8654 2.45822 12.241 2.45822Z" fill="#143C46"/>
<path fill-rule="evenodd" clip-rule="evenodd" d="M6.1377 7.93092L7.93322 6.09159L12.1228 10.2301L21.3664 1.09912L23.2949 2.87276L12.1893 13.8431L6.1377 7.93092Z" fill="#14CC97"/>
</svg>
